/* XPM */
static char *so_long_01744419971[] = {
/* columns rows colors chars-per-pixel */
"96 96 8 1 ",
"  c #350D01",
". c #4D1807",
"X c #602412",
"o c #722A15",
"O c #921F0D",
"+ c #8D3C24",
"@ c #E46800",
"# c #FFAA41",
/* pixels */
".....................@@@@@@OOOOOOOOOOOOOOO@@@@@@@@@@@@@@@@@@@@@@@@@@@@@@OOOOOO@@@OOOOOOOOOOOOOOO",
".....................@@@@@@OOOOOOOOOOOOOOO@@@@@@@@@@@@@@@@@@@@@@@@@@@@@@OOOOOO@@@OOOOOOOOOOOOOOO",
".....................@@@@@@OOOOOOOOOOOOOOO@@@@@@@@@@@@@@@@@@@@@@@@@@@@@@OOOOOO@@@OOOOOOOOOOOOOOO",
"........................@@@@@@@@@OOOOOO@@@@@@OOOOOOOOOOOOOOOOOOOOO@@@@@@@@@@@@@@@OOOOOOOOOOOOOOO",
"........................@@@@@@@@@OOOOOO@@@@@@OOOOOOOOOOOOOOOOOOOOO@@@@@@@@@@@@@@@OOOOOOOOOOOOOOO",
"........................@@@@@@@@@OOOOOO@@@@@@OOOOOOOOOOOOOOOOOOOOO@@@@@@@@@@@@@@@OOOOOOOOOOOOOOO",
"OOO..................OOOOOO@@@@@@@@@@@@@@@               OOOOOO      @@@@@@@@@@@@OOOOOOOOOOOOOOO",
"OOO..................OOOOOO@@@@@@@@@@@@@@@               OOOOOO      @@@@@@@@@@@@OOOOOOOOOOOOOOO",
"OOO..................OOOOOO@@@@@@@@@@@@@@@               OOOOOO      @@@@@@@@@@@@OOOOOOOOOOOOOOO",
"@@@OOO............OOO@@@@@@###@@@OOO      ++++++++++++         ++++++      @@@@@@OOOOOO@@@@@@@@@",
"@@@OOO............OOO@@@@@@###@@@OOO      ++++++++++++         ++++++      @@@@@@OOOOOO@@@@@@@@@",
"@@@OOO............OOO@@@@@@###@@@OOO      ++++++++++++         ++++++      @@@@@@OOOOOO@@@@@@@@@",
"@@@@@@OOOOOOOOO@@@@@@@@@###         +++++++++++++++++++++++++++++++++++++++   @@@@@@@@@@@@OOOOOO",
"@@@@@@OOOOOOOOO@@@@@@@@@###         +++++++++++++++++++++++++++++++++++++++   @@@@@@@@@@@@OOOOOO",
"@@@@@@OOOOOOOOO@@@@@@@@@###         +++++++++++++++++++++++++++++++++++++++   @@@@@@@@@@@@OOOOOO",
"@@@@@@@@@@@@@@@@@@@@@@@@   +++++++++++++++++++++++++++++++++++++++++++++++++++   OOOOOOOOO......",
"@@@@@@@@@@@@@@@@@@@@@@@@   +++++++++++++++++++++++++++++++++++++++++++++++++++   OOOOOOOOO......",
"@@@@@@@@@@@@@@@@@@@@@@@@   +++++++++++++++++++++++++++++++++++++++++++++++++++   OOOOOOOOO......",
"@@@@@@@@@......@@@...      ++++++++++++++++++++++++++++++++++++++++++++++++++++++   ......@@@@@@",
"@@@@@@@@@......@@@...      ++++++++++++++++++++++++++++++++++++++++++++++++++++++   ......@@@@@@",
"@@@@@@@@@......@@@...      ++++++++++++++++++++++++++++++++++++++++++++++++++++++   ......@@@@@@",
"...............      +++++++++++++++++++++++++++++++++++++++++++++++++++++++++++++++   @@@@@@...",
"...............      +++++++++++++++++++++++++++++++++++++++++++++++++++++++++++++++   @@@@@@...",
"...............      +++++++++++++++++++++++++++++++++++++++++++++++++++++++++++++++   @@@@@@...",
"............   +++++++++++++++ooo+++ooooooooooooooo++++++++++++++++++++++++++++++XXXXXX   ......",
"............   +++++++++++++++ooo+++ooooooooooooooo++++++++++++++++++++++++++++++XXXXXX   ......",
"............   +++++++++++++++ooo+++ooooooooooooooo++++++++++++++++++++++++++++++XXXXXX   ......",
".........   +++++++++++++++oooooo++++++++++++++++++oooooo++++++++++++++++++++++++++++++   ......",
".........   +++++++++++++++oooooo++++++++++++++++++oooooo++++++++++++++++++++++++++++++   ......",
".........   +++++++++++++++oooooo++++++++++++++++++oooooo++++++++++++++++++++++++++++++   ......",
"...@@@@@@   ++++++++++++++++++++++++++++++++++++++++++++++++++++++++++++++++++++++++++++++   ...",
"...@@@@@@   ++++++++++++++++++++++++++++++++++++++++++++++++++++++++++++++++++++++++++++++   ...",
"...@@@@@@   ++++++++++++++++++++++++++++++++++++++++++++++++++++++++++++++++++++++++++++++   ...",
"@@@@@@      ++++++oooooooooooo+++++++++++++++++++++++++++++++++++++++++++++++++++ooo++++++   @@@",
"@@@@@@      ++++++oooooooooooo+++++++++++++++++++++++++++++++++++++++++++++++++++ooo++++++   @@@",
"@@@@@@      ++++++oooooooooooo+++++++++++++++++++++++++++++++++++++++++++++++++++ooo++++++   @@@",
"...@@@   ++++++++++++oooXXXXXX++++++++++++++++++++++++++++++++++++++++++oooooo++++++++++++   @@@",
"...@@@   ++++++++++++oooXXXXXX++++++++++++++++++++++++++++++++++++++++++oooooo++++++++++++   @@@",
"...@@@   ++++++++++++oooXXXXXX++++++++++++++++++++++++++++++++++++++++++oooooo++++++++++++   @@@",
"@@@@@@   ++++++++++++++++++XXXXXXXXXXXX+++++++++++++++++++++++++++++++++++++++++++++++++++   ...",
"@@@@@@   ++++++++++++++++++XXXXXXXXXXXX+++++++++++++++++++++++++++++++++++++++++++++++++++   ...",
"@@@@@@   ++++++++++++++++++XXXXXXXXXXXX+++++++++++++++++++++++++++++++++++++++++++++++++++   ...",
"###   +++++++++++++++++++++++++++++++++++++++++++++++++++ooooooooo++++++++++++++++++++++++   ...",
"###   +++++++++++++++++++++++++++++++++++++++++++++++++++ooooooooo++++++++++++++++++++++++   ...",
"###   +++++++++++++++++++++++++++++++++++++++++++++++++++ooooooooo++++++++++++++++++++++++   ...",
"###   ++++++++++++++++++++++++++++++++++++++++++ooooooooooooooo+++++++++++++++++++++++++++   ...",
"###   ++++++++++++++++++++++++++++++++++++++++++ooooooooooooooo+++++++++++++++++++++++++++   ...",
"###   ++++++++++++++++++++++++++++++++++++++++++ooooooooooooooo+++++++++++++++++++++++++++   ...",
"###   ++++++ooo++++++++++++++++++++++++++++++++++++++++++++++++ooo+++oooooo+++++++++++++++   OOO",
"###   ++++++ooo++++++++++++++++++++++++++++++++++++++++++++++++ooo+++oooooo+++++++++++++++   OOO",
"###   ++++++ooo++++++++++++++++++++++++++++++++++++++++++++++++ooo+++oooooo+++++++++++++++   OOO",
"@@@###   ++++++XXXXXXXXXoooooo++++++++++++++++++++++++++++++++++++++++++++++++++++++++++++   OOO",
"@@@###   ++++++XXXXXXXXXoooooo++++++++++++++++++++++++++++++++++++++++++++++++++++++++++++   OOO",
"@@@###   ++++++XXXXXXXXXoooooo++++++++++++++++++++++++++++++++++++++++++++++++++++++++++++   OOO",
"OOO###   +++++++++++++++ooo++++++++++++++++++++++++++++++++++++++++++XXXXXXXXX+++++++++      OOO",
"OOO###   +++++++++++++++ooo++++++++++++++++++++++++++++++++++++++++++XXXXXXXXX+++++++++      OOO",
"OOO###   +++++++++++++++ooo++++++++++++++++++++++++++++++++++++++++++XXXXXXXXX+++++++++      OOO",
"...@@@   ++++++++++++++++++++++++++++++++++++++++++++++++++++++XXXXXXXXXXXXXXX+++++++++      OOO",
"...@@@   ++++++++++++++++++++++++++++++++++++++++++++++++++++++XXXXXXXXXXXXXXX+++++++++      OOO",
"...@@@   ++++++++++++++++++++++++++++++++++++++++++++++++++++++XXXXXXXXXXXXXXX+++++++++      OOO",
"...###   ++++++++++++++++++++++++++++++++++++ooooooooo+++++++++++++++++++++++++++            OOO",
"...###   ++++++++++++++++++++++++++++++++++++ooooooooo+++++++++++++++++++++++++++            OOO",
"...###   ++++++++++++++++++++++++++++++++++++ooooooooo+++++++++++++++++++++++++++            OOO",
"@@@###   +++++++++++++++++++++++++++++++++ooooooXXXXXXooo++++++++++++++++++++++++XXXXXXXXX   ###",
"@@@###   +++++++++++++++++++++++++++++++++ooooooXXXXXXooo++++++++++++++++++++++++XXXXXXXXX   ###",
"@@@###   +++++++++++++++++++++++++++++++++ooooooXXXXXXooo++++++++++++++++++++++++XXXXXXXXX   ###",
"@@@@@@      +++++++++++++++++++++++++++oooXXXXXX+++++++++++++++++++++++++++      +++XXX   ######",
"@@@@@@      +++++++++++++++++++++++++++oooXXXXXX+++++++++++++++++++++++++++      +++XXX   ######",
"@@@@@@      +++++++++++++++++++++++++++oooXXXXXX+++++++++++++++++++++++++++      +++XXX   ######",
"OOOOOO@@@            ++++++++++++++++++++++++++++++++++++++++++++++++         XXX+++   @@@@@@@@@",
"OOOOOO@@@            ++++++++++++++++++++++++++++++++++++++++++++++++         XXX+++   @@@@@@@@@",
"OOOOOO@@@            ++++++++++++++++++++++++++++++++++++++++++++++++         XXX+++   @@@@@@@@@",
"OOOOOO@@@      +++XXX      XXXXXX   +++++++++++++++++++++++++++         +++++++++   ###OOO@@@OOO",
"OOOOOO@@@      +++XXX      XXXXXX   +++++++++++++++++++++++++++         +++++++++   ###OOO@@@OOO",
"OOOOOO@@@      +++XXX      XXXXXX   +++++++++++++++++++++++++++         +++++++++   ###OOO@@@OOO",
"OOOOOOOOO###      +++XXXXXX+++XXXXXX      XXX         XXXXXX   XXXXXX+++++++++   #########@@@OOO",
"OOOOOOOOO###      +++XXXXXX+++XXXXXX      XXX         XXXXXX   XXXXXX+++++++++   #########@@@OOO",
"OOOOOOOOO###      +++XXXXXX+++XXXXXX      XXX         XXXXXX   XXXXXX+++++++++   #########@@@OOO",
"OOOOOOOOOOOO@@@@@@      XXX++++++XXXXXX+++XXXXXXXXXXXXXXX+++XXXXXXXXX++++++   ######OOO@@@OOOOOO",
"OOOOOOOOOOOO@@@@@@      XXX++++++XXXXXX+++XXXXXXXXXXXXXXX+++XXXXXXXXX++++++   ######OOO@@@OOOOOO",
"OOOOOOOOOOOO@@@@@@      XXX++++++XXXXXX+++XXXXXXXXXXXXXXX+++XXXXXXXXX++++++   ######OOO@@@OOOOOO",
"OOOOOOOOOOOOOOO@@@######                  +++XXXXXXXXXXXX+++XXXXXX         ######...OOO@@@OOOOOO",
"OOOOOOOOOOOOOOO@@@######                  +++XXXXXXXXXXXX+++XXXXXX         ######...OOO@@@OOOOOO",
"OOOOOOOOOOOOOOO@@@######                  +++XXXXXXXXXXXX+++XXXXXX         ######...OOO@@@OOOOOO",
"OOOOOOOOOOOOOOO......@@@######@@@#########                           ######@@@@@@@@@@@@@@@OOOOOO",
"OOOOOOOOOOOOOOO......@@@######@@@#########                           ######@@@@@@@@@@@@@@@OOOOOO",
"OOOOOOOOOOOOOOO......@@@######@@@#########                           ######@@@@@@@@@@@@@@@OOOOOO",
"OOOOOOOOOOOOOOO.........@@@@@@@@@@@@###########################@@@@@@@@@OOOOOO@@@OOOOOOOOOOOOOOO",
"OOOOOOOOOOOOOOO.........@@@@@@@@@@@@###########################@@@@@@@@@OOOOOO@@@OOOOOOOOOOOOOOO",
"OOOOOOOOOOOOOOO.........@@@@@@@@@@@@###########################@@@@@@@@@OOOOOO@@@OOOOOOOOOOOOOOO",
"OOOOOOOOOOOO...............@@@@@@@@@@@@######@@@@@@@@@@@@@@@OOOOOOOOOOOOOOO@@@@@@OOOOOOOOOOOOOOO",
"OOOOOOOOOOOO...............@@@@@@@@@@@@######@@@@@@@@@@@@@@@OOOOOOOOOOOOOOO@@@@@@OOOOOOOOOOOOOOO",
"OOOOOOOOOOOO...............@@@@@@@@@@@@######@@@@@@@@@@@@@@@OOOOOOOOOOOOOOO@@@@@@OOOOOOOOOOOOOOO",
"OOO..................@@@@@@@@@OOOOOOOOOOOOOOOOOOOOO@@@@@@@@@@@@OOOOOOOOOOOO@@@@@@OOOOOOOOOOOOOOO",
"OOO..................@@@@@@@@@OOOOOOOOOOOOOOOOOOOOO@@@@@@@@@@@@OOOOOOOOOOOO@@@@@@OOOOOOOOOOOOOOO",
"OOO..................@@@@@@@@@OOOOOOOOOOOOOOOOOOOOO@@@@@@@@@@@@OOOOOOOOOOOO@@@@@@OOOOOOOOOOOOOOO"
};
