/* XPM */
static char *result[] = {
/* columns rows colors chars-per-pixel */
"96 96 8 1 ",
"  c #350D01",
". c #4D1807",
"X c #602412",
"o c #722A15",
"O c #921F0D",
"+ c #8D3C24",
"@ c #E46800",
"# c #FFAA41",
/* pixels */
".....................@@@@@@OOOOOOOOOOOOOOO@@@@@@@@@@@@@@@@@@@@@@@@@@@@@@OOOOOO@@@OOOOOOOOOOOOOOO",
".....................@@@@@@OOOOOOOOOOOOOOO@@@@@@@@@@@@@@@@@@@@@@@@@@@@@@OOOOOO@@@OOOOOOOOOOOOOOO",
".....................@@@@@@OOOOOOOOOOOOOOO@@@@@@@@@@@@@@@@@@@@@@@@@@@@@@OOOOOO@@@OOOOOOOOOOOOOOO",
"........................@@@@@@@@@OOOOOO@@@@@@OOOOOOOOOOOOOOOOOOOOO@@@@@@@@@@@@@@@OOOOOOOOOOOOOOO",
"........................@@@@@@@@@OOOOOO@@@@@@OOOOOOOOOOOOOOOOOOOOO@@@@@@@@@@@@@@@OOOOOOOOOOOOOOO",
"........................@@@@@@@@@OOOOOO@@@@@@OOOOOOOOOOOOOOOOOOOOO@@@@@@@@@@@@@@@OOOOOOOOOOOOOOO",
"OOO..................OOOOOO@@@@@@@@@@@@@@@               OOOOOOOOOOOO@@@@@@@@@@@@OOOOOOOOOOOOOOO",
"OOO..................OOOOOO@@@@@@@@@@@@@@@               OOOOOOOOOOOO@@@@@@@@@@@@OOOOOOOOOOOOOOO",
"OOO..................OOOOOO@@@@@@@@@@@@@@@               OOOOOOOOOOOO@@@@@@@@@@@@OOOOOOOOOOOOOOO",
"@@@OOO............OOO@@@@@@###@@@OOO      ++++++++++++         OOOOOOOOOOOO@@@@@@OOOOOO@@@@@@@@@",
"@@@OOO............OOO@@@@@@###@@@OOO      ++++++++++++         OOOOOOOOOOOO@@@@@@OOOOOO@@@@@@@@@",
"@@@OOO............OOO@@@@@@###@@@OOO      ++++++++++++         OOOOOOOOOOOO@@@@@@OOOOOO@@@@@@@@@",
"@@@@@@OOOOOOOOO@@@@@@@@@###         ++++++++++++++++++++++++      OOOOOOOOOOOO@@@@@@@@@@@@OOOOOO",
"@@@@@@OOOOOOOOO@@@@@@@@@###         ++++++++++++++++++++++++      OOOOOOOOOOOO@@@@@@@@@@@@OOOOOO",
"@@@@@@OOOOOOOOO@@@@@@@@@###         ++++++++++++++++++++++++      OOOOOOOOOOOO@@@@@@@@@@@@OOOOOO",
"@@@@@@@@@@@@@@@@@@@@@@@@   +++++++++++++++ooo+++++++++++++++++++++   .........OOOOOOOOOOOO......",
"@@@@@@@@@@@@@@@@@@@@@@@@   +++++++++++++++ooo+++++++++++++++++++++   .........OOOOOOOOOOOO......",
"@@@@@@@@@@@@@@@@@@@@@@@@   +++++++++++++++ooo+++++++++++++++++++++   .........OOOOOOOOOOOO......",
"@@@@@@@@@......@@@@@@      ++++++ooooooooo++++++++++++++++++++++++   @@@......OOOOOO......@@@@@@",
"@@@@@@@@@......@@@@@@      ++++++ooooooooo++++++++++++++++++++++++   @@@......OOOOOO......@@@@@@",
"@@@@@@@@@......@@@@@@      ++++++ooooooooo++++++++++++++++++++++++   @@@......OOOOOO......@@@@@@",
"...............@@@@@@         +++++++++++++++++++++++++++            ###@@@            @@@@@@...",
"...............@@@@@@         +++++++++++++++++++++++++++            ###@@@            @@@@@@...",
"...............@@@@@@         +++++++++++++++++++++++++++            ###@@@            @@@@@@...",
"............@@@######   XXXXXX+++      +++++++++            XXX+++         ++++++XXX      ......",
"............@@@######   XXXXXX+++      +++++++++            XXX+++         ++++++XXX      ......",
"............@@@######   XXXXXX+++      +++++++++            XXX+++         ++++++XXX      ......",
".........               XXX++++++XXX      oooooo   XXX+++XXXXXX      ++++++++++++++++++   ......",
".........               XXX++++++XXX      oooooo   XXX+++XXXXXX      ++++++++++++++++++   ......",
".........               XXX++++++XXX      oooooo   XXX+++XXXXXX      ++++++++++++++++++   ......",
"...@@@@@@   ++++++               XXX+++++++++++++++XXX+++         ++++++++++++++++++++++++   ...",
"...@@@@@@   ++++++               XXX+++++++++++++++XXX+++         ++++++++++++++++++++++++   ...",
"...@@@@@@   ++++++               XXX+++++++++++++++XXX+++         ++++++++++++++++++++++++   ...",
"@@@@@@      ++++++oooooooooooo                     ooo   @@@   ++++++++++++++++++ooo++++++   @@@",
"@@@@@@      ++++++oooooooooooo                     ooo   @@@   ++++++++++++++++++ooo++++++   @@@",
"@@@@@@      ++++++oooooooooooo                     ooo   @@@   ++++++++++++++++++ooo++++++   @@@",
"...@@@   ++++++++++++oooXXXXXX+++++++++++++++++++++   @@@###   +++++++++oooooo++++++++++++   @@@",
"...@@@   ++++++++++++oooXXXXXX+++++++++++++++++++++   @@@###   +++++++++oooooo++++++++++++   @@@",
"...@@@   ++++++++++++oooXXXXXX+++++++++++++++++++++   @@@###   +++++++++oooooo++++++++++++   @@@",
"@@@@@@   ++++++++++++++++++XXXXXXXXXXXX++++++++++++      ###      ooo+++++++++++++++++++++   ...",
"@@@@@@   ++++++++++++++++++XXXXXXXXXXXX++++++++++++      ###      ooo+++++++++++++++++++++   ...",
"@@@@@@   ++++++++++++++++++XXXXXXXXXXXX++++++++++++      ###      ooo+++++++++++++++++++++   ...",
"###   ++++++++++++++++++++++++++++++++++++++++++++++++   @@@   XXX+++ooo++++++++++++++++++   ...",
"###   ++++++++++++++++++++++++++++++++++++++++++++++++   @@@   XXX+++ooo++++++++++++++++++   ...",
"###   ++++++++++++++++++++++++++++++++++++++++++++++++   @@@   XXX+++ooo++++++++++++++++++   ...",
"###   ++++++++++++++++++++++++++++++++++++++++++oooooo         XXXXXX+++   +++++++++++++++   ...",
"###   ++++++++++++++++++++++++++++++++++++++++++oooooo         XXXXXX+++   +++++++++++++++   ...",
"###   ++++++++++++++++++++++++++++++++++++++++++oooooo         XXXXXX+++   +++++++++++++++   ...",
"###   ++++++ooo+++++++++++++++++++++++++++++++++++++++++++++         +++      ++++++++++++   OOO",
"###   ++++++ooo+++++++++++++++++++++++++++++++++++++++++++++         +++      ++++++++++++   OOO",
"###   ++++++ooo+++++++++++++++++++++++++++++++++++++++++++++         +++      ++++++++++++   OOO",
"@@@###   ++++++XXXXXXXXXoooooo++++++++++++++++++++++++++++++   ###   +++XXXooo++++++++++++   OOO",
"@@@###   ++++++XXXXXXXXXoooooo++++++++++++++++++++++++++++++   ###   +++XXXooo++++++++++++   OOO",
"@@@###   ++++++XXXXXXXXXoooooo++++++++++++++++++++++++++++++   ###   +++XXXooo++++++++++++   OOO",
"OOO###   +++++++++++++++ooo+++++++++++++++++++++++++++++++++   OOO###   XXX+++oooooo++++++   OOO",
"OOO###   +++++++++++++++ooo+++++++++++++++++++++++++++++++++   OOO###   XXX+++oooooo++++++   OOO",
"OOO###   +++++++++++++++ooo+++++++++++++++++++++++++++++++++   OOO###   XXX+++oooooo++++++   OOO",
"...@@@   +++++++++++++++++++++++++++++++++++++++++++++++++++   OOO            +++XXX         OOO",
"...@@@   +++++++++++++++++++++++++++++++++++++++++++++++++++   OOO            +++XXX         OOO",
"...@@@   +++++++++++++++++++++++++++++++++++++++++++++++++++   OOO            +++XXX         OOO",
"...###   ++++++++++++++++++++++++++++++++++++ooooooooo+++      @@@   +++++++++   XXXXXX+++   @@@",
"...###   ++++++++++++++++++++++++++++++++++++ooooooooo+++      @@@   +++++++++   XXXXXX+++   @@@",
"...###   ++++++++++++++++++++++++++++++++++++ooooooooo+++      @@@   +++++++++   XXXXXX+++   @@@",
"@@@###   +++++++++++++++++++++++++++++++++ooooooXXXXXX      XXX   +++++++++++++++   XXX+++   @@@",
"@@@###   +++++++++++++++++++++++++++++++++ooooooXXXXXX      XXX   +++++++++++++++   XXX+++   @@@",
"@@@###   +++++++++++++++++++++++++++++++++ooooooXXXXXX      XXX   +++++++++++++++   XXX+++   @@@",
"@@@@@@      +++++++++++++++++++++++++++oooXXXXXX++++++   XXXOOO   +++++++++               ###@@@",
"@@@@@@      +++++++++++++++++++++++++++oooXXXXXX++++++   XXXOOO   +++++++++               ###@@@",
"@@@@@@      +++++++++++++++++++++++++++oooXXXXXX++++++   XXXOOO   +++++++++               ###@@@",
"OOOOOO@@@            ++++++++++++++++++++++++++++++      XXX   +++++++++      +++   ###@@@@@@@@@",
"OOOOOO@@@            ++++++++++++++++++++++++++++++      XXX   +++++++++      +++   ###@@@@@@@@@",
"OOOOOO@@@            ++++++++++++++++++++++++++++++      XXX   +++++++++      +++   ###@@@@@@@@@",
"OOOOOO@@@      +++XXX      XXXXXX   +++++++++++++++   +++         ooooooXXX++++++   ###OOO@@@OOO",
"OOOOOO@@@      +++XXX      XXXXXX   +++++++++++++++   +++         ooooooXXX++++++   ###OOO@@@OOO",
"OOOOOO@@@      +++XXX      XXXXXX   +++++++++++++++   +++         ooooooXXX++++++   ###OOO@@@OOO",
"OOOOOOOOO###      +++XXXXXX+++XXXXXX      XXX            ###   XXXXXX+++XXX+++   ###OOO@@@@@@OOO",
"OOOOOOOOO###      +++XXXXXX+++XXXXXX      XXX            ###   XXXXXX+++XXX+++   ###OOO@@@@@@OOO",
"OOOOOOOOO###      +++XXXXXX+++XXXXXX      XXX            ###   XXXXXX+++XXX+++   ###OOO@@@@@@OOO",
"OOOOOOOOOOOO@@@@@@      XXX++++++XXXXXX+++XXXXXXXXX   ###@@@   XXXXXX+++XXX   ######OOO@@@OOOOOO",
"OOOOOOOOOOOO@@@@@@      XXX++++++XXXXXX+++XXXXXXXXX   ###@@@   XXXXXX+++XXX   ######OOO@@@OOOOOO",
"OOOOOOOOOOOO@@@@@@      XXX++++++XXXXXX+++XXXXXXXXX   ###@@@   XXXXXX+++XXX   ######OOO@@@OOOOOO",
"OOOOOOOOOOOOOOO@@@######                  +++XXXXXX   OOO@@@   XXX         ######...OOO@@@OOOOOO",
"OOOOOOOOOOOOOOO@@@######                  +++XXXXXX   OOO@@@   XXX         ######...OOO@@@OOOOOO",
"OOOOOOOOOOOOOOO@@@######                  +++XXXXXX   OOO@@@   XXX         ######...OOO@@@OOOOOO",
"OOOOOOOOOOOOOOO......@@@######@@@#########            OOO@@@         #########@@@@@@@@@@@@OOOOOO",
"OOOOOOOOOOOOOOO......@@@######@@@#########            OOO@@@         #########@@@@@@@@@@@@OOOOOO",
"OOOOOOOOOOOOOOO......@@@######@@@#########            OOO@@@         #########@@@@@@@@@@@@OOOOOO",
"OOOOOOOOOOOOOOO.........@@@@@@@@@@@@##################@@@@@@OOO@@@@@@@@@OOOOOO@@@OOOOOOOOOOOOOOO",
"OOOOOOOOOOOOOOO.........@@@@@@@@@@@@##################@@@@@@OOO@@@@@@@@@OOOOOO@@@OOOOOOOOOOOOOOO",
"OOOOOOOOOOOOOOO.........@@@@@@@@@@@@##################@@@@@@OOO@@@@@@@@@OOOOOO@@@OOOOOOOOOOOOOOO",
"OOOOOOOOOOOO...............@@@@@@@@@@@@######@@@@@@@@@@@@@@@OOOOOOOOOOOOOOO@@@@@@OOOOOOOOOOOOOOO",
"OOOOOOOOOOOO...............@@@@@@@@@@@@######@@@@@@@@@@@@@@@OOOOOOOOOOOOOOO@@@@@@OOOOOOOOOOOOOOO",
"OOOOOOOOOOOO...............@@@@@@@@@@@@######@@@@@@@@@@@@@@@OOOOOOOOOOOOOOO@@@@@@OOOOOOOOOOOOOOO",
"OOO..................@@@@@@@@@OOOOOOOOOOOOOOOOOOOOO@@@@@@@@@@@@OOOOOOOOOOOO@@@@@@OOOOOOOOOOOOOOO",
"OOO..................@@@@@@@@@OOOOOOOOOOOOOOOOOOOOO@@@@@@@@@@@@OOOOOOOOOOOO@@@@@@OOOOOOOOOOOOOOO",
"OOO..................@@@@@@@@@OOOOOOOOOOOOOOOOOOOOO@@@@@@@@@@@@OOOOOOOOOOOO@@@@@@OOOOOOOOOOOOOOO"
};
