/* XPM */
static char *result[] = {
/* columns rows colors chars-per-pixel */
"96 96 4 1 ",
"  c #4D1807",
". c #921F0D",
"X c #E46800",
"o c #FFAA41",
/* pixels */
"                     XXXXXX...............XXXXXXXXXXXXXXXXXXXXXXXXXXXXXX......XXX...............",
"                     XXXXXX...............XXXXXXXXXXXXXXXXXXXXXXXXXXXXXX......XXX...............",
"                     XXXXXX...............XXXXXXXXXXXXXXXXXXXXXXXXXXXXXX......XXX...............",
"                        XXXXXXXXX......XXXXXX.....................XXXXXXXXXXXXXXX...............",
"                        XXXXXXXXX......XXXXXX.....................XXXXXXXXXXXXXXX...............",
"                        XXXXXXXXX......XXXXXX.....................XXXXXXXXXXXXXXX...............",
"...                  ......XXXXXXXXXXXXXXX...........................XXXXXXXXXXXX...............",
"...                  ......XXXXXXXXXXXXXXX...........................XXXXXXXXXXXX...............",
"...                  ......XXXXXXXXXXXXXXX...........................XXXXXXXXXXXX...............",
"XXX...            ...XXXXXXoooXXX..........................................XXXXXX......XXXXXXXXX",
"XXX...            ...XXXXXXoooXXX..........................................XXXXXX......XXXXXXXXX",
"XXX...            ...XXXXXXoooXXX..........................................XXXXXX......XXXXXXXXX",
"XXXXXX.........XXXXXXXXXooooooooooooXXX.......................................XXXXXXXXXXXX......",
"XXXXXX.........XXXXXXXXXooooooooooooXXX.......................................XXXXXXXXXXXX......",
"XXXXXX.........XXXXXXXXXooooooooooooXXX.......................................XXXXXXXXXXXX......",
"XXXXXXXXXXXXXXXXXXXXXXXXXXXXXXXXXoooooooooXXX...............                  ............      ",
"XXXXXXXXXXXXXXXXXXXXXXXXXXXXXXXXXoooooooooXXX...............                  ............      ",
"XXXXXXXXXXXXXXXXXXXXXXXXXXXXXXXXXoooooooooXXX...............                  ............      ",
"XXXXXXXXX      XXX      ............XXXoooXXX.........                        ......      XXXXXX",
"XXXXXXXXX      XXX      ............XXXoooXXX.........                        ......      XXXXXX",
"XXXXXXXXX      XXX      ............XXXoooXXX.........                        ......      XXXXXX",
"               XXX      ...............XXXXXXXXX...                           ......   XXXXXX   ",
"               XXX      ...............XXXXXXXXX...                           ......   XXXXXX   ",
"               XXX      ...............XXXXXXXXX...                           ......   XXXXXX   ",
"            XXX      ........................XXX...                        .........XXXXXX      ",
"            XXX      ........................XXX...                        .........XXXXXX      ",
"            XXX      ........................XXX...                        .........XXXXXX      ",
"         XXXXXX      ........................XXXXXX                  XXXXXXXXXXXXXXXXXX         ",
"         XXXXXX      ........................XXXXXX                  XXXXXXXXXXXXXXXXXX         ",
"         XXXXXX      ........................XXXXXX                  XXXXXXXXXXXXXXXXXX         ",
"   XXXXXXXXX         ...........................XXXXXXXXX      XXXXXXXXXXXXXXX......            ",
"   XXXXXXXXX         ...........................XXXXXXXXX      XXXXXXXXXXXXXXX......            ",
"   XXXXXXXXX         ...........................XXXXXXXXX      XXXXXXXXXXXXXXX......            ",
"XXXXXX            ..............................XXX   XXXXXXoooXXXXXX   ............         XXX",
"XXXXXX            ..............................XXX   XXXXXXoooXXXXXX   ............         XXX",
"XXXXXX            ..............................XXX   XXXXXXoooXXXXXX   ............         XXX",
"   XXX         ..............................   XXX   XXXooooooooo      ............   XXXXXXXXX",
"   XXX         ..............................   XXX   XXXooooooooo      ............   XXXXXXXXX",
"   XXX         ..............................   XXX   XXXooooooooo      ............   XXXXXXXXX",
"XXXXXX   .......................................XXXXXXoooooooooXXX      ............XXXXXX      ",
"XXXXXX   .......................................XXXXXXoooooooooXXX      ............XXXXXX      ",
"XXXXXX   .......................................XXXXXXoooooooooXXX      ............XXXXXX      ",
"oooXXX..........................................oooXXXXXXXXXXXX......      ......XXXXXX         ",
"oooXXX..........................................oooXXXXXXXXXXXX......      ......XXXXXX         ",
"oooXXX..........................................oooXXXXXXXXXXXX......      ......XXXXXX         ",
"oooXXX...............         ...............ooooooXXX...........................XXXXXX         ",
"oooXXX...............         ...............ooooooXXX...........................XXXXXX         ",
"oooXXX...............         ...............ooooooXXX...........................XXXXXX         ",
"oooXXX............            .........XXXooooooXXXXXX........................XXXoooXXX...   ...",
"oooXXX............            .........XXXooooooXXXXXX........................XXXoooXXX...   ...",
"oooXXX............            .........XXXooooooXXXXXX........................XXXoooXXX...   ...",
"XXXoooXXX.........               ...XXXXXXXXXXXXXXX.....................XXXoooooooooXXX.........",
"XXXoooXXX.........               ...XXXXXXXXXXXXXXX.....................XXXoooooooooXXX.........",
"XXXoooXXX.........               ...XXXXXXXXXXXXXXX.....................XXXoooooooooXXX.........",
"...ooooooXXXXXX               XXXXXXXXX.........XXX...............XXXXXXXXXXXXooooooXXX.........",
"...ooooooXXXXXX               XXXXXXXXX.........XXX...............XXXXXXXXXXXXooooooXXX.........",
"...ooooooXXXXXX               XXXXXXXXX.........XXX...............XXXXXXXXXXXXooooooXXX.........",
"   XXXoooooooooXXXXXXXXXXXXXXXXXXXXX............XXXXXX............XXX.........XXXXXXXXX.........",
"   XXXoooooooooXXXXXXXXXXXXXXXXXXXXX............XXXXXX............XXX.........XXXXXXXXX.........",
"   XXXoooooooooXXXXXXXXXXXXXXXXXXXXX............XXXXXX............XXX.........XXXXXXXXX.........",
"   ooooooXXXXXXooo               XXXXXXXXX......XXXXXX.........XXXXXX...............XXXXXX......",
"   ooooooXXXXXXooo               XXXXXXXXX......XXXXXX.........XXXXXX...............XXXXXX......",
"   ooooooXXXXXXooo               XXXXXXXXX......XXXXXX.........XXXXXX...............XXXXXX......",
"XXXooo                        .........XXX......XXX......XXXXXXXXX.....................XXX......",
"XXXooo                        .........XXX......XXX......XXXXXXXXX.....................XXX......",
"XXXooo                        .........XXX......XXX......XXXXXXXXX.....................XXX......",
"XXXXXX                  ...............XXXXXX...oooXXXXXXXXX.........            ......XXXXXXXXX",
"XXXXXX                  ...............XXXXXX...oooXXXXXXXXX.........            ......XXXXXXXXX",
"XXXXXX                  ...............XXXXXX...oooXXXXXXXXX.........            ......XXXXXXXXX",
"..........................................XXXooooooooo...............            .........XXXXXX",
"..........................................XXXooooooooo...............            .........XXXXXX",
"..........................................XXXooooooooo...............            .........XXXXXX",
"..........................................XXXXXXXXXoooXXX............               ......XXX...",
"..........................................XXXXXXXXXoooXXX............               ......XXX...",
"..........................................XXXXXXXXXoooXXX............               ......XXX...",
"....................................XXXXXXXXX...XXXXXXooo............               ...XXXXXX...",
"....................................XXXXXXXXX...XXXXXXooo............               ...XXXXXX...",
"....................................XXXXXXXXX...XXXXXXooo............               ...XXXXXX...",
"..................            ...XXXXXX...............XXXXXX.........               ...XXX......",
"..................            ...XXXXXX...............XXXXXX.........               ...XXX......",
"..................            ...XXXXXX...............XXXXXX.........               ...XXX......",
"...............                  XXX.....................XXX......                  ...XXX......",
"...............                  XXX.....................XXX......                  ...XXX......",
"...............                  XXX.....................XXX......                  ...XXX......",
"...............                  XXX.....................XXX...               XXXXXXXXXXXX......",
"...............                  XXX.....................XXX...               XXXXXXXXXXXX......",
"...............                  XXX.....................XXX...               XXXXXXXXXXXX......",
"...............               XXXXXX..................XXXXXX..................XXX...............",
"...............               XXXXXX..................XXXXXX..................XXX...............",
"...............               XXXXXX..................XXXXXX..................XXX...............",
"............               XXXXXX.....................XXXXXX...............XXXXXX...............",
"............               XXXXXX.....................XXXXXX...............XXXXXX...............",
"............               XXXXXX.....................XXXXXX...............XXXXXX...............",
"...                  XXXXXXXXX.....................XXXXXXXXXXXX............XXXXXX...............",
"...                  XXXXXXXXX.....................XXXXXXXXXXXX............XXXXXX...............",
"...                  XXXXXXXXX.....................XXXXXXXXXXXX............XXXXXX..............."
};
