/* XPM */
static char *_42d81e1d7e84751859942d28fd8902fs2Md1liqzyQs7xmJ[] = {
/* columns rows colors chars-per-pixel */
"96 96 4 1 ",
"  c #458721",
". c #4E8721",
"X c #68BF3A",
"o c #92C246",
/* pixels */
"oooooooooooooooooooooooooooooooooooooooooooooooooooooooooooooooooooooooooooooooooooooooooooooooo",
"oooooooooooooooooooooooooooooooooooooooooooooooooooooooooooooooooooooooooooooooooooooooooooooooo",
"oooooooooooooooooooooooooooooooooooooooooooooooooooooooooooooooooooooooooooooooooooooooooooooooo",
"oooooooooooooooooooooooooooooooooooooooooooooooooooooooooooooooooooooooooooooooooooooooooooooooo",
"oooooooooooooooooooooooooooooooooooooooooooooooooooooooooooooooooooooooooooooooooooooooooooooooo",
"oooooooooooooooooooooooooooooooooooooooooooooooooooooooooooooooooooooooooooooooooooooooooooooooo",
"ooooooooooooooooooooooooooo      ooooooooooooooooooooooooooooooooooooooooooooooooooooooooooooooo",
"ooooooooooooooooooooooooooo      ooooooooooooooooooooooooooooooooooooooooooooooooooooooooooooooo",
"ooooooooooooooooooooooooooo      ooooooooooooooooooooooooooooooooooooooooooooooooooooooooooooooo",
"ooooooooooooooooooooo         oooooooooooooooooooooooooooooooooooooooooooooooooooooooooooooooooo",
"ooooooooooooooooooooo         oooooooooooooooooooooooooooooooooooooooooooooooooooooooooooooooooo",
"ooooooooooooooooooooo         oooooooooooooooooooooooooooooooooooooooooooooooooooooooooooooooooo",
"oooooooooooooooooooooooooooooooooooooooooooooooooooooooooooooooooooooooooooooooooooooooooooooooo",
"oooooooooooooooooooooooooooooooooooooooooooooooooooooooooooooooooooooooooooooooooooooooooooooooo",
"oooooooooooooooooooooooooooooooooooooooooooooooooooooooooooooooooooooooooooooooooooooooooooooooo",
"oooooooooooooooooooooooooooooooooooooooooooooooooooooooooooooooooooooooooooooooooooooooooooooooo",
"oooooooooooooooooooooooooooooooooooooooooooooooooooooooooooooooooooooooooooooooooooooooooooooooo",
"oooooooooooooooooooooooooooooooooooooooooooooooooooooooooooooooooooooooooooooooooooooooooooooooo",
"oooooooooooooooooooooooooooooooooooooooooooooooooooooooooooooooooooooooooooooooooooooooooooooooo",
"oooooooooooooooooooooooooooooooooooooooooooooooooooooooooooooooooooooooooooooooooooooooooooooooo",
"oooooooooooooooooooooooooooooooooooooooooooooooooooooooooooooooooooooooooooooooooooooooooooooooo",
"oooooooooooooooooooooooooooooooooooooooooooooooooooooooooooooooooooooooooooooooooooooooooooooooo",
"oooooooooooooooooooooooooooooooooooooooooooooooooooooooooooooooooooooooooooooooooooooooooooooooo",
"oooooooooooooooooooooooooooooooooooooooooooooooooooooooooooooooooooooooooooooooooooooooooooooooo",
"oooooooooooooooooooooooooooooooooooooooooooooooooooooooooooooooooooooooooooooooooooooooooooooooo",
"oooooooooooooooooooooooooooooooooooooooooooooooooooooooooooooooooooooooooooooooooooooooooooooooo",
"oooooooooooooooooooooooooooooooooooooooooooooooooooooooooooooooooooooooooooooooooooooooooooooooo",
"oooooooooooooooooooooooooooooooooooooooooooooooooooooooooooooooooooooooooooooooooooooooooooooooo",
"oooooooooooooooooooooooooooooooooooooooooooooooooooooooooooooooooooooooooooooooooooooooooooooooo",
"oooooooooooooooooooooooooooooooooooooooooooooooooooooooooooooooooooooooooooooooooooooooooooooooo",
"ooooooooooooooooooooooooooooooooooooooooooXXXXXXoooooooooooooooooooooooooooooooooooooooooooooooo",
"ooooooooooooooooooooooooooooooooooooooooooXXXXXXoooooooooooooooooooooooooooooooooooooooooooooooo",
"ooooooooooooooooooooooooooooooooooooooooooXXXXXXoooooooooooooooooooooooooooooooooooooooooooooooo",
"oooooooooooooooooooooooooooooooooooooooXXXXXXooooooooooooooooooooooooooooooooooooooooooooooooooo",
"oooooooooooooooooooooooooooooooooooooooXXXXXXooooooooooooooooooooooooooooooooooooooooooooooooooo",
"oooooooooooooooooooooooooooooooooooooooXXXXXXooooooooooooooooooooooooooooooooooooooooooooooooooo",
"ooooooooooooooooooooooooooooooXXXXXXXXXXXXooooooooo...      oooooooooooooooooooooooooooooooooooo",
"ooooooooooooooooooooooooooooooXXXXXXXXXXXXooooooooo...      oooooooooooooooooooooooooooooooooooo",
"ooooooooooooooooooooooooooooooXXXXXXXXXXXXooooooooo...      oooooooooooooooooooooooooooooooooooo",
"oooooooooooooooooooooooooooooooooooooooooooooooo   oooooooooooooooooooooooooooXXXXXXoooooooooooo",
"oooooooooooooooooooooooooooooooooooooooooooooooo   oooooooooooooooooooooooooooXXXXXXoooooooooooo",
"oooooooooooooooooooooooooooooooooooooooooooooooo   oooooooooooooooooooooooooooXXXXXXoooooooooooo",
"oooooooooooooooooooooooo      oooooooooooooooooooooooooooooooooooooooXXXXXXXXXXXXooooooooooooooo",
"oooooooooooooooooooooooo      oooooooooooooooooooooooooooooooooooooooXXXXXXXXXXXXooooooooooooooo",
"oooooooooooooooooooooooo      oooooooooooooooooooooooooooooooooooooooXXXXXXXXXXXXooooooooooooooo",
"oooooooooooooooooooooooooooooo      oooooooooooooooooooooooooooooooooooooooooooooooooooooooooooo",
"oooooooooooooooooooooooooooooo      oooooooooooooooooooooooooooooooooooooooooooooooooooooooooooo",
"oooooooooooooooooooooooooooooo      oooooooooooooooooooooooooooooooooooooooooooooooooooooooooooo",
"oooooooooooooooooooooooooooooooooooooooooooooooooooooooooooooooooooooooooooooooooooooooooooooooo",
"oooooooooooooooooooooooooooooooooooooooooooooooooooooooooooooooooooooooooooooooooooooooooooooooo",
"oooooooooooooooooooooooooooooooooooooooooooooooooooooooooooooooooooooooooooooooooooooooooooooooo",
"oooooooooooooooooooooooooooooooooooooooooooooooooooooooooooooooooooooooooooooooooooooooooooooooo",
"oooooooooooooooooooooooooooooooooooooooooooooooooooooooooooooooooooooooooooooooooooooooooooooooo",
"oooooooooooooooooooooooooooooooooooooooooooooooooooooooooooooooooooooooooooooooooooooooooooooooo",
"oooooooooooooooooooooooooooooooooooooooooooooooooooooooooooooooooooooooooooooooooooooooooooooooo",
"oooooooooooooooooooooooooooooooooooooooooooooooooooooooooooooooooooooooooooooooooooooooooooooooo",
"oooooooooooooooooooooooooooooooooooooooooooooooooooooooooooooooooooooooooooooooooooooooooooooooo",
"oooooooooooooooooooooooooooooooooooooooooooooooooooXXXXXXXXXoooooooooooooooooooooooooooooooooooo",
"oooooooooooooooooooooooooooooooooooooooooooooooooooXXXXXXXXXoooooooooooooooooooooooooooooooooooo",
"oooooooooooooooooooooooooooooooooooooooooooooooooooXXXXXXXXXoooooooooooooooooooooooooooooooooooo",
"oooooooooooooooooooooooooooooooooXXXXXXXXXXXXXXXXXXXXXoooooooooooooooooooooooooooooooooooooooooo",
"oooooooooooooooooooooooooooooooooXXXXXXXXXXXXXXXXXXXXXoooooooooooooooooooooooooooooooooooooooooo",
"oooooooooooooooooooooooooooooooooXXXXXXXXXXXXXXXXXXXXXoooooooooooooooooooooooooooooooooooooooooo",
"ooooooooooooooooooooooooooooooXXXXXXoooooooooooooooooooooooooooooooooooooooooooooooooooooooooooo",
"ooooooooooooooooooooooooooooooXXXXXXoooooooooooooooooooooooooooooooooooooooooooooooooooooooooooo",
"ooooooooooooooooooooooooooooooXXXXXXoooooooooooooooooooooooooooooooooooooooooooooooooooooooooooo",
"ooo      ooooooooooooXXXoooooooooooooooooooooooooooooooooooooooooooooooooooooooooooooooooooooooo",
"ooo      ooooooooooooXXXoooooooooooooooooooooooooooooooooooooooooooooooooooooooooooooooooooooooo",
"ooo      ooooooooooooXXXoooooooooooooooooooooooooooooooooooooooooooooooooooooooooooooooooooooooo",
"oooooooooXXXXXXXXXXXXXXXoooooooooooooooooooooooooooooooooooooooooooooooooooooooooooooooooooooooo",
"oooooooooXXXXXXXXXXXXXXXoooooooooooooooooooooooooooooooooooooooooooooooooooooooooooooooooooooooo",
"oooooooooXXXXXXXXXXXXXXXoooooooooooooooooooooooooooooooooooooooooooooooooooooooooooooooooooooooo",
"XXXXXXXXXXXXoooooooooooooooooooooooooooooooooooooooooooooooooooooooooooooooooooooooooooooooooooo",
"XXXXXXXXXXXXoooooooooooooooooooooooooooooooooooooooooooooooooooooooooooooooooooooooooooooooooooo",
"XXXXXXXXXXXXoooooooooooooooooooooooooooooooooooooooooooooooooooooooooooooooooooooooooooooooooooo",
"XXXooooooooooooooooooooooooooooooooooooooooooooooooooooooooooooooooooooooooooo      oooooooooXXX",
"XXXooooooooooooooooooooooooooooooooooooooooooooooooooooooooooooooooooooooooooo      oooooooooXXX",
"XXXooooooooooooooooooooooooooooooooooooooooooooooooooooooooooooooooooooooooooo      oooooooooXXX",
"ooooooooooooooooooooooooooooooooooooooooooooooooooooooooooooooooooooooooooo   oooooooooooooooooo",
"ooooooooooooooooooooooooooooooooooooooooooooooooooooooooooooooooooooooooooo   oooooooooooooooooo",
"ooooooooooooooooooooooooooooooooooooooooooooooooooooooooooooooooooooooooooo   oooooooooooooooooo",
"oooooooooooooooooooooooooooooooooooooooooooooooooooooooooooooooooooooooooooooooooooooooooooooooo",
"oooooooooooooooooooooooooooooooooooooooooooooooooooooooooooooooooooooooooooooooooooooooooooooooo",
"oooooooooooooooooooooooooooooooooooooooooooooooooooooooooooooooooooooooooooooooooooooooooooooooo",
"ooooooooooooooooooooooooooooooooooooooooooooooooooooooooooooooooooooooooXXXXXXXXXXXXXXXooooooooo",
"ooooooooooooooooooooooooooooooooooooooooooooooooooooooooooooooooooooooooXXXXXXXXXXXXXXXooooooooo",
"ooooooooooooooooooooooooooooooooooooooooooooooooooooooooooooooooooooooooXXXXXXXXXXXXXXXooooooooo",
"ooooooooooooooooooooooooooooooooooooooooooXXXXXXXXXXXXXXXXXXoooooooooooo   ooooooooooooooooooooo",
"ooooooooooooooooooooooooooooooooooooooooooXXXXXXXXXXXXXXXXXXoooooooooooo   ooooooooooooooooooooo",
"ooooooooooooooooooooooooooooooooooooooooooXXXXXXXXXXXXXXXXXXoooooooooooo   ooooooooooooooooooooo",
"ooooooooooooooooooooooooooooooooooooooooooXXXooooooooooooooooooooo      oooooooooooooooooooooooo",
"ooooooooooooooooooooooooooooooooooooooooooXXXooooooooooooooooooooo      oooooooooooooooooooooooo",
"ooooooooooooooooooooooooooooooooooooooooooXXXooooooooooooooooooooo      oooooooooooooooooooooooo",
"oooooooooooooooooooooooooooooooooooooooooooooooooooooooooooooooooooooooooooooooooooooooooooooooo",
"oooooooooooooooooooooooooooooooooooooooooooooooooooooooooooooooooooooooooooooooooooooooooooooooo",
"oooooooooooooooooooooooooooooooooooooooooooooooooooooooooooooooooooooooooooooooooooooooooooooooo"
};
