/* XPM */
static char *border01744931098[] = {
/* columns rows colors chars-per-pixel */
"32 32 6 1 ",
"  c #4D0909",
". c #9F4B27",
"X c #CD4A1D",
"o c #E46800",
"O c #D77E30",
"+ c #E79248",
/* pixels */
"oo                              ",
"o                               ",
"    ........................    ",
"   .++++OOOOOOOOOOOOOOOOOOOXX   ",
"  .O+++++OOOOOOOOOOOOOOOOOOOXX  ",
"  .OO+++++OOOOOOOOOOOOOOOOOOXX  ",
"  .OOO  +++OOOOOOOOOOOO  OOOXX  ",
"  .OOO  ++++OOOOOOOOOOO  OOOXX  ",
"  .OOOOO+++++OOOOOOOOOOOOOOOXX  ",
"  .OOOOOO+++++OOOOOOOOOOOOOOXX  ",
"  .OOOOOOO+++++OOOOOOOOOOOOOXX  ",
"  .OOOOOOOO+++++OOOOOOOOOOOOXX  ",
"  .+OOOOOOOO+++++OOOOOOOOOOOXX  ",
"  .++OOOOOOOO++++OOOOOOOOOOOXX  ",
"  .O++OOOOOOO+++++OOOOOOOOOOXX  ",
"  .OO++OOOOOOO+++++OOOOOOOOOXX  ",
"  .OOO++OOOOOOO+++++OOOOOOOOXX  ",
"  .OOOO++OOOOOOO+++++OOOOOOOXX  ",
"  .OOOOO++OOOOOOO+++++OOOOOOXX  ",
"  .OOOOO+++OOOOOOO+++++OOOOOXX  ",
"  .OOOOOO+++OOOOOOO++++OOOOOXX  ",
"  .OOOOOOO+++OOOOOOO++++OOOOXX  ",
"  .OOOOOOOO+++OOOOOO+++++OOOXX  ",
"  .OOO  OOOO+++OOOOOO++  +OOXX  ",
"  .OOO  OOOOO+++OOOOOO+  ++OXX  ",
"  .OOOOOOOOOOO+++OOOOOO+++++XX  ",
"  .OOOOOOOOOOOO+++OOOOOOO+++XX  ",
"  .XOOOOOOOOOOOO+++OOOOOOO+XXX  ",
"   XXXXXXXXXXXXXXXXXXXXXXXXXX   ",
"    XXXXXXXXXXXXXXXXXXXXXXXX    ",
"                                ",
"                                "
};
