/* XPM */
static char *border61744931098[] = {
/* columns rows colors chars-per-pixel */
"32 32 4 1 ",
"  c #4D0909",
". c #7D3D05",
"X c #B7352B",
"o c #D77E30",
/* pixels */
"  XXXXooooooooooooooooooooo..   ",
"  XXXXooooooooooooooooooooo..   ",
"  XXXXooooooooooooooooooooo..   ",
"  XXXXooooooooooooooooooooo..   ",
"  XXXXooooooooooooooooooooo..   ",
"  XXXXooooooooooooooooooooo..   ",
"  XXXXooooooooooooooooooooo..   ",
"  XXXXooooooooooooooooooooo..   ",
"  XXXXooooooooooooooooooooo..   ",
"  XXXXooooooooooooooooooooo..   ",
"  XXXXooooooooooooooooooooo..   ",
"  XXXXooooooooooooooooooooo..   ",
"  XXXXooooooooooooooooooooo..   ",
"  XXXXooooooooooooooooooooo..   ",
"  XXXXooooooooooooooooooooo..   ",
"  XXXXooooooooooooooooooooo..   ",
"  XXXXooooooooooooooooooooo..   ",
"  XXXXooooooooooooooooooooo..   ",
"  XXXXooooooooooooooooooooo..   ",
"  XXXXooooooooooooooooooooo..   ",
"  XXXXooooooooooooooooooooo..   ",
"  XXXXooooooooooooooooooooo..   ",
"  XXXXooooooooooooooooooooo..   ",
"  XXXXooooooooooooooooooooo..   ",
"  XXXXooooooooooooooooooooo..   ",
"  XXXXooooooooooooooooooooo..   ",
"  XXXXooooooooooooooooooooo..   ",
"  XXXXooooooooooooooooooooo..   ",
"  XXXXooooooooooooooooooooo..   ",
"  XXXXooooooooooooooooooooo..   ",
"  XXXXooooooooooooooooooooo..   ",
"  XXXXooooooooooooooooooooo..   "
};
