/* XPM */
static char *border21744931098[] = {
/* columns rows colors chars-per-pixel */
"32 32 6 1 ",
"  c #4D0909",
". c #9F4B27",
"X c #CD4A1D",
"o c #E46800",
"O c #D77E30",
"+ c #E79248",
/* pixels */
"                                ",
"                                ",
"    XXXXXXXXXXXXXXXXXXXXXXXX    ",
"   XXXXXXXXXXXXXXXXXXXXXXXXXX   ",
"  XXX++++OOOOOOOOOOOOOOOOOOOX.  ",
"  XXO+++++OOOOOOOOOOOOOOOOOOO.  ",
"  XXOO+++++OOOOOOOOOOOOOOOOOO.  ",
"  XXOOO  +++OOOOOOOOOOOO  OOO.  ",
"  XXOOO  ++++OOOOOOOOOOO  OOO.  ",
"  XXOOOOO+++++OOOOOOOOOOOOOOO.  ",
"  XXOOOOOO+++++OOOOOOOOOOOOOO.  ",
"  XXOOOOOOO+++++OOOOOOOOOOOOO.  ",
"  XXOOOOOOOO+++++OOOOOOOOOOOO.  ",
"  XX+OOOOOOOO++++OOOOOOOOOOOO.  ",
"  XX++OOOOOOO+++++OOOOOOOOOOO.  ",
"  XXO++OOOOOOO+++++OOOOOOOOOO.  ",
"  XXOO++OOOOOOO+++++OOOOOOOOO.  ",
"  XXOOO++OOOOOOO+++++OOOOOOOO.  ",
"  XXOOOO++OOOOOOO+++++OOOOOOO.  ",
"  XXOOOO+++OOOOOOO+++++OOOOOO.  ",
"  XXOOOOO+++OOOOOOO++++OOOOOO.  ",
"  XXOOOOOO+++OOOOOOO++++OOOOO.  ",
"  XXOOOOOOO+++OOOOOO+++++OOOO.  ",
"  XXOOOOOOOO+++OOOOOO+++++OOO.  ",
"  XXOOO  OOOO+++OOOOOO++  +OO.  ",
"  XXOOO  OOOOO+++OOOOOO+  ++O.  ",
"  XXOOOOOOOOOOO+++OOOOOOO++++.  ",
"  XXOOOOOOOOOOOO+++OOOOOOO+++.  ",
"   XXOOOOOOOOOOOO+++OOOOOOO+.   ",
"    ........................    ",
"                               o",
"                              oo"
};
