/* XPM */
static char *border11744931098[] = {
/* columns rows colors chars-per-pixel */
"32 32 6 1 ",
"  c #4D0909",
". c #9F4B27",
"X c #CD4A1D",
"o c #E46800",
"O c #D77E30",
"+ c #E79248",
/* pixels */
"                              oo",
"                               o",
"    ........................    ",
"   X++++OOOOOOOOOOOOOOOOOOOO.   ",
"  XX+++++OOOOOOOOOOOOOOOOOOOO.  ",
"  XXO+++++OOOOOOOOOOOOOOOOOOO.  ",
"  XXOO+  ++OOOOOOOOOOOOO  OOO.  ",
"  XXOOO  +++OOOOOOOOOOOO  OOO.  ",
"  XXOOOO+++++OOOOOOOOOOOOOOOO.  ",
"  XXOOOOO+++++OOOOOOOOOOOOOOO.  ",
"  XXOOOOOO+++++OOOOOOOOOOOOOO.  ",
"  XXOOOOOOO+++++OOOOOOOOOOOOO.  ",
"  XXOOOOOOOO+++++OOOOOOOOOOOO.  ",
"  XX+OOOOOOOO++++OOOOOOOOOOOO.  ",
"  XX++OOOOOOO+++++OOOOOOOOOOO.  ",
"  XXO++OOOOOOO+++++OOOOOOOOOO.  ",
"  XXOO++OOOOOOO+++++OOOOOOOOO.  ",
"  XXOOO++OOOOOOO+++++OOOOOOOO.  ",
"  XXOOOO++OOOOOOO+++++OOOOOOO.  ",
"  XXOOOO+++OOOOOOO+++++OOOOOO.  ",
"  XXOOOOO+++OOOOOOO++++OOOOOO.  ",
"  XXOOOOOO+++OOOOOOO++++OOOOO.  ",
"  XXOOOOOOO+++OOOOOO+++++OOOO.  ",
"  XXOOO  OOO+++OOOOOO+++  OOO.  ",
"  XXOOO  OOOO+++OOOOOO++  +OO.  ",
"  XXOOOOOOOOOO+++OOOOOO+++++O.  ",
"  XXOOOOOOOOOOO+++OOOOOOO++++.  ",
"  XXXOOOOOOOOOOO+++OOOOOOO++X.  ",
"   XXXXXXXXXXXXXXXXXXXXXXXXXX   ",
"    XXXXXXXXXXXXXXXXXXXXXXXX    ",
"                                ",
"                                "
};
