/* XPM */
static char *result[] = {
/* columns rows colors chars-per-pixel */
"96 96 34 1 ",
"  c #350D01",
". c #4D1807",
"X c #602412",
"o c #722A15",
"O c #442039",
"+ c #482949",
"@ c #553250",
"# c #921F0D",
"$ c #8D3C24",
"% c #E46800",
"& c #FFAA41",
"* c #2E498C",
"= c #344C8F",
"- c #374D8F",
"; c #3C4C8E",
": c #314D97",
"> c #334E98",
", c #3B5091",
"< c #48578C",
"1 c #7C7CBE",
"2 c #867EB8",
"3 c #6894D2",
"4 c #6E97D4",
"5 c #6C99DE",
"6 c #7696D4",
"7 c #7298D5",
"8 c #769BD7",
"9 c #83A1D2",
"0 c #A7B4D9",
"q c #ADB8DB",
"w c #B0B8DC",
"e c #B4BBDE",
"r c #ABBAE4",
"t c #D8D2DA",
/* pixels */
".....................%%%%%%###############%%%<<<<<<%%%%%%%%%%%%%%%%%%%%%######%%%###############",
".....................%%%%%%###############%%%<<<<<<%%%%%%%%%%%%%%%%%%%%%######%%%###############",
".....................%%%%%%###############%%%<<<<<<%%%%%%%%%%%%%%%%%%%%%######%%%###############",
"........................%%%%%%%%%######<<<<<<666666;;;;;;#########%%%%%%%%%%%%%%%###############",
"........................%%%%%%%%%######<<<<<<666666;;;;;;#########%%%%%%%%%%%%%%%###############",
"........................%%%%%%%%%######<<<<<<666666;;;;;;#########%%%%%%%%%%%%%%%###############",
"###..................######%%%%%%<<<<<<999000000000000333;;;;;;      %%%%%%%%%%%%###############",
"###..................######%%%%%%<<<<<<999000000000000333;;;;;;      %%%%%%%%%%%%###############",
"###..................######%%%%%%<<<<<<999000000000000333;;;;;;      %%%%%%%%%%%%###############",
"%%%###............###%%%%%%&&&<<<666333000eeeeeeeeeeee000000333,,,$$$      %%%%%%######%%%%%%%%%",
"%%%###............###%%%%%%&&&<<<666333000eeeeeeeeeeee000000333,,,$$$      %%%%%%######%%%%%%%%%",
"%%%###............###%%%%%%&&&<<<666333000eeeeeeeeeeee000000333,,,$$$      %%%%%%######%%%%%%%%%",
"%%%%%%#########%%%%%%%%%&&&***333000ttteeeeeeeeettttttttteeeeee888,,,$$$$$$   %%%%%%%%%%%%######",
"%%%%%%#########%%%%%%%%%&&&***333000ttteeeeeeeeettttttttteeeeee888,,,$$$$$$   %%%%%%%%%%%%######",
"%%%%%%#########%%%%%%%%%&&&***333000ttteeeeeeeeettttttttteeeeee888,,,$$$$$$   %%%%%%%%%%%%######",
"%%%%%%%%%%%%%%%%%%%%%%%%***888eee888eeettttttttttttttteeeeee888888,,,$$$$$$$$$   #########......",
"%%%%%%%%%%%%%%%%%%%%%%%%***888eee888eeettttttttttttttteeeeee888888,,,$$$$$$$$$   #########......",
"%%%%%%%%%%%%%%%%%%%%%%%%***888eee888eeettttttttttttttteeeeee888888,,,$$$$$$$$$   #########......",
"%%%%%%%%%......%%%...   ***888eeeeee888888eeettteee888888eeeeee888,,,$$$$$$$$$$$$   ......%%%%%%",
"%%%%%%%%%......%%%...   ***888eeeeee888888eeettteee888888eeeeee888,,,$$$$$$$$$$$$   ......%%%%%%",
"%%%%%%%%%......%%%...   ***888eeeeee888888eeettteee888888eeeeee888,,,$$$$$$$$$$$$   ......%%%%%%",
"...............      $$$,,,888eeeeeeeeeeeeeeeeee888eeeeeeeeeeee888,,,$$$$$$$$$$$$$$$   %%%%%%...",
"...............      $$$,,,888eeeeeeeeeeeeeeeeee888eeeeeeeeeeee888,,,$$$$$$$$$$$$$$$   %%%%%%...",
"...............      $$$,,,888eeeeeeeeeeeeeeeeee888eeeeeeeeeeee888,,,$$$$$$$$$$$$$$$   %%%%%%...",
"............   $$$$$$$$$,,,888wwweeewwwwwwwww777wwweeeeeeeee222888,,,$$$$$$$$$$$$XXXXXX   ......",
"............   $$$$$$$$$,,,888wwweeewwwwwwwww777wwweeeeeeeee222888,,,$$$$$$$$$$$$XXXXXX   ......",
"............   $$$$$$$$$,,,888wwweeewwwwwwwww777wwweeeeeeeee222888,,,$$$$$$$$$$$$XXXXXX   ......",
".........   $$$$$$$$$$$$,,,777wwweeeeeeeeeeee888eeewwwwwweee222888,,,$$$$$$$$$$$$$$$$$$   ......",
".........   $$$$$$$$$$$$,,,777wwweeeeeeeeeeee888eeewwwwwweee222888,,,$$$$$$$$$$$$$$$$$$   ......",
".........   $$$$$$$$$$$$,,,777wwweeeeeeeeeeee888eeewwwwwweee222888,,,$$$$$$$$$$$$$$$$$$   ......",
"...%%%%%%   $$$$$$$$$$$$,,,888eeeeeeeeeeeeeeeeeeeeeeeeeee222222888,,,$$$$$$$$$$$$$$$$$$$$$   ...",
"...%%%%%%   $$$$$$$$$$$$,,,888eeeeeeeeeeeeeeeeeeeeeeeeeee222222888,,,$$$$$$$$$$$$$$$$$$$$$   ...",
"...%%%%%%   $$$$$$$$$$$$,,,888eeeeeeeeeeeeeeeeeeeeeeeeeee222222888,,,$$$$$$$$$$$$$$$$$$$$$   ...",
"%%%%%%      $$$$$$oooooo---777eeeeeeeeeeeeeeeeeeeeeeee111111111888,,,$$$$$$$$$$$$ooo$$$$$$   %%%",
"%%%%%%      $$$$$$oooooo---777eeeeeeeeeeeeeeeeeeeeeeee111111111888,,,$$$$$$$$$$$$ooo$$$$$$   %%%",
"%%%%%%      $$$$$$oooooo---777eeeeeeeeeeeeeeeeeeeeeeee111111111888,,,$$$$$$$$$$$$ooo$$$$$$   %%%",
"...%%%   $$$$$$$$$$$$oooXXX===888eeeeeeeeeeeeeeeeee222222eee888,,,$$$$$$oooooo$$$$$$$$$$$$   %%%",
"...%%%   $$$$$$$$$$$$oooXXX===888eeeeeeeeeeeeeeeeee222222eee888,,,$$$$$$oooooo$$$$$$$$$$$$   %%%",
"...%%%   $$$$$$$$$$$$oooXXX===888eeeeeeeeeeeeeeeeee222222eee888,,,$$$$$$oooooo$$$$$$$$$$$$   %%%",
"%%%%%%   $$$$$$$$$$$$$$$$$$======444qqqeeeeee888eeerrr555,,,,,,$$$$$$$$$$$$$$$$$$$$$$$$$$$   ...",
"%%%%%%   $$$$$$$$$$$$$$$$$$======444qqqeeeeee888eeerrr555,,,,,,$$$$$$$$$$$$$$$$$$$$$$$$$$$   ...",
"%%%%%%   $$$$$$$$$$$$$$$$$$======444qqqeeeeee888eeerrr555,,,,,,$$$$$$$$$$$$$$$$$$$$$$$$$$$   ...",
"&&&   $$$$$$$$$$$$$$$$$$$$$$$$$$$,,,>>>555rrr555rrr>>>>>>+++oooooo$$$$$$$$$$$$$$$$$$$$$$$$   ...",
"&&&   $$$$$$$$$$$$$$$$$$$$$$$$$$$,,,>>>555rrr555rrr>>>>>>+++oooooo$$$$$$$$$$$$$$$$$$$$$$$$   ...",
"&&&   $$$$$$$$$$$$$$$$$$$$$$$$$$$,,,>>>555rrr555rrr>>>>>>+++oooooo$$$$$$$$$$$$$$$$$$$$$$$$   ...",
"&&&   $$$$$$$$$$$$$$$$$$$$$$$$@@@@@@@@@>>>>>>>>>:::++++++++++++$$$$$$$$$$$$$$$$$$$$$$$$$$$   ...",
"&&&   $$$$$$$$$$$$$$$$$$$$$$$$@@@@@@@@@>>>>>>>>>:::++++++++++++$$$$$$$$$$$$$$$$$$$$$$$$$$$   ...",
"&&&   $$$$$$$$$$$$$$$$$$$$$$$$@@@@@@@@@>>>>>>>>>:::++++++++++++$$$$$$$$$$$$$$$$$$$$$$$$$$$   ...",
"&&&   $$$$$$ooo$$$$$$$$$$$$@@@@@@@@@OOOOOOOOOOOOOOOOOOOOO@@@@@@+++$$$oooooo$$$$$$$$$$$$$$$   ###",
"&&&   $$$$$$ooo$$$$$$$$$$$$@@@@@@@@@OOOOOOOOOOOOOOOOOOOOO@@@@@@+++$$$oooooo$$$$$$$$$$$$$$$   ###",
"&&&   $$$$$$ooo$$$$$$$$$$$$@@@@@@@@@OOOOOOOOOOOOOOOOOOOOO@@@@@@+++$$$oooooo$$$$$$$$$$$$$$$   ###",
"%%%&&&   $$$$$$XXXXXXXXXooo+++@@@@@@@@@OOOOOOOOOOOOOOO@@@@@@@@@@@@$$$$$$$$$$$$$$$$$$$$$$$$   ###",
"%%%&&&   $$$$$$XXXXXXXXXooo+++@@@@@@@@@OOOOOOOOOOOOOOO@@@@@@@@@@@@$$$$$$$$$$$$$$$$$$$$$$$$   ###",
"%%%&&&   $$$$$$XXXXXXXXXooo+++@@@@@@@@@OOOOOOOOOOOOOOO@@@@@@@@@@@@$$$$$$$$$$$$$$$$$$$$$$$$   ###",
"###&&&   $$$$$$$$$$$$$$$ooo$$$@@@@@@@@@@@@@@@@@@@@@@@@@@@@@@@@@$$$$$$XXXXXXXXX$$$$$$$$$      ###",
"###&&&   $$$$$$$$$$$$$$$ooo$$$@@@@@@@@@@@@@@@@@@@@@@@@@@@@@@@@@$$$$$$XXXXXXXXX$$$$$$$$$      ###",
"###&&&   $$$$$$$$$$$$$$$ooo$$$@@@@@@@@@@@@@@@@@@@@@@@@@@@@@@@@@$$$$$$XXXXXXXXX$$$$$$$$$      ###",
"...%%%   $$$$$$$$$$$$$$$$$$$$$$$$$$$@@@@@@@@@@@@@@@@@@@@@$$$$$$XXXXXXXXXXXXXXX$$$$$$$$$      ###",
"...%%%   $$$$$$$$$$$$$$$$$$$$$$$$$$$@@@@@@@@@@@@@@@@@@@@@$$$$$$XXXXXXXXXXXXXXX$$$$$$$$$      ###",
"...%%%   $$$$$$$$$$$$$$$$$$$$$$$$$$$@@@@@@@@@@@@@@@@@@@@@$$$$$$XXXXXXXXXXXXXXX$$$$$$$$$      ###",
"...&&&   $$$$$$$$$$$$$$$$$$$$$$$$$$$$$$$$$$$$ooooooooo$$$$$$$$$$$$$$$$$$$$$$$$$$$            ###",
"...&&&   $$$$$$$$$$$$$$$$$$$$$$$$$$$$$$$$$$$$ooooooooo$$$$$$$$$$$$$$$$$$$$$$$$$$$            ###",
"...&&&   $$$$$$$$$$$$$$$$$$$$$$$$$$$$$$$$$$$$ooooooooo$$$$$$$$$$$$$$$$$$$$$$$$$$$            ###",
"%%%&&&   $$$$$$$$$$$$$$$$$$$$$$$$$$$$$$$$$ooooooXXXXXXooo$$$$$$$$$$$$$$$$$$$$$$$$XXXXXXXXX   &&&",
"%%%&&&   $$$$$$$$$$$$$$$$$$$$$$$$$$$$$$$$$ooooooXXXXXXooo$$$$$$$$$$$$$$$$$$$$$$$$XXXXXXXXX   &&&",
"%%%&&&   $$$$$$$$$$$$$$$$$$$$$$$$$$$$$$$$$ooooooXXXXXXooo$$$$$$$$$$$$$$$$$$$$$$$$XXXXXXXXX   &&&",
"%%%%%%      $$$$$$$$$$$$$$$$$$$$$$$$$$$oooXXXXXX$$$$$$$$$$$$$$$$$$$$$$$$$$$      $$$XXX   &&&&&&",
"%%%%%%      $$$$$$$$$$$$$$$$$$$$$$$$$$$oooXXXXXX$$$$$$$$$$$$$$$$$$$$$$$$$$$      $$$XXX   &&&&&&",
"%%%%%%      $$$$$$$$$$$$$$$$$$$$$$$$$$$oooXXXXXX$$$$$$$$$$$$$$$$$$$$$$$$$$$      $$$XXX   &&&&&&",
"######%%%            $$$$$$$$$$$$$$$$$$$$$$$$$$$$$$$$$$$$$$$$$$$$$$$$         XXX$$$   %%%%%%%%%",
"######%%%            $$$$$$$$$$$$$$$$$$$$$$$$$$$$$$$$$$$$$$$$$$$$$$$$         XXX$$$   %%%%%%%%%",
"######%%%            $$$$$$$$$$$$$$$$$$$$$$$$$$$$$$$$$$$$$$$$$$$$$$$$         XXX$$$   %%%%%%%%%",
"######%%%      $$$XXX      XXXXXX   $$$$$$$$$$$$$$$$$$$$$$$$$$$         $$$$$$$$$   &&&###%%%###",
"######%%%      $$$XXX      XXXXXX   $$$$$$$$$$$$$$$$$$$$$$$$$$$         $$$$$$$$$   &&&###%%%###",
"######%%%      $$$XXX      XXXXXX   $$$$$$$$$$$$$$$$$$$$$$$$$$$         $$$$$$$$$   &&&###%%%###",
"#########&&&      $$$XXXXXX$$$XXXXXX      XXX         XXXXXX   XXXXXX$$$$$$$$$   &&&&&&&&&%%%###",
"#########&&&      $$$XXXXXX$$$XXXXXX      XXX         XXXXXX   XXXXXX$$$$$$$$$   &&&&&&&&&%%%###",
"#########&&&      $$$XXXXXX$$$XXXXXX      XXX         XXXXXX   XXXXXX$$$$$$$$$   &&&&&&&&&%%%###",
"############%%%%%%      XXX$$$$$$XXXXXX$$$XXXXXXXXXXXXXXX$$$XXXXXXXXX$$$$$$   &&&&&&###%%%######",
"############%%%%%%      XXX$$$$$$XXXXXX$$$XXXXXXXXXXXXXXX$$$XXXXXXXXX$$$$$$   &&&&&&###%%%######",
"############%%%%%%      XXX$$$$$$XXXXXX$$$XXXXXXXXXXXXXXX$$$XXXXXXXXX$$$$$$   &&&&&&###%%%######",
"###############%%%&&&&&&                  $$$XXXXXXXXXXXX$$$XXXXXX         &&&&&&...###%%%######",
"###############%%%&&&&&&                  $$$XXXXXXXXXXXX$$$XXXXXX         &&&&&&...###%%%######",
"###############%%%&&&&&&                  $$$XXXXXXXXXXXX$$$XXXXXX         &&&&&&...###%%%######",
"###############......%%%&&&&&&%%%&&&&&&&&&                           &&&&&&%%%%%%%%%%%%%%%######",
"###############......%%%&&&&&&%%%&&&&&&&&&                           &&&&&&%%%%%%%%%%%%%%%######",
"###############......%%%&&&&&&%%%&&&&&&&&&                           &&&&&&%%%%%%%%%%%%%%%######",
"###############.........%%%%%%%%%%%%&&&&&&&&&&&&&&&&&&&&&&&&&&&%%%%%%%%%######%%%###############",
"###############.........%%%%%%%%%%%%&&&&&&&&&&&&&&&&&&&&&&&&&&&%%%%%%%%%######%%%###############",
"###############.........%%%%%%%%%%%%&&&&&&&&&&&&&&&&&&&&&&&&&&&%%%%%%%%%######%%%###############",
"############...............%%%%%%%%%%%%&&&&&&%%%%%%%%%%%%%%%###############%%%%%%###############",
"############...............%%%%%%%%%%%%&&&&&&%%%%%%%%%%%%%%%###############%%%%%%###############",
"############...............%%%%%%%%%%%%&&&&&&%%%%%%%%%%%%%%%###############%%%%%%###############",
"###..................%%%%%%%%%#####################%%%%%%%%%%%%############%%%%%%###############",
"###..................%%%%%%%%%#####################%%%%%%%%%%%%############%%%%%%###############",
"###..................%%%%%%%%%#####################%%%%%%%%%%%%############%%%%%%###############"
};
