/* XPM */
static char *so_long_e1744419972[] = {
/* columns rows colors chars-per-pixel */
"96 96 8 1 ",
"  c #4D1807",
". c #921F0D",
"X c #E46800",
"o c #FFAA41",
"O c #365191",
"+ c #7E97EC",
"@ c #9FB2F2",
"# c #D7DAFC",
/* pixels */
"                     XXXXXX...............XXXXXXXXXXXXXXXXXXXXXXXXXXXXXX......XXX...............",
"                     XXXXXX...............XXXXXXXXXXXXXXXXXXXXXXXXXXXXXX......XXX...............",
"                     XXXXXX...............XXXXXXXXXXXXXXXXXXXXXXXXXXXXXX......XXX...............",
"                        XXXXXXXXX......XXXXXX.....................XXXXXXXXXXXXXXX...............",
"                        XXXXXXXXX......XXXXXX.....................XXXXXXXXXXXXXXX...............",
"                        XXXXXXXXX......XXXXXX.....................XXXXXXXXXXXXXXX...............",
"...                  ......XXXXXXXXXXXXXXXOOOOOOOOOOOOOOO......OOOOOOXXXXXXXXXXXX...............",
"...                  ......XXXXXXXXXXXXXXXOOOOOOOOOOOOOOO......OOOOOOXXXXXXXXXXXX...............",
"...                  ......XXXXXXXXXXXXXXXOOOOOOOOOOOOOOO......OOOOOOXXXXXXXXXXXX...............",
"XXX...            ...XXXXXXoooXXX...OOOOOO############OOOOOOOOO######OOOOOOXXXXXX......XXXXXXXXX",
"XXX...            ...XXXXXXoooXXX...OOOOOO############OOOOOOOOO######OOOOOOXXXXXX......XXXXXXXXX",
"XXX...            ...XXXXXXoooXXX...OOOOOO############OOOOOOOOO######OOOOOOXXXXXX......XXXXXXXXX",
"XXXXXX.........XXXXXXXXXoooOOOOOOOOO#######################################OOOXXXXXXXXXXXX......",
"XXXXXX.........XXXXXXXXXoooOOOOOOOOO#######################################OOOXXXXXXXXXXXX......",
"XXXXXX.........XXXXXXXXXoooOOOOOOOOO#######################################OOOXXXXXXXXXXXX......",
"XXXXXXXXXXXXXXXXXXXXXXXXOOO###################################################OOO.........      ",
"XXXXXXXXXXXXXXXXXXXXXXXXOOO###################################################OOO.........      ",
"XXXXXXXXXXXXXXXXXXXXXXXXOOO###################################################OOO.........      ",
"XXXXXXXXX      XXX   OOOOOO######################################################OOO      XXXXXX",
"XXXXXXXXX      XXX   OOOOOO######################################################OOO      XXXXXX",
"XXXXXXXXX      XXX   OOOOOO######################################################OOO      XXXXXX",
"               OOOOOO###############################################################OOOXXXXXX   ",
"               OOOOOO###############################################################OOOXXXXXX   ",
"               OOOOOO###############################################################OOOXXXXXX   ",
"            OOO###############@@@###@@@@@@@@@@@@@@@##############################++++++OOO      ",
"            OOO###############@@@###@@@@@@@@@@@@@@@##############################++++++OOO      ",
"            OOO###############@@@###@@@@@@@@@@@@@@@##############################++++++OOO      ",
"         OOO###############@@@@@@##################@@@@@@##############################OOO      ",
"         OOO###############@@@@@@##################@@@@@@##############################OOO      ",
"         OOO###############@@@@@@##################@@@@@@##############################OOO      ",
"   XXXXXXOOO##############################################################################OOO   ",
"   XXXXXXOOO##############################################################################OOO   ",
"   XXXXXXOOO##############################################################################OOO   ",
"XXXXXXOOOOOO######@@@@@@@@@@@@###################################################@@@######OOOXXX",
"XXXXXXOOOOOO######@@@@@@@@@@@@###################################################@@@######OOOXXX",
"XXXXXXOOOOOO######@@@@@@@@@@@@###################################################@@@######OOOXXX",
"   XXXOOO############@@@++++++##########################################@@@@@@############OOOXXX",
"   XXXOOO############@@@++++++##########################################@@@@@@############OOOXXX",
"   XXXOOO############@@@++++++##########################################@@@@@@############OOOXXX",
"XXXXXXOOO##################++++++++++++###################################################OOO   ",
"XXXXXXOOO##################++++++++++++###################################################OOO   ",
"XXXXXXOOO##################++++++++++++###################################################OOO   ",
"oooOOO###################################################@@@@@@@@@########################OOO   ",
"oooOOO###################################################@@@@@@@@@########################OOO   ",
"oooOOO###################################################@@@@@@@@@########################OOO   ",
"oooOOO##########################################@@@@@@@@@@@@@@@###########################OOO   ",
"oooOOO##########################################@@@@@@@@@@@@@@@###########################OOO   ",
"oooOOO##########################################@@@@@@@@@@@@@@@###########################OOO   ",
"oooOOO######@@@################################################@@@###@@@@@@###############OOO...",
"oooOOO######@@@################################################@@@###@@@@@@###############OOO...",
"oooOOO######@@@################################################@@@###@@@@@@###############OOO...",
"XXXoooOOO######+++++++++@@@@@@############################################################OOO...",
"XXXoooOOO######+++++++++@@@@@@############################################################OOO...",
"XXXoooOOO######+++++++++@@@@@@############################################################OOO...",
"...oooOOO###############@@@##########################################+++++++++#########OOOOOO...",
"...oooOOO###############@@@##########################################+++++++++#########OOOOOO...",
"...oooOOO###############@@@##########################################+++++++++#########OOOOOO...",
"   XXXOOO######################################################+++++++++++++++#########OOOOOO...",
"   XXXOOO######################################################+++++++++++++++#########OOOOOO...",
"   XXXOOO######################################################+++++++++++++++#########OOOOOO...",
"   oooOOO####################################@@@@@@@@@###########################OOOOOOOOOOOO...",
"   oooOOO####################################@@@@@@@@@###########################OOOOOOOOOOOO...",
"   oooOOO####################################@@@@@@@@@###########################OOOOOOOOOOOO...",
"XXXoooOOO#################################@@@@@@++++++@@@########################+++++++++OOOooo",
"XXXoooOOO#################################@@@@@@++++++@@@########################+++++++++OOOooo",
"XXXoooOOO#################################@@@@@@++++++@@@########################+++++++++OOOooo",
"XXXXXXOOOOOO###########################@@@++++++###########################OOOOOO###+++OOOoooooo",
"XXXXXXOOOOOO###########################@@@++++++###########################OOOOOO###+++OOOoooooo",
"XXXXXXOOOOOO###########################@@@++++++###########################OOOOOO###+++OOOoooooo",
"......XXXOOOOOOOOOOOO################################################OOOOOOOOO+++###OOOXXXXXXXXX",
"......XXXOOOOOOOOOOOO################################################OOOOOOOOO+++###OOOXXXXXXXXX",
"......XXXOOOOOOOOOOOO################################################OOOOOOOOO+++###OOOXXXXXXXXX",
"......XXXOOOOOO###+++OOOOOO++++++OOO###########################OOOOOOOOO#########OOOooo...XXX...",
"......XXXOOOOOO###+++OOOOOO++++++OOO###########################OOOOOOOOO#########OOOooo...XXX...",
"......XXXOOOOOO###+++OOOOOO++++++OOO###########################OOOOOOOOO#########OOOooo...XXX...",
".........oooOOOOOO###++++++###++++++OOOOOO+++OOOOOOOOO++++++OOO++++++#########OOOoooooooooXXX...",
".........oooOOOOOO###++++++###++++++OOOOOO+++OOOOOOOOO++++++OOO++++++#########OOOoooooooooXXX...",
".........oooOOOOOO###++++++###++++++OOOOOO+++OOOOOOOOO++++++OOO++++++#########OOOoooooooooXXX...",
"............XXXXXXOOOOOO+++######++++++###+++++++++++++++###+++++++++######OOOoooooo...XXX......",
"............XXXXXXOOOOOO+++######++++++###+++++++++++++++###+++++++++######OOOoooooo...XXX......",
"............XXXXXXOOOOOO+++######++++++###+++++++++++++++###+++++++++######OOOoooooo...XXX......",
"...............XXXooooooOOOOOOOOOOOOOOOOOO###++++++++++++###++++++OOOOOOOOOoooooo   ...XXX......",
"...............XXXooooooOOOOOOOOOOOOOOOOOO###++++++++++++###++++++OOOOOOOOOoooooo   ...XXX......",
"...............XXXooooooOOOOOOOOOOOOOOOOOO###++++++++++++###++++++OOOOOOOOOoooooo   ...XXX......",
"...............      XXXooooooXXXoooooooooOOOOOOOOOOOOOOOOOOOOOOOOOOOooooooXXXXXXXXXXXXXXX......",
"...............      XXXooooooXXXoooooooooOOOOOOOOOOOOOOOOOOOOOOOOOOOooooooXXXXXXXXXXXXXXX......",
"...............      XXXooooooXXXoooooooooOOOOOOOOOOOOOOOOOOOOOOOOOOOooooooXXXXXXXXXXXXXXX......",
"...............         XXXXXXXXXXXXoooooooooooooooooooooooooooXXXXXXXXX......XXX...............",
"...............         XXXXXXXXXXXXoooooooooooooooooooooooooooXXXXXXXXX......XXX...............",
"...............         XXXXXXXXXXXXoooooooooooooooooooooooooooXXXXXXXXX......XXX...............",
"............               XXXXXXXXXXXXooooooXXXXXXXXXXXXXXX...............XXXXXX...............",
"............               XXXXXXXXXXXXooooooXXXXXXXXXXXXXXX...............XXXXXX...............",
"............               XXXXXXXXXXXXooooooXXXXXXXXXXXXXXX...............XXXXXX...............",
"...                  XXXXXXXXX.....................XXXXXXXXXXXX............XXXXXX...............",
"...                  XXXXXXXXX.....................XXXXXXXXXXXX............XXXXXX...............",
"...                  XXXXXXXXX.....................XXXXXXXXXXXX............XXXXXX..............."
};
