/* XPM */
static char *HUD_41744829231[] = {
/* columns rows colors chars-per-pixel */
"32 32 6 1 ",
"  c #0E143A",
". c #2C54A5",
"X c #71ACF7",
"o c #848AD2",
"O c #BBD2FF",
"+ c #E6EDFA",
/* pixels */
" XXXXXXXXXXXXXXXXXXXXXXXXXXXXXX ",
"XX                            XX",
"X                              X",
"X                              X",
"X                              X",
"X                              X",
"X                              X",
"X                              X",
"X                              X",
"X           .......            X",
"X          .XXXXXXX.           X",
"X         .XO+++OOOX.          X",
"X         .X++OOOOOX.          X",
"X         .XOOOOOOOX.          X",
"X         .XOX.OOOOX.          X",
"X         .XO..OOOOX.          X",
"X         .XO..OOOOOX.         X",
"X         .XOOOOOOoOX.         X",
"X         .XXXXOOooOX.         X",
"X         .....XooO..          X",
"X             .XooO.           X",
"X             .XXXX.           X",
"X             .....            X",
"X                              X",
"X                              X",
"X                              X",
"X                              X",
"X                              X",
"X                              X",
"X                              X",
"XX                            XX",
" XXXXXXXXXXXXXXXXXXXXXXXXXXXXXX "
};
