/* XPM */
static char *HUD_x1744829232[] = {
/* columns rows colors chars-per-pixel */
"32 32 6 1 ",
"  c #0E143A",
". c #2C54A5",
"X c #71ACF7",
"o c #848AD2",
"O c #BBD2FF",
"+ c #E6EDFA",
/* pixels */
" XXXXXXXXXXXXXXXXXXXXXXXXXXXXXX ",
"XX                            XX",
"X                              X",
"X                              X",
"X                              X",
"X                              X",
"X                              X",
"X                              X",
"X                              X",
"X                              X",
"X           ..    ..           X",
"X          .++.  .++.          X",
"X         .++O+..++OX.         X",
"X         .XOOO++OOOX.         X",
"X          .XOOOOOOX.          X",
"X           .XOOOOX.           X",
"X           .XOOOOX.           X",
"X          .XOOoooOX.          X",
"X         .XOOoXXoooX.         X",
"X         .XOOX..XooX.         X",
"X          .XX.  .XX.          X",
"X           ..    ..           X",
"X                              X",
"X                              X",
"X                              X",
"X                              X",
"X                              X",
"X                              X",
"X                              X",
"X                              X",
"XX                            XX",
" XXXXXXXXXXXXXXXXXXXXXXXXXXXXXX "
};
