/* XPM */
static char *HUD_c1744931098[] = {
/* columns rows colors chars-per-pixel */
"32 32 9 1 ",
"  c #4D0909",
". c #7D3D05",
"X c #B7352B",
"o c #D77E30",
"O c #2C54A5",
"+ c #71ACF7",
"@ c #848AD2",
"# c #BBD2FF",
"$ c #E6EDFA",
/* pixels */
"                                ",
"                                ",
"                                ",
"................................",
"................................",
"oooooooooooooooooooooooooooooooo",
"oooooooooooooooooooooooooooooooo",
"ooooooooooooooooOOoooooooooooooo",
"ooooooooooooooOO++OOoooooooooooo",
"ooooooooooooOO+####+OOoooooooooo",
"oooooooooooO++#######+O.oooooooo",
"ooooooooooO+#$###$$$##+O..oooooo",
"oooooooooO+#+#$$$$$##++O...ooooo",
"oooooooooO+##++#$#++##+O....oooo",
"oooooooooO+######+####+O....oooo",
"oooooooooO+#####+####@+O....oooo",
"oooooooooO+#####+####@+O....oooo",
"oooooooooO+#########@@+O....oooo",
"oooooooooO+########@@@+O....oooo",
"ooooooooooO+######@@#+O.....oooo",
"ooooooooooOO+###+##+OO......oooo",
"ooooooooooooOO+#+#OO.......ooooo",
"ooooooooooooooOOOO........oooooo",
"oooooooooooooooo........oooooooo",
"oooooooooooooooooo....oooooooooo",
"oooooooooooooooooooooooooooooooo",
"XXXXXXXXXXXXXXXXXXXXXXXXXXXXXXXX",
"XXXXXXXXXXXXXXXXXXXXXXXXXXXXXXXX",
"XXXXXXXXXXXXXXXXXXXXXXXXXXXXXXXX",
"XXXXXXXXXXXXXXXXXXXXXXXXXXXXXXXX",
"                                ",
"                                "
};
