/* XPM */
static char *HUD_21744829230[] = {
/* columns rows colors chars-per-pixel */
"32 32 6 1 ",
"  c #0E143A",
". c #2C54A5",
"X c #71ACF7",
"o c #848AD2",
"O c #BBD2FF",
"+ c #E6EDFA",
/* pixels */
" XXXXXXXXXXXXXXXXXXXXXXXXXXXXXX ",
"XX                            XX",
"X                              X",
"X                              X",
"X                              X",
"X                              X",
"X                              X",
"X                              X",
"X                              X",
"X           ........           X",
"X          .XXXXXXXX.          X",
"X         .XOOOO+++OX.         X",
"X         .XOOOOOO++X.         X",
"X         ......OOO+X.         X",
"X           ....OOOOX.         X",
"X         ..XXXXOOOOX.         X",
"X         .XOOOOOOOO..         X",
"X         .XOOOO....           X",
"X         .XoOOO......         X",
"X         .XoooOOOOOX.         X",
"X         .XOoooOOOOX.         X",
"X          .XXXXXXXX.          X",
"X           ........           X",
"X                              X",
"X                              X",
"X                              X",
"X                              X",
"X                              X",
"X                              X",
"X                              X",
"XX                            XX",
" XXXXXXXXXXXXXXXXXXXXXXXXXXXXXX "
};
