/* XPM */
static char *HUD_91744829232[] = {
/* columns rows colors chars-per-pixel */
"32 32 6 1 ",
"  c #0E143A",
". c #2C54A5",
"X c #71ACF7",
"o c #848AD2",
"O c #BBD2FF",
"+ c #E6EDFA",
/* pixels */
" XXXXXXXXXXXXXXXXXXXXXXXXXXXXXX ",
"XX                            XX",
"X                              X",
"X                              X",
"X                              X",
"X                              X",
"X                              X",
"X                              X",
"X                              X",
"X           ........           X",
"X          .XXXXXXXX.          X",
"X         .XOOOO+++OX.         X",
"X         .XOOOOOO++X.         X",
"X         .XO...OOO+X.         X",
"X         .XO...OOOOX.         X",
"X         .XOOOOOOOOX.         X",
"X         ..OOOOOOOOX.         X",
"X           ....OOOoX.         X",
"X         ......OOooX.         X",
"X         .XOOOOOOooX.         X",
"X         .XOOOOOooOX.         X",
"X          .XXXXXXXX.          X",
"X           ........           X",
"X                              X",
"X                              X",
"X                              X",
"X                              X",
"X                              X",
"X                              X",
"X                              X",
"XX                            XX",
" XXXXXXXXXXXXXXXXXXXXXXXXXXXXXX "
};
