/* XPM */
static char *HUD_71744931098[] = {
/* columns rows colors chars-per-pixel */
"32 32 9 1 ",
"  c #4D0909",
". c #7D3D05",
"X c #B7352B",
"o c #D77E30",
"O c #2C54A5",
"+ c #71ACF7",
"@ c #848AD2",
"# c #BBD2FF",
"$ c #E6EDFA",
/* pixels */
"                                ",
"                                ",
"                                ",
"................................",
"................................",
"oooooooooooooooooooooooooooooooo",
"oooooooooooooooooooooooooooooooo",
"oooooooooooooooooooooooooooooooo",
"ooooooooooooOOOOOOOOoooooooooooo",
"oooooooooooO++++++++Oooooooooooo",
"ooooooooooO+####$$$#+O.ooooooooo",
"ooooooooooO+######$$+O..oooooooo",
"ooooooooooOOOOO+###$+O...ooooooo",
"ooooooooooooooO+####+O...ooooooo",
"ooooooooooooooO+####+O...ooooooo",
"ooooooooooooooO+####+O...ooooooo",
"ooooooooooooooO+###@+O...ooooooo",
"ooooooooooooooO+##@@+O...ooooooo",
"ooooooooooooooO+##@@+O...ooooooo",
"ooooooooooooooO+##@#+O...ooooooo",
"ooooooooooooooO+++++O....ooooooo",
"ooooooooooooooOOOOOO.....ooooooo",
"oooooooooooooooooo......oooooooo",
"oooooooooooooooooo.....ooooooooo",
"oooooooooooooooooooooooooooooooo",
"oooooooooooooooooooooooooooooooo",
"XXXXXXXXXXXXXXXXXXXXXXXXXXXXXXXX",
"XXXXXXXXXXXXXXXXXXXXXXXXXXXXXXXX",
"XXXXXXXXXXXXXXXXXXXXXXXXXXXXXXXX",
"XXXXXXXXXXXXXXXXXXXXXXXXXXXXXXXX",
"                                ",
"                                "
};
