/* XPM */
static char *HUD_11744829230[] = {
/* columns rows colors chars-per-pixel */
"32 32 6 1 ",
"  c #0E143A",
". c #2C54A5",
"X c #71ACF7",
"o c #848AD2",
"O c #BBD2FF",
"+ c #E6EDFA",
/* pixels */
" XXXXXXXXXXXXXXXXXXXXXXXXXXXXXX ",
"XX                            XX",
"X                              X",
"X                              X",
"X                              X",
"X                              X",
"X                              X",
"X                              X",
"X                              X",
"X            .......           X",
"X           .XXXXXXX.          X",
"X          .XO+++OOOX.         X",
"X         .XO++OOOOOX.         X",
"X         .XOOOOOOOOX.         X",
"X         .XXOOOOOOOX.         X",
"X          ..XOOOOOOX.         X",
"X           .XOOOOOOX.         X",
"X           .XOOOOOoX.         X",
"X           .XOOOOooX.         X",
"X           .XOOOOooX.         X",
"X           .XOOOooOX.         X",
"X            .XXXXXX.          X",
"X             ......           X",
"X                              X",
"X                              X",
"X                              X",
"X                              X",
"X                              X",
"X                              X",
"X                              X",
"XX                            XX",
" XXXXXXXXXXXXXXXXXXXXXXXXXXXXXX "
};
