/* XPM */
static char *HUD_p1744931098[] = {
/* columns rows colors chars-per-pixel */
"32 32 11 1 ",
"  c #4D0909",
". c #7D3D05",
"X c #B7352B",
"o c #D77E30",
"O c #2C54A5",
"+ c #7B98FF",
"@ c #71ACF7",
"# c #848AD2",
"$ c #F6BAE2",
"% c #CDDEFF",
"& c #E6EDFA",
/* pixels */
"                                ",
"                                ",
"                                ",
"................................",
"................................",
"oooooooooooooooooooooooooooooooo",
"oooooooooooooooooooooooooooooooo",
"ooooooooooooooOOOOoooooooooooooo",
"ooooooooooooOO@@@@OOoooooooooooo",
"oooooooooooO@@&&&&@@Oooooooooooo",
"ooooooooooO@%&&&&&&&@Ooooooooooo",
"oooooooooO@%%%&&&&&%%%Oooooooooo",
"ooooooooO@%%%%%%%%%%%%%Ooooooooo",
"ooooooooO@%%%%%%%%%%%%+O.ooooooo",
"oooooooO@%%%%%%%%%%%%%+%O.oooooo",
"oooooooO@%%%%%%%%%%%+%%%O..ooooo",
"oooooooO@#%%%%%%%%%%+%%%O..ooooo",
"oooooooO@##%%%%%%%%%%%+%O...oooo",
"ooooooooO@##%%%%%%%$$%%O....oooo",
"oooooooooO@@##%%%%%%%%O.....oooo",
"ooooooooooOO@@@@@@@@OO......oooo",
"ooooooooooo.OOOOOOOO.......ooooo",
"oooooooooooo..............oooooo",
"oooooooooooooo..........oooooooo",
"oooooooooooooooooooooooooooooooo",
"oooooooooooooooooooooooooooooooo",
"XXXXXXXXXXXXXXXXXXXXXXXXXXXXXXXX",
"XXXXXXXXXXXXXXXXXXXXXXXXXXXXXXXX",
"XXXXXXXXXXXXXXXXXXXXXXXXXXXXXXXX",
"XXXXXXXXXXXXXXXXXXXXXXXXXXXXXXXX",
"                                ",
"                                "
};
