/* XPM */
static char *HUD_51744829231[] = {
/* columns rows colors chars-per-pixel */
"32 32 6 1 ",
"  c #0E143A",
". c #2C54A5",
"X c #71ACF7",
"o c #848AD2",
"O c #BBD2FF",
"+ c #E6EDFA",
/* pixels */
" XXXXXXXXXXXXXXXXXXXXXXXXXXXXXX ",
"XX                            XX",
"X                              X",
"X                              X",
"X                              X",
"X                              X",
"X                              X",
"X                              X",
"X                              X",
"X           ........           X",
"X          .XXXXXXXX.          X",
"X         .XO+++OOOOX.         X",
"X         .X++OOOOOOX.         X",
"X         .X+OOO......         X",
"X         .XOOOO....           X",
"X         .XOOOOXXXX..         X",
"X         ..OOOOOOOOX.         X",
"X           ....OOOOX.         X",
"X         ......OOOoX.         X",
"X         .XOOOOOoooX.         X",
"X         .XOOOOoooOX.         X",
"X          .XXXXXXXX.          X",
"X           ........           X",
"X                              X",
"X                              X",
"X                              X",
"X                              X",
"X                              X",
"X                              X",
"X                              X",
"XX                            XX",
" XXXXXXXXXXXXXXXXXXXXXXXXXXXXXX "
};
