/* XPM */
static char *HUD_71744829231[] = {
/* columns rows colors chars-per-pixel */
"32 32 6 1 ",
"  c #0E143A",
". c #2C54A5",
"X c #71ACF7",
"o c #848AD2",
"O c #BBD2FF",
"+ c #E6EDFA",
/* pixels */
" XXXXXXXXXXXXXXXXXXXXXXXXXXXXXX ",
"XX                            XX",
"X                              X",
"X                              X",
"X                              X",
"X                              X",
"X                              X",
"X                              X",
"X                              X",
"X           ........           X",
"X          .XXXXXXXX.          X",
"X         .XOOOO+++OX.         X",
"X         .XOOOOOO++X.         X",
"X         .......XO+X.         X",
"X               .XOOX.         X",
"X               .XOOX.         X",
"X               .XOOX.         X",
"X               .XOoX.         X",
"X               .XooX.         X",
"X               .XooX.         X",
"X               .XoOX.         X",
"X               .XXX.          X",
"X               ....           X",
"X                              X",
"X                              X",
"X                              X",
"X                              X",
"X                              X",
"X                              X",
"X                              X",
"XX                            XX",
" XXXXXXXXXXXXXXXXXXXXXXXXXXXXXX "
};
