/* XPM */
static char *HUD_c1744829232[] = {
/* columns rows colors chars-per-pixel */
"32 32 6 1 ",
"  c #0E143A",
". c #2C54A5",
"X c #71ACF7",
"o c #848AD2",
"O c #BBD2FF",
"+ c #E6EDFA",
/* pixels */
" XXXXXXXXXXXXXXXXXXXXXXXXXXXXXX ",
"XX                            XX",
"X                              X",
"X                              X",
"X                              X",
"X                              X",
"X                              X",
"X                              X",
"X               ..             X",
"X             ..XX..           X",
"X           ..XOOOOX..         X",
"X          .XXOOOOOOOX.        X",
"X         .XO+OOO+++OOX.       X",
"X        .XOXO+++++OOXX.       X",
"X        .XOOXXO+OXXOOX.       X",
"X        .XOOOOOOXOOOOX.       X",
"X        .XOOOOOXOOOOoX.       X",
"X        .XOOOOOXOOOOoX.       X",
"X        .XOOOOOOOOOooX.       X",
"X        .XOOOOOOOOoooX.       X",
"X         .XOOOOOOooOX.        X",
"X         ..XOOOXOOX..         X",
"X           ..XOXO..           X",
"X             ....             X",
"X                              X",
"X                              X",
"X                              X",
"X                              X",
"X                              X",
"X                              X",
"XX                            XX",
" XXXXXXXXXXXXXXXXXXXXXXXXXXXXXX "
};
