/* XPM */
static char *HUD_31744829230[] = {
/* columns rows colors chars-per-pixel */
"32 32 6 1 ",
"  c #0E143A",
". c #2C54A5",
"X c #71ACF7",
"o c #848AD2",
"O c #BBD2FF",
"+ c #E6EDFA",
/* pixels */
" XXXXXXXXXXXXXXXXXXXXXXXXXXXXXX ",
"XX                            XX",
"X                              X",
"X                              X",
"X                              X",
"X                              X",
"X                              X",
"X                              X",
"X                              X",
"X           ........           X",
"X          .XXXXXXXX.          X",
"X         .XXOOO+++OX.         X",
"X         .XOOOOOO++X.         X",
"X         .XO...OOO+X.         X",
"X         .XX...OOOOX.         X",
"X          ..OOOOOOOX.         X",
"X          ..OOOOOOOX.         X",
"X         .XX...OOOoX.         X",
"X         .XO...OOooX.         X",
"X         .XOOOOOOooX.         X",
"X         .XOOOOOooOX.         X",
"X          .XXXXXXXX.          X",
"X           ........           X",
"X                              X",
"X                              X",
"X                              X",
"X                              X",
"X                              X",
"X                              X",
"X                              X",
"XX                            XX",
" XXXXXXXXXXXXXXXXXXXXXXXXXXXXXX "
};
