/* XPM */
static char *HUD_01744829230[] = {
/* columns rows colors chars-per-pixel */
"32 32 6 1 ",
"  c #0E143A",
". c #2C54A5",
"X c #71ACF7",
"o c #848AD2",
"O c #BBD2FF",
"+ c #E6EDFA",
/* pixels */
" XXXXXXXXXXXXXXXXXXXXXXXXXXXXXX ",
"XX                            XX",
"X                              X",
"X                              X",
"X                              X",
"X                              X",
"X                              X",
"X                              X",
"X                              X",
"X           ........           X",
"X          .XXXXXXXX.          X",
"X         .XO+++OOOOX.         X",
"X         .X++OOOOOOX.         X",
"X         .X+OOOOOOOX.         X",
"X         .XOOOOOOOOX.         X",
"X         .XOOOOOOOOX.         X",
"X         .XOO.OOOOOX.         X",
"X         .XO...OOOoX.         X",
"X         .XO...OOooX.         X",
"X         .XOO.OOOooX.         X",
"X         .XOOOOOooOX.         X",
"X          .XXXXXXXX.          X",
"X           ........           X",
"X                              X",
"X                              X",
"X                              X",
"X                              X",
"X                              X",
"X                              X",
"X                              X",
"XX                            XX",
" XXXXXXXXXXXXXXXXXXXXXXXXXXXXXX "
};
