/* XPM */
static char *HUD_p1744829232[] = {
/* columns rows colors chars-per-pixel */
"32 32 8 1 ",
"  c #0E143A",
". c #2C54A5",
"X c #7B98FF",
"o c #71ACF7",
"O c #848AD2",
"+ c #F6BAE2",
"@ c #CDDEFF",
"# c #E6EDFA",
/* pixels */
" oooooooooooooooooooooooooooooo ",
"oo                            oo",
"o                              o",
"o                              o",
"o                              o",
"o                              o",
"o                              o",
"o                              o",
"o                              o",
"o             ....             o",
"o           ..@@@@..           o",
"o          .@@####@@.          o",
"o         .@@#######@.         o",
"o        .@@@@#####@@@.        o",
"o       .@@@@@@@@@@@@@@.       o",
"o       .@@@@@@@@@@@@@X.       o",
"o      .@@@@@@@@@@@@@@X@.      o",
"o      .@@@@@@@@@@@@X@@@.      o",
"o      .@O@@@@@@@@@@X@@@.      o",
"o      .@OO@@@@@@@@@@@X@.      o",
"o       .@OO@@@@@@@++@@.       o",
"o        .@@OO@@@@@@@@.        o",
"o         ..@@@@@@@@..         o",
"o           ........           o",
"o                              o",
"o                              o",
"o                              o",
"o                              o",
"o                              o",
"o                              o",
"oo                            oo",
" oooooooooooooooooooooooooooooo "
};
