/* XPM */
static char *HUD_61744829231[] = {
/* columns rows colors chars-per-pixel */
"32 32 6 1 ",
"  c #0E143A",
". c #2C54A5",
"X c #71ACF7",
"o c #848AD2",
"O c #BBD2FF",
"+ c #E6EDFA",
/* pixels */
" XXXXXXXXXXXXXXXXXXXXXXXXXXXXXX ",
"XX                            XX",
"X                              X",
"X                              X",
"X                              X",
"X                              X",
"X                              X",
"X                              X",
"X                              X",
"X           ........           X",
"X          .XXXXXXXX.          X",
"X         .XO+++OOOOX.         X",
"X         .X++OOOOOOX.         X",
"X         .XOOOO......         X",
"X         .XOOOO....           X",
"X         .XOOOOXXXX..         X",
"X         .XOOOOOOOOX.         X",
"X         .XoOOO...OX.         X",
"X         .XooOX...OX.         X",
"X         .XooOOXXOOX.         X",
"X         .XOooOOOOOX.         X",
"X          .XXXXXXXX.          X",
"X           ........           X",
"X                              X",
"X                              X",
"X                              X",
"X                              X",
"X                              X",
"X                              X",
"X                              X",
"XX                            XX",
" XXXXXXXXXXXXXXXXXXXXXXXXXXXXXX "
};
