/* XPM */
static char *HUD_11744931098[] = {
/* columns rows colors chars-per-pixel */
"32 32 9 1 ",
"  c #4D0909",
". c #7D3D05",
"X c #B7352B",
"o c #D77E30",
"O c #2C54A5",
"+ c #71ACF7",
"@ c #848AD2",
"# c #BBD2FF",
"$ c #E6EDFA",
/* pixels */
"                                ",
"                                ",
"                                ",
"................................",
"................................",
"oooooooooooooooooooooooooooooooo",
"oooooooooooooooooooooooooooooooo",
"oooooooooooooooooooooooooooooooo",
"oooooooooooooOOOOOOOoooooooooooo",
"ooooooooooooO+++++++Oooooooooooo",
"oooooooooooO+#$$$###+O.ooooooooo",
"ooooooooooO+#$$#####+O..oooooooo",
"ooooooooooO+########+O...ooooooo",
"ooooooooooO++#######+O...ooooooo",
"oooooooooooOO+######+O...ooooooo",
"ooooooooooooO+######+O...ooooooo",
"ooooooooooooO+#####@+O...ooooooo",
"ooooooooooooO+####@@+O...ooooooo",
"ooooooooooooO+####@@+O...ooooooo",
"ooooooooooooO+###@@#+O...ooooooo",
"oooooooooooooO++++++O....ooooooo",
"ooooooooooooooOOOOOO.....ooooooo",
"oooooooooooooooo........oooooooo",
"ooooooooooooooooo......ooooooooo",
"oooooooooooooooooooooooooooooooo",
"oooooooooooooooooooooooooooooooo",
"XXXXXXXXXXXXXXXXXXXXXXXXXXXXXXXX",
"XXXXXXXXXXXXXXXXXXXXXXXXXXXXXXXX",
"XXXXXXXXXXXXXXXXXXXXXXXXXXXXXXXX",
"XXXXXXXXXXXXXXXXXXXXXXXXXXXXXXXX",
"                                ",
"                                "
};
