/* XPM */
static char *HUD_x1744931098[] = {
/* columns rows colors chars-per-pixel */
"32 32 9 1 ",
"  c #4D0909",
". c #7D3D05",
"X c #B7352B",
"o c #D77E30",
"O c #2C54A5",
"+ c #71ACF7",
"@ c #848AD2",
"# c #BBD2FF",
"$ c #E6EDFA",
/* pixels */
"                                ",
"                                ",
"                                ",
"................................",
"................................",
"oooooooooooooooooooooooooooooooo",
"oooooooooooooooooooooooooooooooo",
"oooooooooooooooooooooooooooooooo",
"oooooooooooooooooooooooooooooooo",
"ooooooooooooOOooooOOoooooooooooo",
"oooooooooooO$$OooO$$Oooooooooooo",
"ooooooooooO$$#$OO$$#+O.ooooooooo",
"ooooooooooO+###$$###+O..oooooooo",
"oooooooooooO+######+O....ooooooo",
"ooooooooooooO+####+O.....ooooooo",
"ooooooooooooO+####+O....oooooooo",
"oooooooooooO+##@@@#+O..ooooooooo",
"ooooooooooO+##@++@@@+O.ooooooooo",
"ooooooooooO+##+OO+@@+O..oooooooo",
"oooooooooooO++O..O++O....ooooooo",
"ooooooooooooOO....OO.....ooooooo",
"oooooooooooooo....oo....oooooooo",
"ooooooooooooooo..oooo..ooooooooo",
"oooooooooooooooooooooooooooooooo",
"oooooooooooooooooooooooooooooooo",
"oooooooooooooooooooooooooooooooo",
"XXXXXXXXXXXXXXXXXXXXXXXXXXXXXXXX",
"XXXXXXXXXXXXXXXXXXXXXXXXXXXXXXXX",
"XXXXXXXXXXXXXXXXXXXXXXXXXXXXXXXX",
"XXXXXXXXXXXXXXXXXXXXXXXXXXXXXXXX",
"                                ",
"                                "
};
