/* XPM */
static char * l_0_xpm[] = {
"96 96 14 1",
" 	c #4D1807",
".	c #E46800",
"+	c #921F0D",
"@	c #350D01",
"#	c #FFAA41",
"$	c #8D3C24",
"%	c #722A15",
"&	c #602412",
"*	c #1325C6",
"=	c #1325C5",
"-	c #1326C6",
";	c #1225C6",
">	c #1225C5",
",	c #1326C5",
"                     ......+++++++++++++++..............................++++++...+++++++++++++++",
"                     ......+++++++++++++++..............................++++++...+++++++++++++++",
"                     ......+++++++++++++++..............................++++++...+++++++++++++++",
"                        .........++++++......+++++++++++++++++++++...............+++++++++++++++",
"                        .........++++++......+++++++++++++++++++++...............+++++++++++++++",
"                        .........++++++......+++++++++++++++++++++...............+++++++++++++++",
"+++                  ++++++...............@@@@@@@@@@@@@@@++++++@@@@@@............+++++++++++++++",
"+++                  ++++++...............@@@@@@@@@@@@@@@++++++@@@@@@............+++++++++++++++",
"+++                  ++++++...............@@@@@@@@@@@@@@@++++++@@@@@@............+++++++++++++++",
"...+++            +++......###...+++@@@@@@$$$$$$$$$$$$@@@@@@@@@$$$$$$@@@@@@......++++++.........",
"...+++            +++......###...+++@@@@@@$$$$$$$$$$$$@@@@@@@@@$$$$$$@@@@@@......++++++.........",
"...+++            +++......###...+++@@@@@@$$$$$$$$$$$$@@@@@@@@@$$$$$$@@@@@@......++++++.........",
"......+++++++++.........###@@@@@@@@@$$$$$$$$$$$$$$$$$$$$$$$$$$$$$$$$$$$$$$$@@@............++++++",
"......+++++++++.........###@@@@@@@@@$$$$$$$$$$$$$$$$$$$$$$$$$$$$$$$$$$$$$$$@@@............++++++",
"......+++++++++.........###@@@@@@@@@$$$$$$$$$$$$$$$$$$$$$$$$$$$$$$$$$$$$$$$@@@............++++++",
"........................@@@$$$$$$$$$$$$$$$$$$$$$$$$$$$$$$$$$$$$$$$$$$$$$$$$$$$@@@+++++++++      ",
"........................@@@$$$$$$$$$$$$$$$$$$$$$$$$$$$$$$$$$$$$$$$$$$$$$$$$$$$@@@+++++++++      ",
"........................@@@$$$$$$$$$$$$$$$$$$$$$$$$$$$$$$$$$$$$$$$$$$$$$$$$$$$@@@+++++++++      ",
".........      ...   @@@@@@$$$$$$$$$$$$$$$$$$$$$$$$$$$$$$$$$$$$$$$$$$$$$$$$$$$$$$@@@      ......",
".........      ...   @@@@@@$$$$$$$$$$$$$$$$$$$$$$$$$$$$$$$$$$$$$$$$$$$$$$$$$$$$$$@@@      ......",
".........      ...   @@@@@@$$$$$$$$$$$$$$$$$$$$$$$$$$$$$$$$$$$$$$$$$$$$$$$$$$$$$$@@@      ......",
"               @@@@@@$$$$$$$$$$$$$$$$$$$$$$$$$$$$$$$$$$$$$$$$$$$$$$$$$$$$$$$$$$$$$$$@@@......   ",
"               @@@@@@$$$$$$$$$$$$$$$$$$$$$$$$$$$$$$$$$$$$$$$$$$$$$$$$$$$$$$$$$$$$$$$@@@......   ",
"               @@@@@@$$$$$$$$$$$$$$$$$$$$$$$$$$$$$$$$$$$$$$$$$$$$$$$$$$$$$$$$$$$$$$$@@@......   ",
"            @@@$$$$$$$$$$$$$$$%%%$$$%%%%%%%%%%%%%%%$$$$$$$$$$$$$$$$$$$$$$$$$$$$$$&&&&&&@@@      ",
"            @@@$$$$$$$$$$$$$$$%%%$$$%%%%%%%%%%%%%%%$$$$$$$$$$$$$$$$$$$$$$$$$$$$$$&&&&&&@@@      ",
"            @@@$$$$$$$$$$$$$$$%%%$$$%%%%%%%%%%%%%%%$$$$$$$$$$$$$$$$$$$$$$$$$$$$$$&&&&&&@@@      ",
"         @@@$$$$$$$$$*****===*=%%$$$$$$$$$$$$$*****===*=%$$$$$$$$$$$$$$*****===*=$$$$$$@@@      ",
"         @@@$$$$$$$$$**======**%%$$$$$$$$$$$$$**======**%$$$$$$$$$$$$$$**======**$$$$$$@@@      ",
"         @@@$$$$$$$$$*==****=*=%%$$$$$$$$$$$$$*==****=*=%$$$$$$$$$$$$$$*==****=*=$$$$$$@@@      ",
"   ......@@@$$$$$$$$$*****=*===$$$$$$$$$$$$$$$*****=*===$$$$$$$$$$$$$$$*****=*===$$$$$$$$$@@@   ",
"   ......@@@$$$$$$$$$*=-=*===*=$$$$$$$$$$$$$$$*=-=*===*=$$$$$$$$$$$$$$$*=-=*===*=$$$$$$$$$@@@   ",
"   ......@@@$$$$$$$$$*==**=*===$$$$$$$$$$$$$$$*==**=*===$$$$$$$$$$$$$$$*==**=*===$$$$$$$$$@@@   ",
"......@@@@@@$$$$$$%%%*==*===*=*$$$$$$$$$$$$$$$*==*===*=*$$$$$$$$$$$$$$$*==*===*=*%%%$$$$$$@@@...",
"......@@@@@@$$$$$$%%%**==**==*;$$$$$$$$$$$$$$$**==**==*;$$$$$$$$$$$$$$$**==**==*;%%%$$$$$$@@@...",
"......@@@@@@$$$$$$%%%=**=**=**=$$$$$$$$$$$$$$$=**=**=**=$$$$$$$$$$$$$$$=**=**=**=%%%$$$$$$@@@...",
"   ...@@@$$$$$$$$$$$$===*=*****$$$$$$$$$$$$$$$===*=*****$$$$$$$$$$$$$$$===*=*****$$$$$$$$$@@@...",
"   ...@@@$$$$$$$$$$$$=*==*=**=*$$$$$$$$$$$$$$$=*==*=**=*$$$$$$$$$$$$$$$=*==*=**=*$$$$$$$$$@@@...",
"   ...@@@$$$$$$$$$$$$****==*==*$$$$$$$$$$$$$$$****==*==*$$$$$$$$$$$$$$$****==*==*$$$$$$$$$@@@...",
"......@@@$$$$$$$$$$$$>**=>=*===&&&&&&&&$$$$$$$>**=>=*===$$$$$$$$$$$$$$$>**=>=*===$$$$$$$$$@@@   ",
"......@@@$$$$$$$$$$$$;****==*==&&&&&&&&$$$$$$$;****==*==$$$$$$$$$$$$$$$;****==*==$$$$$$$$$@@@   ",
"......@@@$$$$$$$$$$$$**=***===*&&&&&&&&$$$$$$$**=***===*$$$$$$$$$$$$$$$**=***===*$$$$$$$$$@@@   ",
"###@@@$$$$$$$$$$$$$$$**=**==*=*$$$$$$$$$$$$$$$**=**==*=*$%%%%%%%%%$$$$$**=**==*=*$$$$$$$$$@@@   ",
"###@@@$$$$$$$$$$$$$$$=*===**=*=$$$$$$$$$$$$$$$=*===**=*=$%%%%%%%%%$$$$$=*===**=*=$$$$$$$$$@@@   ",
"###@@@$$$$$$$$$$$$$$$=*=====**=$$$$$$$$$$$$$$$=*=====**=$%%%%%%%%%$$$$$=*=====**=$$$$$$$$$@@@   ",
"###@@@$$$$$$$$$$$$$$$=*==*=**=*$$$$$$$$$$$$$$$=*==*=**=*%%%%%%%$$$$$$$$=*==*=**=*$$$$$$$$$@@@   ",
"###@@@$$$$$$$$$$$$$$$==*>=*=*==$$$$$$$$$$$$$$$==*>=*=*==%%%%%%%$$$$$$$$==*>=*=*==$$$$$$$$$@@@   ",
"###@@@$$$$$$$$$$$$$$$=;=***=*==$$$$$$$$$$$$$$$=;=***=*==%%%%%%%$$$$$$$$=;=***=*==$$$$$$$$$@@@   ",
"###@@@$$$$$$%%%$$$$$$=**=***=*=$$$$$$$$$$$$$$$=**=***=*=$$$$$$$%%%$$$%%=**=***=*=$$$$$$$$$@@@+++",
"###@@@$$$$$$%%%$$$$$$*==*-==***$$$$$$$$$$$$$$$*==*-==***$$$$$$$%%%$$$%%*==*-==***$$$$$$$$$@@@+++",
"###@@@$$$$$$%%%$$$$$$*=*====***$$$$$$$$$$$$$$$*=*====***$$$$$$$%%%$$$%%*=*====***$$$$$$$$$@@@+++",
"...###@@@$$$$$$&&&&&&*======>*=$$$$$$$$$$$$$$$*======>*=$$$$$$$$$$$$$$$*======>*=$$$$$$$$$@@@+++",
"...###@@@$$$$$$&&&&&&====****==$$$$$$$$$$$$$$$====****==$$$$$$$$$$$$$$$====****==$$$$$$$$$@@@+++",
"...###@@@$$$$$$&&&&&&=******=**$$$$$$$$$$$$$$$=******=**$$$$$$$$$$$$$$$=******=**$$$$$$$$$@@@+++",
"+++###@@@$$$$$$$$$$$$*===>**=**$$$$$$$$$$$$$$$*===>**=**$$$$$$$$$$$$$&&*===>**=**$$$$$$@@@@@@+++",
"+++###@@@$$$$$$$$$$$$***=*==;=*$$$$$$$$$$$$$$$***=*==;=*$$$$$$$$$$$$$&&***=*==;=*$$$$$$@@@@@@+++",
"+++###@@@$$$$$$$$$$$$,***=*>=*=$$$$$$$$$$$$$$$,***=*>=*=$$$$$$$$$$$$$&&,***=*>=*=$$$$$$@@@@@@+++",
"   ...@@@$$$$$$$$$$$$*======*=*$$$$$$$$$$$$$$$*======*=*$$$$$$$&&&&&&&&*======*=*$$$$$$@@@@@@+++",
"   ...@@@$$$$$$$$$$$$=*======*=$$$$$$$$$$$$$$$=*======*=$$$$$$$&&&&&&&&=*======*=$$$$$$@@@@@@+++",
"   ...@@@$$$$$$$$$$$$=*=*====;=$$$$$$$$$$$$$$$=*=*====;=$$$$$$$&&&&&&&&=*=*====;=$$$$$$@@@@@@+++",
"   ###@@@$$$$$$$$$$$$$$$$$$$$$$$$$$$$$$$$$$$$%%%%%%%%%$$$$$$$$$$$$$$$$$$$$$$$$$$$@@@@@@@@@@@@+++",
"   ###@@@$$$$$$$$$$$$$$$$$$$$$$$$$$$$$$$$$$$$%%%%%%%%%$$$$$$$$$$$$$$$$$$$$$$$$$$$@@@@@@@@@@@@+++",
"   ###@@@$$$$$$$$$$$$$$$$$$$$$$$$$$$$$$$$$$$$%%%%%%%%%$$$$$$$$$$$$$$$$$$$$$$$$$$$@@@@@@@@@@@@+++",
"...###@@@$$$$$$$$$$$$$$$$$$$$$$$$$$$$$$$$$%%%%%%&&&&&&%%%$$$$$$$$$$$$$$$$$$$$$$$$&&&&&&&&&@@@###",
"...###@@@$$$$$$$$$$$$$$$$$$$$$$$$$$$$$$$$$%%%%%%&&&&&&%%%$$$$$$$$$$$$$$$$$$$$$$$$&&&&&&&&&@@@###",
"...###@@@$$$$$$$$$$$$$$$$$$$$$$$$$$$$$$$$$%%%%%%&&&&&&%%%$$$$$$$$$$$$$$$$$$$$$$$$&&&&&&&&&@@@###",
"......@@@@@@$$$$$$$$$$$$$$$$$$$$$$$$$$$%%%&&&&&&$$$$$$$$$$$$$$$$$$$$$$$$$$$@@@@@@$$$&&&@@@######",
"......@@@@@@$$$$$$$$$$$$$$$$$$$$$$$$$$$%%%&&&&&&$$$$$$$$$$$$$$$$$$$$$$$$$$$@@@@@@$$$&&&@@@######",
"......@@@@@@$$$$$$$$$$$$$$$$$$$$$$$$$$$%%%&&&&&&$$$$$$$$$$$$$$$$$$$$$$$$$$$@@@@@@$$$&&&@@@######",
"++++++...@@@@@@@@@@@@$$$$$$$$$$$$$$$$$$$$$$$$$$$$$$$$$$$$$$$$$$$$$$$$@@@@@@@@@&&&$$$@@@.........",
"++++++...@@@@@@@@@@@@$$$$$$$$$$$$$$$$$$$$$$$$$$$$$$$$$$$$$$$$$$$$$$$$@@@@@@@@@&&&$$$@@@.........",
"++++++...@@@@@@@@@@@@$$$$$$$$$$$$$$$$$$$$$$$$$$$$$$$$$$$$$$$$$$$$$$$$@@@@@@@@@&&&$$$@@@.........",
"++++++...@@@@@@$$$&&&@@@@@@&&&&&&@@@$$$$$$$$$$$$$$$$$$$$$$$$$$$@@@@@@@@@$$$$$$$$$@@@###+++...+++",
"++++++...@@@@@@$$$&&&@@@@@@&&&&&&@@@$$$$$$$$$$$$$$$$$$$$$$$$$$$@@@@@@@@@$$$$$$$$$@@@###+++...+++",
"++++++...@@@@@@$$$&&&@@@@@@&&&&&&@@@$$$$$$$$$$$$$$$$$$$$$$$$$$$@@@@@@@@@$$$$$$$$$@@@###+++...+++",
"+++++++++###@@@@@@$$$&&&&&&$$$&&&&&&@@@@@@&&&@@@@@@@@@&&&&&&@@@&&&&&&$$$$$$$$$@@@#########...+++",
"+++++++++###@@@@@@$$$&&&&&&$$$&&&&&&@@@@@@&&&@@@@@@@@@&&&&&&@@@&&&&&&$$$$$$$$$@@@#########...+++",
"+++++++++###@@@@@@$$$&&&&&&$$$&&&&&&@@@@@@&&&@@@@@@@@@&&&&&&@@@&&&&&&$$$$$$$$$@@@#########...+++",
"++++++++++++......@@@@@@&&&$$$$$$&&&&&&$$$&&&&&&&&&&&&&&&$$$&&&&&&&&&$$$$$$@@@######+++...++++++",
"++++++++++++......@@@@@@&&&$$$$$$&&&&&&$$$&&&&&&&&&&&&&&&$$$&&&&&&&&&$$$$$$@@@######+++...++++++",
"++++++++++++......@@@@@@&&&$$$$$$&&&&&&$$$&&&&&&&&&&&&&&&$$$&&&&&&&&&$$$$$$@@@######+++...++++++",
"+++++++++++++++...######@@@@@@@@@@@@@@@@@@$$$&&&&&&&&&&&&$$$&&&&&&@@@@@@@@@######   +++...++++++",
"+++++++++++++++...######@@@@@@@@@@@@@@@@@@$$$&&&&&&&&&&&&$$$&&&&&&@@@@@@@@@######   +++...++++++",
"+++++++++++++++...######@@@@@@@@@@@@@@@@@@$$$&&&&&&&&&&&&$$$&&&&&&@@@@@@@@@######   +++...++++++",
"+++++++++++++++      ...######...#########@@@@@@@@@@@@@@@@@@@@@@@@@@@######...............++++++",
"+++++++++++++++      ...######...#########@@@@@@@@@@@@@@@@@@@@@@@@@@@######...............++++++",
"+++++++++++++++      ...######...#########@@@@@@@@@@@@@@@@@@@@@@@@@@@######...............++++++",
"+++++++++++++++         ............###########################.........++++++...+++++++++++++++",
"+++++++++++++++         ............###########################.........++++++...+++++++++++++++",
"+++++++++++++++         ............###########################.........++++++...+++++++++++++++",
"++++++++++++               ............######...............+++++++++++++++......+++++++++++++++",
"++++++++++++               ............######...............+++++++++++++++......+++++++++++++++",
"++++++++++++               ............######...............+++++++++++++++......+++++++++++++++",
"+++                  .........+++++++++++++++++++++............++++++++++++......+++++++++++++++",
"+++                  .........+++++++++++++++++++++............++++++++++++......+++++++++++++++",
"+++                  .........+++++++++++++++++++++............++++++++++++......+++++++++++++++"};
