/* XPM */
static char * l_1_xpm[] = {
"96 96 8 1",
" 	c #4D1807",
".	c #E46800",
"+	c #921F0D",
"@	c #350D01",
"#	c #FFAA41",
"$	c #8D3C24",
"%	c #722A15",
"&	c #602412",
"                     ......+++++++++++++++..............................++++++...+++++++++++++++",
"                     ......+++++++++++++++..............................++++++...+++++++++++++++",
"                     ......+++++++++++++++..............................++++++...+++++++++++++++",
"                        .........++++++......+++++++++++++++++++++...............+++++++++++++++",
"                        .........++++++......+++++++++++++++++++++...............+++++++++++++++",
"                        .........++++++......+++++++++++++++++++++...............+++++++++++++++",
"+++                  ++++++...............@@@@@@@@@@@@@@@++++++@@@@@@............+++++++++++++++",
"+++                  ++++++...............@@@@@@@@@@@@@@@++++++@@@@@@............+++++++++++++++",
"+++                  ++++++...............@@@@@@@@@@@@@@@++++++@@@@@@............+++++++++++++++",
"...+++            +++......###...+++@@@@@@$$$$$$$$$$$$@@@@@@@@@$$$$$$@@@@@@......++++++.........",
"...+++            +++......###...+++@@@@@@$$$$$$$$$$$$@@@@@@@@@$$$$$$@@@@@@......++++++.........",
"...+++            +++......###...+++@@@@@@$$$$$$$$$$$$@@@@@@@@@$$$$$$@@@@@@......++++++.........",
"......+++++++++.........###@@@@@@@@@$$$$$$$$$$$$$$$$$$$$$$$$$$$$$$$$$$$$$$$@@@............++++++",
"......+++++++++.........###@@@@@@@@@$$$$$$$$$$$$$$$$$$$$$$$$$$$$$$$$$$$$$$$@@@............++++++",
"......+++++++++.........###@@@@@@@@@$$$$$$$$$$$$$$$$$$$$$$$$$$$$$$$$$$$$$$$@@@............++++++",
"........................@@@$$$$$$$$$$$$$$$$$$$$$$$$$$$$$$$$$$$$$$$$$$$$$$$$$$$@@@+++++++++      ",
"........................@@@$$$$$$$$$$$$$$$$$$$$$$$$$$$$$$$$$$$$$$$$$$$$$$$$$$$@@@+++++++++      ",
"........................@@@$$$$$$$$$$$$$$$$$$$$$$$$$$$$$$$$$$$$$$$$$$$$$$$$$$$@@@+++++++++      ",
".........      ...   @@@@@@$$$$$$$$$$$$$$$$$$$$$$$$$$$$$$$$$$$$$$$$$$$$$$$$$$$$$$@@@      ......",
".........      ...   @@@@@@$$$$$$$$$$$$$$$$$$$$$$$$$$$$$$$$$$$$$$$$$$$$$$$$$$$$$$@@@      ......",
".........      ...   @@@@@@$$$$$$$$$$$$$$$$$$$$$$$$$$$$$$$$$$$$$$$$$$$$$$$$$$$$$$@@@      ......",
"               @@@@@@$$$$$$$$$$$$$$$$$$$$$$$$$$$$$$$$$$$$$$$$$$$$$$$$$$$$$$$$$$$$$$$@@@......   ",
"               @@@@@@$$$$$$$$$$$$$$$$$$$$$$$$$$$$$$$$$$$$$$$$$$$$$$$$$$$$$$$$$$$$$$$@@@......   ",
"               @@@@@@$$$$$$$$$$$$$$$$$$$$$$$$$$$$$$$$$$$$$$$$$$$$$$$$$$$$$$$$$$$$$$$@@@......   ",
"            @@@$$$$$$$$$$$$$$$%%%$$$%%%%%%%%%%%%%%%$$$$$$$$$$$$$$$$$$$$$$$$$$$$$$&&&&&&@@@      ",
"            @@@$$$$$$$$$$$$$$$%%%$$$%%%%%%%%%%%%%%%$$$$$$$$$$$$$$$$$$$$$$$$$$$$$$&&&&&&@@@      ",
"            @@@$$$$$$$$$$$$$$$%%%$$$%%%%%%%%%%%%%%%$$$$$$$$$$$$$$$$$$$$$$$$$$$$$$&&&&&&@@@      ",
"         @@@$$$$$$$$$..........%%$$$$$$$$$$$$$##########%$$$$$$$$$$$$$$..........$$$$$$@@@      ",
"         @@@$$$$$$$$$..........%%$$$$$$$$$$$$$##########%$$$$$$$$$$$$$$..........$$$$$$@@@      ",
"         @@@$$$$$$$$$..........%%$$$$$$$$$$$$$##########%$$$$$$$$$$$$$$..........$$$$$$@@@      ",
"   ......@@@$$$$$$$$$..........$$$$$$$$$$$$$$$##########$$$$$$$$$$$$$$$..........$$$$$$$$$@@@   ",
"   ......@@@$$$$$$$$$..........$$$$$$$$$$$$$$$##########$$$$$$$$$$$$$$$..........$$$$$$$$$@@@   ",
"   ......@@@$$$$$$$$$..........$$$$$$$$$$$$$$$##########$$$$$$$$$$$$$$$..........$$$$$$$$$@@@   ",
"......@@@@@@$$$$$$%%%..........$$$$$$$$$$$$$$$##########$$$$$$$$$$$$$$$..........%%%$$$$$$@@@...",
"......@@@@@@$$$$$$%%%..........$$$$$$$$$$$$$$$##########$$$$$$$$$$$$$$$..........%%%$$$$$$@@@...",
"......@@@@@@$$$$$$%%%..........$$$$$$$$$$$$$$$##########$$$$$$$$$$$$$$$..........%%%$$$$$$@@@...",
"   ...@@@$$$$$$$$$$$$..........$$$$$$$$$$$$$$$##########$$$$$$$$$$$$$$$..........$$$$$$$$$@@@...",
"   ...@@@$$$$$$$$$$$$..........$$$$$$$$$$$$$$$##########$$$$$$$$$$$$$$$..........$$$$$$$$$@@@...",
"   ...@@@$$$$$$$$$$$$..........$$$$$$$$$$$$$$$##########$$$$$$$$$$$$$$$..........$$$$$$$$$@@@...",
"......@@@$$$$$$$$$$$$..........&&&&&&&&$$$$$$$##########$$$$$$$$$$$$$$$..........$$$$$$$$$@@@   ",
"......@@@$$$$$$$$$$$$..........&&&&&&&&$$$$$$$##########$$$$$$$$$$$$$$$..........$$$$$$$$$@@@   ",
"......@@@$$$$$$$$$$$$..........&&&&&&&&$$$$$$$##########$$$$$$$$$$$$$$$..........$$$$$$$$$@@@   ",
"###@@@$$$$$$$$$$$$$$$..........$$$$$$$$$$$$$$$##########$%%%%%%%%%$$$$$..........$$$$$$$$$@@@   ",
"###@@@$$$$$$$$$$$$$$$..........$$$$$$$$$$$$$$$##########$%%%%%%%%%$$$$$..........$$$$$$$$$@@@   ",
"###@@@$$$$$$$$$$$$$$$..........$$$$$$$$$$$$$$$##########$%%%%%%%%%$$$$$..........$$$$$$$$$@@@   ",
"###@@@$$$$$$$$$$$$$$$..........$$$$$$$$$$$$$$$##########%%%%%%%$$$$$$$$..........$$$$$$$$$@@@   ",
"###@@@$$$$$$$$$$$$$$$..........$$$$$$$$$$$$$$$##########%%%%%%%$$$$$$$$..........$$$$$$$$$@@@   ",
"###@@@$$$$$$$$$$$$$$$..........$$$$$$$$$$$$$$$##########%%%%%%%$$$$$$$$..........$$$$$$$$$@@@   ",
"###@@@$$$$$$%%%$$$$$$..........$$$$$$$$$$$$$$$##########$$$$$$$%%%$$$%%..........$$$$$$$$$@@@+++",
"###@@@$$$$$$%%%$$$$$$..........$$$$$$$$$$$$$$$##########$$$$$$$%%%$$$%%..........$$$$$$$$$@@@+++",
"###@@@$$$$$$%%%$$$$$$..........$$$$$$$$$$$$$$$##########$$$$$$$%%%$$$%%..........$$$$$$$$$@@@+++",
"...###@@@$$$$$$&&&&&&..........$$$$$$$$$$$$$$$##########$$$$$$$$$$$$$$$..........$$$$$$$$$@@@+++",
"...###@@@$$$$$$&&&&&&..........$$$$$$$$$$$$$$$##########$$$$$$$$$$$$$$$..........$$$$$$$$$@@@+++",
"...###@@@$$$$$$&&&&&&..........$$$$$$$$$$$$$$$##########$$$$$$$$$$$$$$$..........$$$$$$$$$@@@+++",
"+++###@@@$$$$$$$$$$$$..........$$$$$$$$$$$$$$$##########$$$$$$$$$$$$$&&..........$$$$$$@@@@@@+++",
"+++###@@@$$$$$$$$$$$$..........$$$$$$$$$$$$$$$##########$$$$$$$$$$$$$&&..........$$$$$$@@@@@@+++",
"+++###@@@$$$$$$$$$$$$..........$$$$$$$$$$$$$$$##########$$$$$$$$$$$$$&&..........$$$$$$@@@@@@+++",
"   ...@@@$$$$$$$$$$$$..........$$$$$$$$$$$$$$$##########$$$$$$$&&&&&&&&..........$$$$$$@@@@@@+++",
"   ...@@@$$$$$$$$$$$$..........$$$$$$$$$$$$$$$##########$$$$$$$&&&&&&&&..........$$$$$$@@@@@@+++",
"   ...@@@$$$$$$$$$$$$..........$$$$$$$$$$$$$$$##########$$$$$$$&&&&&&&&..........$$$$$$@@@@@@+++",
"   ###@@@$$$$$$$$$$$$$$$$$$$$$$$$$$$$$$$$$$$$%%%%%%%%%$$$$$$$$$$$$$$$$$$$$$$$$$$$@@@@@@@@@@@@+++",
"   ###@@@$$$$$$$$$$$$$$$$$$$$$$$$$$$$$$$$$$$$%%%%%%%%%$$$$$$$$$$$$$$$$$$$$$$$$$$$@@@@@@@@@@@@+++",
"   ###@@@$$$$$$$$$$$$$$$$$$$$$$$$$$$$$$$$$$$$%%%%%%%%%$$$$$$$$$$$$$$$$$$$$$$$$$$$@@@@@@@@@@@@+++",
"...###@@@$$$$$$$$$$$$$$$$$$$$$$$$$$$$$$$$$%%%%%%&&&&&&%%%$$$$$$$$$$$$$$$$$$$$$$$$&&&&&&&&&@@@###",
"...###@@@$$$$$$$$$$$$$$$$$$$$$$$$$$$$$$$$$%%%%%%&&&&&&%%%$$$$$$$$$$$$$$$$$$$$$$$$&&&&&&&&&@@@###",
"...###@@@$$$$$$$$$$$$$$$$$$$$$$$$$$$$$$$$$%%%%%%&&&&&&%%%$$$$$$$$$$$$$$$$$$$$$$$$&&&&&&&&&@@@###",
"......@@@@@@$$$$$$$$$$$$$$$$$$$$$$$$$$$%%%&&&&&&$$$$$$$$$$$$$$$$$$$$$$$$$$$@@@@@@$$$&&&@@@######",
"......@@@@@@$$$$$$$$$$$$$$$$$$$$$$$$$$$%%%&&&&&&$$$$$$$$$$$$$$$$$$$$$$$$$$$@@@@@@$$$&&&@@@######",
"......@@@@@@$$$$$$$$$$$$$$$$$$$$$$$$$$$%%%&&&&&&$$$$$$$$$$$$$$$$$$$$$$$$$$$@@@@@@$$$&&&@@@######",
"++++++...@@@@@@@@@@@@$$$$$$$$$$$$$$$$$$$$$$$$$$$$$$$$$$$$$$$$$$$$$$$$@@@@@@@@@&&&$$$@@@.........",
"++++++...@@@@@@@@@@@@$$$$$$$$$$$$$$$$$$$$$$$$$$$$$$$$$$$$$$$$$$$$$$$$@@@@@@@@@&&&$$$@@@.........",
"++++++...@@@@@@@@@@@@$$$$$$$$$$$$$$$$$$$$$$$$$$$$$$$$$$$$$$$$$$$$$$$$@@@@@@@@@&&&$$$@@@.........",
"++++++...@@@@@@$$$&&&@@@@@@&&&&&&@@@$$$$$$$$$$$$$$$$$$$$$$$$$$$@@@@@@@@@$$$$$$$$$@@@###+++...+++",
"++++++...@@@@@@$$$&&&@@@@@@&&&&&&@@@$$$$$$$$$$$$$$$$$$$$$$$$$$$@@@@@@@@@$$$$$$$$$@@@###+++...+++",
"++++++...@@@@@@$$$&&&@@@@@@&&&&&&@@@$$$$$$$$$$$$$$$$$$$$$$$$$$$@@@@@@@@@$$$$$$$$$@@@###+++...+++",
"+++++++++###@@@@@@$$$&&&&&&$$$&&&&&&@@@@@@&&&@@@@@@@@@&&&&&&@@@&&&&&&$$$$$$$$$@@@#########...+++",
"+++++++++###@@@@@@$$$&&&&&&$$$&&&&&&@@@@@@&&&@@@@@@@@@&&&&&&@@@&&&&&&$$$$$$$$$@@@#########...+++",
"+++++++++###@@@@@@$$$&&&&&&$$$&&&&&&@@@@@@&&&@@@@@@@@@&&&&&&@@@&&&&&&$$$$$$$$$@@@#########...+++",
"++++++++++++......@@@@@@&&&$$$$$$&&&&&&$$$&&&&&&&&&&&&&&&$$$&&&&&&&&&$$$$$$@@@######+++...++++++",
"++++++++++++......@@@@@@&&&$$$$$$&&&&&&$$$&&&&&&&&&&&&&&&$$$&&&&&&&&&$$$$$$@@@######+++...++++++",
"++++++++++++......@@@@@@&&&$$$$$$&&&&&&$$$&&&&&&&&&&&&&&&$$$&&&&&&&&&$$$$$$@@@######+++...++++++",
"+++++++++++++++...######@@@@@@@@@@@@@@@@@@$$$&&&&&&&&&&&&$$$&&&&&&@@@@@@@@@######   +++...++++++",
"+++++++++++++++...######@@@@@@@@@@@@@@@@@@$$$&&&&&&&&&&&&$$$&&&&&&@@@@@@@@@######   +++...++++++",
"+++++++++++++++...######@@@@@@@@@@@@@@@@@@$$$&&&&&&&&&&&&$$$&&&&&&@@@@@@@@@######   +++...++++++",
"+++++++++++++++      ...######...#########@@@@@@@@@@@@@@@@@@@@@@@@@@@######...............++++++",
"+++++++++++++++      ...######...#########@@@@@@@@@@@@@@@@@@@@@@@@@@@######...............++++++",
"+++++++++++++++      ...######...#########@@@@@@@@@@@@@@@@@@@@@@@@@@@######...............++++++",
"+++++++++++++++         ............###########################.........++++++...+++++++++++++++",
"+++++++++++++++         ............###########################.........++++++...+++++++++++++++",
"+++++++++++++++         ............###########################.........++++++...+++++++++++++++",
"++++++++++++               ............######...............+++++++++++++++......+++++++++++++++",
"++++++++++++               ............######...............+++++++++++++++......+++++++++++++++",
"++++++++++++               ............######...............+++++++++++++++......+++++++++++++++",
"+++                  .........+++++++++++++++++++++............++++++++++++......+++++++++++++++",
"+++                  .........+++++++++++++++++++++............++++++++++++......+++++++++++++++",
"+++                  .........+++++++++++++++++++++............++++++++++++......+++++++++++++++"};
