/* XPM */
static char *result[] = {
/* columns rows colors chars-per-pixel */
"96 96 19 1 ",
"  c #4D1807",
". c #4D477C",
"X c #921F0D",
"o c #E46800",
"O c #FFAA41",
"+ c #365191",
"@ c #635680",
"# c #4553A7",
"$ c #525DA9",
"% c #686DAD",
"& c #7E97EC",
"* c #9C89CE",
"= c #A18DCF",
"- c #AA93D0",
"; c #9FB2F2",
": c #C9D0F9",
"> c #CED4FA",
", c #D7DAFC",
"< c #E8EAFA",
/* pixels */
"                     ooooooXXXXXXXXXXXXXXXooooooooooooooooooooooooooooooXXXXXXoooXXXXXXXXXXXXXXX",
"                     ooooooXXXXXXXXXXXXXXXooooooooooooooooooooooooooooooXXXXXXoooXXXXXXXXXXXXXXX",
"                     ooooooXXXXXXXXXXXXXXXooooooooooooooooooooooooooooooXXXXXXoooXXXXXXXXXXXXXXX",
"                        oooooooooXXXXXXooooooXXXXXXXXXXXXXXXXXXXXXoooooooooooooooXXXXXXXXXXXXXXX",
"                        oooooooooXXXXXXooooooXXXXXXXXXXXXXXXXXXXXXoooooooooooooooXXXXXXXXXXXXXXX",
"                        oooooooooXXXXXXooooooXXXXXXXXXXXXXXXXXXXXXoooooooooooooooXXXXXXXXXXXXXXX",
"XXX                  XXXXXXooooooooooooooo+++++++++++++++XXXXXX++++++ooooooooooooXXXXXXXXXXXXXXX",
"XXX                  XXXXXXooooooooooooooo+++++++++++++++XXXXXX++++++ooooooooooooXXXXXXXXXXXXXXX",
"XXX                  XXXXXXooooooooooooooo+++++++++++++++XXXXXX++++++ooooooooooooXXXXXXXXXXXXXXX",
"oooXXX            XXXooooooOOOoooXXX++++++,,,++++++++++++++++++,,,,,,++++++ooooooXXXXXXooooooooo",
"oooXXX            XXXooooooOOOoooXXX++++++,,,++++++++++++++++++,,,,,,++++++ooooooXXXXXXooooooooo",
"oooXXX            XXXooooooOOOoooXXX++++++,,,++++++++++++++++++,,,,,,++++++ooooooXXXXXXooooooooo",
"ooooooXXXXXXXXXoooooooooOOO+++++++++,,,++++++,,,,,,,,,,,,++++++,,,,,,,,,,,,+++ooooooooooooXXXXXX",
"ooooooXXXXXXXXXoooooooooOOO+++++++++,,,++++++,,,,,,,,,,,,++++++,,,,,,,,,,,,+++ooooooooooooXXXXXX",
"ooooooXXXXXXXXXoooooooooOOO+++++++++,,,++++++,,,,,,,,,,,,++++++,,,,,,,,,,,,+++ooooooooooooXXXXXX",
"oooooooooooooooooooooooo+++,,,,,,,,,+++,,,,,,<<<<<<<<<<<<,,,,,,+++,,,,,,,,,,,,+++XXXXXXXXX      ",
"oooooooooooooooooooooooo+++,,,,,,,,,+++,,,,,,<<<<<<<<<<<<,,,,,,+++,,,,,,,,,,,,+++XXXXXXXXX      ",
"oooooooooooooooooooooooo+++,,,,,,,,,+++,,,,,,<<<<<<<<<<<<,,,,,,+++,,,,,,,,,,,,+++XXXXXXXXX      ",
"ooooooooo      ooo   ++++++,,,,,,+++,,,,,,<<<<<<<<<<<<<<<<<<<<<,,,+++,,,,,,,,,,,,+++      oooooo",
"ooooooooo      ooo   ++++++,,,,,,+++,,,,,,<<<<<<<<<<<<<<<<<<<<<,,,+++,,,,,,,,,,,,+++      oooooo",
"ooooooooo      ooo   ++++++,,,,,,+++,,,,,,<<<<<<<<<<<<<<<<<<<<<,,,+++,,,,,,,,,,,,+++      oooooo",
"               ++++++,,,,,,,,,+++,,,,,,,,,,,,<<<<<<<<<<<<<<<,,,,,,,,,+++,,,,,,,,,,,,+++oooooo   ",
"               ++++++,,,,,,,,,+++,,,,,,,,,,,,<<<<<<<<<<<<<<<,,,,,,,,,+++,,,,,,,,,,,,+++oooooo   ",
"               ++++++,,,,,,,,,+++,,,,,,,,,,,,<<<<<<<<<<<<<<<,,,,,,,,,+++,,,,,,,,,,,,+++oooooo   ",
"            +++,,,,,,,,,,,,+++>>>,,,>>>>>>>>>>>>>>>,,,,,,,,,,,,,,,,,,,,,+++,,,,,,&&&&&&+++      ",
"            +++,,,,,,,,,,,,+++>>>,,,>>>>>>>>>>>>>>>,,,,,,,,,,,,,,,,,,,,,+++,,,,,,&&&&&&+++      ",
"            +++,,,,,,,,,,,,+++>>>,,,>>>>>>>>>>>>>>>,,,,,,,,,,,,,,,,,,,,,+++,,,,,,&&&&&&+++      ",
"         +++,,,,,,,,,,,,,,,+++>>>,,,,,,,,,,,,,,,,,,>>>>>>,,,,,,,,,,,,,,,+++,,,,,,,,,,,,+++      ",
"         +++,,,,,,,,,,,,,,,+++>>>,,,,,,,,,,,,,,,,,,>>>>>>,,,,,,,,,,,,,,,+++,,,,,,,,,,,,+++      ",
"         +++,,,,,,,,,,,,,,,+++>>>,,,,,,,,,,,,,,,,,,>>>>>>,,,,,,,,,,,,,,,+++,,,,,,,,,,,,+++      ",
"   oooooo+++,,,,,,,,,,,,+++,,,,,,,,,,,,,,,,,,,,,,,,,,,,,,,,,,,,,,,,,,,,,,,,+++,,,,,,,,,,,,+++   ",
"   oooooo+++,,,,,,,,,,,,+++,,,,,,,,,,,,,,,,,,,,,,,,,,,,,,,,,,,,,,,,,,,,,,,,+++,,,,,,,,,,,,+++   ",
"   oooooo+++,,,,,,,,,,,,+++,,,,,,,,,,,,,,,,,,,,,,,,,,,,,,,,,,,,,,,,,,,,,,,,+++,,,,,,,,,,,,+++   ",
"oooooo++++++,,,,,,;;;;;;+++>>>,,,,,,,,,,,,,,,,,,,,,,,,,,,,,,,,,,,,,,,,,,,,,+++,,,;;;,,,,,,+++ooo",
"oooooo++++++,,,,,,;;;;;;+++>>>,,,,,,,,,,,,,,,,,,,,,,,,,,,,,,,,,,,,,,,,,,,,,+++,,,;;;,,,,,,+++ooo",
"oooooo++++++,,,,,,;;;;;;+++>>>,,,,,,,,,,,,,,,,,,,,,,,,,,,,,,,,,,,,,,,,,,,,,+++,,,;;;,,,,,,+++ooo",
"   ooo+++,,,,,,,,,,,,;;;+++:::---,,,,,,,,,,,,,,,,,,,,,,,,,,,,,,,,,,,,--->>>+++,,,,,,,,,,,,+++ooo",
"   ooo+++,,,,,,,,,,,,;;;+++:::---,,,,,,,,,,,,,,,,,,,,,,,,,,,,,,,,,,,,--->>>+++,,,,,,,,,,,,+++ooo",
"   ooo+++,,,,,,,,,,,,;;;+++:::---,,,,,,,,,,,,,,,,,,,,,,,,,,,,,,,,,,,,--->>>+++,,,,,,,,,,,,+++ooo",
"oooooo+++,,,,,,,,,,,,,,,+++:::******:::,,,,,,,,,,,,,,,,,,,,,,,,,,,------,,,+++,,,,,,,,,,,,+++   ",
"oooooo+++,,,,,,,,,,,,,,,+++:::******:::,,,,,,,,,,,,,,,,,,,,,,,,,,,------,,,+++,,,,,,,,,,,,+++   ",
"oooooo+++,,,,,,,,,,,,,,,+++:::******:::,,,,,,,,,,,,,,,,,,,,,,,,,,,------,,,+++,,,,,,,,,,,,+++   ",
"OOO+++,,,,,,,,,,,,,,,%%%@@@+++,,,------------,,,,,,,,,,,,=========---,,,+++,,,,,,,,,,,,,,,+++   ",
"OOO+++,,,,,,,,,,,,,,,%%%@@@+++,,,------------,,,,,,,,,,,,=========---,,,+++,,,,,,,,,,,,,,,+++   ",
"OOO+++,,,,,,,,,,,,,,,%%%@@@+++,,,------------,,,,,,,,,,,,=========---,,,+++,,,,,,,,,,,,,,,+++   ",
"OOO+++,,,,,,,,,,,,,,,%%%@@@@@@+++,,,,,,---------===============,,,,,,+++@@@,,,,,,,,,,,,,,,+++   ",
"OOO+++,,,,,,,,,,,,,,,%%%@@@@@@+++,,,,,,---------===============,,,,,,+++@@@,,,,,,,,,,,,,,,+++   ",
"OOO+++,,,,,,,,,,,,,,,%%%@@@@@@+++,,,,,,---------===============,,,,,,+++@@@,,,,,,,,,,,,,,,+++   ",
"OOO+++,,,,,,;;;,,,%%%%%%%%%@@@@@@++++++,,,,,,,,,,,,,,,,,,,,,,,,++++++...;;;,,,,,,,,,,,,,,,+++XXX",
"OOO+++,,,,,,;;;,,,%%%%%%%%%@@@@@@++++++,,,,,,,,,,,,,,,,,,,,,,,,++++++...;;;,,,,,,,,,,,,,,,+++XXX",
"OOO+++,,,,,,;;;,,,%%%%%%%%%@@@@@@++++++,,,,,,,,,,,,,,,,,,,,,,,,++++++...;;;,,,,,,,,,,,,,,,+++XXX",
"oooOOO+++,,,,,,&&&######$$$$$$@@@@@@@@@++++++++++++++++++++++++@@@@@@%%%,,,,,,,,,,,,,,,,,,+++XXX",
"oooOOO+++,,,,,,&&&######$$$$$$@@@@@@@@@++++++++++++++++++++++++@@@@@@%%%,,,,,,,,,,,,,,,,,,+++XXX",
"oooOOO+++,,,,,,&&&######$$$$$$@@@@@@@@@++++++++++++++++++++++++@@@@@@%%%,,,,,,,,,,,,,,,,,,+++XXX",
"XXXOOO+++,,,,,,,,,%%%%%%$$$%%%%%%%%%@@@@@@@@@@@@@@@@@@@@@@@@@@@%%%%%%&&&&&&&&&,,,,,,,,,++++++XXX",
"XXXOOO+++,,,,,,,,,%%%%%%$$$%%%%%%%%%@@@@@@@@@@@@@@@@@@@@@@@@@@@%%%%%%&&&&&&&&&,,,,,,,,,++++++XXX",
"XXXOOO+++,,,,,,,,,%%%%%%$$$%%%%%%%%%@@@@@@@@@@@@@@@@@@@@@@@@@@@%%%%%%&&&&&&&&&,,,,,,,,,++++++XXX",
"   ooo+++,,,,,,,,,%%%%%%%%%%%%%%%%%%%%%%%%%%%%%%%%%%%%%%%%%%%%%###&&&&&&&&&&&&,,,,,,,,,++++++XXX",
"   ooo+++,,,,,,,,,%%%%%%%%%%%%%%%%%%%%%%%%%%%%%%%%%%%%%%%%%%%%%###&&&&&&&&&&&&,,,,,,,,,++++++XXX",
"   ooo+++,,,,,,,,,%%%%%%%%%%%%%%%%%%%%%%%%%%%%%%%%%%%%%%%%%%%%%###&&&&&&&&&&&&,,,,,,,,,++++++XXX",
"   OOO+++,,,,,,,,,,,,,,,%%%%%%%%%%%%%%%%%%%%%$$$$$$$$$%%%%%%,,,,,,,,,,,,,,,,,,,,,++++++++++++XXX",
"   OOO+++,,,,,,,,,,,,,,,%%%%%%%%%%%%%%%%%%%%%$$$$$$$$$%%%%%%,,,,,,,,,,,,,,,,,,,,,++++++++++++XXX",
"   OOO+++,,,,,,,,,,,,,,,%%%%%%%%%%%%%%%%%%%%%$$$$$$$$$%%%%%%,,,,,,,,,,,,,,,,,,,,,++++++++++++XXX",
"oooOOO+++,,,,,,,,,,,,,,,,,,,,,,,,%%%%%%%%%$$$;;;&&&&&&;;;,,,,,,,,,,,,,,,,,,,,,,,,&&&&&&&&&+++OOO",
"oooOOO+++,,,,,,,,,,,,,,,,,,,,,,,,%%%%%%%%%$$$;;;&&&&&&;;;,,,,,,,,,,,,,,,,,,,,,,,,&&&&&&&&&+++OOO",
"oooOOO+++,,,,,,,,,,,,,,,,,,,,,,,,%%%%%%%%%$$$;;;&&&&&&;;;,,,,,,,,,,,,,,,,,,,,,,,,&&&&&&&&&+++OOO",
"oooooo++++++,,,,,,,,,,,,,,,,,,,,,,,,,,,;;;&&&&&&,,,,,,,,,,,,,,,,,,,,,,,,,,,++++++,,,&&&+++OOOOOO",
"oooooo++++++,,,,,,,,,,,,,,,,,,,,,,,,,,,;;;&&&&&&,,,,,,,,,,,,,,,,,,,,,,,,,,,++++++,,,&&&+++OOOOOO",
"oooooo++++++,,,,,,,,,,,,,,,,,,,,,,,,,,,;;;&&&&&&,,,,,,,,,,,,,,,,,,,,,,,,,,,++++++,,,&&&+++OOOOOO",
"XXXXXXooo++++++++++++,,,,,,,,,,,,,,,,,,,,,,,,,,,,,,,,,,,,,,,,,,,,,,,,+++++++++&&&,,,+++ooooooooo",
"XXXXXXooo++++++++++++,,,,,,,,,,,,,,,,,,,,,,,,,,,,,,,,,,,,,,,,,,,,,,,,+++++++++&&&,,,+++ooooooooo",
"XXXXXXooo++++++++++++,,,,,,,,,,,,,,,,,,,,,,,,,,,,,,,,,,,,,,,,,,,,,,,,+++++++++&&&,,,+++ooooooooo",
"XXXXXXooo++++++,,,&&&++++++&&&&&&+++,,,,,,,,,,,,,,,,,,,,,,,,,,,+++++++++,,,,,,,,,+++OOOXXXoooXXX",
"XXXXXXooo++++++,,,&&&++++++&&&&&&+++,,,,,,,,,,,,,,,,,,,,,,,,,,,+++++++++,,,,,,,,,+++OOOXXXoooXXX",
"XXXXXXooo++++++,,,&&&++++++&&&&&&+++,,,,,,,,,,,,,,,,,,,,,,,,,,,+++++++++,,,,,,,,,+++OOOXXXoooXXX",
"XXXXXXXXXOOO++++++,,,&&&&&&,,,&&&&&&++++++&&&+++++++++&&&&&&+++&&&&&&,,,,,,,,,+++OOOOOOOOOoooXXX",
"XXXXXXXXXOOO++++++,,,&&&&&&,,,&&&&&&++++++&&&+++++++++&&&&&&+++&&&&&&,,,,,,,,,+++OOOOOOOOOoooXXX",
"XXXXXXXXXOOO++++++,,,&&&&&&,,,&&&&&&++++++&&&+++++++++&&&&&&+++&&&&&&,,,,,,,,,+++OOOOOOOOOoooXXX",
"XXXXXXXXXXXXoooooo++++++&&&,,,,,,&&&&&&,,,&&&&&&&&&&&&&&&,,,&&&&&&&&&,,,,,,+++OOOOOOXXXoooXXXXXX",
"XXXXXXXXXXXXoooooo++++++&&&,,,,,,&&&&&&,,,&&&&&&&&&&&&&&&,,,&&&&&&&&&,,,,,,+++OOOOOOXXXoooXXXXXX",
"XXXXXXXXXXXXoooooo++++++&&&,,,,,,&&&&&&,,,&&&&&&&&&&&&&&&,,,&&&&&&&&&,,,,,,+++OOOOOOXXXoooXXXXXX",
"XXXXXXXXXXXXXXXoooOOOOOO++++++++++++++++++,,,&&&&&&&&&&&&,,,&&&&&&+++++++++OOOOOO   XXXoooXXXXXX",
"XXXXXXXXXXXXXXXoooOOOOOO++++++++++++++++++,,,&&&&&&&&&&&&,,,&&&&&&+++++++++OOOOOO   XXXoooXXXXXX",
"XXXXXXXXXXXXXXXoooOOOOOO++++++++++++++++++,,,&&&&&&&&&&&&,,,&&&&&&+++++++++OOOOOO   XXXoooXXXXXX",
"XXXXXXXXXXXXXXX      oooOOOOOOoooOOOOOOOOO+++++++++++++++++++++++++++OOOOOOoooooooooooooooXXXXXX",
"XXXXXXXXXXXXXXX      oooOOOOOOoooOOOOOOOOO+++++++++++++++++++++++++++OOOOOOoooooooooooooooXXXXXX",
"XXXXXXXXXXXXXXX      oooOOOOOOoooOOOOOOOOO+++++++++++++++++++++++++++OOOOOOoooooooooooooooXXXXXX",
"XXXXXXXXXXXXXXX         ooooooooooooOOOOOOOOOOOOOOOOOOOOOOOOOOOoooooooooXXXXXXoooXXXXXXXXXXXXXXX",
"XXXXXXXXXXXXXXX         ooooooooooooOOOOOOOOOOOOOOOOOOOOOOOOOOOoooooooooXXXXXXoooXXXXXXXXXXXXXXX",
"XXXXXXXXXXXXXXX         ooooooooooooOOOOOOOOOOOOOOOOOOOOOOOOOOOoooooooooXXXXXXoooXXXXXXXXXXXXXXX",
"XXXXXXXXXXXX               ooooooooooooOOOOOOoooooooooooooooXXXXXXXXXXXXXXXooooooXXXXXXXXXXXXXXX",
"XXXXXXXXXXXX               ooooooooooooOOOOOOoooooooooooooooXXXXXXXXXXXXXXXooooooXXXXXXXXXXXXXXX",
"XXXXXXXXXXXX               ooooooooooooOOOOOOoooooooooooooooXXXXXXXXXXXXXXXooooooXXXXXXXXXXXXXXX",
"XXX                  oooooooooXXXXXXXXXXXXXXXXXXXXXooooooooooooXXXXXXXXXXXXooooooXXXXXXXXXXXXXXX",
"XXX                  oooooooooXXXXXXXXXXXXXXXXXXXXXooooooooooooXXXXXXXXXXXXooooooXXXXXXXXXXXXXXX",
"XXX                  oooooooooXXXXXXXXXXXXXXXXXXXXXooooooooooooXXXXXXXXXXXXooooooXXXXXXXXXXXXXXX"
};
