/* XPM */
static char *so_long_p_back_b1744419968[] = {
/* columns rows colors chars-per-pixel */
"96 96 31 1 ",
"  c #350D01",
". c #24071D",
"X c #4D1807",
"o c #602412",
"O c #722A15",
"+ c #46192B",
"@ c #724437",
"# c #291C4B",
"$ c #392551",
"% c #4D234F",
"& c #402952",
"* c #4B3058",
"= c #775A63",
"- c #921F0D",
"; c #8D3C24",
": c #E46800",
"> c #FFAA41",
", c #365191",
"< c #A083C3",
"1 c #A184C4",
"2 c #A78ECB",
"3 c #A88FCB",
"4 c #A98FCB",
"5 c #AB90CB",
"6 c #D3D5F6",
"7 c #D4D5F6",
"8 c #D5D6F7",
"9 c #D8D7F6",
"0 c #D8D8F7",
"q c #E7E7F3",
"w c #E9E8F4",
/* pixels */
"XXXXXXXXXXXXXXXXXXXXX::::::---------------::::::::::::::::::::::::::::::------:::---------------",
"XXXXXXXXXXXXXXXXXXXXX::::::---------------::::::::::::::::::::::::::::::------:::---------------",
"XXXXXXXXXXXXXXXXXXXXX::::::---------------::::::::::::::::::::::::::::::------:::---------------",
"XXXXXXXXXXXXXXXXXXXXXXXX:::::::::------::::::---------------------:::::::::::::::---------------",
"XXXXXXXXXXXXXXXXXXXXXXXX:::::::::------::::::---------------------:::::::::::::::---------------",
"XXXXXXXXXXXXXXXXXXXXXXXX:::::::::------::::::---------------------:::::::::::::::---------------",
"---XXXXXXXXXXXXXXXXXX------:::::::::::::::               ------------::::::::::::---------------",
"---XXXXXXXXXXXXXXXXXX------:::::::::::::::               ------------::::::::::::---------------",
"---XXXXXXXXXXXXXXXXXX------:::::::::::::::               ------------::::::::::::---------------",
":::---XXXXXXXXXXXX---::::::>>>:::---      ;;;,,,,,,,,,,,,      ------------::::::------:::::::::",
":::---XXXXXXXXXXXX---::::::>>>:::---      ;;;,,,,,,,,,,,,      ------------::::::------:::::::::",
":::---XXXXXXXXXXXX---::::::>>>:::---      ;;;,,,,,,,,,,,,      ------------::::::------:::::::::",
"::::::---------:::::::::>>>         ;;;,,,,,,888888888888,,,,,,   ------------::::::::::::------",
"::::::---------:::::::::>>>         ;;;,,,,,,888888888888,,,,,,   ------------::::::::::::------",
"::::::---------:::::::::>>>         ;;;,,,,,,888888888888,,,,,,   ------------::::::::::::------",
"::::::::::::::::::::::::   ;;;;;;;;;,,,888868qqwwwwwwwwww888888,,,   XXXXXXXXX------------XXXXXX",
"::::::::::::::::::::::::   ;;;;;;;;;,,,888788wwwwwwwwwwww888888,,,   XXXXXXXXX------------XXXXXX",
"::::::::::::::::::::::::   ;;;;;;;;;,,,888788wwwwwwwwwwww888888,,,   XXXXXXXXX------------XXXXXX",
":::::::::XXXXXX::::::      ;;;;;;,,,777777wwwwwwwwwwwwwwwwwwwww888,,,:::XXXXXX------XXXXXX::::::",
":::::::::XXXXXX::::::      ;;;;;;,,,777777wwwwwwwwwwwwwwwwwwwww888,,,:::XXXXXX------XXXXXX::::::",
":::::::::XXXXXX::::::      ;;;;;;,,,887777qqwwwwwwwwwwwwwwqqwqq888,,,:::XXXXXX------XXXXXX::::::",
"XXXXXXXXXXXXXXX::::::         ,,,888888888889wwwwwwwwwwwwqqq888866666,,,:::            ::::::XXX",
"XXXXXXXXXXXXXXX::::::         ,,,888888888888qqqwwwwwwwwwqqq666666666,,,:::            ::::::XXX",
"XXXXXXXXXXXXXXX::::::         ,,,888888888889qqqwwwwwwwwwqqq666666666,,,:::            ::::::XXX",
"XXXXXXXXXXXX:::>>>>>>   ooo,,,888766666888888888666666668866868888666666,,,;;;;;;ooo      XXXXXX",
"XXXXXXXXXXXX:::>>>>>>   ooo,,,888766666888888888666666666666686888666666,,,;;;;;;ooo      XXXXXX",
"XXXXXXXXXXXX:::>>>>>>   ooo,,,888776666888888888666666666666777888666666,,,;;;;;;ooo      XXXXXX",
"XXXXXXXXX               ooo,,,888777666666777777666777888686777666666888,,,;;;;;;;;;;;;   XXXXXX",
"XXXXXXXXX               ooo,,,888777666666777777666777888777777666666888,,,;;;;;;;;;;;;   XXXXXX",
"XXXXXXXXX               ooo,,,888777666666777777666777888777777666666888,,,;;;;;;;;;;;;   XXXXXX",
"XXX::::::   ;;;;;;      ,,,666666777888888888888888777888666666666888888888,,,;;;;;;;;;;;;   XXX",
"XXX::::::   ;;;;;;      ,,,666666777888888888888888777888666666666888888888,,,;;;;;;;;;;;;   XXX",
"XXX::::::   ;;;;;;      ,,,666666777888888888888888677888666666666888888888,,,;;;;;;;;;;;;   XXX",
"::::::      ;;;;;;OOOOOO,,,686666666666666666666666677666999666888888888888,,,;;;OOO;;;;;;   :::",
"::::::      ;;;;;;OOOOOO,,,868666666666666686666666777666999666888888888888,,,;;;OOO;;;;;;   :::",
"::::::      ;;;;;;OOOOOO,,,686886666666666686666666777666999666888888888888,,,;;;OOO;;;;;;   :::",
"XXX:::   ;;;;;;;;;;;;OOO,,,868<<<888888888888888888666999000666888888444687,,,;;;;;;;;;;;;   :::",
"XXX:::   ;;;;;;;;;;;;OOO,,,686<<<888888888888888888666999000666888888444867,,,;;;;;;;;;;;;   :::",
"XXX:::   ;;;;;;;;;;;;OOO,,,7681<1888888888888888888666999099666888888444677,,,;;;;;;;;;;;;   :::",
"::::::   ;;;;;;;;;;;;;;;,,,788<<<<<<777888888888888666666099666666424444888,,,;;;;;;;;;;;;   XXX",
"::::::   ;;;;;;;;;;;;;;;,,,888<<<<<<777888888888888666666000866666424444888,,,;;;;;;;;;;;;   XXX",
"::::::   ;;;;;;;;;;;;;;;,,,868<<<<<<887888888888888666666000866666244444888,,,;;;;;;;;;;;;   XXX",
">>>   ;;;;;;;;;;;;;;;***+++,,,888111111444444888888888666455222442444686,,,;;;;;;;;;;;;;;;   XXX",
">>>   ;;;;;;;;;;;;;;;***+++,,,888111111444444888888888666455222224444668,,,;;;;;;;;;;;;;;;   XXX",
">>>   ;;;;;;;;;;;;;;;***+++,,,888111111444444888888888668444222442444777,,,;;;;;;;;;;;;;;;   XXX",
">>>   ;;;;;;;;;;;;;;;***++++++,,,8888881<<111444422444222442222677867,,,...;;;;;;;;;;;;;;;   XXX",
">>>   ;;;;;;;;;;;;;;;***++++++,,,888888111111444335242222222222877777,,,...;;;;;;;;;;;;;;;   XXX",
">>>   ;;;;;;;;;;;;;;;***++++++,,,888888111111444333324222222222677777,,,...;;;;;;;;;;;;;;;   XXX",
">>>   ;;;;;;OOO;;;*********++++++,,,,,,888888888888888888888666,,,,,,+++      ;;;;;;;;;;;;   ---",
">>>   ;;;;;;OOO;;;*********++++++,,,,,,888888888888888888888666,,,,,,+++      ;;;;;;;;;;;;   ---",
">>>   ;;;;;;OOO;;;*********++++++,,,,,,888888800888888888888666,,,,,,+++      ;;;;;;;;;;;;   ---",
":::>>>   ;;;;;;ooo$$$$$$&&&&&&+++++++++,,,,,,,,,,,,,,,,,,,,,,,,@@@...***oooOOO;;;;;;;;;;;;   ---",
":::>>>   ;;;;;;ooo$$$$$$&&&&&&+++++++++,,,,,,,,,,,,,,,,,,,,,,,,@@@...***oooOOO;;;;;;;;;;;;   ---",
":::>>>   ;;;;;;ooo$$$$$$&&&&&&+++++++++,,,,,,,,,,,,,,,,,,,,,,,,@@@...***oooOOO;;;;;;;;;;;;   ---",
"--->>>   ;;;;;;;;;******&&&*********++++++++++++++++++++++++...%%%===   ooo;;;OOOOOO;;;;;;   ---",
"--->>>   ;;;;;;;;;******&&&*********++++++++++++++++++++++++...%%%===   ooo;;;OOOOOO;;;;;;   ---",
"--->>>   ;;;;;;;;;******&&&*********++++++++++++++++++++++++...%%%===   ooo;;;OOOOOO;;;;;;   ---",
"XXX:::   ;;;;;;;;;******************************************###%%%            ;;;ooo         ---",
"XXX:::   ;;;;;;;;;******************************************###%%%            ;;;ooo         ---",
"XXX:::   ;;;;;;;;;******************************************###%%%            ;;;ooo         ---",
"XXX>>>   ;;;;;;;;;;;;;;;*********************&&&&&&&&&***###   :::   ;;;;;;;;;   oooooo;;;   :::",
"XXX>>>   ;;;;;;;;;;;;;;;*********************&&&&&&&&&***###   :::   ;;;;;;;;;   oooooo;;;   :::",
"XXX>>>   ;;;;;;;;;;;;;;;*********************&&&&&&&$$***###   :::   ;;;;;;;;;   oooooo;;;   :::",
":::>>>   ;;;;;;;;;;;;;;;;;;;;;;;;*********&&&OOOoooooo      ooo   ;;;;;;;;;;;;;;;   ooo;;;   :::",
":::>>>   ;;;;;;;;;;;;;;;;;;;;;;;;*********&&&OOOoooooo      ooo   ;;;;;;;;;;;;;;;   ooo;;;   :::",
":::>>>   ;;;;;;;;;;;;;;;;;;;;;;;;*********&&&OOOoooooo      ooo   ;;;;;;;;;;;;;;;   ooo;;;   :::",
"::::::      ;;;;;;;;;;;;;;;;;;;;;;;;;;;OOOoooooo;;;;;;   ooo---   ;;;;;;;;;               >>>:::",
"::::::      ;;;;;;;;;;;;;;;;;;;;;;;;;;;OOOoooooo;;;;;;   ooo---   ;;;;;;;;;               >>>:::",
"::::::      ;;;;;;;;;;;;;;;;;;;;;;;;;;;OOOoooooo;;;;;;   ooo---   ;;;;;;;;;               >>>:::",
"------:::            ;;;;;;;;;;;;;;;;;;;;;;;;;;;;;;      ooo   ;;;;;;;;;      ;;;   >>>:::::::::",
"------:::            ;;;;;;;;;;;;;;;;;;;;;;;;;;;;;;      ooo   ;;;;;;;;;      ;;;   >>>:::::::::",
"------:::            ;;;;;;;;;;;;;;;;;;;;;;;;;;;;;;      ooo   ;;;;;;;;;      ;;;   >>>:::::::::",
"------:::      ;;;ooo      oooooo   ;;;;;;;;;;;;;;;   ;;;         OOOOOOooo;;;;;;   >>>---:::---",
"------:::      ;;;ooo      oooooo   ;;;;;;;;;;;;;;;   ;;;         OOOOOOooo;;;;;;   >>>---:::---",
"------:::      ;;;ooo      oooooo   ;;;;;;;;;;;;;;;   ;;;         OOOOOOooo;;;;;;   >>>---:::---",
"--------->>>      ;;;oooooo;;;oooooo      ooo            >>>   oooooo;;;ooo;;;   >>>---::::::---",
"--------->>>      ;;;oooooo;;;oooooo      ooo            >>>   oooooo;;;ooo;;;   >>>---::::::---",
"--------->>>      ;;;oooooo;;;oooooo      ooo            >>>   oooooo;;;ooo;;;   >>>---::::::---",
"------------::::::      ooo;;;;;;oooooo;;;ooooooooo   >>>:::   oooooo;;;ooo   >>>>>>---:::------",
"------------::::::      ooo;;;;;;oooooo;;;ooooooooo   >>>:::   oooooo;;;ooo   >>>>>>---:::------",
"------------::::::      ooo;;;;;;oooooo;;;ooooooooo   >>>:::   oooooo;;;ooo   >>>>>>---:::------",
"---------------:::>>>>>>                  ;;;oooooo   ---:::   ooo         >>>>>>XXX---:::------",
"---------------:::>>>>>>                  ;;;oooooo   ---:::   ooo         >>>>>>XXX---:::------",
"---------------:::>>>>>>                  ;;;oooooo   ---:::   ooo         >>>>>>XXX---:::------",
"---------------XXXXXX:::>>>>>>:::>>>>>>>>>            ---:::         >>>>>>>>>::::::::::::------",
"---------------XXXXXX:::>>>>>>:::>>>>>>>>>            ---:::         >>>>>>>>>::::::::::::------",
"---------------XXXXXX:::>>>>>>:::>>>>>>>>>            ---:::         >>>>>>>>>::::::::::::------",
"---------------XXXXXXXXX::::::::::::>>>>>>>>>>>>>>>>>>::::::---:::::::::------:::---------------",
"---------------XXXXXXXXX::::::::::::>>>>>>>>>>>>>>>>>>::::::---:::::::::------:::---------------",
"---------------XXXXXXXXX::::::::::::>>>>>>>>>>>>>>>>>>::::::---:::::::::------:::---------------",
"------------XXXXXXXXXXXXXXX::::::::::::>>>>>>:::::::::::::::---------------::::::---------------",
"------------XXXXXXXXXXXXXXX::::::::::::>>>>>>:::::::::::::::---------------::::::---------------",
"------------XXXXXXXXXXXXXXX::::::::::::>>>>>>:::::::::::::::---------------::::::---------------",
"---XXXXXXXXXXXXXXXXXX:::::::::---------------------::::::::::::------------::::::---------------",
"---XXXXXXXXXXXXXXXXXX:::::::::---------------------::::::::::::------------::::::---------------",
"---XXXXXXXXXXXXXXXXXX:::::::::---------------------::::::::::::------------::::::---------------"
};
