/* XPM */
static char *so_long_p_back1744419968[] = {
/* columns rows colors chars-per-pixel */
"96 96 21 1 ",
"  c #350D01",
". c #3B1225",
"X c #4D1807",
"o c #602412",
"O c #722A15",
"+ c #46192B",
"@ c #392551",
"# c #402952",
"$ c #4B3058",
"% c #921F0D",
"& c #8D3C24",
"* c #E46800",
"= c #FFAA41",
"- c #365191",
"; c #A083C3",
": c #A184C4",
"> c #A88FCB",
", c #A98FCB",
"< c #D4D5F6",
"1 c #D5D6F7",
"2 c #E9E8F4",
/* pixels */
"XXXXXXXXXXXXXXXXXXXXX******%%%%%%%%%%%%%%%******************************%%%%%%***%%%%%%%%%%%%%%%",
"XXXXXXXXXXXXXXXXXXXXX******%%%%%%%%%%%%%%%******************************%%%%%%***%%%%%%%%%%%%%%%",
"XXXXXXXXXXXXXXXXXXXXX******%%%%%%%%%%%%%%%******************************%%%%%%***%%%%%%%%%%%%%%%",
"XXXXXXXXXXXXXXXXXXXXXXXX*********%%%%%%******%%%%%%%%%%%%%%%%%%%%%***************%%%%%%%%%%%%%%%",
"XXXXXXXXXXXXXXXXXXXXXXXX*********%%%%%%******%%%%%%%%%%%%%%%%%%%%%***************%%%%%%%%%%%%%%%",
"XXXXXXXXXXXXXXXXXXXXXXXX*********%%%%%%******%%%%%%%%%%%%%%%%%%%%%***************%%%%%%%%%%%%%%%",
"%%%XXXXXXXXXXXXXXXXXX%%%%%%***************               %%%%%%      ************%%%%%%%%%%%%%%%",
"%%%XXXXXXXXXXXXXXXXXX%%%%%%***************               %%%%%%      ************%%%%%%%%%%%%%%%",
"%%%XXXXXXXXXXXXXXXXXX%%%%%%***************               %%%%%%      ************%%%%%%%%%%%%%%%",
"***%%%XXXXXXXXXXXX%%%******===***%%%      &&&------------      &&&&&&      ******%%%%%%*********",
"***%%%XXXXXXXXXXXX%%%******===***%%%      &&&------------      &&&&&&      ******%%%%%%*********",
"***%%%XXXXXXXXXXXX%%%******===***%%%      &&&------------      &&&&&&      ******%%%%%%*********",
"******%%%%%%%%%*********===         &&&------111111111111------&&&&&&&&&&&&   ************%%%%%%",
"******%%%%%%%%%*********===         &&&------111111111111------&&&&&&&&&&&&   ************%%%%%%",
"******%%%%%%%%%*********===         &&&------111111111111------&&&&&&&&&&&&   ************%%%%%%",
"************************   &&&&&&&&&---111111222222222222111111---&&&&&&&&&&&&   %%%%%%%%%XXXXXX",
"************************   &&&&&&&&&---111111222222222222111111---&&&&&&&&&&&&   %%%%%%%%%XXXXXX",
"************************   &&&&&&&&&---111111222222222222111111---&&&&&&&&&&&&   %%%%%%%%%XXXXXX",
"*********XXXXXX******      &&&&&&---111111222222222222222222222111---&&&&&&&&&&&&   XXXXXX******",
"*********XXXXXX******      &&&&&&---111111222222222222222222222111---&&&&&&&&&&&&   XXXXXX******",
"*********XXXXXX******      &&&&&&---111111222222222222222222222111---&&&&&&&&&&&&   XXXXXX******",
"XXXXXXXXXXXXXXX      &&&&&&&&&---111111111111222222222222222111111111---&&&&&&&&&&&&   ******XXX",
"XXXXXXXXXXXXXXX      &&&&&&&&&---111111111111222222222222222111111111---&&&&&&&&&&&&   ******XXX",
"XXXXXXXXXXXXXXX      &&&&&&&&&---111111111111222222222222222111111111---&&&&&&&&&&&&   ******XXX",
"XXXXXXXXXXXX   &&&&&&&&&&&&---<<<111<<<<<<<<<<<<<<<111111111111111111111---&&&&&&oooooo   XXXXXX",
"XXXXXXXXXXXX   &&&&&&&&&&&&---<<<111<<<<<<<<<<<<<<<111111111111111111111---&&&&&&oooooo   XXXXXX",
"XXXXXXXXXXXX   &&&&&&&&&&&&---<<<111<<<<<<<<<<<<<<<111111111111111111111---&&&&&&oooooo   XXXXXX",
"XXXXXXXXX   &&&&&&&&&&&&&&&---<<<111111111111111111<<<<<<111111111111111---&&&&&&&&&&&&   XXXXXX",
"XXXXXXXXX   &&&&&&&&&&&&&&&---<<<111111111111111111<<<<<<111111111111111---&&&&&&&&&&&&   XXXXXX",
"XXXXXXXXX   &&&&&&&&&&&&&&&---11<111111111111111111<<<<<<111111111111111---&&&&&&&&&&&&   XXXXXX",
"XXX******   &&&&&&&&&&&&---111111111111111111111111111111111111111111111111---&&&&&&&&&&&&   XXX",
"XXX******   &&&&&&&&&&&&---111111111111111111111111111111111111111111111111---&&&&&&&&&&&&   XXX",
"XXX******   &&&&&&&&&&&&---111111111111111111111111111111111111111111111111---&&&&&&&&&&&&   XXX",
"******      &&&&&&OOOOOO---<11111111111111111111111111111111111111111111111---&&&OOO&&&&&&   ***",
"******      &&&&&&OOOOOO---<<<111111111111111111111111111111111111111111111---&&&OOO&&&&&&   ***",
"******      &&&&&&OOOOOO---<<<111111111111111111111111111111111111111111111---&&&OOO&&&&&&   ***",
"XXX***   &&&&&&&&&&&&OOO---<<<;::111111111111111111111111111111111111,,,<<<---&&&&&&&&&&&&   ***",
"XXX***   &&&&&&&&&&&&OOO---<<<;::111111111111111111111111111111111111,,,<<<---&&&&&&&&&&&&   ***",
"XXX***   &&&&&&&&&&&&OOO---<<<;;:111111111111111111111111111111111111,,,<<<---&&&&&&&&&&&&   ***",
"******   &&&&&&&&&&&&&&&---<11;;;;;;<<<111111111111111111111111111,,,,,,111---&&&&&&&&&&&&   XXX",
"******   &&&&&&&&&&&&&&&---1<<;;;;;;<<<111111111111111111111111111>,,,,,111---&&&&&&&&&&&&   XXX",
"******   &&&&&&&&&&&&&&&---1<<;;;;;;11<111111111111111111111111111>>,,,,111---&&&&&&&&&&&&   XXX",
"===   &&&&&&&&&&&&&&&$$$+++---111::::::>>>>>,111111111111>>>>>>>>>>>,111---&&&&&&&&&&&&&&&   XXX",
"===   &&&&&&&&&&&&&&&$$$+++---111::::::>>>>>,111111111111>>>>>>>>>>>,111---&&&&&&&&&&&&&&&   XXX",
"===   &&&&&&&&&&&&&&&$$$+++---111::::::>>>>,,111111111111>>>>>>>>>>>>111---&&&&&&&&&&&&&&&   XXX",
"===   &&&&&&&&&&&&&&&$$$++++++---111111::::::,,,>>>>>>>>>>>>>>>111111---+++&&&&&&&&&&&&&&&   XXX",
"===   &&&&&&&&&&&&&&&$$$++++++---111111::::::,,,>>>>>>>>>>>>>>>111111---+++&&&&&&&&&&&&&&&   XXX",
"===   &&&&&&&&&&&&&&&$$$++++++---111111::::::,,,>>>>>>>>>>>>>>>111111---+++&&&&&&&&&&&&&&&   XXX",
"===   &&&&&&OOO&&&$$$$$$$$$++++++------111111111111111111111111------...OOO&&&&&&&&&&&&&&&   %%%",
"===   &&&&&&OOO&&&$$$$$$$$$++++++------111111111111111111111111------...OOO&&&&&&&&&&&&&&&   %%%",
"===   &&&&&&OOO&&&$$$$$$$$$++++++------111111111111111111111111------...OOO&&&&&&&&&&&&&&&   %%%",
"***===   &&&&&&ooo@@@@@@######+++++++++------------------------++++++$$$&&&&&&&&&&&&&&&&&&   %%%",
"***===   &&&&&&ooo@@@@@@######+++++++++------------------------++++++$$$&&&&&&&&&&&&&&&&&&   %%%",
"***===   &&&&&&ooo@@@@@@######+++++++++------------------------++++++$$$&&&&&&&&&&&&&&&&&&   %%%",
"%%%===   &&&&&&&&&$$$$$$###$$$$$$$$$+++++++++++++++++++++++++++$$$$$$ooooooooo&&&&&&&&&      %%%",
"%%%===   &&&&&&&&&$$$$$$###$$$$$$$$$+++++++++++++++++++++++++++$$$$$$ooooooooo&&&&&&&&&      %%%",
"%%%===   &&&&&&&&&$$$$$$###$$$$$$$$$+++++++++++++++++++++++++++$$$$$$ooooooooo&&&&&&&&&      %%%",
"XXX***   &&&&&&&&&$$$$$$$$$$$$$$$$$$$$$$$$$$$$$$$$$$$$$$$$$$$$$@@@oooooooooooo&&&&&&&&&      %%%",
"XXX***   &&&&&&&&&$$$$$$$$$$$$$$$$$$$$$$$$$$$$$$$$$$$$$$$$$$$$$@@@oooooooooooo&&&&&&&&&      %%%",
"XXX***   &&&&&&&&&$$$$$$$$$$$$$$$$$$$$$$$$$$$$$$$$$$$$$$$$$$$$$@@@oooooooooooo&&&&&&&&&      %%%",
"XXX===   &&&&&&&&&&&&&&&$$$$$$$$$$$$$$$$$$$$$#########$$$$$$&&&&&&&&&&&&&&&&&&&&&            ***",
"XXX===   &&&&&&&&&&&&&&&$$$$$$$$$$$$$$$$$$$$$#########$$$$$$&&&&&&&&&&&&&&&&&&&&&            ***",
"XXX===   &&&&&&&&&&&&&&&$$$$$$$$$$$$$$$$$$$$$#########$$$$$$&&&&&&&&&&&&&&&&&&&&&            ***",
"***===   &&&&&&&&&&&&&&&&&&&&&&&&$$$$$$$$$###OOOooooooOOO&&&&&&&&&&&&&&&&&&&&&&&&ooooooooo   ===",
"***===   &&&&&&&&&&&&&&&&&&&&&&&&$$$$$$$$$###OOOooooooOOO&&&&&&&&&&&&&&&&&&&&&&&&ooooooooo   ===",
"***===   &&&&&&&&&&&&&&&&&&&&&&&&$$$$$$$$$###OOOooooooOOO&&&&&&&&&&&&&&&&&&&&&&&&ooooooooo   ===",
"******      &&&&&&&&&&&&&&&&&&&&&&&&&&&OOOoooooo&&&&&&&&&&&&&&&&&&&&&&&&&&&      &&&ooo   ======",
"******      &&&&&&&&&&&&&&&&&&&&&&&&&&&OOOoooooo&&&&&&&&&&&&&&&&&&&&&&&&&&&      &&&ooo   ======",
"******      &&&&&&&&&&&&&&&&&&&&&&&&&&&OOOoooooo&&&&&&&&&&&&&&&&&&&&&&&&&&&      &&&ooo   ======",
"%%%%%%***            &&&&&&&&&&&&&&&&&&&&&&&&&&&&&&&&&&&&&&&&&&&&&&&&         ooo&&&   *********",
"%%%%%%***            &&&&&&&&&&&&&&&&&&&&&&&&&&&&&&&&&&&&&&&&&&&&&&&&         ooo&&&   *********",
"%%%%%%***            &&&&&&&&&&&&&&&&&&&&&&&&&&&&&&&&&&&&&&&&&&&&&&&&         ooo&&&   *********",
"%%%%%%***      &&&ooo      oooooo   &&&&&&&&&&&&&&&&&&&&&&&&&&&         &&&&&&&&&   ===%%%***%%%",
"%%%%%%***      &&&ooo      oooooo   &&&&&&&&&&&&&&&&&&&&&&&&&&&         &&&&&&&&&   ===%%%***%%%",
"%%%%%%***      &&&ooo      oooooo   &&&&&&&&&&&&&&&&&&&&&&&&&&&         &&&&&&&&&   ===%%%***%%%",
"%%%%%%%%%===      &&&oooooo&&&oooooo      ooo         oooooo   oooooo&&&&&&&&&   =========***%%%",
"%%%%%%%%%===      &&&oooooo&&&oooooo      ooo         oooooo   oooooo&&&&&&&&&   =========***%%%",
"%%%%%%%%%===      &&&oooooo&&&oooooo      ooo         oooooo   oooooo&&&&&&&&&   =========***%%%",
"%%%%%%%%%%%%******      ooo&&&&&&oooooo&&&ooooooooooooooo&&&ooooooooo&&&&&&   ======%%%***%%%%%%",
"%%%%%%%%%%%%******      ooo&&&&&&oooooo&&&ooooooooooooooo&&&ooooooooo&&&&&&   ======%%%***%%%%%%",
"%%%%%%%%%%%%******      ooo&&&&&&oooooo&&&ooooooooooooooo&&&ooooooooo&&&&&&   ======%%%***%%%%%%",
"%%%%%%%%%%%%%%%***======                  &&&oooooooooooo&&&oooooo         ======XXX%%%***%%%%%%",
"%%%%%%%%%%%%%%%***======                  &&&oooooooooooo&&&oooooo         ======XXX%%%***%%%%%%",
"%%%%%%%%%%%%%%%***======                  &&&oooooooooooo&&&oooooo         ======XXX%%%***%%%%%%",
"%%%%%%%%%%%%%%%XXXXXX***======***=========                           ======***************%%%%%%",
"%%%%%%%%%%%%%%%XXXXXX***======***=========                           ======***************%%%%%%",
"%%%%%%%%%%%%%%%XXXXXX***======***=========                           ======***************%%%%%%",
"%%%%%%%%%%%%%%%XXXXXXXXX************===========================*********%%%%%%***%%%%%%%%%%%%%%%",
"%%%%%%%%%%%%%%%XXXXXXXXX************===========================*********%%%%%%***%%%%%%%%%%%%%%%",
"%%%%%%%%%%%%%%%XXXXXXXXX************===========================*********%%%%%%***%%%%%%%%%%%%%%%",
"%%%%%%%%%%%%XXXXXXXXXXXXXXX************======***************%%%%%%%%%%%%%%%******%%%%%%%%%%%%%%%",
"%%%%%%%%%%%%XXXXXXXXXXXXXXX************======***************%%%%%%%%%%%%%%%******%%%%%%%%%%%%%%%",
"%%%%%%%%%%%%XXXXXXXXXXXXXXX************======***************%%%%%%%%%%%%%%%******%%%%%%%%%%%%%%%",
"%%%XXXXXXXXXXXXXXXXXX*********%%%%%%%%%%%%%%%%%%%%%************%%%%%%%%%%%%******%%%%%%%%%%%%%%%",
"%%%XXXXXXXXXXXXXXXXXX*********%%%%%%%%%%%%%%%%%%%%%************%%%%%%%%%%%%******%%%%%%%%%%%%%%%",
"%%%XXXXXXXXXXXXXXXXXX*********%%%%%%%%%%%%%%%%%%%%%************%%%%%%%%%%%%******%%%%%%%%%%%%%%%"
};
