/* XPM */
static char *result[] = {
/* columns rows colors chars-per-pixel */
"96 96 31 1 ",
"  c #350D01",
". c #24071D",
"X c #4D1807",
"o c #602412",
"O c #722A15",
"+ c #46192B",
"@ c #724437",
"# c #291C4B",
"$ c #392551",
"% c #4D234F",
"& c #402952",
"* c #4B3058",
"= c #775A63",
"- c #921F0D",
"; c #8D3C24",
": c #E46800",
"> c #FFAA41",
", c #365191",
"< c #9173AA",
"1 c #9877AC",
"2 c #9A78AD",
"3 c #9E7AAF",
"4 c #AC81AA",
"5 c #BEBBD6",
"6 c #C5BED9",
"7 c #C7BFD9",
"8 c #CBC2DB",
"9 c #D0CBD4",
"0 c #D9C9D6",
"q c #DDD2D9",
"w c #DDD2E0",
/* pixels */
"XXXXXXXXXXXXXXXXXXXXX::::::---------------::::::::::::::::::::::::::::::------:::---------------",
"XXXXXXXXXXXXXXXXXXXXX::::::---------------::::::::::::::::::::::::::::::------:::---------------",
"XXXXXXXXXXXXXXXXXXXXX::::::---------------::::::::::::::::::::::::::::::------:::---------------",
"XXXXXXXXXXXXXXXXXXXXXXXX:::::::::------::::::---------------------:::::::::::::::---------------",
"XXXXXXXXXXXXXXXXXXXXXXXX:::::::::------::::::---------------------:::::::::::::::---------------",
"XXXXXXXXXXXXXXXXXXXXXXXX:::::::::------::::::---------------------:::::::::::::::---------------",
"---XXXXXXXXXXXXXXXXXX------:::::::::::::::               ------------::::::::::::---------------",
"---XXXXXXXXXXXXXXXXXX------:::::::::::::::               ------------::::::::::::---------------",
"---XXXXXXXXXXXXXXXXXX------:::::::::::::::               ------------::::::::::::---------------",
":::---XXXXXXXXXXXX---::::::>>>:::---      ;;;,,,,,,,,,,,,      ------------::::::------:::::::::",
":::---XXXXXXXXXXXX---::::::>>>:::---      ;;;,,,,,,,,,,,,      ------------::::::------:::::::::",
":::---XXXXXXXXXXXX---::::::>>>:::---      ;;;,,,,,,,,,,,,      ------------::::::------:::::::::",
"::::::---------:::::::::>>>         ;;;,,,,,,888888888888,,,,,,   ------------::::::::::::------",
"::::::---------:::::::::>>>         ;;;,,,,,,888888888888,,,,,,   ------------::::::::::::------",
"::::::---------:::::::::>>>         ;;;,,,,,,888888888888,,,,,,   ------------::::::::::::------",
"::::::::::::::::::::::::   ;;;;;;;;;,,,888777qqqqqqqqqqqq888888,,,   XXXXXXXXX------------XXXXXX",
"::::::::::::::::::::::::   ;;;;;;;;;,,,888777qqqqqqqqqqqq888888,,,   XXXXXXXXX------------XXXXXX",
"::::::::::::::::::::::::   ;;;;;;;;;,,,888777qqqqqqqqqqqq888888,,,   XXXXXXXXX------------XXXXXX",
":::::::::XXXXXX::::::      ;;;;;;,,,777777qqqqqqqqqqqqqqqqqqqqq888,,,:::XXXXXX------XXXXXX::::::",
":::::::::XXXXXX::::::      ;;;;;;,,,777777qqqqqqqqqqqqqqqqqqqqq888,,,:::XXXXXX------XXXXXX::::::",
":::::::::XXXXXX::::::      ;;;;;;,,,777777qqqqqqqqqqqqqqqqqqqqq888,,,:::XXXXXX------XXXXXX::::::",
"XXXXXXXXXXXXXXX::::::         ,,,888888888888qqqqqqqqqqqq999555555555,,,:::            ::::::XXX",
"XXXXXXXXXXXXXXX::::::         ,,,888888888888qqqqqqqqqqqq999555555555,,,:::            ::::::XXX",
"XXXXXXXXXXXXXXX::::::         ,,,888888888888qqqqqqqqqqqq999555555555,,,:::            ::::::XXX",
"XXXXXXXXXXXX:::>>>>>>   ooo,,,888555555888888888555555555555666888555555,,,;;;;;;ooo      XXXXXX",
"XXXXXXXXXXXX:::>>>>>>   ooo,,,888555555888888888555555555555666888555555,,,;;;;;;ooo      XXXXXX",
"XXXXXXXXXXXX:::>>>>>>   ooo,,,888555555888888888555555555555666888555555,,,;;;;;;ooo      XXXXXX",
"XXXXXXXXX               ooo,,,888666555555777777555666888666666555555888,,,;;;;;;;;;;;;   XXXXXX",
"XXXXXXXXX               ooo,,,888666555555777777555666888666666555555888,,,;;;;;;;;;;;;   XXXXXX",
"XXXXXXXXX               ooo,,,888666555555777777555666888666666555555888,,,;;;;;;;;;;;;   XXXXXX",
"XXX::::::   ;;;;;;      ,,,555555666888888888888888666888555555555888888888,,,;;;;;;;;;;;;   XXX",
"XXX::::::   ;;;;;;      ,,,555555666888888888888888666888555555555888888888,,,;;;;;;;;;;;;   XXX",
"XXX::::::   ;;;;;;      ,,,555555666888888888888888666888555555555888888888,,,;;;;;;;;;;;;   XXX",
"::::::      ;;;;;;OOOOOO,,,777555555555555555555555777555000555888888888888,,,;;;OOO;;;;;;   :::",
"::::::      ;;;;;;OOOOOO,,,777555555555555555555555777555000555888888888888,,,;;;OOO;;;;;;   :::",
"::::::      ;;;;;;OOOOOO,,,777555555555555555555555777555000555888888888888,,,;;;OOO;;;;;;   :::",
"XXX:::   ;;;;;;;;;;;;OOO,,,666333888888888888888888555000www555888888333777,,,;;;;;;;;;;;;   :::",
"XXX:::   ;;;;;;;;;;;;OOO,,,666333888888888888888888555000www555888888333777,,,;;;;;;;;;;;;   :::",
"XXX:::   ;;;;;;;;;;;;OOO,,,666333888888888888888888555000www555888888333777,,,;;;;;;;;;;;;   :::",
"::::::   ;;;;;;;;;;;;;;;,,,666111111666888888888888555555www555555222333888,,,;;;;;;;;;;;;   XXX",
"::::::   ;;;;;;;;;;;;;;;,,,666111111666888888888888555555www555555222333888,,,;;;;;;;;;;;;   XXX",
"::::::   ;;;;;;;;;;;;;;;,,,666111111666888888888888555555www555555222333888,,,;;;;;;;;;;;;   XXX",
">>>   ;;;;;;;;;;;;;;;***+++,,,888333333333333888888888555444<<<111333777,,,;;;;;;;;;;;;;;;   XXX",
">>>   ;;;;;;;;;;;;;;;***+++,,,888333333333333888888888555444<<<111333777,,,;;;;;;;;;;;;;;;   XXX",
">>>   ;;;;;;;;;;;;;;;***+++,,,888333333333333888888888555444<<<111333777,,,;;;;;;;;;;;;;;;   XXX",
">>>   ;;;;;;;;;;;;;;;***++++++,,,888888333333333222222<<<<<<<<<666666,,,...;;;;;;;;;;;;;;;   XXX",
">>>   ;;;;;;;;;;;;;;;***++++++,,,888888333333333222222<<<<<<<<<666666,,,...;;;;;;;;;;;;;;;   XXX",
">>>   ;;;;;;;;;;;;;;;***++++++,,,888888333333333222222<<<<<<<<<666666,,,...;;;;;;;;;;;;;;;   XXX",
">>>   ;;;;;;OOO;;;*********++++++,,,,,,888888888888888888888555,,,,,,+++      ;;;;;;;;;;;;   ---",
">>>   ;;;;;;OOO;;;*********++++++,,,,,,888888888888888888888555,,,,,,+++      ;;;;;;;;;;;;   ---",
">>>   ;;;;;;OOO;;;*********++++++,,,,,,888888888888888888888555,,,,,,+++      ;;;;;;;;;;;;   ---",
":::>>>   ;;;;;;ooo$$$$$$&&&&&&+++++++++,,,,,,,,,,,,,,,,,,,,,,,,@@@...***oooOOO;;;;;;;;;;;;   ---",
":::>>>   ;;;;;;ooo$$$$$$&&&&&&+++++++++,,,,,,,,,,,,,,,,,,,,,,,,@@@...***oooOOO;;;;;;;;;;;;   ---",
":::>>>   ;;;;;;ooo$$$$$$&&&&&&+++++++++,,,,,,,,,,,,,,,,,,,,,,,,@@@...***oooOOO;;;;;;;;;;;;   ---",
"--->>>   ;;;;;;;;;******&&&*********++++++++++++++++++++++++...%%%===   ooo;;;OOOOOO;;;;;;   ---",
"--->>>   ;;;;;;;;;******&&&*********++++++++++++++++++++++++...%%%===   ooo;;;OOOOOO;;;;;;   ---",
"--->>>   ;;;;;;;;;******&&&*********++++++++++++++++++++++++...%%%===   ooo;;;OOOOOO;;;;;;   ---",
"XXX:::   ;;;;;;;;;******************************************###%%%            ;;;ooo         ---",
"XXX:::   ;;;;;;;;;******************************************###%%%            ;;;ooo         ---",
"XXX:::   ;;;;;;;;;******************************************###%%%            ;;;ooo         ---",
"XXX>>>   ;;;;;;;;;;;;;;;*********************&&&&&&&&&***###   :::   ;;;;;;;;;   oooooo;;;   :::",
"XXX>>>   ;;;;;;;;;;;;;;;*********************&&&&&&&&&***###   :::   ;;;;;;;;;   oooooo;;;   :::",
"XXX>>>   ;;;;;;;;;;;;;;;*********************&&&&&&&&&***###   :::   ;;;;;;;;;   oooooo;;;   :::",
":::>>>   ;;;;;;;;;;;;;;;;;;;;;;;;*********&&&OOOoooooo      ooo   ;;;;;;;;;;;;;;;   ooo;;;   :::",
":::>>>   ;;;;;;;;;;;;;;;;;;;;;;;;*********&&&OOOoooooo      ooo   ;;;;;;;;;;;;;;;   ooo;;;   :::",
":::>>>   ;;;;;;;;;;;;;;;;;;;;;;;;*********&&&OOOoooooo      ooo   ;;;;;;;;;;;;;;;   ooo;;;   :::",
"::::::      ;;;;;;;;;;;;;;;;;;;;;;;;;;;OOOoooooo;;;;;;   ooo---   ;;;;;;;;;               >>>:::",
"::::::      ;;;;;;;;;;;;;;;;;;;;;;;;;;;OOOoooooo;;;;;;   ooo---   ;;;;;;;;;               >>>:::",
"::::::      ;;;;;;;;;;;;;;;;;;;;;;;;;;;OOOoooooo;;;;;;   ooo---   ;;;;;;;;;               >>>:::",
"------:::            ;;;;;;;;;;;;;;;;;;;;;;;;;;;;;;      ooo   ;;;;;;;;;      ;;;   >>>:::::::::",
"------:::            ;;;;;;;;;;;;;;;;;;;;;;;;;;;;;;      ooo   ;;;;;;;;;      ;;;   >>>:::::::::",
"------:::            ;;;;;;;;;;;;;;;;;;;;;;;;;;;;;;      ooo   ;;;;;;;;;      ;;;   >>>:::::::::",
"------:::      ;;;ooo      oooooo   ;;;;;;;;;;;;;;;   ;;;         OOOOOOooo;;;;;;   >>>---:::---",
"------:::      ;;;ooo      oooooo   ;;;;;;;;;;;;;;;   ;;;         OOOOOOooo;;;;;;   >>>---:::---",
"------:::      ;;;ooo      oooooo   ;;;;;;;;;;;;;;;   ;;;         OOOOOOooo;;;;;;   >>>---:::---",
"--------->>>      ;;;oooooo;;;oooooo      ooo            >>>   oooooo;;;ooo;;;   >>>---::::::---",
"--------->>>      ;;;oooooo;;;oooooo      ooo            >>>   oooooo;;;ooo;;;   >>>---::::::---",
"--------->>>      ;;;oooooo;;;oooooo      ooo            >>>   oooooo;;;ooo;;;   >>>---::::::---",
"------------::::::      ooo;;;;;;oooooo;;;ooooooooo   >>>:::   oooooo;;;ooo   >>>>>>---:::------",
"------------::::::      ooo;;;;;;oooooo;;;ooooooooo   >>>:::   oooooo;;;ooo   >>>>>>---:::------",
"------------::::::      ooo;;;;;;oooooo;;;ooooooooo   >>>:::   oooooo;;;ooo   >>>>>>---:::------",
"---------------:::>>>>>>                  ;;;oooooo   ---:::   ooo         >>>>>>XXX---:::------",
"---------------:::>>>>>>                  ;;;oooooo   ---:::   ooo         >>>>>>XXX---:::------",
"---------------:::>>>>>>                  ;;;oooooo   ---:::   ooo         >>>>>>XXX---:::------",
"---------------XXXXXX:::>>>>>>:::>>>>>>>>>            ---:::         >>>>>>>>>::::::::::::------",
"---------------XXXXXX:::>>>>>>:::>>>>>>>>>            ---:::         >>>>>>>>>::::::::::::------",
"---------------XXXXXX:::>>>>>>:::>>>>>>>>>            ---:::         >>>>>>>>>::::::::::::------",
"---------------XXXXXXXXX::::::::::::>>>>>>>>>>>>>>>>>>::::::---:::::::::------:::---------------",
"---------------XXXXXXXXX::::::::::::>>>>>>>>>>>>>>>>>>::::::---:::::::::------:::---------------",
"---------------XXXXXXXXX::::::::::::>>>>>>>>>>>>>>>>>>::::::---:::::::::------:::---------------",
"------------XXXXXXXXXXXXXXX::::::::::::>>>>>>:::::::::::::::---------------::::::---------------",
"------------XXXXXXXXXXXXXXX::::::::::::>>>>>>:::::::::::::::---------------::::::---------------",
"------------XXXXXXXXXXXXXXX::::::::::::>>>>>>:::::::::::::::---------------::::::---------------",
"---XXXXXXXXXXXXXXXXXX:::::::::---------------------::::::::::::------------::::::---------------",
"---XXXXXXXXXXXXXXXXXX:::::::::---------------------::::::::::::------------::::::---------------",
"---XXXXXXXXXXXXXXXXXX:::::::::---------------------::::::::::::------------::::::---------------"
};
