/* XPM */
static char *result[] = {
/* columns rows colors chars-per-pixel */
"96 96 32 1 ",
"  c #350D01",
". c #24071D",
"X c #4D1807",
"o c #602412",
"O c #722A15",
"+ c #46192B",
"@ c #724437",
"# c #291C4B",
"$ c #392551",
"% c #4D234F",
"& c #402952",
"* c #4B3058",
"= c #775A63",
"- c #921F0D",
"; c #8D3C24",
": c #E46800",
"> c #FFAA41",
", c #365191",
"< c #9173AA",
"1 c #9877AC",
"2 c #9A78AD",
"3 c #9E7AAF",
"4 c #7B98FF",
"5 c #BEBBD6",
"6 c #C5BED9",
"7 c #C7BFD9",
"8 c #F6BAE2",
"9 c #CBC2DB",
"0 c #D0CBD4",
"q c #D9C9D6",
"w c #DDD2D9",
"e c #DDD2E0",
/* pixels */
"XXXXXXXXXXXXXXXXXXXXX::::::---------------::::::::::::::::::::::::::::::------:::---------------",
"XXXXXXXXXXXXXXXXXXXXX::::::---------------::::::::::::::::::::::::::::::------:::---------------",
"XXXXXXXXXXXXXXXXXXXXX::::::---------------::::::::::::::::::::::::::::::------:::---------------",
"XXXXXXXXXXXXXXXXXXXXXXXX:::::::::------::::::---------------------:::::::::::::::---------------",
"XXXXXXXXXXXXXXXXXXXXXXXX:::::::::------::::::---------------------:::::::::::::::---------------",
"XXXXXXXXXXXXXXXXXXXXXXXX:::::::::------::::::---------------------:::::::::::::::---------------",
"---XXXXXXXXXXXXXXXXXX------:::::::::::::::               ------------::::::::::::---------------",
"---XXXXXXXXXXXXXXXXXX------:::::::::::::::               ------------::::::::::::---------------",
"---XXXXXXXXXXXXXXXXXX------:::::::::::::::               ------------::::::::::::---------------",
":::---XXXXXXXXXXXX---::::::>>>:::---      ;;;,,,,,,,,,,,,      ------------::::::------:::::::::",
":::---XXXXXXXXXXXX---::::::>>>:::---      ;;;,,,,,,,,,,,,      ------------::::::------:::::::::",
":::---XXXXXXXXXXXX---::::::>>>:::---      ;;;,,,,,,,,,,,,      ------------::::::------:::::::::",
"::::::---------:::::::::>>>         ;;;,,,,,,999999999999,,,,,,   ------------::::::::::::------",
"::::::---------:::::::::>>>         ;;;,,,,,,999999999999,,,,,,   ------------::::::::::::------",
"::::::---------:::::::::>>>         ;;;,,,,,,999999999999,,,,,,   ------------::::::::::::------",
"::::::::::::::::::::::::   ;;;;;;;;;,,,999777wwwwwwwwwwww999999,,,   XXXXXXXXX------------XXXXXX",
"::::::::::::::::::::::::   ;;;;;;;;;,,,999777wwwwwwwwwwww999999,,,   XXXXXXXXX------------XXXXXX",
"::::::::::::::::::::::::   ;;;;;;;;;,,,999777wwwwwwwwwwww999999,,,   XXXXXXXXX------------XXXXXX",
":::::::::XXXXXX::::::      ;;;;;;,,,777777wwwwwwwwwwwwwwwwwwwww999,,,:::XXXXXX------XXXXXX::::::",
":::::::::XXXXXX::::::      ;;;;;;,,,777777wwwwwwwwwwwwwwwwwwwww999,,,:::XXXXXX------XXXXXX::::::",
":::::::::XXXXXX::::::      ;;;;;;,,,777777wwwwwwwwwwwwwwwwwwwww999,,,:::XXXXXX------XXXXXX::::::",
"XXXXXXXXXXXXXXX::::::         ,,,999999999999wwwwwwwwwwww000555555555,,,:::            ::::::XXX",
"XXXXXXXXXXXXXXX::::::         ,,,999999999999wwwwwwwwwwww000555555555,,,:::            ::::::XXX",
"XXXXXXXXXXXXXXX::::::         ,,,999999999999wwwwwwwwwwww000555555555,,,:::            ::::::XXX",
"XXXXXXXXXXXX:::>>>>>>   ooo,,,999555555999999999555555555555666999555555,,,;;;;;;ooo      XXXXXX",
"XXXXXXXXXXXX:::>>>>>>   ooo,,,999555555999999999555555555555666999555555,,,;;;;;;ooo      XXXXXX",
"XXXXXXXXXXXX:::>>>>>>   ooo,,,999555555999999999555555555555666999555555,,,;;;;;;ooo      XXXXXX",
"XXXXXXXXX               ooo,,,444666555555777777555666999666666555555999,,,;;;;;;;;;;;;   XXXXXX",
"XXXXXXXXX               ooo,,,444666555555777777555666999666666555555999,,,;;;;;;;;;;;;   XXXXXX",
"XXXXXXXXX               ooo,,,444666555555777777555666999666666555555999,,,;;;;;;;;;;;;   XXXXXX",
"XXX::::::   ;;;;;;      ,,,555444666999999999999999666999555555555999999999,,,;;;;;;;;;;;;   XXX",
"XXX::::::   ;;;;;;      ,,,555444666999999999999999666999555555555999999999,,,;;;;;;;;;;;;   XXX",
"XXX::::::   ;;;;;;      ,,,555444666999999999999999666999555555555999999999,,,;;;;;;;;;;;;   XXX",
"::::::      ;;;;;;OOOOOO,,,777555555444555555555555777555qqq555999999999999,,,;;;OOO;;;;;;   :::",
"::::::      ;;;;;;OOOOOO,,,777555555444555555555555777555qqq555999999999999,,,;;;OOO;;;;;;   :::",
"::::::      ;;;;;;OOOOOO,,,777555555444555555555555777555qqq555999999999999,,,;;;OOO;;;;;;   :::",
"XXX:::   ;;;;;;;;;;;;OOO,,,666999999444999999999999555qqqeee555999999333777,,,;;;;;;;;;;;;   :::",
"XXX:::   ;;;;;;;;;;;;OOO,,,666999999444999999999999555qqqeee555999999333777,,,;;;;;;;;;;;;   :::",
"XXX:::   ;;;;;;;;;;;;OOO,,,666999999444999999999999555qqqeee555999999333777,,,;;;;;;;;;;;;   :::",
"::::::   ;;;;;;;;;;;;;;;,,,666444666666999999999999555555eee555555222333999,,,;;;;;;;;;;;;   XXX",
"::::::   ;;;;;;;;;;;;;;;,,,666444666666999999999999555555eee555555222333999,,,;;;;;;;;;;;;   XXX",
"::::::   ;;;;;;;;;;;;;;;,,,666444666666999999999999555555eee555555222333999,,,;;;;;;;;;;;;   XXX",
">>>   ;;;;;;;;;;;;;;;***+++,,,999999888888999999999999555qqq555111333777,,,;;;;;;;;;;;;;;;   XXX",
">>>   ;;;;;;;;;;;;;;;***+++,,,999999888888999999999999555qqq555111333777,,,;;;;;;;;;;;;;;;   XXX",
">>>   ;;;;;;;;;;;;;;;***+++,,,999999888888999999999999555qqq555111333777,,,;;;;;;;;;;;;;;;   XXX",
">>>   ;;;;;;;;;;;;;;;***++++++,,,999999999999999777777555<<<<<<666666,,,...;;;;;;;;;;;;;;;   XXX",
">>>   ;;;;;;;;;;;;;;;***++++++,,,999999999999999777777555<<<<<<666666,,,...;;;;;;;;;;;;;;;   XXX",
">>>   ;;;;;;;;;;;;;;;***++++++,,,999999999999999777777555<<<<<<666666,,,...;;;;;;;;;;;;;;;   XXX",
">>>   ;;;;;;OOO;;;*********++++++,,,,,,999999999999999999999555,,,,,,+++      ;;;;;;;;;;;;   ---",
">>>   ;;;;;;OOO;;;*********++++++,,,,,,999999999999999999999555,,,,,,+++      ;;;;;;;;;;;;   ---",
">>>   ;;;;;;OOO;;;*********++++++,,,,,,999999999999999999999555,,,,,,+++      ;;;;;;;;;;;;   ---",
":::>>>   ;;;;;;ooo$$$$$$&&&&&&+++++++++,,,,,,,,,,,,,,,,,,,,,,,,@@@...***oooOOO;;;;;;;;;;;;   ---",
":::>>>   ;;;;;;ooo$$$$$$&&&&&&+++++++++,,,,,,,,,,,,,,,,,,,,,,,,@@@...***oooOOO;;;;;;;;;;;;   ---",
":::>>>   ;;;;;;ooo$$$$$$&&&&&&+++++++++,,,,,,,,,,,,,,,,,,,,,,,,@@@...***oooOOO;;;;;;;;;;;;   ---",
"--->>>   ;;;;;;;;;******&&&*********++++++++++++++++++++++++...%%%===   ooo;;;OOOOOO;;;;;;   ---",
"--->>>   ;;;;;;;;;******&&&*********++++++++++++++++++++++++...%%%===   ooo;;;OOOOOO;;;;;;   ---",
"--->>>   ;;;;;;;;;******&&&*********++++++++++++++++++++++++...%%%===   ooo;;;OOOOOO;;;;;;   ---",
"XXX:::   ;;;;;;;;;******************************************###%%%            ;;;ooo         ---",
"XXX:::   ;;;;;;;;;******************************************###%%%            ;;;ooo         ---",
"XXX:::   ;;;;;;;;;******************************************###%%%            ;;;ooo         ---",
"XXX>>>   ;;;;;;;;;;;;;;;*********************&&&&&&&&&***###   :::   ;;;;;;;;;   oooooo;;;   :::",
"XXX>>>   ;;;;;;;;;;;;;;;*********************&&&&&&&&&***###   :::   ;;;;;;;;;   oooooo;;;   :::",
"XXX>>>   ;;;;;;;;;;;;;;;*********************&&&&&&&&&***###   :::   ;;;;;;;;;   oooooo;;;   :::",
":::>>>   ;;;;;;;;;;;;;;;;;;;;;;;;*********&&&OOOoooooo      ooo   ;;;;;;;;;;;;;;;   ooo;;;   :::",
":::>>>   ;;;;;;;;;;;;;;;;;;;;;;;;*********&&&OOOoooooo      ooo   ;;;;;;;;;;;;;;;   ooo;;;   :::",
":::>>>   ;;;;;;;;;;;;;;;;;;;;;;;;*********&&&OOOoooooo      ooo   ;;;;;;;;;;;;;;;   ooo;;;   :::",
"::::::      ;;;;;;;;;;;;;;;;;;;;;;;;;;;OOOoooooo;;;;;;   ooo---   ;;;;;;;;;               >>>:::",
"::::::      ;;;;;;;;;;;;;;;;;;;;;;;;;;;OOOoooooo;;;;;;   ooo---   ;;;;;;;;;               >>>:::",
"::::::      ;;;;;;;;;;;;;;;;;;;;;;;;;;;OOOoooooo;;;;;;   ooo---   ;;;;;;;;;               >>>:::",
"------:::            ;;;;;;;;;;;;;;;;;;;;;;;;;;;;;;      ooo   ;;;;;;;;;      ;;;   >>>:::::::::",
"------:::            ;;;;;;;;;;;;;;;;;;;;;;;;;;;;;;      ooo   ;;;;;;;;;      ;;;   >>>:::::::::",
"------:::            ;;;;;;;;;;;;;;;;;;;;;;;;;;;;;;      ooo   ;;;;;;;;;      ;;;   >>>:::::::::",
"------:::      ;;;ooo      oooooo   ;;;;;;;;;;;;;;;   ;;;         OOOOOOooo;;;;;;   >>>---:::---",
"------:::      ;;;ooo      oooooo   ;;;;;;;;;;;;;;;   ;;;         OOOOOOooo;;;;;;   >>>---:::---",
"------:::      ;;;ooo      oooooo   ;;;;;;;;;;;;;;;   ;;;         OOOOOOooo;;;;;;   >>>---:::---",
"--------->>>      ;;;oooooo;;;oooooo      ooo            >>>   oooooo;;;ooo;;;   >>>---::::::---",
"--------->>>      ;;;oooooo;;;oooooo      ooo            >>>   oooooo;;;ooo;;;   >>>---::::::---",
"--------->>>      ;;;oooooo;;;oooooo      ooo            >>>   oooooo;;;ooo;;;   >>>---::::::---",
"------------::::::      ooo;;;;;;oooooo;;;ooooooooo   >>>:::   oooooo;;;ooo   >>>>>>---:::------",
"------------::::::      ooo;;;;;;oooooo;;;ooooooooo   >>>:::   oooooo;;;ooo   >>>>>>---:::------",
"------------::::::      ooo;;;;;;oooooo;;;ooooooooo   >>>:::   oooooo;;;ooo   >>>>>>---:::------",
"---------------:::>>>>>>                  ;;;oooooo   ---:::   ooo         >>>>>>XXX---:::------",
"---------------:::>>>>>>                  ;;;oooooo   ---:::   ooo         >>>>>>XXX---:::------",
"---------------:::>>>>>>                  ;;;oooooo   ---:::   ooo         >>>>>>XXX---:::------",
"---------------XXXXXX:::>>>>>>:::>>>>>>>>>            ---:::         >>>>>>>>>::::::::::::------",
"---------------XXXXXX:::>>>>>>:::>>>>>>>>>            ---:::         >>>>>>>>>::::::::::::------",
"---------------XXXXXX:::>>>>>>:::>>>>>>>>>            ---:::         >>>>>>>>>::::::::::::------",
"---------------XXXXXXXXX::::::::::::>>>>>>>>>>>>>>>>>>::::::---:::::::::------:::---------------",
"---------------XXXXXXXXX::::::::::::>>>>>>>>>>>>>>>>>>::::::---:::::::::------:::---------------",
"---------------XXXXXXXXX::::::::::::>>>>>>>>>>>>>>>>>>::::::---:::::::::------:::---------------",
"------------XXXXXXXXXXXXXXX::::::::::::>>>>>>:::::::::::::::---------------::::::---------------",
"------------XXXXXXXXXXXXXXX::::::::::::>>>>>>:::::::::::::::---------------::::::---------------",
"------------XXXXXXXXXXXXXXX::::::::::::>>>>>>:::::::::::::::---------------::::::---------------",
"---XXXXXXXXXXXXXXXXXX:::::::::---------------------::::::::::::------------::::::---------------",
"---XXXXXXXXXXXXXXXXXX:::::::::---------------------::::::::::::------------::::::---------------",
"---XXXXXXXXXXXXXXXXXX:::::::::---------------------::::::::::::------------::::::---------------"
};
