/* XPM */
static char *result[] = {
/* columns rows colors chars-per-pixel */
"96 96 30 1 ",
"  c #350D01",
". c #24071D",
"X c #4D1807",
"o c #602412",
"O c #722A15",
"+ c #46192B",
"@ c #724437",
"# c #291C4B",
"$ c #392551",
"% c #4D234F",
"& c #402952",
"* c #4B3058",
"= c #775A63",
"- c #921F0D",
"; c #8D3C24",
": c #E46800",
"> c #FFAA41",
", c #365191",
"< c #9877AC",
"1 c #9E7AAF",
"2 c #7B98FF",
"3 c #BEBBD6",
"4 c #C5BED9",
"5 c #C7BFD9",
"6 c #F6BAE2",
"7 c #CBC2DB",
"8 c #D0CBD4",
"9 c #D9C9D6",
"0 c #DDD2D9",
"q c #DDD2E0",
/* pixels */
"XXXXXXXXXXXXXXXXXXXXX::::::---------------::::::::::::::::::::::::::::::------:::---------------",
"XXXXXXXXXXXXXXXXXXXXX::::::---------------::::::::::::::::::::::::::::::------:::---------------",
"XXXXXXXXXXXXXXXXXXXXX::::::---------------::::::::::::::::::::::::::::::------:::---------------",
"XXXXXXXXXXXXXXXXXXXXXXXX:::::::::------::::::---------------------:::::::::::::::---------------",
"XXXXXXXXXXXXXXXXXXXXXXXX:::::::::------::::::---------------------:::::::::::::::---------------",
"XXXXXXXXXXXXXXXXXXXXXXXX:::::::::------::::::---------------------:::::::::::::::---------------",
"---XXXXXXXXXXXXXXXXXX------:::::::::::::::               ------------::::::::::::---------------",
"---XXXXXXXXXXXXXXXXXX------:::::::::::::::               ------------::::::::::::---------------",
"---XXXXXXXXXXXXXXXXXX------:::::::::::::::               ------------::::::::::::---------------",
":::---XXXXXXXXXXXX---::::::>>>:::---      ;;;,,,,,,,,,,,,      ------------::::::------:::::::::",
":::---XXXXXXXXXXXX---::::::>>>:::---      ;;;,,,,,,,,,,,,      ------------::::::------:::::::::",
":::---XXXXXXXXXXXX---::::::>>>:::---      ;;;,,,,,,,,,,,,      ------------::::::------:::::::::",
"::::::---------:::::::::>>>         ;;;,,,,,,777777777777,,,,,,   ------------::::::::::::------",
"::::::---------:::::::::>>>         ;;;,,,,,,777777777777,,,,,,   ------------::::::::::::------",
"::::::---------:::::::::>>>         ;;;,,,,,,777777777777,,,,,,   ------------::::::::::::------",
"::::::::::::::::::::::::   ;;;;;;;;;,,,777555000000000000777777,,,   XXXXXXXXX------------XXXXXX",
"::::::::::::::::::::::::   ;;;;;;;;;,,,777555000000000000777777,,,   XXXXXXXXX------------XXXXXX",
"::::::::::::::::::::::::   ;;;;;;;;;,,,777555000000000000777777,,,   XXXXXXXXX------------XXXXXX",
":::::::::XXXXXX::::::      ;;;;;;,,,555555000000000000000000000777,,,:::XXXXXX------XXXXXX::::::",
":::::::::XXXXXX::::::      ;;;;;;,,,555555000000000000000000000777,,,:::XXXXXX------XXXXXX::::::",
":::::::::XXXXXX::::::      ;;;;;;,,,555555000000000000000000000777,,,:::XXXXXX------XXXXXX::::::",
"XXXXXXXXXXXXXXX::::::         ,,,777777777777000000000000888333333333,,,:::            ::::::XXX",
"XXXXXXXXXXXXXXX::::::         ,,,777777777777000000000000888333333333,,,:::            ::::::XXX",
"XXXXXXXXXXXXXXX::::::         ,,,777777777777000000000000888333333333,,,:::            ::::::XXX",
"XXXXXXXXXXXX:::>>>>>>   ooo,,,777333333777777777333333333333444777333333,,,;;;;;;ooo      XXXXXX",
"XXXXXXXXXXXX:::>>>>>>   ooo,,,777333333777777777333333333333444777333333,,,;;;;;;ooo      XXXXXX",
"XXXXXXXXXXXX:::>>>>>>   ooo,,,777333333777777777333333333333444777333333,,,;;;;;;ooo      XXXXXX",
"XXXXXXXXX               ooo,,,777444333333555555333444777444444333333777,,,;;;;;;;;;;;;   XXXXXX",
"XXXXXXXXX               ooo,,,777444333333555555333444777444444333333777,,,;;;;;;;;;;;;   XXXXXX",
"XXXXXXXXX               ooo,,,777444333333555555333444777444444333333777,,,;;;;;;;;;;;;   XXXXXX",
"XXX::::::   ;;;;;;      ,,,333333444777777777777777444777333333333777777777,,,;;;;;;;;;;;;   XXX",
"XXX::::::   ;;;;;;      ,,,333333444777777777777777444777333333333777777777,,,;;;;;;;;;;;;   XXX",
"XXX::::::   ;;;;;;      ,,,333333444777777777777777444777333333333777777777,,,;;;;;;;;;;;;   XXX",
"::::::      ;;;;;;OOOOOO,,,555333333333333222333333555333222333777777777777,,,;;;OOO;;;;;;   :::",
"::::::      ;;;;;;OOOOOO,,,555333333333333222333333555333222333777777777777,,,;;;OOO;;;;;;   :::",
"::::::      ;;;;;;OOOOOO,,,555333333333333222333333555333222333777777777777,,,;;;OOO;;;;;;   :::",
"XXX:::   ;;;;;;;;;;;;OOO,,,444111777777777222777777333999222333777777777555,,,;;;;;;;;;;;;   :::",
"XXX:::   ;;;;;;;;;;;;OOO,,,444111777777777222777777333999222333777777777555,,,;;;;;;;;;;;;   :::",
"XXX:::   ;;;;;;;;;;;;OOO,,,444111777777777222777777333999222333777777777555,,,;;;;;;;;;;;;   :::",
"::::::   ;;;;;;;;;;;;;;;,,,444<<<666666777777777777333333qqq333666666777777,,,;;;;;;;;;;;;   XXX",
"::::::   ;;;;;;;;;;;;;;;,,,444<<<666666777777777777333333qqq333666666777777,,,;;;;;;;;;;;;   XXX",
"::::::   ;;;;;;;;;;;;;;;,,,444<<<666666777777777777333333qqq333666666777777,,,;;;;;;;;;;;;   XXX",
">>>   ;;;;;;;;;;;;;;;***+++,,,777111111777777777777222333999333444777555,,,;;;;;;;;;;;;;;;   XXX",
">>>   ;;;;;;;;;;;;;;;***+++,,,777111111777777777777222333999333444777555,,,;;;;;;;;;;;;;;;   XXX",
">>>   ;;;;;;;;;;;;;;;***+++,,,777111111777777777777222333999333444777555,,,;;;;;;;;;;;;;;;   XXX",
">>>   ;;;;;;;;;;;;;;;***++++++,,,777777111111777555555333333333444444,,,...;;;;;;;;;;;;;;;   XXX",
">>>   ;;;;;;;;;;;;;;;***++++++,,,777777111111777555555333333333444444,,,...;;;;;;;;;;;;;;;   XXX",
">>>   ;;;;;;;;;;;;;;;***++++++,,,777777111111777555555333333333444444,,,...;;;;;;;;;;;;;;;   XXX",
">>>   ;;;;;;OOO;;;*********++++++,,,,,,777777777777777777777333,,,,,,+++      ;;;;;;;;;;;;   ---",
">>>   ;;;;;;OOO;;;*********++++++,,,,,,777777777777777777777333,,,,,,+++      ;;;;;;;;;;;;   ---",
">>>   ;;;;;;OOO;;;*********++++++,,,,,,777777777777777777777333,,,,,,+++      ;;;;;;;;;;;;   ---",
":::>>>   ;;;;;;ooo$$$$$$&&&&&&+++++++++,,,,,,,,,,,,,,,,,,,,,,,,@@@...***oooOOO;;;;;;;;;;;;   ---",
":::>>>   ;;;;;;ooo$$$$$$&&&&&&+++++++++,,,,,,,,,,,,,,,,,,,,,,,,@@@...***oooOOO;;;;;;;;;;;;   ---",
":::>>>   ;;;;;;ooo$$$$$$&&&&&&+++++++++,,,,,,,,,,,,,,,,,,,,,,,,@@@...***oooOOO;;;;;;;;;;;;   ---",
"--->>>   ;;;;;;;;;******&&&*********++++++++++++++++++++++++...%%%===   ooo;;;OOOOOO;;;;;;   ---",
"--->>>   ;;;;;;;;;******&&&*********++++++++++++++++++++++++...%%%===   ooo;;;OOOOOO;;;;;;   ---",
"--->>>   ;;;;;;;;;******&&&*********++++++++++++++++++++++++...%%%===   ooo;;;OOOOOO;;;;;;   ---",
"XXX:::   ;;;;;;;;;******************************************###%%%            ;;;ooo         ---",
"XXX:::   ;;;;;;;;;******************************************###%%%            ;;;ooo         ---",
"XXX:::   ;;;;;;;;;******************************************###%%%            ;;;ooo         ---",
"XXX>>>   ;;;;;;;;;;;;;;;*********************&&&&&&&&&***###   :::   ;;;;;;;;;   oooooo;;;   :::",
"XXX>>>   ;;;;;;;;;;;;;;;*********************&&&&&&&&&***###   :::   ;;;;;;;;;   oooooo;;;   :::",
"XXX>>>   ;;;;;;;;;;;;;;;*********************&&&&&&&&&***###   :::   ;;;;;;;;;   oooooo;;;   :::",
":::>>>   ;;;;;;;;;;;;;;;;;;;;;;;;*********&&&OOOoooooo      ooo   ;;;;;;;;;;;;;;;   ooo;;;   :::",
":::>>>   ;;;;;;;;;;;;;;;;;;;;;;;;*********&&&OOOoooooo      ooo   ;;;;;;;;;;;;;;;   ooo;;;   :::",
":::>>>   ;;;;;;;;;;;;;;;;;;;;;;;;*********&&&OOOoooooo      ooo   ;;;;;;;;;;;;;;;   ooo;;;   :::",
"::::::      ;;;;;;;;;;;;;;;;;;;;;;;;;;;OOOoooooo;;;;;;   ooo---   ;;;;;;;;;               >>>:::",
"::::::      ;;;;;;;;;;;;;;;;;;;;;;;;;;;OOOoooooo;;;;;;   ooo---   ;;;;;;;;;               >>>:::",
"::::::      ;;;;;;;;;;;;;;;;;;;;;;;;;;;OOOoooooo;;;;;;   ooo---   ;;;;;;;;;               >>>:::",
"------:::            ;;;;;;;;;;;;;;;;;;;;;;;;;;;;;;      ooo   ;;;;;;;;;      ;;;   >>>:::::::::",
"------:::            ;;;;;;;;;;;;;;;;;;;;;;;;;;;;;;      ooo   ;;;;;;;;;      ;;;   >>>:::::::::",
"------:::            ;;;;;;;;;;;;;;;;;;;;;;;;;;;;;;      ooo   ;;;;;;;;;      ;;;   >>>:::::::::",
"------:::      ;;;ooo      oooooo   ;;;;;;;;;;;;;;;   ;;;         OOOOOOooo;;;;;;   >>>---:::---",
"------:::      ;;;ooo      oooooo   ;;;;;;;;;;;;;;;   ;;;         OOOOOOooo;;;;;;   >>>---:::---",
"------:::      ;;;ooo      oooooo   ;;;;;;;;;;;;;;;   ;;;         OOOOOOooo;;;;;;   >>>---:::---",
"--------->>>      ;;;oooooo;;;oooooo      ooo            >>>   oooooo;;;ooo;;;   >>>---::::::---",
"--------->>>      ;;;oooooo;;;oooooo      ooo            >>>   oooooo;;;ooo;;;   >>>---::::::---",
"--------->>>      ;;;oooooo;;;oooooo      ooo            >>>   oooooo;;;ooo;;;   >>>---::::::---",
"------------::::::      ooo;;;;;;oooooo;;;ooooooooo   >>>:::   oooooo;;;ooo   >>>>>>---:::------",
"------------::::::      ooo;;;;;;oooooo;;;ooooooooo   >>>:::   oooooo;;;ooo   >>>>>>---:::------",
"------------::::::      ooo;;;;;;oooooo;;;ooooooooo   >>>:::   oooooo;;;ooo   >>>>>>---:::------",
"---------------:::>>>>>>                  ;;;oooooo   ---:::   ooo         >>>>>>XXX---:::------",
"---------------:::>>>>>>                  ;;;oooooo   ---:::   ooo         >>>>>>XXX---:::------",
"---------------:::>>>>>>                  ;;;oooooo   ---:::   ooo         >>>>>>XXX---:::------",
"---------------XXXXXX:::>>>>>>:::>>>>>>>>>            ---:::         >>>>>>>>>::::::::::::------",
"---------------XXXXXX:::>>>>>>:::>>>>>>>>>            ---:::         >>>>>>>>>::::::::::::------",
"---------------XXXXXX:::>>>>>>:::>>>>>>>>>            ---:::         >>>>>>>>>::::::::::::------",
"---------------XXXXXXXXX::::::::::::>>>>>>>>>>>>>>>>>>::::::---:::::::::------:::---------------",
"---------------XXXXXXXXX::::::::::::>>>>>>>>>>>>>>>>>>::::::---:::::::::------:::---------------",
"---------------XXXXXXXXX::::::::::::>>>>>>>>>>>>>>>>>>::::::---:::::::::------:::---------------",
"------------XXXXXXXXXXXXXXX::::::::::::>>>>>>:::::::::::::::---------------::::::---------------",
"------------XXXXXXXXXXXXXXX::::::::::::>>>>>>:::::::::::::::---------------::::::---------------",
"------------XXXXXXXXXXXXXXX::::::::::::>>>>>>:::::::::::::::---------------::::::---------------",
"---XXXXXXXXXXXXXXXXXX:::::::::---------------------::::::::::::------------::::::---------------",
"---XXXXXXXXXXXXXXXXXX:::::::::---------------------::::::::::::------------::::::---------------",
"---XXXXXXXXXXXXXXXXXX:::::::::---------------------::::::::::::------------::::::---------------"
};
