/* XPM */
static char *result[] = {
/* columns rows colors chars-per-pixel */
"96 96 22 1 ",
"  c #350D01",
". c #3B1225",
"X c #4D1807",
"o c #602412",
"O c #722A15",
"+ c #46192B",
"@ c #392551",
"# c #402952",
"$ c #4B3058",
"% c #921F0D",
"& c #8D3C24",
"* c #E46800",
"= c #FFAA41",
"- c #365191",
"; c #9877AC",
": c #9E7AAF",
"> c #7B98FF",
", c #C5BED9",
"< c #C7BFD9",
"1 c #F6BAE2",
"2 c #CBC2DB",
"3 c #DDD2D9",
/* pixels */
"XXXXXXXXXXXXXXXXXXXXX******%%%%%%%%%%%%%%%******************************%%%%%%***%%%%%%%%%%%%%%%",
"XXXXXXXXXXXXXXXXXXXXX******%%%%%%%%%%%%%%%******************************%%%%%%***%%%%%%%%%%%%%%%",
"XXXXXXXXXXXXXXXXXXXXX******%%%%%%%%%%%%%%%******************************%%%%%%***%%%%%%%%%%%%%%%",
"XXXXXXXXXXXXXXXXXXXXXXXX*********%%%%%%******%%%%%%%%%%%%%%%%%%%%%***************%%%%%%%%%%%%%%%",
"XXXXXXXXXXXXXXXXXXXXXXXX*********%%%%%%******%%%%%%%%%%%%%%%%%%%%%***************%%%%%%%%%%%%%%%",
"XXXXXXXXXXXXXXXXXXXXXXXX*********%%%%%%******%%%%%%%%%%%%%%%%%%%%%***************%%%%%%%%%%%%%%%",
"%%%XXXXXXXXXXXXXXXXXX%%%%%%***************               %%%%%%      ************%%%%%%%%%%%%%%%",
"%%%XXXXXXXXXXXXXXXXXX%%%%%%***************               %%%%%%      ************%%%%%%%%%%%%%%%",
"%%%XXXXXXXXXXXXXXXXXX%%%%%%***************               %%%%%%      ************%%%%%%%%%%%%%%%",
"***%%%XXXXXXXXXXXX%%%******===***%%%      &&&------------      &&&&&&      ******%%%%%%*********",
"***%%%XXXXXXXXXXXX%%%******===***%%%      &&&------------      &&&&&&      ******%%%%%%*********",
"***%%%XXXXXXXXXXXX%%%******===***%%%      &&&------------      &&&&&&      ******%%%%%%*********",
"******%%%%%%%%%*********===         &&&------222222222222------&&&&&&&&&&&&   ************%%%%%%",
"******%%%%%%%%%*********===         &&&------222222222222------&&&&&&&&&&&&   ************%%%%%%",
"******%%%%%%%%%*********===         &&&------222222222222------&&&&&&&&&&&&   ************%%%%%%",
"************************   &&&&&&&&&---222222333333333333222222---&&&&&&&&&&&&   %%%%%%%%%XXXXXX",
"************************   &&&&&&&&&---222222333333333333222222---&&&&&&&&&&&&   %%%%%%%%%XXXXXX",
"************************   &&&&&&&&&---222222333333333333222222---&&&&&&&&&&&&   %%%%%%%%%XXXXXX",
"*********XXXXXX***XXX      &&&&&&---222222333333333333333333333222---&&&&&&&&&&&&   XXXXXX******",
"*********XXXXXX***XXX      &&&&&&---222222333333333333333333333222---&&&&&&&&&&&&   XXXXXX******",
"*********XXXXXX***XXX      &&&&&&---222222333333333333333333333222---&&&&&&&&&&&&   XXXXXX******",
"XXXXXXXXXXXXXXX      &&&&&&&&&---222222222222333333333333333222222222---&&&&&&&&&&&&   ******XXX",
"XXXXXXXXXXXXXXX      &&&&&&&&&---222222222222333333333333333222222222---&&&&&&&&&&&&   ******XXX",
"XXXXXXXXXXXXXXX      &&&&&&&&&---222222222222333333333333333222222222---&&&&&&&&&&&&   ******XXX",
"XXXXXXXXXXXX   &&&&&&&&&&&&---<<<222<<<<<<<<<<<<<<<222222222222222222222---&&&&&&oooooo   XXXXXX",
"XXXXXXXXXXXX   &&&&&&&&&&&&---<<<222<<<<<<<<<<<<<<<222222222222222222222---&&&&&&oooooo   XXXXXX",
"XXXXXXXXXXXX   &&&&&&&&&&&&---<<<222<<<<<<<<<<<<<<<222222222222222222222---&&&&&&oooooo   XXXXXX",
"XXXXXXXXX   &&&&&&&&&&&&&&&---<<<222222222222222222<<<<<<222222222222222---&&&&&&&&&&&&   XXXXXX",
"XXXXXXXXX   &&&&&&&&&&&&&&&---<<<222222222222222222<<<<<<222222222222222---&&&&&&&&&&&&   XXXXXX",
"XXXXXXXXX   &&&&&&&&&&&&&&&---<<<222222222222222222<<<<<<222222222222222---&&&&&&&&&&&&   XXXXXX",
"XXX******   &&&&&&&&&&&&---222222222222222222222222222222222222222222222222---&&&&&&&&&&&&   XXX",
"XXX******   &&&&&&&&&&&&---222222222222222222222222222222222222222222222222---&&&&&&&&&&&&   XXX",
"XXX******   &&&&&&&&&&&&---222222222222222222222222222222222222222222222222---&&&&&&&&&&&&   XXX",
"******      &&&&&&OOOOOO---<<<222222222222>>>222222222222>>>222222222222222---&&&OOO&&&&&&   ***",
"******      &&&&&&OOOOOO---<<<222222222222>>>222222222222>>>222222222222222---&&&OOO&&&&&&   ***",
"******      &&&&&&OOOOOO---<<<222222222222>>>222222222222>>>222222222222222---&&&OOO&&&&&&   ***",
"XXX***   &&&&&&&&&&&&OOO---,,,:::222222222>>>222222222222>>>222222222222<<<---&&&&&&&&&&&&   ***",
"XXX***   &&&&&&&&&&&&OOO---,,,:::222222222>>>222222222222>>>222222222222<<<---&&&&&&&&&&&&   ***",
"XXX***   &&&&&&&&&&&&OOO---,,,:::222222222>>>222222222222>>>222222222222<<<---&&&&&&&&&&&&   ***",
"******   &&&&&&&&&&&&&&&---,,,;;;111111222222222222222222222222111111222222---&&&&&&&&&&&&   XXX",
"******   &&&&&&&&&&&&&&&---,,,;;;111111222222222222222222222222111111222222---&&&&&&&&&&&&   XXX",
"******   &&&&&&&&&&&&&&&---,,,;;;111111222222222222222222222222111111222222---&&&&&&&&&&&&   XXX",
"===   &&&&&&&&&&&&&&&$$$+++---222::::::222222222222>>>222<<<<<<<<<222222---&&&&&&&&&&&&&&&   XXX",
"===   &&&&&&&&&&&&&&&$$$+++---222::::::222222222222>>>222<<<<<<<<<222222---&&&&&&&&&&&&&&&   XXX",
"===   &&&&&&&&&&&&&&&$$$+++---222::::::222222222222>>>222<<<<<<<<<222222---&&&&&&&&&&&&&&&   XXX",
"===   &&&&&&&&&&&&&&&$$$++++++---222222::::::222<<<<<<<<<<<<<<<222222---+++&&&&&&&&&&&&&&&   XXX",
"===   &&&&&&&&&&&&&&&$$$++++++---222222::::::222<<<<<<<<<<<<<<<222222---+++&&&&&&&&&&&&&&&   XXX",
"===   &&&&&&&&&&&&&&&$$$++++++---222222::::::222<<<<<<<<<<<<<<<222222---+++&&&&&&&&&&&&&&&   XXX",
"===   &&&&&&OOO&&&$$$$$$$$$++++++------222222222222222222222222------...OOO&&&&&&&&&&&&&&&   %%%",
"===   &&&&&&OOO&&&$$$$$$$$$++++++------222222222222222222222222------...OOO&&&&&&&&&&&&&&&   %%%",
"===   &&&&&&OOO&&&$$$$$$$$$++++++------222222222222222222222222------...OOO&&&&&&&&&&&&&&&   %%%",
"***===   &&&&&&ooo@@@@@@######+++++++++------------------------++++++$$$&&&&&&&&&&&&&&&&&&   %%%",
"***===   &&&&&&ooo@@@@@@######+++++++++------------------------++++++$$$&&&&&&&&&&&&&&&&&&   %%%",
"***===   &&&&&&ooo@@@@@@######+++++++++------------------------++++++$$$&&&&&&&&&&&&&&&&&&   %%%",
"%%%===   &&&&&&&&&$$$$$$###$$$$$$$$$+++++++++++++++++++++++++++$$$$$$ooooooooo&&&&&&&&&      %%%",
"%%%===   &&&&&&&&&$$$$$$###$$$$$$$$$+++++++++++++++++++++++++++$$$$$$ooooooooo&&&&&&&&&      %%%",
"%%%===   &&&&&&&&&$$$$$$###$$$$$$$$$+++++++++++++++++++++++++++$$$$$$ooooooooo&&&&&&&&&      %%%",
"XXX***   &&&&&&&&&$$$$$$$$$$$$$$$$$$$$$$$$$$$$$$$$$$$$$$$$$$$$$@@@oooooooooooo&&&&&&&&&      %%%",
"XXX***   &&&&&&&&&$$$$$$$$$$$$$$$$$$$$$$$$$$$$$$$$$$$$$$$$$$$$$@@@oooooooooooo&&&&&&&&&      %%%",
"XXX***   &&&&&&&&&$$$$$$$$$$$$$$$$$$$$$$$$$$$$$$$$$$$$$$$$$$$$$@@@oooooooooooo&&&&&&&&&      %%%",
"XXX===   &&&&&&&&&&&&&&&$$$$$$$$$$$$$$$$$$$$$#########$$$$$$&&&&&&&&&&&&&&&&&&&&&            %%%",
"XXX===   &&&&&&&&&&&&&&&$$$$$$$$$$$$$$$$$$$$$#########$$$$$$&&&&&&&&&&&&&&&&&&&&&            %%%",
"XXX===   &&&&&&&&&&&&&&&$$$$$$$$$$$$$$$$$$$$$#########$$$$$$&&&&&&&&&&&&&&&&&&&&&            %%%",
"***===   &&&&&&&&&&&&&&&&&&&&&&&&$$$$$$$$$###OOOooooooOOO&&&&&&&&&&&&&&&&&&&&&&&&ooooooooo   ===",
"***===   &&&&&&&&&&&&&&&&&&&&&&&&$$$$$$$$$###OOOooooooOOO&&&&&&&&&&&&&&&&&&&&&&&&ooooooooo   ===",
"***===   &&&&&&&&&&&&&&&&&&&&&&&&$$$$$$$$$###OOOooooooOOO&&&&&&&&&&&&&&&&&&&&&&&&ooooooooo   ===",
"******      &&&&&&&&&&&&&&&&&&&&&&&&&&&OOOoooooo&&&&&&&&&&&&&&&&&&&&&&&&&&&      &&&ooo   ======",
"******      &&&&&&&&&&&&&&&&&&&&&&&&&&&OOOoooooo&&&&&&&&&&&&&&&&&&&&&&&&&&&      &&&ooo   ======",
"******      &&&&&&&&&&&&&&&&&&&&&&&&&&&OOOoooooo&&&&&&&&&&&&&&&&&&&&&&&&&&&      &&&ooo   ======",
"%%%%%%***            &&&&&&&&&&&&&&&&&&&&&&&&&&&&&&&&&&&&&&&&&&&&&&&&         ooo&&&   *********",
"%%%%%%***            &&&&&&&&&&&&&&&&&&&&&&&&&&&&&&&&&&&&&&&&&&&&&&&&         ooo&&&   *********",
"%%%%%%***            &&&&&&&&&&&&&&&&&&&&&&&&&&&&&&&&&&&&&&&&&&&&&&&&         ooo&&&   *********",
"%%%%%%***      &&&ooo      oooooo   &&&&&&&&&&&&&&&&&&&&&&&&&&&         &&&&&&&&&   ===%%%***%%%",
"%%%%%%***      &&&ooo      oooooo   &&&&&&&&&&&&&&&&&&&&&&&&&&&         &&&&&&&&&   ===%%%***%%%",
"%%%%%%***      &&&ooo      oooooo   &&&&&&&&&&&&&&&&&&&&&&&&&&&         &&&&&&&&&   ===%%%***%%%",
"%%%%%%%%%===      &&&oooooo&&&oooooo      ooo         oooooo   oooooo&&&&&&&&&   =========***%%%",
"%%%%%%%%%===      &&&oooooo&&&oooooo      ooo         oooooo   oooooo&&&&&&&&&   =========***%%%",
"%%%%%%%%%===      &&&oooooo&&&oooooo      ooo         oooooo   oooooo&&&&&&&&&   =========***%%%",
"%%%%%%%%%%%%******      ooo&&&&&&oooooo&&&ooooooooooooooo&&&ooooooooo&&&&&&   ======%%%***%%%%%%",
"%%%%%%%%%%%%******      ooo&&&&&&oooooo&&&ooooooooooooooo&&&ooooooooo&&&&&&   ======%%%***%%%%%%",
"%%%%%%%%%%%%******      ooo&&&&&&oooooo&&&ooooooooooooooo&&&ooooooooo&&&&&&   ======%%%***%%%%%%",
"%%%%%%%%%%%%%%%***======                  &&&oooooooooooo&&&oooooo         ======XXX%%%***%%%%%%",
"%%%%%%%%%%%%%%%***======                  &&&oooooooooooo&&&oooooo         ======XXX%%%***%%%%%%",
"%%%%%%%%%%%%%%%***======                  &&&oooooooooooo&&&oooooo         ======XXX%%%***%%%%%%",
"%%%%%%%%%%%%%%%XXXXXX***======***=========                           ======***************%%%%%%",
"%%%%%%%%%%%%%%%XXXXXX***======***=========                           ======***************%%%%%%",
"%%%%%%%%%%%%%%%XXXXXX***======***=========                           ======***************%%%%%%",
"%%%%%%%%%%%%%%%XXXXXXXXX************===========================*********%%%%%%***%%%%%%%%%%%%%%%",
"%%%%%%%%%%%%%%%XXXXXXXXX************===========================*********%%%%%%***%%%%%%%%%%%%%%%",
"%%%%%%%%%%%%%%%XXXXXXXXX************===========================*********%%%%%%***%%%%%%%%%%%%%%%",
"%%%%%%%%%%%%XXXXXXXXXXXXXXX************======***************%%%%%%%%%%%%%%%******%%%%%%%%%%%%%%%",
"%%%%%%%%%%%%XXXXXXXXXXXXXXX************======***************%%%%%%%%%%%%%%%******%%%%%%%%%%%%%%%",
"%%%%%%%%%%%%XXXXXXXXXXXXXXX************======***************%%%%%%%%%%%%%%%******%%%%%%%%%%%%%%%",
"%%%XXXXXXXXXXXXXXXXXX*********%%%%%%%%%%%%%%%%%%%%%************%%%%%%%%%%%%******%%%%%%%%%%%%%%%",
"%%%XXXXXXXXXXXXXXXXXX*********%%%%%%%%%%%%%%%%%%%%%************%%%%%%%%%%%%******%%%%%%%%%%%%%%%",
"%%%XXXXXXXXXXXXXXXXXX*********%%%%%%%%%%%%%%%%%%%%%************%%%%%%%%%%%%******%%%%%%%%%%%%%%%"
};
