/* XPM */
static char *_fe9ce88d6844feea5225399d5189f3c9LgsuY6hUA8nR9yU[] = {
/* columns rows colors chars-per-pixel */
"96 96 55 1 ",
"  c #321B18",
". c #230C26",
"X c #4D1807",
"o c #481D13",
"O c #682A1D",
"+ c #763719",
"@ c #480E22",
"# c #45332F",
"$ c #724437",
"% c #32214D",
"& c #272253",
"* c #4D234F",
"= c #462F49",
"- c #563C55",
"; c #35487E",
": c #3A487C",
"> c #75605C",
", c #4B4576",
"< c #44497D",
"1 c #775A63",
"2 c #921F0D",
"3 c #E46800",
"4 c #8D7470",
"5 c #FFAA41",
"6 c #394780",
"7 c #334987",
"8 c #394C82",
"9 c #3A4A87",
"0 c #43578C",
"q c #5B5282",
"w c #4A5C90",
"e c #9176AD",
"r c #7B98FF",
"t c #B7958E",
"y c #9E83BA",
"u c #AC81AA",
"i c #A689BF",
"p c #B08CB3",
"a c #BEBDDA",
"s c #C2BDD7",
"d c #C6BED8",
"f c #CCBED8",
"g c #F6BAE2",
"h c #C1C1DD",
"j c #C8C1DA",
"k c #D0CDD7",
"l c #D9C9D6",
"z c #C8C7E4",
"x c #CBCAE7",
"c c #C2C3E8",
"v c #D2CFEB",
"b c #DDD2E0",
"n c #DAD7E1",
"m c #DDDAE4",
"M c #E4DFE9",
/* pixels */
"XXXXXXXXXXXXXXXXXXXXX333333222222222222222333333333333333333333333333333222222333222222222222222",
"XXXXXXXXXXXXXXXXXXXXX333333222222222222222333333333333333333333333333333222222333222222222222222",
"XXXXXXXXXXXXXXXXXXXXX333333222222222222222333333333333333333333333333333222222333222222222222222",
"XXXXXXXXXXXXXXXXXXXXXXXX333333333222222333333222222222222222222222333333333333333222222222222222",
"XXXXXXXXXXXXXXXXXXXXXXXX333333333222222333333222222222222222222222333333333333333222222222222222",
"XXXXXXXXXXXXXXXXXXXXXXXX333333333222222333333222222222222222222222333333333333333222222222222222",
"222XXXXXXXXXXXXXXXXXX222222333333333333333222222222222222222222222222333333333333222222222222222",
"222XXXXXXXXXXXXXXXXXX222222333333333333333222222222222222222222222222333333333333222222222222222",
"222XXXXXXXXXXXXXXXXXX222222333333333333333222222222222222222222222222333333333333222222222222222",
"333222XXXXXXXXXXXX222333333555333222      ;;;;;;;;;;;;      222222222222222333333222222333333333",
"333222XXXXXXXXXXXX222333333555333222      ;;;;;;;;;;;;      222222222222222333333222222333333333",
"333222XXXXXXXXXXXX222333333555333222      ;;;;;;;;;;;;      222222222222222333333222222333333333",
"333333222222222333333333555         888wwwvvvvvvvvvvvv888888         222222222333333333333222222",
"333333222222222333333333555         888wwwvvvvvvvvvvvv888888         222222222333333333333222222",
"333333222222222333333333555         888wwwvvvvvvvvvvvv888888         222222222333333333333222222",
"333333333333333333333      >>>tttwwwhhhzzznnnnnnnnnnnnhhhhhh888tttttt      XXX222222222222XXXXXX",
"333333333333333333333      >>>tttwwwhhhzzznnnnnnnnnnnnhhhhhh888tttttt      XXX222222222222XXXXXX",
"333333333333333333333      >>>tttwwwhhhzzznnnnnnnnnnnnhhhhhh888tttttt      XXX222222222222XXXXXX",
"333333333XXXXXX333      >>>444000xxxxxxmmmMMMMMMMMMMMMmmmmmmvvv888>>>>>>ttt   222222XXXXXX333333",
"333333333XXXXXX333      >>>444000xxxxxxmmmMMMMMMMMMMMMmmmmmmvvv888>>>>>>ttt   222222XXXXXX333333",
"333333333XXXXXX333      >>>444000xxxxxxmmmMMMMMMMMMMMMmmmmmmvvv888>>>>>>ttt   222222XXXXXX333333",
"XXXXXXXXXXXXXXX   >>>>>>   ;;;aaaaaaaaaaaakkkkkkkkkkkkkkkaaaaaaaaa;;;>>>tttttt   222XXX333333XXX",
"XXXXXXXXXXXXXXX   >>>>>>   ;;;aaaaaaaaaaaakkkkkkkkkkkkkkkaaaaaaaaa;;;>>>tttttt   222XXX333333XXX",
"XXXXXXXXXXXXXXX   >>>>>>   ;;;aaaaaaaaaaaakkkkkkkkkkkkkkkaaaaaaaaa;;;>>>tttttt   222XXX333333XXX",
"XXXXXXXXXXXX   >>>>>>XXX:::sssddddddsssdddjjjjjjjjjjjjssssssssssssjjj:::+++ttt>>>   333333XXXXXX",
"XXXXXXXXXXXX   >>>>>>XXX:::sssddddddsssdddjjjjjjjjjjjjssssssssssssjjj:::+++ttt>>>   333333XXXXXX",
"XXXXXXXXXXXX   >>>>>>XXX:::sssddddddsssdddjjjjjjjjjjjjssssssssssssjjj:::+++ttt>>>   333333XXXXXX",
"XXXXXXXXX   >>>>>>444444000xxxxxxxxxxxxxxxvvvvvvvvvvvvxxxxxxvvvvvvxxx000444444>>>>>>   XXXXXXXXX",
"XXXXXXXXX   >>>>>>444444000xxxxxxxxxxxxxxxvvvvvvvvvvvvxxxxxxvvvvvvxxx000444444>>>>>>   XXXXXXXXX",
"XXXXXXXXX   >>>>>>444444000xxxxxxxxxxxxxxxvvvvvvvvvvvvxxxxxxvvvvvvxxx000444444>>>>>>   XXXXXXXXX",
"XXX333   >>>>>>      ;;;aaaaaaaaaaaaaaaaaaaaaaaaaaaaaaaaaaaaaaaaaaaaaaaa;;;      >>>>>>   XXXXXX",
"XXX333   >>>>>>      ;;;aaaaaaaaaaaaaaaaaaaaaaaaaaaaaaaaaaaaaaaaaaaaaaaa;;;      >>>>>>   XXXXXX",
"XXX333   >>>>>>      ;;;aaaaaaaaaaaaaaaaaaaaaaaaaaaaaaaaaaaaaaaaaaaaaaaa;;;      >>>>>>   XXXXXX",
"333333   ######XXXXXX:::ssslllfffffffffrrrssssssssssssrrrfffffflllllllll:::XXXXXXXXX>>>   XXX333",
"333333   ######XXXXXX:::ssslllfffffffffrrrssssssssssssrrrfffffflllllllll:::XXXXXXXXX>>>   XXX333",
"333333   ######XXXXXX:::ssslllfffffffffrrrssssssssssssrrrfffffflllllllll:::XXXXXXXXX>>>   XXX333",
"XXX   >>>###444444444000xxxyyyxxxxxxxxxrrrvvvvvvvvvvvvrrrxxxvvvvvvxxxxxx000444444444444>>>   333",
"XXX   >>>###444444444000xxxyyyxxxxxxxxxrrrvvvvvvvvvvvvrrrxxxvvvvvvxxxxxx000444444444444>>>   333",
"XXX   >>>###444444444000xxxyyyxxxxxxxxxrrrvvvvvvvvvvvvrrrxxxvvvvvvxxxxxx000444444444444>>>   333",
"333   >>>###         ;;;aaaeeeggggggaaaaaaaaaaaaaaaaaaaaaaaaggggggaaaaaa;;;            >>>   XXX",
"333   >>>###         ;;;aaaeeeggggggaaaaaaaaaaaaaaaaaaaaaaaaggggggaaaaaa;;;            >>>   XXX",
"333   >>>###         ;;;aaaeeeggggggaaaaaaaaaaaaaaaaaaaaaaaaggggggaaaaaa;;;            >>>   XXX",
"555   >>>ooo333333***@@@999bbbpppuuulllfffffffffrrrffffffllllllffffff<<<222222222333XXX>>>   XXX",
"555   >>>ooo333333***@@@999bbbpppuuulllfffffffffrrrffffffllllllffffff<<<222222222333XXX>>>   XXX",
"555   >>>ooo333333***@@@999bbbpppuuulllfffffffffrrrffffffllllllffffff<<<222222222333XXX>>>   XXX",
"555   >>>444444444,,,======cccxxxxxxyyyiiivvvvvvvvvxxxxxxxxxvvvvvv000===444444444444444>>>   XXX",
"555   >>>444444444,,,======cccxxxxxxyyyiiivvvvvvvvvxxxxxxxxxvvvvvv000===444444444444444>>>   XXX",
"555   >>>444444444,,,======cccxxxxxxyyyiiivvvvvvvvvxxxxxxxxxvvvvvv000===444444444444444>>>   XXX",
"555   >>>      &&&&&&&&&......777777aaaaaaaaaaaaaaaaaaaaaaaa777777...                  >>>   222",
"555   >>>      &&&&&&&&&......777777aaaaaaaaaaaaaaaaaaaaaaaa777777...                  >>>   222",
"555   >>>      &&&&&&&&&......777777aaaaaaaaaaaaaaaaaaaaaaaa777777...                  >>>   222",
"333   ###>>>222***%%%%%%%%%OOO@@@@@@666999999999999666999999$$$$$$111333XXXXXX222222>>>      222",
"333   ###>>>222***%%%%%%%%%OOO@@@@@@666999999999999666999999$$$$$$111333XXXXXX222222>>>      222",
"333   ###>>>222***%%%%%%%%%OOO@@@@@@666999999999999666999999$$$$$$111333XXXXXX222222>>>      222",
"222      ###444,,,,,,,,,,,,,,,,,,===---------------=========qqqqqq444444444444444444>>>      222",
"222      ###444,,,,,,,,,,,,,,,,,,===---------------=========qqqqqq444444444444444444>>>      222",
"222      ###444,,,,,,,,,,,,,,,,,,===---------------=========qqqqqq444444444444444444>>>      222",
"XXX         >>>&&&&&&&&&&&&&&&&&&&&&&&&&&&&&&&&&&&&&&&&&&&&&&&&                  >>>   ttt   222",
"XXX         >>>&&&&&&&&&&&&&&&&&&&&&&&&&&&&&&&&&&&&&&&&&&&&&&&&                  >>>   ttt   222",
"XXX         >>>&&&&&&&&&&&&&&&&&&&&&&&&&&&&&&&&&&&&&&&&&&&&&&&&                  >>>   ttt   222",
"XXX         ###>>>333%%%%%%111%%%***%%%%%%%%%%%%*********333222222222222555555>>>   >>>ttt   333",
"XXX         ###>>>333%%%%%%111%%%***%%%%%%%%%%%%*********333222222222222555555>>>   >>>ttt   333",
"XXX         ###>>>333%%%%%%111%%%***%%%%%%%%%%%%*********333222222222222555555>>>   >>>ttt   333",
"333            ###>>>444444444,,,qqqqqqqqqtttttt444444444444tttttt444444444>>>   >>>>>>ttt   555",
"333            ###>>>444444444,,,qqqqqqqqqtttttt444444444444tttttt444444444>>>   >>>>>>ttt   555",
"333            ###>>>444444444,,,qqqqqqqqqtttttt444444444444tttttt444444444>>>   >>>>>>ttt   555",
"333555               >>>>>>XXX                                       >>>>>>   >>>>>>>>>   555333",
"333555               >>>>>>XXX                                       >>>>>>   >>>>>>>>>   555333",
"333555               >>>>>>XXX                                       >>>>>>   >>>>>>>>>   555333",
"222222555      >>>>>>         >>>>>>333333333555555333222222>>>>>>>>>###   >>>>>>>>>   555333333",
"222222555      >>>>>>         >>>>>>333333333555555333222222>>>>>>>>>###   >>>>>>>>>   555333333",
"222222555      >>>>>>         >>>>>>333333333555555333222222>>>>>>>>>###   >>>>>>>>>   555333333",
"222222333555   >>>>>>>>>                  >>>>>>      >>>   >>>>>>###tttttt>>>>>>   555333333222",
"222222333555   >>>>>>>>>                  >>>>>>      >>>   >>>>>>###tttttt>>>>>>   555333333222",
"222222333555   >>>>>>>>>                  >>>>>>      >>>   >>>>>>###tttttt>>>>>>   555333333222",
"222222222555555   >>>>>>      ttt   >>>ttttttttt###ttt>>>>>>>>>>>>###tttttt>>>   555555333333222",
"222222222555555   >>>>>>      ttt   >>>ttttttttt###ttt>>>>>>>>>>>>###tttttt>>>   555555333333222",
"222222222555555   >>>>>>      ttt   >>>ttttttttt###ttt>>>>>>>>>>>>###tttttt>>>   555555333333222",
"222222222333555555            ttt   >>>ttttttttt###ttt>>>>>>>>>>>>###>>>>>>   555555333333222222",
"222222222333555555            ttt   >>>ttttttttt###ttt>>>>>>>>>>>>###>>>>>>   555555333333222222",
"222222222333555555            ttt   >>>ttttttttt###ttt>>>>>>>>>>>>###>>>>>>   555555333333222222",
"222222222222222333333555      ttt   >>>ttttttttt###ttt>>>>>>>>>>>>         555333333222333222222",
"222222222222222333333555      ttt   >>>ttttttttt###ttt>>>>>>>>>>>>         555333333222333222222",
"222222222222222333333555      ttt   >>>ttttttttt###ttt>>>>>>>>>>>>         555333333222333222222",
"222222222222222XXXXXX333333         >>>ttttttttt###ttt>>>>>>>>>      555XXXXXX333333333333222222",
"222222222222222XXXXXX333333         >>>ttttttttt###ttt>>>>>>>>>      555XXXXXX333333333333222222",
"222222222222222XXXXXX333333         >>>ttttttttt###ttt>>>>>>>>>      555XXXXXX333333333333222222",
"222222222222222XXXXXXXXXXXX333333                              333333222222222333222222222222222",
"222222222222222XXXXXXXXXXXX333333                              333333222222222333222222222222222",
"222222222222222XXXXXXXXXXXX333333                              333333222222222333222222222222222",
"222222222222XXXXXXXXXXXXXXX333333222222222333333555555333333222222222222222333333222222222222222",
"222222222222XXXXXXXXXXXXXXX333333222222222333333555555333333222222222222222333333222222222222222",
"222222222222XXXXXXXXXXXXXXX333333222222222333333555555333333222222222222222333333222222222222222",
"222XXXXXXXXXXXXXXXXXX333333333222222222222222222222333333333333222222222222333333222222222222222",
"222XXXXXXXXXXXXXXXXXX333333333222222222222222222222333333333333222222222222333333222222222222222",
"222XXXXXXXXXXXXXXXXXX333333333222222222222222222222333333333333222222222222333333222222222222222"
};
