/* XPM */
static char *a847f8f7de614dfaefc79d3d2926907cOgaKZXUrj5nPIOQF[] = {
/* columns rows colors chars-per-pixel */
"96 96 59 1 ",
"  c #321B18",
". c #230C26",
"X c #2D0B20",
"o c #4D1807",
"O c #481D13",
"+ c #682A1D",
"@ c #763719",
"# c #480E22",
"$ c #45332F",
"% c #32214D",
"& c #272253",
"* c #4D234F",
"= c #462F49",
"- c #563C55",
"; c #35487E",
": c #3A487C",
"> c #6D414A",
", c #75605C",
"< c #4B4576",
"1 c #44497D",
"2 c #50557B",
"3 c #775A63",
"4 c #921F0D",
"5 c #E46800",
"6 c #8D7470",
"7 c #FFAA41",
"8 c #344680",
"9 c #394780",
"0 c #334987",
"q c #394C82",
"w c #3A4A87",
"e c #3F4E86",
"r c #43578C",
"t c #5B5282",
"y c #4A5C90",
"u c #9176AD",
"i c #9F76AC",
"p c #7B98FF",
"a c #B7958E",
"s c #9E83BA",
"d c #AC81AA",
"f c #A689BF",
"g c #BEBDDA",
"h c #C2BDD7",
"j c #C6BED8",
"k c #CCBED8",
"l c #F6BAE2",
"z c #C1C1DD",
"x c #C8C1DA",
"c c #D0CDD7",
"v c #D9C9D6",
"b c #C8C7E4",
"n c #CBCAE7",
"m c #C2C3E8",
"M c #D2CFEB",
"N c #DDD2E0",
"B c #DAD7E1",
"V c #DDDAE4",
"C c #E4DFE9",
/* pixels */
"ooooooooooooooooooooo555555444444444444444555555555555555555555555555555444444555444444444444444",
"ooooooooooooooooooooo555555444444444444444555555555555555555555555555555444444555444444444444444",
"ooooooooooooooooooooo555555444444444444444555555555555555555555555555555444444555444444444444444",
"oooooooooooooooooooooooo555555555444444555555444444444444444444444555555555555555444444444444444",
"oooooooooooooooooooooooo555555555444444555555444444444444444444444555555555555555444444444444444",
"oooooooooooooooooooooooo555555555444444555555444444444444444444444555555555555555444444444444444",
"444oooooooooooooooooo444444555555555555555444444444444444444444444444555555555555444444444444444",
"444oooooooooooooooooo444444555555555555555444444444444444444444444444555555555555444444444444444",
"444oooooooooooooooooo444444555555555555555444444444444444444444444444555555555555444444444444444",
"555444oooooooooooo444555555777555444      ;;;;;;;;;;;;      444444444444444555555444444555555555",
"555444oooooooooooo444555555777555444      ;;;;;;;;;;;;      444444444444444555555444444555555555",
"555444oooooooooooo444555555777555444      ;;;;;;;;;;;;      444444444444444555555444444555555555",
"555555444444444555555555777         qqqyyyMMMMMMMMMMMMqqqqqq         444444444555555555555444444",
"555555444444444555555555777         qqqyyyMMMMMMMMMMMMqqqqqq         444444444555555555555444444",
"555555444444444555555555777         qqqyyyMMMMMMMMMMMMqqqqqq         444444444555555555555444444",
"555555555555555555555      ,,,aaayyyzzzbbbBBBBBBBBBBBBzzzzzzqqqaaaaaa      ooo444444444444oooooo",
"555555555555555555555      ,,,aaayyyzzzbbbBBBBBBBBBBBBzzzzzzqqqaaaaaa      ooo444444444444oooooo",
"555555555555555555555      ,,,aaayyyzzzbbbBBBBBBBBBBBBzzzzzzqqqaaaaaa      ooo444444444444oooooo",
"555555555oooooo555      ,,,666rrrnnnnnnVVVCCCCCCCCCCCCVVVVVVMMMqqq,,,,,,aaa   444444oooooo555555",
"555555555oooooo555      ,,,666rrrnnnnnnVVVCCCCCCCCCCCCVVVVVVMMMqqq,,,,,,aaa   444444oooooo555555",
"555555555oooooo555      ,,,666rrrnnnnnnVVVCCCCCCCCCCCCVVVVVVMMMqqq,,,,,,aaa   444444oooooo555555",
"ooooooooooooooo   ,,,,,,   ;;;ggggggggggggcccccccccccccccggggggggg;;;,,,aaaaaa   444ooo555555ooo",
"ooooooooooooooo   ,,,,,,   ;;;ggggggggggggcccccccccccccccggggggggg;;;,,,aaaaaa   444ooo555555ooo",
"ooooooooooooooo   ,,,,,,   ;;;ggggggggggggcccccccccccccccggggggggg;;;,,,aaaaaa   444ooo555555ooo",
"oooooooooooo   ,,,,,,ooo:::hhhjjjjjjhhhjjjvvvvvvvvvvvvvvvvvvvvvhhhxxx:::@@@aaa,,,   555555oooooo",
"oooooooooooo   ,,,,,,ooo:::hhhjjjjjjhhhjjjvvvvvvvvvvvvvvvvvvvvvhhhxxx:::@@@aaa,,,   555555oooooo",
"oooooooooooo   ,,,,,,ooo:::hhhjjjjjjhhhjjjvvvvvvvvvvvvvvvvvvvvvhhhxxx:::@@@aaa,,,   555555oooooo",
"ooooooooo   ,,,,,,666666rrrnnnnnnnnnnnnnnnMMMMMMMMMMMMnnnnnnMMMMMMnnnrrr666666,,,,,,   ooooooooo",
"ooooooooo   ,,,,,,666666rrrnnnnnnnnnnnnnnnMMMMMMMMMMMMnnnnnnMMMMMMnnnrrr666666,,,,,,   ooooooooo",
"ooooooooo   ,,,,,,666666rrrnnnnnnnnnnnnnnnMMMMMMMMMMMMnnnnnnMMMMMMnnnrrr666666,,,,,,   ooooooooo",
"ooo555   ,,,,,,      ;;;gggggggggggggggggggggggggggggggggggggggggggggggg;;;      ,,,,,,   oooooo",
"ooo555   ,,,,,,      ;;;gggggggggggggggggggggggggggggggggggggggggggggggg;;;      ,,,,,,   oooooo",
"ooo555   ,,,,,,      ;;;gggggggggggggggggggggggggggggggggggggggggggggggg;;;      ,,,,,,   oooooo",
"555555   $$$$$$ooo555222kkkNNNNNNhhhhhhpppkkkkkkkkkkkkpppkkkvvvvvvkkkkkk111555oooooo,,,   ooo555",
"555555   $$$$$$ooo555222kkkNNNNNNhhhhhhpppkkkkkkkkkkkkpppkkkvvvvvvkkkkkk111555oooooo,,,   ooo555",
"555555   $$$$$$ooo555222kkkNNNNNNhhhhhhpppkkkkkkkkkkkkpppkkkvvvvvvkkkkkk111555oooooo,,,   ooo555",
"ooo   ,,,$$$666666666rrrnnnsssnnnnnnnnnpppMMMMMMMMMMMMpppnnnMMMMMMnnnnnnrrr666666666666,,,   555",
"ooo   ,,,$$$666666666rrrnnnsssnnnnnnnnnpppMMMMMMMMMMMMpppnnnMMMMMMnnnnnnrrr666666666666,,,   555",
"ooo   ,,,$$$666666666rrrnnnsssnnnnnnnnnpppMMMMMMMMMMMMpppnnnMMMMMMnnnnnnrrr666666666666,,,   555",
"555   ,,,$$$         ;;;ggguuullllllggggggggggggggggggggggggllllllgggggg;;;            ,,,   ooo",
"555   ,,,$$$         ;;;ggguuullllllggggggggggggggggggggggggllllllgggggg;;;            ,,,   ooo",
"555   ,,,$$$         ;;;ggguuullllllggggggggggggggggggggggggllllllgggggg;;;            ,,,   ooo",
"777   ,,,OOO444444%%%XXXwwwvvvdddiiikkkkkkkkkkkkpppkkkvvvvvvvvvhhhhhh:::oooooo444444444,,,   ooo",
"777   ,,,OOO444444%%%XXXwwwvvvdddiiikkkkkkkkkkkkpppkkkvvvvvvvvvhhhhhh:::oooooo444444444,,,   ooo",
"777   ,,,OOO444444%%%XXXwwwvvvdddiiikkkkkkkkkkkkpppkkkvvvvvvvvvhhhhhh:::oooooo444444444,,,   ooo",
"777   ,,,666666666<<<======mmmnnnnnnsssfffMMMMMMMMMnnnnnnnnnMMMMMMrrr===666666666666666,,,   ooo",
"777   ,,,666666666<<<======mmmnnnnnnsssfffMMMMMMMMMnnnnnnnnnMMMMMMrrr===666666666666666,,,   ooo",
"777   ,,,666666666<<<======mmmnnnnnnsssfffMMMMMMMMMnnnnnnnnnMMMMMMrrr===666666666666666,,,   ooo",
"777   ,,,      &&&&&&&&&......000000gggggggggggggggggggggggg000000...                  ,,,   444",
"777   ,,,      &&&&&&&&&......000000gggggggggggggggggggggggg000000...                  ,,,   444",
"777   ,,,      &&&&&&&&&......000000gggggggggggggggggggggggg000000...                  ,,,   444",
"555   $$$,,,444%%%>>>333333+++XXXXXX888wwwwwwwwwwww999wwweee######***444777444444444,,,      444",
"555   $$$,,,444%%%>>>333333+++XXXXXX888wwwwwwwwwwww999wwweee######***444777444444444,,,      444",
"555   $$$,,,444%%%>>>333333+++XXXXXX888wwwwwwwwwwww999wwweee######***444777444444444,,,      444",
"444      $$$666<<<<<<<<<<<<<<<<<<===---------------=========tttttt666666666666666666,,,      444",
"444      $$$666<<<<<<<<<<<<<<<<<<===---------------=========tttttt666666666666666666,,,      444",
"444      $$$666<<<<<<<<<<<<<<<<<<===---------------=========tttttt666666666666666666,,,      444",
"ooo         ,,,&&&&&&&&&&&&&&&&&&&&&&&&&&&&&&&&&&&&&&&&&&&&&&&&                  ,,,   aaa   444",
"ooo         ,,,&&&&&&&&&&&&&&&&&&&&&&&&&&&&&&&&&&&&&&&&&&&&&&&&                  ,,,   aaa   444",
"ooo         ,,,&&&&&&&&&&&&&&&&&&&&&&&&&&&&&&&&&&&&&&&&&&&&&&&&                  ,,,   aaa   444",
"ooo         $$$,,,444***%%%%%%>>>333***************>>>>>>555777777555555555444,,,   ,,,aaa   555",
"ooo         $$$,,,444***%%%%%%>>>333***************>>>>>>555777777555555555444,,,   ,,,aaa   555",
"ooo         $$$,,,444***%%%%%%>>>333***************>>>>>>555777777555555555444,,,   ,,,aaa   555",
"555            $$$,,,666666666<<<tttttttttaaaaaa666666666666aaaaaa666666666,,,   ,,,,,,aaa   777",
"555            $$$,,,666666666<<<tttttttttaaaaaa666666666666aaaaaa666666666,,,   ,,,,,,aaa   777",
"555            $$$,,,666666666<<<tttttttttaaaaaa666666666666aaaaaa666666666,,,   ,,,,,,aaa   777",
"555777               ,,,,,,ooo                                       ,,,,,,   ,,,,,,,,,   777555",
"555777               ,,,,,,ooo                                       ,,,,,,   ,,,,,,,,,   777555",
"555777               ,,,,,,ooo                                       ,,,,,,   ,,,,,,,,,   777555",
"444444777      ,,,,,,         ,,,,,,444444444444555444oooooo,,,,,,,,,$$$   ,,,,,,,,,   777555555",
"444444777      ,,,,,,         ,,,,,,444444444444555444oooooo,,,,,,,,,$$$   ,,,,,,,,,   777555555",
"444444777      ,,,,,,         ,,,,,,444444444444555444oooooo,,,,,,,,,$$$   ,,,,,,,,,   777555555",
"444444555777   ,,,,,,,,,                  ,,,,,,      ,,,   ,,,,,,$$$aaaaaa,,,,,,   777555555444",
"444444555777   ,,,,,,,,,                  ,,,,,,      ,,,   ,,,,,,$$$aaaaaa,,,,,,   777555555444",
"444444555777   ,,,,,,,,,                  ,,,,,,      ,,,   ,,,,,,$$$aaaaaa,,,,,,   777555555444",
"444444444777777   ,,,,,,      aaa   ,,,aaaaaaaaa$$$aaa,,,,,,,,,,,,$$$aaaaaa,,,   777777555555444",
"444444444777777   ,,,,,,      aaa   ,,,aaaaaaaaa$$$aaa,,,,,,,,,,,,$$$aaaaaa,,,   777777555555444",
"444444444777777   ,,,,,,      aaa   ,,,aaaaaaaaa$$$aaa,,,,,,,,,,,,$$$aaaaaa,,,   777777555555444",
"444444444555777777            aaa   ,,,aaaaaaaaa$$$aaa,,,,,,,,,,,,$$$,,,,,,   777777555555444444",
"444444444555777777            aaa   ,,,aaaaaaaaa$$$aaa,,,,,,,,,,,,$$$,,,,,,   777777555555444444",
"444444444555777777            aaa   ,,,aaaaaaaaa$$$aaa,,,,,,,,,,,,$$$,,,,,,   777777555555444444",
"444444444444444555555777      aaa   ,,,aaaaaaaaa$$$aaa,,,,,,,,,,,,         777555555444555444444",
"444444444444444555555777      aaa   ,,,aaaaaaaaa$$$aaa,,,,,,,,,,,,         777555555444555444444",
"444444444444444555555777      aaa   ,,,aaaaaaaaa$$$aaa,,,,,,,,,,,,         777555555444555444444",
"444444444444444oooooo555555         ,,,aaaaaaaaa$$$aaa,,,,,,,,,      777oooooo555555555555444444",
"444444444444444oooooo555555         ,,,aaaaaaaaa$$$aaa,,,,,,,,,      777oooooo555555555555444444",
"444444444444444oooooo555555         ,,,aaaaaaaaa$$$aaa,,,,,,,,,      777oooooo555555555555444444",
"444444444444444oooooooooooo555555                              555555444444444555444444444444444",
"444444444444444oooooooooooo555555                              555555444444444555444444444444444",
"444444444444444oooooooooooo555555                              555555444444444555444444444444444",
"444444444444ooooooooooooooo555555444444444555555777777555555444444444444444555555444444444444444",
"444444444444ooooooooooooooo555555444444444555555777777555555444444444444444555555444444444444444",
"444444444444ooooooooooooooo555555444444444555555777777555555444444444444444555555444444444444444",
"444oooooooooooooooooo555555555444444444444444444444555555555555444444444444555555444444444444444",
"444oooooooooooooooooo555555555444444444444444444444555555555555444444444444555555444444444444444",
"444oooooooooooooooooo555555555444444444444444444444555555555555444444444444555555444444444444444"
};
