/* XPM */
static char *so_long_p_trap11745115385[] = {
/* columns rows colors chars-per-pixel */
"96 96 65 1 ",
"  c #251917",
". c #321B18",
"X c #230C26",
"o c #2D0B20",
"O c #4D1807",
"+ c #65210E",
"@ c #72250D",
"# c #682A1D",
"$ c #763719",
"% c #480E22",
"& c #45332F",
"* c #724437",
"= c #32214D",
"- c #272253",
"; c #4D234F",
": c #462F49",
"> c #35487E",
", c #3A487C",
"< c #3F4A7D",
"1 c #3E4B7F",
"2 c #6D414A",
"3 c #75605C",
"4 c #4B4576",
"5 c #44497D",
"6 c #404D7F",
"7 c #775A63",
"8 c #921F0D",
"9 c #E46800",
"0 c #8D7470",
"q c #FFAA41",
"w c #334987",
"e c #3F4F83",
"r c #3A4A87",
"t c #3F4E86",
"y c #40538A",
"u c #405489",
"i c #43578C",
"p c #5B5282",
"a c #4A5C90",
"s c #9575AB",
"d c #9176AD",
"f c #9F76AC",
"g c #7B98FF",
"h c #B7958E",
"j c #9E83BA",
"k c #AC81AA",
"l c #A689BF",
"z c #BEBDDA",
"x c #C2BDD7",
"c c #C6BED8",
"v c #C7BFD8",
"b c #CCBED8",
"n c #F6BAE2",
"m c #C8C1DA",
"M c #D4CDD4",
"N c #D9C9D6",
"B c #DAD1D7",
"V c #C8C7E4",
"C c #CBCAE7",
"Z c #C2C3E8",
"A c #D2CFEB",
"S c #DDD2E0",
"D c #DAD7E1",
"F c #DDDAE4",
"G c #E4DFE9",
/* pixels */
"OOOOOOOOOOOOOOOOOOOOO999999888888888888888999999999999999999999999999999888888999888888888888888",
"OOOOOOOOOOOOOOOOOOOOO999999888888888888888999999999999999999999999999999888888999888888888888888",
"OOOOOOOOOOOOOOOOOOOOO999999888888888888888999999999999999999999999999999888888999888888888888888",
"OOOOOOOOOOOOOOOOOOOOOOOO999999999888888999999888888888888888888888999999999999999888888888888888",
"OOOOOOOOOOOOOOOOOOOOOOOO999999999888888999999888888888888888888888999999999999999888888888888888",
"OOOOOOOOOOOOOOOOOOOOOOOO999999999888888999999888888888888888888888999999999999999888888888888888",
"888OOOOOOOOOOOOOOOOOO888888999999999999999888888888888888888888888888999999999999888888888888888",
"888OOOOOOOOOOOOOOOOOO888888999999999999999888888888888888888888888888999999999999888888888888888",
"888OOOOOOOOOOOOOOOOOO888888999999999999999888888888888888888888888888999999999999888888888888888",
"999888OOOOOOOOOOOO888999999qqq999888......>>>>>>>>>>>>......888888888888888999999888888999999999",
"999888OOOOOOOOOOOO888999999qqq999888......>>>>>>>>>>>>......888888888888888999999888888999999999",
"999888OOOOOOOOOOOO888999999qqq999888......>>>>>>>>>>>>......888888888888888999999888888999999999",
"999999888888888999999999qqq.........uuuaaaAAAAAAAAAVVVuuuuuu.........888888888999999999999888888",
"999999888888888999999999qqq.........uuuaaaAAAAAAAAAVVVuuuuuu.........888888888999999999999888888",
"999999888888888999999999qqq.........uuuaaaAAAAAAAAAVVVuuuuuu.........888888888999999999999888888",
"999999999999999999999......333hhhaaaVVVVVVDDDDDDDDDDDDVVVVVVuuuhhhhhh......OOO888888888888OOOOOO",
"999999999999999999999......333hhhaaaVVVVVVDDDDDDDDDDDDVVVVVVuuuhhhhhh......OOO888888888888OOOOOO",
"999999999999999999999......333hhhaaaVVVVVVDDDDDDDDDDDDVVVVVVuuuhhhhhh......OOO888888888888OOOOOO",
"999999999OOOOOO999......333333,,,xxxxxxBBBBBBBBBBBBMMMMMMMMMxxxuyu333333hhh...888888OOOOOO999999",
"999999999OOOOOO999......333333,,,xxxxxxBBBBBBBBBBBBMMMMMMMMMxxxuui333333hhh...888888OOOOOO999999",
"999999999OOOOOO999......333333,,,xxxxxxBBBBBBBBBBBBMMMMMMMMMxxxuue333333hhh...888888OOOOOO999999",
"OOOOOOOOOOOOOOO...333333000iiiCCCCCCCCCAAAGGGGGGGGGFFFFFFAAAAAACCCuiu333hhhhhh...888OOO999999OOO",
"OOOOOOOOOOOOOOO...333333000iiiCCCCCCCCCAAAGGGGGGGGGFFFFFFAAAAAACCCiii333hhhhhh...888OOO999999OOO",
"OOOOOOOOOOOOOOO...333333000iiiCCCCCCCCCAAAGGGGGGGGGFFFFFFAAAAAACCCiii333hhhhhh...888OOO999999OOO",
"OOOOOOOOOOOO...333333...>>>zzzzzzzzzzzzzzzzzzzzzzzzzzzzzzzzzzzzzzzzzz,>>...hhh333...999999OOOOOO",
"OOOOOOOOOOOO...333333...>>>zzzzzzzzzzzzzzzzzzzzzzzzzzzzzzzzzzzzzzzzzz>>>...hhh333...999999OOOOOO",
"OOOOOOOOOOOO...333333...>>>zzzzzzzzzzzzzzzzzzzzzzzzzzzzzzzzzzzzzzzzzz>>>...hhh333...999999OOOOOO",
"OOOOOOOOO...333333+++OOO,,,xxxccccccxxxccccccmmmmmmmmmxxxxxxxxxmmmcmc,,,$$$$$$333333...OOOOOOOOO",
"OOOOOOOOO...333333+++OOO,,,xxxccccccxxxccccccmmmmmmmmmxxxxxxxxxmmmccm,,,$$$$$$333333...OOOOOOOOO",
"OOOOOOOOO...333333+++OOO,,,xxxccccccxxxccccccmmmmmmmmmxxxxxxxxxmmmcmm,r,$$$$$$333333...OOOOOOOOO",
"OOO999...333hhh++++++,,,xxxxxxcccxxxxxxccccccmmmmmmmmmxxxxxxxxxccmcmmxxx615$$$OOO333333...OOOOOO",
"OOO999...333hhh++++++,,,xxxxxxcccxxxxxxccccccmmmmmmmmmxxxxxxxxxmcmcccxzm61e$$$OOO333333...OOOOOO",
"OOO999...333hhh++++++,,,xxxxxxxmcxxxxxxccccccmmmmmmmmmxxxxxxxxxcccmccxxx666$$$OOO333333...OOOOOO",
"999999...hhh333000000iiiCCCCCCCCCCCCCCCgggAAAAAAAAAAAAgggCCCAAAAAACCCCCCiii000000000333...OOO999",
"999999...hhh333000000iiiCCCCCCCCCCCCCCCgggAAAAAAAAAAAAgggCCCAAAAAACCCCCCiii000000000333...OOO999",
"999999...hhh333000000iiiCCCCCCCCCCCCCCCgggAAAAAAAAAAAAgggCCCAAAAAACCCCCCiii000000000333...OOO999",
"OOO...333hhh.........>>>zzzsddzzzzzzzzzgggzzzzzzzzzzzzgggzzzzzzzzzzzzzzz>>>............333...999",
"OOO...333hhh.........>>>zzzdddzzzzzzzzzgggzzzzzzzzzzzzgggzzzzzzzzzzzzzzz>>>............333...999",
"OOO...333hhh.........>>>zzzdssxmzzzzzxzgggzzzzzzzzzzzzgggzzzzzzzzzzzzzzz>>>............333...999",
"999...333888OOOOOOOOO,,,xxxdssnnnnnnSSSBSSSSSbbbbbbbbbbbbbbbnnnnnnNNNNNN511@@@OOOOOOOOO333...OOO",
"999...333888OOOOOOOOO,,,xxxsssnnnnnnSSSSSSSSSbbbbbbbbbbbbbbbnnnnnnNNNNNN<<1@@@OOOOOOOOO333...OOO",
"999...333888OOOOOOOOO,,,xxxsssnnnnnnSSSSSSSSSbbbbbbbbbbbbbbbnnnnnnNNNNNN<15@@@OOOOOOOOO333...OOO",
"qqq...333OOOOOOOOO===ooo5rrNNNfkkfffbbbbbbbbbbbbgggxxxbbbbbbbbbbbbNNN555999999OOOOOOOOO333...OOO",
"qqq...333OOOOOOOOO===oooyyyNNNfkkfffbbbbbbbbbbbbgggxxxbbbbbbbbbbbbNNN555999999OOOOOOOOO333...OOO",
"qqq...333OOOOOOOOO===oooyyeNNNkkkfffbbbbbbbbbbbbgggxxxbbbbbbbbbbmbNNN555999999OOOOOOOOO333...OOO",
"qqq...333000000000444::::::ZZZCCCCCCjjjlllAAAAAAAAACCCCCCCCCAAAAAAiii:::000000000000000333...OOO",
"qqq...333000000000444::::::ZZZCCCCCCjjjlllAAAAAAAAACCCCCCCCCAAAAAAiii:::000000000000000333...OOO",
"qqq...333000000000444::::::ZZZCVCCCCjjjlllAAAAAAAAACCCCCCCCCAAAAAAiii:::000000000000000333...OOO",
"qqq...333......---------XXXXXXwwwwwwzzzzzzzzzzzzzzzzzzzzzzzzwwwwwwXXX..................333...888",
"qqq...333......---------XXXXXXwwwwwwzzzzzzzzzzzzzzzzzzzzzzzzwwwwwwXXX..................333...888",
"qqq...333......---------XXXXXXwwwwwwzzzzzzzzzzzzzzzzzzzzzzzzwwwwwwXXX..................333...888",
"999...&&&333OOO222;;;;;;;;;%%%%%%###111rrrrrryyyyyueeeyyyett###%%%;;;888888888888888333333...888",
"999...&&&333OOO222;;;;;;;;;%%%%%%###111rrrrrryyyyyyeeeyyyttt###%%%;;;888888888888888333333...888",
"999...&&&333OOO222;;;;;;;;;%%%%%%###1e1rrrrrryyyyyyeeeyyyttt###%%%;;;888888888888888333333...888",
"888......&&&OOO222;;;;;;;;;===;;;###%%%%%%%%%%%%%%%%%%***###222===OOOOOO888888888888333......888",
"888......&&&OOO222;;;;;;;;;===;;;###%%%%%%%%%%%%%%%%%%***###222===OOOOOO888888888888333......888",
"888......&&&OOO222;;;;;;;;;===;;;###%%%%%%%%%%%%%%%%%%***###222===OOOOOO888888888888333......888",
"OOO.........333;;;;;;;;;======222;;;;;;;;;;;;;;;;;;;;;;;;;;;777qqqqqq999OOO888888333...hhh...888",
"OOO.........333;;;;;;;;;======222;;;;;;;;;;;;;;;;;;;;;;;;;;;777qqqqqq999OOO888888333...hhh...888",
"OOO.........333;;;;;;;;;======222;;;;;;;;;;;;;;;;;;;;;;;;;;;777qqqqqq999OOO888888333...hhh...888",
"OOO.........&&&333000444444444444ppppppppppppppp444444444hhhhhh000000000000000333333333hhh...999",
"OOO.........&&&333000444444444444ppppppppppppppp444444444hhhhhh000000000000000333333333hhh...999",
"OOO.........&&&333000444444444444ppppppppppppppp444444444hhhhhh000000000000000333333333hhh...999",
"999............&&&333.........------------.................................333...333333......qqq",
"999............&&&333.........------------.................................333...333333......qqq",
"999............&&&333.........------------.................................333...333333......qqq",
"999qqq...............333333999888888qqq888888888888888888999888888888333333...333333......qqq999",
"999qqq...............333333999888888qqq888888888888888888999888888888333333...333333......qqq999",
"999qqq...............333333999888888qqq888888888888888888999888888888333333...333333......qqq999",
"888888qqq......333333......333&&&   888999qqqqqqqqq999999qqq   333333......hhh333......qqq999999",
"888888qqq......333333......333&&&   888999qqqqqqqqq999999qqq   333333......hhh333......qqq999999",
"888888qqq......333333......333&&&   888999qqqqqqqqq999999qqq   333333......hhh333......qqq999999",
"888888999qqq......333&&&&&&...333333333333333............333333......333hhhhhh......qqq999999888",
"888888999qqq......333&&&&&&...333333333333333............333333......333hhhhhh......qqq999999888",
"888888999qqq......333&&&&&&...333333333333333............333333......333hhhhhh......qqq999999888",
"888888888qqqqqq......333&&&333hhh333333333hhhhhh333hhh333333333333333333hhh......qqqqqq999999888",
"888888888qqqqqq......333&&&333hhh333333333hhhhhh333hhh333333333333333333hhh......qqqqqq999999888",
"888888888qqqqqq......333&&&333hhh333333333hhhhhh333hhh333333333333333333hhh......qqqqqq999999888",
"888888888999qqqqqq......&&&333hhh333333333hhhhhh333hhh333333333333333333......qqqqqq999999888888",
"888888888999qqqqqq......&&&333hhh333333333hhhhhh333hhh333333333333333333......qqqqqq999999888888",
"888888888999qqqqqq......&&&333hhh333333333hhhhhh333hhh333333333333333333......qqqqqq999999888888",
"888888888888888999999qqq.........333333333hhhhhh333hhh333333333333......qqqqqq999999888999888888",
"888888888888888999999qqq.........333333333hhhhhh333hhh333333333333......qqqqqq999999888999888888",
"888888888888888999999qqq.........333333333hhhhhh333hhh333333333333......qqqqqq999999888999888888",
"888888888888888OOOOOO999999999....................................qqq999999999999999999999888888",
"888888888888888OOOOOO999999999....................................qqq999999999999999999999888888",
"888888888888888OOOOOO999999999....................................qqq999999999999999999999888888",
"888888888888888OOOOOOOOOOOO999999qqq888888qqqqqq999999999999999qqq888888888888999888888888888888",
"888888888888888OOOOOOOOOOOO999999qqq888888qqqqqq999999999999999qqq888888888888999888888888888888",
"888888888888888OOOOOOOOOOOO999999qqq888888qqqqqq999999999999999qqq888888888888999888888888888888",
"888888888888OOOOOOOOOOOOOOO999999888888888999999qqq888999999888888888888888999999888888888888888",
"888888888888OOOOOOOOOOOOOOO999999888888888999999qqq888999999888888888888888999999888888888888888",
"888888888888OOOOOOOOOOOOOOO999999888888888999999qqq888999999888888888888888999999888888888888888",
"888OOOOOOOOOOOOOOOOOO999999999888888888888888888888999999999999888888888888999999888888888888888",
"888OOOOOOOOOOOOOOOOOO999999999888888888888888888888999999999999888888888888999999888888888888888",
"888OOOOOOOOOOOOOOOOOO999999999888888888888888888888999999999999888888888888999999888888888888888"
};
