/* XPM */
static char *so_long_p_trap21745115385[] = {
/* columns rows colors chars-per-pixel */
"96 96 58 1 ",
"  c #251917",
". c #321B18",
"X c #230C26",
"o c #2D0B20",
"O c #4D1807",
"+ c #65210E",
"@ c #682A1D",
"# c #763719",
"$ c #480E22",
"% c #45332F",
"& c #724437",
"* c #32214D",
"= c #272253",
"- c #4D234F",
"; c #462F49",
": c #35487E",
"> c #3A487C",
", c #3A497E",
"< c #6D414A",
"1 c #75605C",
"2 c #4B4576",
"3 c #44497D",
"4 c #50557B",
"5 c #775A63",
"6 c #921F0D",
"7 c #E46800",
"8 c #8D7470",
"9 c #FFAA41",
"0 c #394780",
"q c #334987",
"w c #354986",
"e c #3A4A87",
"r c #405489",
"t c #43578C",
"y c #5B5282",
"u c #4A5C90",
"i c #9176AD",
"p c #9F76AC",
"a c #7B98FF",
"s c #B7958E",
"d c #9E83BA",
"f c #AC81AA",
"g c #A689BF",
"h c #BEBDDA",
"j c #C2BDD7",
"k c #CCBED8",
"l c #F6BAE2",
"z c #D4CDD4",
"x c #D9C9D6",
"c c #DAD1D7",
"v c #C8C7E4",
"b c #CBCAE7",
"n c #C2C3E8",
"m c #D2CFEB",
"M c #DDD2E0",
"N c #DAD7E1",
"B c #DDDAE4",
"V c #E4DFE9",
/* pixels */
"OOOOOOOOOOOOOOOOOOOOO777777666666666666666777777777777777777777777777777666666777666666666666666",
"OOOOOOOOOOOOOOOOOOOOO777777666666666666666777777777777777777777777777777666666777666666666666666",
"OOOOOOOOOOOOOOOOOOOOO777777666666666666666777777777777777777777777777777666666777666666666666666",
"OOOOOOOOOOOOOOOOOOOOOOOO777777777666666777777666666666666666666666777777777777777666666666666666",
"OOOOOOOOOOOOOOOOOOOOOOOO777777777666666777777666666666666666666666777777777777777666666666666666",
"OOOOOOOOOOOOOOOOOOOOOOOO777777777666666777777666666666666666666666777777777777777666666666666666",
"666OOOOOOOOOOOOOOOOOO666666777777777777777666666666666666666666666666777777777777666666666666666",
"666OOOOOOOOOOOOOOOOOO666666777777777777777666666666666666666666666666777777777777666666666666666",
"666OOOOOOOOOOOOOOOOOO666666777777777777777666666666666666666666666666777777777777666666666666666",
"777666OOOOOOOOOOOO666777777999777666......::::::::::::......666666666666666777777666666777777777",
"777666OOOOOOOOOOOO666777777999777666......::::::::::::......666666666666666777777666666777777777",
"777666OOOOOOOOOOOO666777777999777666......::::::::::::......666666666666666777777666666777777777",
"777777666666666777777777999.........rrruuummmmmmmmmvvvrrrrrr.........666666666777777777777666666",
"777777666666666777777777999.........rrruuummmmmmmmmvvvrrrrrr.........666666666777777777777666666",
"777777666666666777777777999.........rrruuummmmmmmmmvvvrrrrrr.........666666666777777777777666666",
"777777777777777777777......111sssuuuvvvvvvNNNNNNNNNNNNvvvvvvrrrssssss......OOO666666666666OOOOOO",
"777777777777777777777......111sssuuuvvvvvvNNNNNNNNNNNNvvvvvvrrrssssss......OOO666666666666OOOOOO",
"777777777777777777777......111sssuuuvvvvvvNNNNNNNNNNNNvvvvvvrrrssssss......OOO666666666666OOOOOO",
"777777777OOOOOO777......111111>>>jjjjjjcccccccccccczzzzzzzzzjjjrrr111111sss...666666OOOOOO777777",
"777777777OOOOOO777......111111>>>jjjjjjcccccccccccczzzzzzzzzjjjrrr111111sss...666666OOOOOO777777",
"777777777OOOOOO777......111111>>>jjjjjjcccccccccccczzzzzzzzzjjjrrr111111sss...666666OOOOOO777777",
"OOOOOOOOOOOOOOO...111111888tttbbbbbbbbbmmmVVVVVVVVVBBBBBBmmmmmmbbbttr111ssssss...666OOO777777OOO",
"OOOOOOOOOOOOOOO...111111888tttbbbbbbbbbmmmVVVVVVVVVBBBBBBmmmmmmbbbttt111ssssss...666OOO777777OOO",
"OOOOOOOOOOOOOOO...111111888tttbbbbbbbbbmmmVVVVVVVVVBBBBBBmmmmmmbbbttt111ssssss...666OOO777777OOO",
"OOOOOOOOOOOO...111111...:::hhhhhhhhhhhhhhhhhhhhhhhhhhhhhhhhhhhhhhhhhhw::...sss111...777777OOOOOO",
"OOOOOOOOOOOO...111111...:::hhhhhhhhhhhhhhhhhhhhhhhhhhhhhhhhhhhhhhhhhh:::...sss111...777777OOOOOO",
"OOOOOOOOOOOO...111111...:::hhhhhhhhhhhhhhhhhhhhhhhhhhhhhhhhhhhhhhhhjh:::...sss111...777777OOOOOO",
"OOOOOOOOO...111111+++OOO>>>jjjxxxxxxxxxkkkkkkkkkkkkkkkkkkkkkkkkMVcxxx>>>######111111...OOOOOOOOO",
"OOOOOOOOO...111111+++OOO>>>jjjxxxxxxxxxkkkkkkkkkkkkkkkkkkkkkkkkMMMxxx>0>######111111...OOOOOOOOO",
"OOOOOOOOO...111111+++OOO>>>jjjxxxxxxxxxkkkkkkkkkkkkkkkkkkkkkkkkMMcxxx0>>######111111...OOOOOOOOO",
"OOO777...111sss++++++>>>xxxMMMMMMkkkkkkkkkjjjjjjjjjjjjjjjkkkkkkkkkxxxxxx444###OOO111111...OOOOOO",
"OOO777...111sss++++++>>>xxxMMMMMMkkkkkkkkkjjjjjjjjjjjjjjjkkkkkkkkbxxxxxx444###OOO111111...OOOOOO",
"OOO777...111sss++++++>>>xxxMMMMMMkkkkkkkkkjjjjjjjjjjjjjjjkkkkkkkkkxxxxxx444###OOO111111...OOOOOO",
"777777...sss111888888tttbbbbbbbbbbbbbbbaaammmmmmmmmmmmaaabbbmmmmmmbbbbbbttt888888888111...OOO777",
"777777...sss111888888tttbbbbbbbbbbbbbbbaaammmmmmmmmmmmaaabbbmmmmmmbbbbbbttt888888888111...OOO777",
"777777...sss111888888tttbbbbbbbbbbbbbbbaaammmmmmmmmmmmaaabbbmmmmmmbbbbbbttt888888888111...OOO777",
"OOO...111sss.........:::hhhiiihhhhhhhhhaaahhhhhhhhhhhhaaahhhhhhhhhhhhhhh:::............111...777",
"OOO...111sss.........:::hhhiiihhhhhhhhhaaahhhhhhhhhhhhaaahhhhhhhhhhhhhhh:::............111...777",
"OOO...111sss.........:::hhhiiihhhhhhhhhaaahhhhhhhhhhhhaaahhhhhhhhhhhhhhh:::............111...777",
"777...111666OOO777666333jjjpppllllllkkkkkkkkkxxxxxxMMMMMMMMMllllllkkkkkk333666777777OOO111...OOO",
"777...111666OOO777666333jjjpppllllllkkkkkkkkkxxxxxxMMMMMMMMMllllllkkkkkk333666777777OOO111...OOO",
"777...111666OOO777666333jjjpppllllllkkkkkkkkkxxxxxxMMMMMMMMMllllllkkkkkk333666777777OOO111...OOO",
"999...111OOOOOO666---ooowwwkkkffffffkkkkkkkkkkkkaaakkkkkkMMMxxxxxxjjj>>>OOOOOO666777777111...OOO",
"999...111OOOOOO666---ooowwwkkkffffffkkkkkkkkkkkkaaakkkkkkMMMxxxxxxjjj>>>OOOOOO666777777111...OOO",
"999...111OOOOOO666---ooowwwkkkffffffkkkkkkkkkkkkaaakkkkkkMMMxxxxxxjjj>>>OOOOOO666777777111...OOO",
"999...111888888888222;;;;;;nnnbbbbbbdddgggmmmmmmmmmbbbbbbbbbmmmmmmttt;;;888888888888888111...OOO",
"999...111888888888222;;;;;;nnnbbbbbbdddgggmmmmmmmmmbbbbbbbbbmmmmmmttt;;;888888888888888111...OOO",
"999...111888888888222;;;;;;nnnbbbbbbdddgggmmmmmmmmmbbbbbbbbbmmmmmmttt;;;888888888888888111...OOO",
"999...111......=========XXXXXXqqqqqqhhhhhhhhhhhhhhhhhhhhhhhhqqqqqqXXX..................111...666",
"999...111......=========XXXXXXqqqqqqhhhhhhhhhhhhhhhhhhhhhhhhqqqqqqXXX..................111...666",
"999...111......=========XXXXXXqqqqqqhhhhhhhhhhhhhhhhhhhhhhhhqqqqqqXXX..................111...666",
"777...%%%111666---***<<<555&&&@@@$$$000eeeeeeeeeeee000eeeeee@@@$$$---666666999666666111111...666",
"777...%%%111666---***<<<555&&&@@@$$$000eeeeeeeeeeee000eeeeee@@@$$$---666666999666666111111...666",
"777...%%%111666---***<<<555&&&@@@$$$000eeeeeeeeeeee000eeeeee@@@$$$---666666999666666111111...666",
"666......%%%666---***<<<******555$$$oooooo$$$$$$$$$$$$$$$$$$<<<---666666666999999777111......666",
"666......%%%666---***<<<******555$$$oooooo$$$$$$$$$$$$$$$$$$<<<---666666666999999777111......666",
"666......%%%666---***<<<******555$$$oooooo$$$$$$$$$$$$$$$$$$<<<---666666666999999777111......666",
"OOO.........111---<<<<<<---***<<<555---************------<<<555777666666666999999111...sss...666",
"OOO.........111---<<<<<<---***<<<555---************------<<<555777666666666999999111...sss...666",
"OOO.........111---<<<<<<---***<<<555---************------<<<555777666666666999999111...sss...666",
"OOO.........%%%111888222222222222yyyyyyyyyyyyyyy222222222ssssss888888888888888111111111sss...777",
"OOO.........%%%111888222222222222yyyyyyyyyyyyyyy222222222ssssss888888888888888111111111sss...777",
"OOO.........%%%111888222222222222yyyyyyyyyyyyyyy222222222ssssss888888888888888111111111sss...777",
"777............%%%111.........============.................................111...111111......999",
"777............%%%111.........============.................................111...111111......999",
"777............%%%111.........============.................................111...111111......999",
"777999...............111111666OOOOOO666666666999999777666666666666OOO111111...111111......999777",
"777999...............111111666OOOOOO666666666999999777666666666666OOO111111...111111......999777",
"777999...............111111666OOOOOO666666666999999777666666666666OOO111111...111111......999777",
"666666999......111111......111%%%   666666666666666777666OOOOOO111111......sss111......999777777",
"666666999......111111......111%%%   666666666666666777666OOOOOO111111......sss111......999777777",
"666666999......111111......111%%%   666666666666666777666OOOOOO111111......sss111......999777777",
"666666777999......111%%%%%%...111111111111111............111111......111ssssss......999777777666",
"666666777999......111%%%%%%...111111111111111............111111......111ssssss......999777777666",
"666666777999......111%%%%%%...111111111111111............111111......111ssssss......999777777666",
"666666666999999......111%%%111sss111111111ssssss111sss111111111111111111sss......999999777777666",
"666666666999999......111%%%111sss111111111ssssss111sss111111111111111111sss......999999777777666",
"666666666999999......111%%%111sss111111111ssssss111sss111111111111111111sss......999999777777666",
"666666666777999999......%%%111sss111111111ssssss111sss111111111111111111......999999777777666666",
"666666666777999999......%%%111sss111111111ssssss111sss111111111111111111......999999777777666666",
"666666666777999999......%%%111sss111111111ssssss111sss111111111111111111......999999777777666666",
"666666666666666777777999.........111111111ssssss111sss111111111111......999999777777666777666666",
"666666666666666777777999.........111111111ssssss111sss111111111111......999999777777666777666666",
"666666666666666777777999.........111111111ssssss111sss111111111111......999999777777666777666666",
"666666666666666OOOOOO777777777....................................999777777777777777777777666666",
"666666666666666OOOOOO777777777....................................999777777777777777777777666666",
"666666666666666OOOOOO777777777....................................999777777777777777777777666666",
"666666666666666OOOOOOOOOOOO777777999666666999999777777777777777999666666666666777666666666666666",
"666666666666666OOOOOOOOOOOO777777999666666999999777777777777777999666666666666777666666666666666",
"666666666666666OOOOOOOOOOOO777777999666666999999777777777777777999666666666666777666666666666666",
"666666666666OOOOOOOOOOOOOOO777777666666666777777999666777777666666666666666777777666666666666666",
"666666666666OOOOOOOOOOOOOOO777777666666666777777999666777777666666666666666777777666666666666666",
"666666666666OOOOOOOOOOOOOOO777777666666666777777999666777777666666666666666777777666666666666666",
"666OOOOOOOOOOOOOOOOOO777777777666666666666666666666777777777777666666666666777777666666666666666",
"666OOOOOOOOOOOOOOOOOO777777777666666666666666666666777777777777666666666666777777666666666666666",
"666OOOOOOOOOOOOOOOOOO777777777666666666666666666666777777777777666666666666777777666666666666666"
};
