/* XPM */
static char *_df88b15e1204e9d8ace61111ebd10a1cPgLLuhvrANx7CxF[] = {
/* columns rows colors chars-per-pixel */
"96 96 3 1 ",
"  c None",
". c #AD8E1B",
"X c #FCD335",
/* pixels */
"                                                                                                ",
"                                                                                                ",
"                                                                                                ",
"                                                                                                ",
"                                                                                                ",
"                                                                                                ",
"                                                                                                ",
"                                                                                                ",
"                                                                                                ",
"                                                                                                ",
"                                                                                                ",
"                                                                                                ",
"                                       XXXXXXXXXXXXXXXXXX                                       ",
"                                       XXXXXXXXXXXXXXXXXX                                       ",
"                                       XXXXXXXXXXXXXXXXXX                                       ",
"                                 XXXXXXXXXXXXXXXXXXXXXXXXXXXXXX                                 ",
"                                 XXXXXXXXXXXXXXXXXXXXXXXXXXXXXX                                 ",
"                                 XXXXXXXXXXXXXXXXXXXXXXXXXXXXXX                                 ",
"                           XXXXXXXXXXXXXXXXXXXXXXXXXXXXXXXXXXXXXXXXXX                           ",
"                           XXXXXXXXXXXXXXXXXXXXXXXXXXXXXXXXXXXXXXXXXX                           ",
"                           XXXXXXXXXXXXXXXXXXXXXXXXXXXXXXXXXXXXXXXXXX                           ",
"                        XXXXXXXXXXXXXXXXXXXXXXXXXXXXXXXXXXXXXXXXXXXXXXXX                        ",
"                        XXXXXXXXXXXXXXXXXXXXXXXXXXXXXXXXXXXXXXXXXXXXXXXX                        ",
"                        XXXXXXXXXXXXXXXXXXXXXXXXXXXXXXXXXXXXXXXXXXXXXXXX                        ",
"                     XXXXXXXXXXXXXXXXXXXXXXXXXXXXXXXXXXXXXXXXXXXXXXXXXXXXXX                     ",
"                     XXXXXXXXXXXXXXXXXXXXXXXXXXXXXXXXXXXXXXXXXXXXXXXXXXXXXX                     ",
"                     XXXXXXXXXXXXXXXXXXXXXXXXXXXXXXXXXXXXXXXXXXXXXXXXXXXXXX                     ",
"                  XXXXXXXXXXXXXXXXXXXXXXXXXXXXXXXXXXXXXXXXXXXXXXXXXXXXXXXXXXXX                  ",
"                  XXXXXXXXXXXXXXXXXXXXXXXXXXXXXXXXXXXXXXXXXXXXXXXXXXXXXXXXXXXX                  ",
"                  XXXXXXXXXXXXXXXXXXXXXXXXXXXXXXXXXXXXXXXXXXXXXXXXXXXXXXXXXXXX                  ",
"                  XXXXXXXXXXXXXXXXXXXXXXXXXXXXXXXXXXXX...XXXXXXXXXXXXXXXXXXXXX                  ",
"                  XXXXXXXXXXXXXXXXXXXXXXXXXXXXXXXXXXXX...XXXXXXXXXXXXXXXXXXXXX                  ",
"                  XXXXXXXXXXXXXXXXXXXXXXXXXXXXXXXXXXXX...XXXXXXXXXXXXXXXXXXXXX                  ",
"               XXXXXXXXXXXXXXXXXXXXXXXXXXXXXXXXXXXX......XXXXXXXXXXXXXXXXXXXXXXXX               ",
"               XXXXXXXXXXXXXXXXXXXXXXXXXXXXXXXXXXXX......XXXXXXXXXXXXXXXXXXXXXXXX               ",
"               XXXXXXXXXXXXXXXXXXXXXXXXXXXXXXXXXXXX......XXXXXXXXXXXXXXXXXXXXXXXX               ",
"               XXXXXXXXXXXXXXXXXXXXXXXXXXXXXXXXXXXXXXXXXXXXXXXXXXXXXXXXXXXXXXXXXX               ",
"               XXXXXXXXXXXXXXXXXXXXXXXXXXXXXXXXXXXXXXXXXXXXXXXXXXXXXXXXXXXXXXXXXX               ",
"               XXXXXXXXXXXXXXXXXXXXXXXXXXXXXXXXXXXXXXXXXXXXXXXXXXXXXXXXXXXXXXXXXX               ",
"            XXXXXXXXX.........XXXXXXXXX......XXXXXX......XXX......XXXXXXXXXXXXXXXXXX            ",
"            XXXXXXXXX.........XXXXXXXXX......XXXXXX......XXX......XXXXXXXXXXXXXXXXXX            ",
"            XXXXXXXXX.........XXXXXXXXX......XXXXXX......XXX......XXXXXXXXXXXXXXXXXX            ",
"            XXXXXX...............XXX............XXX......XXX...............XXXXXXXXX            ",
"            XXXXXX...............XXX............XXX......XXX...............XXXXXXXXX            ",
"            XXXXXX...............XXX............XXX......XXX...............XXXXXXXXX            ",
"            XXXXXX......XXXXXX...XXX...XXX......XXX......XXXXXX...............XXXXXX            ",
"            XXXXXX......XXXXXX...XXX...XXX......XXX......XXXXXX...............XXXXXX            ",
"            XXXXXX......XXXXXX...XXX...XXX......XXX......XXXXXX...............XXXXXX            ",
"            XXXXXX...XXXXXXXXXXXXXXX...XXXXXX...XXX...XXXXXXXXX......XXX......XXXXXX            ",
"            XXXXXX...XXXXXXXXXXXXXXX...XXXXXX...XXX...XXXXXXXXX......XXX......XXXXXX            ",
"            XXXXXX...XXXXXXXXXXXXXXX...XXXXXX...XXX...XXXXXXXXX......XXX......XXXXXX            ",
"            XXXXXX......XXXXXXXXXXXX...XXX......XXX...XXXXXXXXX......XXXXXX...XXXXXX            ",
"            XXXXXX......XXXXXXXXXXXX...XXX......XXX...XXXXXXXXX......XXXXXX...XXXXXX            ",
"            XXXXXX......XXXXXXXXXXXX...XXX......XXX...XXXXXXXXX......XXXXXX...XXXXXX            ",
"            XXXXXX......XXXXXX...XXX...XXX...XXX......XXXXXX......XXXXXXXXX...XXXXXX            ",
"            XXXXXX......XXXXXX...XXX...XXX...XXX......XXXXXX......XXXXXXXXX...XXXXXX            ",
"            XXXXXX......XXXXXX...XXX...XXX...XXX......XXXXXX......XXXXXXXXX...XXXXXX            ",
"               XXXXXX............XXX.........XXX......XXXXXX......XXXXXXXXX...XXX               ",
"               XXXXXX............XXX.........XXX......XXXXXX......XXXXXXXXX...XXX               ",
"               XXXXXX............XXX.........XXX......XXXXXX......XXXXXXXXX...XXX               ",
"               XXXXXXXXXXXXXXXXXXXXXXXXXXXXXXXXXXXXXXXXXXXXXXXXXXXXXXXXXXXXXXXXXX               ",
"               XXXXXXXXXXXXXXXXXXXXXXXXXXXXXXXXXXXXXXXXXXXXXXXXXXXXXXXXXXXXXXXXXX               ",
"               XXXXXXXXXXXXXXXXXXXXXXXXXXXXXXXXXXXXXXXXXXXXXXXXXXXXXXXXXXXXXXXXXX               ",
"                  XXXXXXXXXXXXXXXXXXXXXXXXXXXXXXXXXXXXXXXXXXXXXXXXXXXXXXXXXXXX                  ",
"                  XXXXXXXXXXXXXXXXXXXXXXXXXXXXXXXXXXXXXXXXXXXXXXXXXXXXXXXXXXXX                  ",
"                  XXXXXXXXXXXXXXXXXXXXXXXXXXXXXXXXXXXXXXXXXXXXXXXXXXXXXXXXXXXX                  ",
"                  XXXXXXXXXXXXXXXXXXXXXXXXXXXXXXXXXXXXXXXXXXXXXXXXXXXXXXXXXXXX                  ",
"                  XXXXXXXXXXXXXXXXXXXXXXXXXXXXXXXXXXXXXXXXXXXXXXXXXXXXXXXXXXXX                  ",
"                  XXXXXXXXXXXXXXXXXXXXXXXXXXXXXXXXXXXXXXXXXXXXXXXXXXXXXXXXXXXX                  ",
"                     XXXXXXXXXXXXXXXXXXXXXXXXXXXXXXXXXXXXXXXXXXXXXXXXXXXXXX                     ",
"                     XXXXXXXXXXXXXXXXXXXXXXXXXXXXXXXXXXXXXXXXXXXXXXXXXXXXXX                     ",
"                     XXXXXXXXXXXXXXXXXXXXXXXXXXXXXXXXXXXXXXXXXXXXXXXXXXXXXX                     ",
"                        XXXXXXXXXXXXXXXXXXXXXXXXXXXXXXXXXXXXXXXXXXXXXXXX                        ",
"                        XXXXXXXXXXXXXXXXXXXXXXXXXXXXXXXXXXXXXXXXXXXXXXXX                        ",
"                        XXXXXXXXXXXXXXXXXXXXXXXXXXXXXXXXXXXXXXXXXXXXXXXX                        ",
"                           XXXXXXXXXXXXXXXXXXXXXXXXXXXXXXXXXXXXXXXXXX                           ",
"                           XXXXXXXXXXXXXXXXXXXXXXXXXXXXXXXXXXXXXXXXXX                           ",
"                           XXXXXXXXXXXXXXXXXXXXXXXXXXXXXXXXXXXXXXXXXX                           ",
"                                 XXXXXXXXXXXXXXXXXXXXXXXXXXXXXX                                 ",
"                                 XXXXXXXXXXXXXXXXXXXXXXXXXXXXXX                                 ",
"                                 XXXXXXXXXXXXXXXXXXXXXXXXXXXXXX                                 ",
"                                       XXXXXXXXXXXXXXXXXX                                       ",
"                                       XXXXXXXXXXXXXXXXXX                                       ",
"                                       XXXXXXXXXXXXXXXXXX                                       ",
"                                                                                                ",
"                                                                                                ",
"                                                                                                ",
"                                                                                                ",
"                                                                                                ",
"                                                                                                ",
"                                                                                                ",
"                                                                                                ",
"                                                                                                ",
"                                                                                                ",
"                                                                                                ",
"                                                                                                "
};
