/* XPM */
static char *_3649f107bd84993d0bc5d1b4df0295bVs1HZi1ErxXH1qfD[] = {
/* columns rows colors chars-per-pixel */
"96 96 2 1 ",
"  c None",
". c #1803CD",
/* pixels */
"                                                                                                ",
"                                                                                                ",
"                                                                                                ",
"                                                                                                ",
"                                                                                                ",
"                                                                                                ",
"                                                                                                ",
"                                                                                                ",
"                                                                                                ",
"                                    ...........................                                 ",
"                                    ...........................                                 ",
"                                    ...........................                                 ",
"                              .......................................                           ",
"                              .......................................                           ",
"                              .......................................                           ",
"                           .............................................                        ",
"                           .............................................                        ",
"                           .............................................                        ",
"                        ...................................................                     ",
"                        ...................................................                     ",
"                        ...................................................                     ",
"                        ...................................................                     ",
"                        ...................................................                     ",
"                        ...................................................                     ",
"                        ...................................................                     ",
"                        ...................................................                     ",
"                        ...................................................                     ",
"                     .........................................................                  ",
"                     .........................................................                  ",
"                     .........................................................                  ",
"                     .........................................................                  ",
"                     .........................................................                  ",
"                     .........................................................                  ",
"                  ...............................................................               ",
"                  ...............................................................               ",
"                  ...............................................................               ",
"                  ...............................................................               ",
"                  ...............................................................               ",
"                  ...............................................................               ",
"                  ...............................................................               ",
"                  ...............................................................               ",
"                  ...............................................................               ",
"                  ...............................................................               ",
"                  ...............................................................               ",
"                  ...............................................................               ",
"                  ...............................................................               ",
"                  ...............................................................               ",
"                  ...............................................................               ",
"                  ...............................................................               ",
"                  ...............................................................               ",
"                  ...............................................................               ",
"                  ...............................................................               ",
"                  ...............................................................               ",
"                  ...............................................................               ",
"                  ...............................................................               ",
"                  ...............................................................               ",
"                  ...............................................................               ",
"                  ...............................................................               ",
"                  ...............................................................               ",
"                  ...............................................................               ",
"                  ...............................................................               ",
"                  ...............................................................               ",
"                  ...............................................................               ",
"                  ...............................................................               ",
"                  ...............................................................               ",
"                  ...............................................................               ",
"                  ...............................................................               ",
"                  ...............................................................               ",
"                  ...............................................................               ",
"                  ...............................................................               ",
"                  ...............................................................               ",
"                  ...............................................................               ",
"                  ...............................................................               ",
"                  ...............................................................               ",
"                  ...............................................................               ",
"                  ...............................................................               ",
"                  ...............................................................               ",
"                  ...............................................................               ",
"                  ...............................................................               ",
"                  ...............................................................               ",
"                  ...............................................................               ",
"                                                                                                ",
"                                                                                                ",
"                                                                                                ",
"                                                                                                ",
"                                                                                                ",
"                                                                                                ",
"                                                                                                ",
"                                                                                                ",
"                                                                                                ",
"                                                                                                ",
"                                                                                                ",
"                                                                                                ",
"                                                                                                ",
"                                                                                                ",
"                                                                                                "
};
