/* XPM */
static char *dfff2871a6f24708942200a1a9f67cc0XMJhyAf0AklsBrIP[] = {
/* columns rows colors chars-per-pixel */
"96 96 7 1 ",
"  c None",
". c #322914",
"X c #228233",
"o c #64921C",
"O c #99E550",
"+ c #CDF4CD",
"@ c white",
/* pixels */
"                                                                                                ",
"                                                                                                ",
"                                                                                                ",
"                                                                                                ",
"                                                                                                ",
"                                                                                                ",
"                                                                                                ",
"                                                                                                ",
"                                                                                                ",
"                                                                                                ",
"                                                                                                ",
"                                                                                                ",
"                                                                                                ",
"                                                                                                ",
"                                                                                                ",
"                                                                                                ",
"                                                                                                ",
"                                                                                                ",
"                                             .....................                              ",
"                                             .....................                              ",
"                                             .....................                              ",
"                                    ............OOOOOOOOOOOOOOO.........                        ",
"                                    ............OOOOOOOOOOOOOOO.........                        ",
"                                    ............OOOOOOOOOOOOOOO.........                        ",
"                              .........OOOOOOOOOOOOOOOOOOOOOOOOOOOOOO......                     ",
"                              .........OOOOOOOOOOOOOOOOOOOOOOOOOOOOOO......                     ",
"                              .........OOOOOOOOOOOOOOOOOOOOOOOOOOOOOO......                     ",
"                           ......OOOOOOOOOOOOOOOOOOOOOOOOOOOOOOOOOOOOOOO......                  ",
"                           ......OOOOOOOOOOOOOOOOOOOOOOOOOOOOOOOOOOOOOOO......                  ",
"                           ......OOOOOOOOOOOOOOOOOOOOOOOOOOOOOOOOOOOOOOO......                  ",
"                           ...OOOOOO++++++@@@@@@OOOOOOOOOOOOOOOOOOOOOOOOOOO...                  ",
"                           ...OOOOOO++++++@@@@@@OOOOOOOOOOOOOOOOOOOOOOOOOOO...                  ",
"                           ...OOOOOO++++++@@@@@@OOOOOOOOOOOOOOOOOOOOOOOOOOO...                  ",
"                        ...OOOOOO++++++@@@@@@@@@OOOOOOOOOOOOOOOOOOOOOOOOOOO......               ",
"                        ...OOOOOO++++++@@@@@@@@@OOOOOOOOOOOOOOOOOOOOOOOOOOO......               ",
"                        ...OOOOOO++++++@@@@@@@@@OOOOOOOOOOOOOOOOOOOOOOOOOOO......               ",
"                     ......OOOOOO+++OOOOOOOOOOOOOOOOOOOOOOOOOOOOOOOOOOOOOOOOOO...               ",
"                     ......OOOOOO+++OOOOOOOOOOOOOOOOOOOOOOOOOOOOOOOOOOOOOOOOOO...               ",
"                     ......OOOOOO+++OOOOOOOOOOOOOOOOOOOOOOOOOOOOOOOOOOOOOOOOOO...               ",
"                     ...OOOOOO++++++OOOOOOOOOOOOOOOOOOOOOOOOOOOOOOOOOOOOOOOOOO...               ",
"                     ...OOOOOO++++++OOOOOOOOOOOOOOOOOOOOOOOOOOOOOOOOOOOOOOOOOO...               ",
"                     ...OOOOOO++++++OOOOOOOOOOOOOOOOOOOOOOOOOOOOOOOOOOOOOOOOOO...               ",
"                  ......OOOOOO+++OOOOOOOOOOOOOOOOOOOOO...OOOOOOOOOOOOOOO...OOO......            ",
"                  ......OOOOOO+++OOOOOOOOOOOOOOOOOOOOO...OOOOOOOOOOOOOOO...OOO......            ",
"                  ......OOOOOO+++OOOOOOOOOOOOOOOOOOOOO...OOOOOOOOOOOOOOO...OOO......            ",
"                  ...OOOOOOXXX+++OOOOOOOOOOOOOOOOOOOOO...OOOOOOOOOOOOOOO...OOOOOO...            ",
"                  ...OOOOOOXXX+++OOOOOOOOOOOOOOOOOOOOO...OOOOOOOOOOOOOOO...OOOOOO...            ",
"                  ...OOOOOOXXX+++OOOOOOOOOOOOOOOOOOOOO...OOOOOOOOOOOOOOO...OOOOOO...            ",
"               ......OOOXXXXXXOOOOOOOOOOOOOOOOOOOOOOOO...OOOOOOOOOOOOOOO...OOOOOO...            ",
"               ......OOOXXXXXXOOOOOOOOOOOOOOOOOOOOOOOO...OOOOOOOOOOOOOOO...OOOOOO...            ",
"               ......OOOXXXXXXOOOOOOOOOOOOOOOOOOOOOOOO...OOOOOOOOOOOOOOO...OOOOOO...            ",
"               ...OOOOOOXXXXXXOOOOOOOOOOOOOOOOOOOOOOOOoooOOOOOOOOOOOOOOOoooOOOOOO...            ",
"               ...OOOOOOXXXXXXOOOOOOOOOOOOOOOOOOOOOOOOoooOOOOOOOOOOOOOOOoooOOOOOO...            ",
"               ...OOOOOOXXXXXXOOOOOOOOOOOOOOOOOOOOOOOOoooOOOOOOOOOOOOOOOoooOOOOOO...            ",
"               ...OOOOOOXXXXXXXXXXXXOOOOOOOOOOOOOOOOOOOOOOOOOOOOOOOOOOOOOOOOOOOOO......         ",
"               ...OOOOOOXXXXXXXXXXXXOOOOOOOOOOOOOOOOOOOOOOOOOOOOOOOOOOOOOOOOOOOOO......         ",
"               ...OOOOOOXXXXXXXXXXXXOOOOOOOOOOOOOOOOOOOOOOOOOOOOOOOOOOOOOOOOOOOOO......         ",
"               ...OOOOOOXXXXXXXXXXXXOOOOOOOOOOOOOOOOOOOOOOOOOOOOOOOOOOOOOOOOOOOOOOOO...         ",
"               ...OOOOOOXXXXXXXXXXXXOOOOOOOOOOOOOOOOOOOOOOOOOOOOOOOOOOOOOOOOOOOOOOOO...         ",
"               ...OOOOOOXXXXXXXXXXXXOOOOOOOOOOOOOOOOOOOOOOOOOOOOOOOOOOOOOOOOOOOOOOOO...         ",
"               ......OOOXXXXXXXXXXXXXXXXXXOOOOOOOOOOOOOOOOOOOOOOOO...OOOOOOOOOOOOOOO...         ",
"               ......OOOXXXXXXXXXXXXXXXXXXOOOOOOOOOOOOOOOOOOOOOOOO...OOOOOOOOOOOOOOO...         ",
"               ......OOOXXXXXXXXXXXXXXXXXXOOOOOOOOOOOOOOOOOOOOOOOO...OOOOOOOOOOOOOOO...         ",
"                  ...OOOOOOXXXXXXXXXXXXXXXXXXXXXOOOOOOOOOOOOOOOOOOOOOOOOOOOOOOOOO......         ",
"                  ...OOOOOOXXXXXXXXXXXXXXXXXXXXXOOOOOOOOOOOOOOOOOOOOOOOOOOOOOOOOO......         ",
"                  ...OOOOOOXXXXXXXXXXXXXXXXXXXXXOOOOOOOOOOOOOOOOOOOOOOOOOOOOOOOOO......         ",
"                  ......OOOOOOXXXXXXXXXXXXXXXXXXXXXXXXXXXOOOOOOOOOOOOOOOOOOOOOOOO...            ",
"                  ......OOOOOOXXXXXXXXXXXXXXXXXXXXXXXXXXXOOOOOOOOOOOOOOOOOOOOOOOO...            ",
"                  ......OOOOOOXXXXXXXXXXXXXXXXXXXXXXXXXXXOOOOOOOOOOOOOOOOOOOOOOOO...            ",
"                     .........OOOOOOOOOOOOOOOOOOOOOOOOOOOOOOOOOOOOOOOOOOOOOOOO......            ",
"                     .........OOOOOOOOOOOOOOOOOOOOOOOOOOOOOOOOOOOOOOOOOOOOOOOO......            ",
"                     .........OOOOOOOOOOOOOOOOOOOOOOOOOOOOOOOOOOOOOOOOOOOOOOOO......            ",
"                           ......................................................               ",
"                           ......................................................               ",
"                           ......................................................               ",
"                                                                                                ",
"                                                                                                ",
"                                                                                                ",
"                                                                                                ",
"                                                                                                ",
"                                                                                                ",
"                                                                                                ",
"                                                                                                ",
"                                                                                                ",
"                                                                                                ",
"                                                                                                ",
"                                                                                                ",
"                                                                                                ",
"                                                                                                ",
"                                                                                                ",
"                                                                                                ",
"                                                                                                ",
"                                                                                                ",
"                                                                                                ",
"                                                                                                ",
"                                                                                                "
};
