/* XPM */
static char *c289de23e88e4d94bc14a7c3b7c3258buBM9JVGpnqJyzXTI[] = {
/* columns rows colors chars-per-pixel */
"32 32 7 1 ",
"  c None",
". c #322914",
"X c #228233",
"o c #64921C",
"O c #99E550",
"+ c #CDF4CD",
"@ c white",
/* pixels */
"                                ",
"                                ",
"                                ",
"                                ",
"                                ",
"                                ",
"               .......          ",
"            ....OOOOO...        ",
"          ...OOOOOOOOOO..       ",
"         ..OOOOOOOOOOOOO..      ",
"         .OO++@@OOOOOOOOO.      ",
"        .OO++@@@OOOOOOOOO..     ",
"       ..OO+OOOOOOOOOOOOOO.     ",
"       .OO++OOOOOOOOOOOOOO.     ",
"      ..OO+OOOOOOO.OOOOO.O..    ",
"      .OOX+OOOOOOO.OOOOO.OO.    ",
"     ..OXXOOOOOOOO.OOOOO.OO.    ",
"     .OOXXOOOOOOOOoOOOOOoOO.    ",
"     .OOXXXXOOOOOOOOOOOOOOO..   ",
"     .OOXXXXOOOOOOOOOOOOOOOO.   ",
"     ..OXXXXXXOOOOOOOO.OOOOO.   ",
"      .OOXXXXXXXOOOOOOOOOOO..   ",
"      ..OOXXXXXXXXXOOOOOOOO.    ",
"       ...OOOOOOOOOOOOOOOO..    ",
"         ..................     ",
"                                ",
"                                ",
"                                ",
"                                ",
"                                ",
"                                ",
"                                "
};
