/* XPM */
static char *_2874016d7334ee98f571c809335f2e1W5WLbyuQXQ7CJWw0[] = {
/* columns rows colors chars-per-pixel */
"96 96 8 1 ",
"  c #321B18",
". c #4D1807",
"X c #45332F",
"o c #75605C",
"O c #921F0D",
"+ c #E46800",
"@ c #FFAA41",
"# c #B7958E",
/* pixels */
".....................++++++OOOOOOOOOOOOOOO++++++++++++++++++++++++++++++OOOOOO+++OOOOOOOOOOOOOOO",
".....................++++++OOOOOOOOOOOOOOO++++++++++++++++++++++++++++++OOOOOO+++OOOOOOOOOOOOOOO",
".....................++++++OOOOOOOOOOOOOOO++++++++++++++++++++++++++++++OOOOOO+++OOOOOOOOOOOOOOO",
"........................+++++++++OOOOOO++++++OOOOOOOOOOOOOOOOOOOOO+++++++++++++++OOOOOOOOOOOOOOO",
"........................+++++++++OOOOOO++++++OOOOOOOOOOOOOOOOOOOOO+++++++++++++++OOOOOOOOOOOOOOO",
"........................+++++++++OOOOOO++++++OOOOOOOOOOOOOOOOOOOOO+++++++++++++++OOOOOOOOOOOOOOO",
"OOO..................OOOOOO+++++++++++++++OOOOOOOOOOOOOOOOOOOOOOOOOOO++++++++++++OOOOOOOOOOOOOOO",
"OOO..................OOOOOO+++++++++++++++OOOOOOOOOOOOOOOOOOOOOOOOOOO++++++++++++OOOOOOOOOOOOOOO",
"OOO..................OOOOOO+++++++++++++++OOOOOOOOOOOOOOOOOOOOOOOOOOO++++++++++++OOOOOOOOOOOOOOO",
"+++OOO............OOO++++++@@@+++OOO                        OOOOOOOOOOOOOOO++++++OOOOOO+++++++++",
"+++OOO............OOO++++++@@@+++OOO                        OOOOOOOOOOOOOOO++++++OOOOOO+++++++++",
"+++OOO............OOO++++++@@@+++OOO                        OOOOOOOOOOOOOOO++++++OOOOOO+++++++++",
"++++++OOOOOOOOO+++++++++@@@         XXX###############XXXXXX         OOOOOOOOO++++++++++++OOOOOO",
"++++++OOOOOOOOO+++++++++@@@         XXX###############XXXXXX         OOOOOOOOO++++++++++++OOOOOO",
"++++++OOOOOOOOO+++++++++@@@         XXX###############XXXXXX         OOOOOOOOO++++++++++++OOOOOO",
"+++++++++++++++++++++      ooo######XXXoooooooooooooooXXXXXXXXX######      ...OOOOOOOOOOOO......",
"+++++++++++++++++++++      ooo######XXXoooooooooooooooXXXXXXXXX######      ...OOOOOOOOOOOO......",
"+++++++++++++++++++++      ooo######XXXoooooooooooooooXXXXXXXXX######      ...OOOOOOOOOOOO......",
"+++++++++......+++      oooooo+++++++++++++++++++++++++++++++++XXXoooooo###   OOOOOO......++++++",
"+++++++++......+++      oooooo+++++++++++++++++++++++++++++++++XXXoooooo###   OOOOOO......++++++",
"+++++++++......+++      oooooo+++++++++++++++++++++++++++++++++XXXoooooo###   OOOOOO......++++++",
"...............   oooooo@@@+++OOOOOOOOO...............OOOOOOOOO+++++++++######   OOO...++++++...",
"...............   oooooo@@@+++OOOOOOOOO...............OOOOOOOOO+++++++++######   OOO...++++++...",
"...............   oooooo@@@+++OOOOOOOOO...............OOOOOOOOO+++++++++######   OOO...++++++...",
"............   oooooo+++@@@@@@...........................OOOOOO+++OOOOOOOOO###ooo   ++++++......",
"............   oooooo+++@@@@@@...........................OOOOOO+++OOOOOOOOO###ooo   ++++++......",
"............   oooooo+++@@@@@@...........................OOOOOO+++OOOOOOOOO###ooo   ++++++......",
".........   oooooo+++OOOOOO@@@@@@.........OOOOOOOOOOOOOOOOOO++++++OOOOOOOOO+++oooooo   .........",
".........   oooooo+++OOOOOO@@@@@@.........OOOOOOOOOOOOOOOOOO++++++OOOOOOOOO+++oooooo   .........",
".........   oooooo+++OOOOOO@@@@@@.........OOOOOOOOOOOOOOOOOO++++++OOOOOOOOO+++oooooo   .........",
"...+++   ooo###+++OOOOOOOOO@@@@@@++++++OOOOOOOOOOOOOOOOOO++++++OOOOOOOOOOOOOOO+++oooooo   ......",
"...+++   ooo###+++OOOOOOOOO@@@@@@++++++OOOOOOOOOOOOOOOOOO++++++OOOOOOOOOOOOOOO+++oooooo   ......",
"...+++   ooo###+++OOOOOOOOO@@@@@@++++++OOOOOOOOOOOOOOOOOO++++++OOOOOOOOOOOOOOO+++oooooo   ......",
"++++++   XXXXXXOOOOOO...OOOOOO+++OOOOOO+++++++++++++++++++++OOOOOOOOOOOOOOOOOOOOO+++ooo   ...+++",
"++++++   XXXXXXOOOOOO...OOOOOO+++OOOOOO+++++++++++++++++++++OOOOOOOOOOOOOOOOOOOOO+++ooo   ...+++",
"++++++   XXXXXXOOOOOO...OOOOOO+++OOOOOO+++++++++++++++++++++OOOOOOOOOOOOOOOOOOOOO+++ooo   ...+++",
"...   oooXXXOOOOOO......OOO++++++OOOOOOOOOOOOOOOOOOOOO+++++++++...............OOOOOOOOOooo   +++",
"...   oooXXXOOOOOO......OOO++++++OOOOOOOOOOOOOOOOOOOOO+++++++++...............OOOOOOOOOooo   +++",
"...   oooXXXOOOOOO......OOO++++++OOOOOOOOOOOOOOOOOOOOO+++++++++...............OOOOOOOOOooo   +++",
"+++   oooXXXOOOOOO.........+++OOOOOOOOOOOOOOOOOOOOOOOOOOOOOO@@@@@@@@@+++......OOOOOOOOOooo   ...",
"+++   oooXXXOOOOOO.........+++OOOOOOOOOOOOOOOOOOOOOOOOOOOOOO@@@@@@@@@+++......OOOOOOOOOooo   ...",
"+++   oooXXXOOOOOO.........+++OOOOOOOOOOOOOOOOOOOOOOOOOOOOOO@@@@@@@@@+++......OOOOOOOOOooo   ...",
"@@@   oooOOOOOO............+++...OOOOOOOOOOOOOOOOOOOOOOOO++++++OOO@@@+++OOO...OOOOOOOOOooo   ...",
"@@@   oooOOOOOO............+++...OOOOOOOOOOOOOOOOOOOOOOOO++++++OOO@@@+++OOO...OOOOOOOOOooo   ...",
"@@@   oooOOOOOO............+++...OOOOOOOOOOOOOOOOOOOOOOOO++++++OOO@@@+++OOO...OOOOOOOOOooo   ...",
"@@@   oooOOOOOO...+++@@@@@@+++.........OOOOOOOOOOOOOOOOOO+++OOOOOOOOOOOO@@@OOOOOOOOOOOOooo   ...",
"@@@   oooOOOOOO...+++@@@@@@+++.........OOOOOOOOOOOOOOOOOO+++OOOOOOOOOOOO@@@OOOOOOOOOOOOooo   ...",
"@@@   oooOOOOOO...+++@@@@@@+++.........OOOOOOOOOOOOOOOOOO+++OOOOOOOOOOOO@@@OOOOOOOOOOOOooo   ...",
"@@@   oooOOOOOO...+++......@@@...OOO............OOOOOOOOO+++OOOOOOOOOOOO@@@@@@+++OOOOOOooo   OOO",
"@@@   oooOOOOOO...+++......@@@...OOO............OOOOOOOOO+++OOOOOOOOOOOO@@@@@@+++OOOOOOooo   OOO",
"@@@   oooOOOOOO...+++......@@@...OOO............OOOOOOOOO+++OOOOOOOOOOOO@@@@@@+++OOOOOOooo   OOO",
"+++   XXXoooOOO++++++OOO...+++@@@OOOOOO......OOOOOOOOO+++@@@+++OOOOOOOOO@@@@@@++++++ooo      OOO",
"+++   XXXoooOOO++++++OOO...+++@@@OOOOOO......OOOOOOOOO+++@@@+++OOOOOOOOO@@@@@@++++++ooo      OOO",
"+++   XXXoooOOO++++++OOO...+++@@@OOOOOO......OOOOOOOOO+++@@@+++OOOOOOOOO@@@@@@++++++ooo      OOO",
"OOO      XXX++++++OOOOOO......+++@@@OOOOOOOOOOOOOOO+++++++++@@@@@@+++++++++OOOOOOOOOooo      OOO",
"OOO      XXX++++++OOOOOO......+++@@@OOOOOOOOOOOOOOO+++++++++@@@@@@+++++++++OOOOOOOOOooo      OOO",
"OOO      XXX++++++OOOOOO......+++@@@OOOOOOOOOOOOOOO+++++++++@@@@@@+++++++++OOOOOOOOOooo      OOO",
"...         oooOOOOOOOOO............+++++++++@@@@@@+++OOOOOOOOOOOOOOOOOO++++++OOOooo   ###   OOO",
"...         oooOOOOOOOOO............+++++++++@@@@@@+++OOOOOOOOOOOOOOOOOO++++++OOOooo   ###   OOO",
"...         oooOOOOOOOOO............+++++++++@@@@@@+++OOOOOOOOOOOOOOOOOO++++++OOOooo   ###   OOO",
"...         XXXoooOOOOOOOOO......OOOOOOOOO@@@@@@+++OOOOOOOOOOOO.........OOO+++ooo   ooo###   +++",
"...         XXXoooOOOOOOOOO......OOOOOOOOO@@@@@@+++OOOOOOOOOOOO.........OOO+++ooo   ooo###   +++",
"...         XXXoooOOOOOOOOO......OOOOOOOOO@@@@@@+++OOOOOOOOOOOO.........OOO+++ooo   ooo###   +++",
"+++            XXXoooOOOOOOOOOOOOOOOOOOOOOOOOOOO+++OOO...............OOO+++ooo   oooooo###   @@@",
"+++            XXXoooOOOOOOOOOOOOOOOOOOOOOOOOOOO+++OOO...............OOO+++ooo   oooooo###   @@@",
"+++            XXXoooOOOOOOOOOOOOOOOOOOOOOOOOOOO+++OOO...............OOO+++ooo   oooooo###   @@@",
"+++@@@               ooooooOOOOOOOOOOOOOOO......+++...............OOOoooooo   ooooooooo   @@@+++",
"+++@@@               ooooooOOOOOOOOOOOOOOO......+++...............OOOoooooo   ooooooooo   @@@+++",
"+++@@@               ooooooOOOOOOOOOOOOOOO......+++...............OOOoooooo   ooooooooo   @@@+++",
"OOOOOO@@@      oooooo         ooooooOOOOOO++++++++++++OOOOOOoooooooooXXX   ooooooooo   @@@++++++",
"OOOOOO@@@      oooooo         ooooooOOOOOO++++++++++++OOOOOOoooooooooXXX   ooooooooo   @@@++++++",
"OOOOOO@@@      oooooo         ooooooOOOOOO++++++++++++OOOOOOoooooooooXXX   ooooooooo   @@@++++++",
"OOOOOO+++@@@   ooooooooo                  oooooo      ooo   ooooooXXX######oooooo   @@@++++++OOO",
"OOOOOO+++@@@   ooooooooo                  oooooo      ooo   ooooooXXX######oooooo   @@@++++++OOO",
"OOOOOO+++@@@   ooooooooo                  oooooo      ooo   ooooooXXX######oooooo   @@@++++++OOO",
"OOOOOOOOO@@@@@@   oooooo      ###   ooo#########XXX###ooooooooooooXXX######ooo   @@@@@@++++++OOO",
"OOOOOOOOO@@@@@@   oooooo      ###   ooo#########XXX###ooooooooooooXXX######ooo   @@@@@@++++++OOO",
"OOOOOOOOO@@@@@@   oooooo      ###   ooo#########XXX###ooooooooooooXXX######ooo   @@@@@@++++++OOO",
"OOOOOOOOO+++@@@@@@            ###   ooo#########XXX###ooooooooooooXXXoooooo   @@@@@@++++++OOOOOO",
"OOOOOOOOO+++@@@@@@            ###   ooo#########XXX###ooooooooooooXXXoooooo   @@@@@@++++++OOOOOO",
"OOOOOOOOO+++@@@@@@            ###   ooo#########XXX###ooooooooooooXXXoooooo   @@@@@@++++++OOOOOO",
"OOOOOOOOOOOOOOO++++++@@@      ###   ooo#########XXX###oooooooooooo         @@@++++++OOO+++OOOOOO",
"OOOOOOOOOOOOOOO++++++@@@      ###   ooo#########XXX###oooooooooooo         @@@++++++OOO+++OOOOOO",
"OOOOOOOOOOOOOOO++++++@@@      ###   ooo#########XXX###oooooooooooo         @@@++++++OOO+++OOOOOO",
"OOOOOOOOOOOOOOO......++++++         ooo#########XXX###ooooooooo      @@@......++++++++++++OOOOOO",
"OOOOOOOOOOOOOOO......++++++         ooo#########XXX###ooooooooo      @@@......++++++++++++OOOOOO",
"OOOOOOOOOOOOOOO......++++++         ooo#########XXX###ooooooooo      @@@......++++++++++++OOOOOO",
"OOOOOOOOOOOOOOO............++++++                              ++++++OOOOOOOOO+++OOOOOOOOOOOOOOO",
"OOOOOOOOOOOOOOO............++++++                              ++++++OOOOOOOOO+++OOOOOOOOOOOOOOO",
"OOOOOOOOOOOOOOO............++++++                              ++++++OOOOOOOOO+++OOOOOOOOOOOOOOO",
"OOOOOOOOOOOO...............++++++OOOOOOOOO++++++@@@@@@++++++OOOOOOOOOOOOOOO++++++OOOOOOOOOOOOOOO",
"OOOOOOOOOOOO...............++++++OOOOOOOOO++++++@@@@@@++++++OOOOOOOOOOOOOOO++++++OOOOOOOOOOOOOOO",
"OOOOOOOOOOOO...............++++++OOOOOOOOO++++++@@@@@@++++++OOOOOOOOOOOOOOO++++++OOOOOOOOOOOOOOO",
"OOO..................+++++++++OOOOOOOOOOOOOOOOOOOOO++++++++++++OOOOOOOOOOOO++++++OOOOOOOOOOOOOOO",
"OOO..................+++++++++OOOOOOOOOOOOOOOOOOOOO++++++++++++OOOOOOOOOOOO++++++OOOOOOOOOOOOOOO",
"OOO..................+++++++++OOOOOOOOOOOOOOOOOOOOO++++++++++++OOOOOOOOOOOO++++++OOOOOOOOOOOOOOO"
};
