/* XPM */
static char *so_long_trap11745115384[] = {
/* columns rows colors chars-per-pixel */
"96 96 14 1 ",
"  c #251917",
". c #321B18",
"X c #4D1807",
"o c #4F1F12",
"O c #65210E",
"+ c #72250D",
"@ c #763719",
"# c #45332F",
"$ c #75605C",
"% c #921F0D",
"& c #E46800",
"* c #8D7470",
"= c #FFAA41",
"- c #B7958E",
/* pixels */
"XXXXXXXXXXXXXXXXXXXXX&&&&&&%%%%%%%%%%%%%%%&&&&&&&&&&&&&&&&&&&&&&&&&&&&&&%%%%%%&&&%%%%%%%%%%%%%%%",
"XXXXXXXXXXXXXXXXXXXXX&&&&&&%%%%%%%%%%%%%%%&&&&&&&&&&&&&&&&&&&&&&&&&&&&&&%%%%%%&&&%%%%%%%%%%%%%%%",
"XXXXXXXXXXXXXXXXXXXXX&&&&&&%%%%%%%%%%%%%%%&&&&&&&&&&&&&&&&&&&&&&&&&&&&&&%%%%%%&&&%%%%%%%%%%%%%%%",
"XXXXXXXXXXXXXXXXXXXXXXXX&&&&&&&&&%%%%%%&&&&&&%%%%%%%%%%%%%%%%%%%%%&&&&&&&&&&&&&&&%%%%%%%%%%%%%%%",
"XXXXXXXXXXXXXXXXXXXXXXXX&&&&&&&&&%%%%%%&&&&&&%%%%%%%%%%%%%%%%%%%%%&&&&&&&&&&&&&&&%%%%%%%%%%%%%%%",
"XXXXXXXXXXXXXXXXXXXXXXXX&&&&&&&&&%%%%%%&&&&&&%%%%%%%%%%%%%%%%%%%%%&&&&&&&&&&&&&&&%%%%%%%%%%%%%%%",
"%%%XXXXXXXXXXXXXXXXXX%%%%%%&&&&&&&&&&&&&&&%%%%%%%%%%%%%%%%%%%%%%%%%%%&&&&&&&&&&&&%%%%%%%%%%%%%%%",
"%%%XXXXXXXXXXXXXXXXXX%%%%%%&&&&&&&&&&&&&&&%%%%%%%%%%%%%%%%%%%%%%%%%%%&&&&&&&&&&&&%%%%%%%%%%%%%%%",
"%%%XXXXXXXXXXXXXXXXXX%%%%%%&&&&&&&&&&&&&&&%%%%%%%%%%%%%%%%%%%%%%%%%%%&&&&&&&&&&&&%%%%%%%%%%%%%%%",
"&&&%%%XXXXXXXXXXXX%%%&&&&&&===&&&%%%........................%%%%%%%%%%%%%%%&&&&&&%%%%%%&&&&&&&&&",
"&&&%%%XXXXXXXXXXXX%%%&&&&&&===&&&%%%........................%%%%%%%%%%%%%%%&&&&&&%%%%%%&&&&&&&&&",
"&&&%%%XXXXXXXXXXXX%%%&&&&&&===&&&%%%........................%%%%%%%%%%%%%%%&&&&&&%%%%%%&&&&&&&&&",
"&&&&&&%%%%%%%%%&&&&&&&&&===.........$$$------------$$$$$$$$$.........%%%%%%%%%&&&&&&&&&&&&%%%%%%",
"&&&&&&%%%%%%%%%&&&&&&&&&===.........$$$------------$$$$$$$$$.........%%%%%%%%%&&&&&&&&&&&&%%%%%%",
"&&&&&&%%%%%%%%%&&&&&&&&&===.........$$$------------$$$$$$$$$.........%%%%%%%%%&&&&&&&&&&&&%%%%%%",
"&&&&&&&&&&&&&&&&&&&&&......$$$------$$$$$$$$$$$$$$$$$$$$$$$$$$$------......XXX%%%%%%%%%%%%XXXXXX",
"&&&&&&&&&&&&&&&&&&&&&......$$$------$$$$$$$$$$$$$$$$$$$$$$$$$$$------......XXX%%%%%%%%%%%%XXXXXX",
"&&&&&&&&&&&&&&&&&&&&&......$$$------$$$$$$$$$$$$$$$$$$$$$$$$$$$------......XXX%%%%%%%%%%%%XXXXXX",
"&&&&&&&&&XXXXXX&&&......$$$$$$XXXXXXXXX@@@@@@@@@@@@XXXXXXXXXXXX$$$$$$$$$---...%%%%%%XXXXXX&&&&&&",
"&&&&&&&&&XXXXXX&&&......$$$$$$XXXXXXXXX@@@@@@@@@@@@XXXXXXXXXXXX$$$$$$$$$---...%%%%%%XXXXXX&&&&&&",
"&&&&&&&&&XXXXXX&&&......$$$$$$XXXXXXXXX@@@@@@@@@@@@XXXXXXXXXXXX$$$$$$$$$---...%%%%%%XXXXXX&&&&&&",
"XXXXXXXXXXXXXXX...$$$$$$***************------------******------******$$$------...%%%XXX&&&&&&XXX",
"XXXXXXXXXXXXXXX...$$$$$$***************------------******------******$$$------...%%%XXX&&&&&&XXX",
"XXXXXXXXXXXXXXX...$$$$$$***************------------******------******$$$------...%%%XXX&&&&&&XXX",
"XXXXXXXXXXXX...$$$$$$......................................................---$$$...&&&&&&XXXXXX",
"XXXXXXXXXXXX...$$$$$$......................................................---$$$...&&&&&&XXXXXX",
"XXXXXXXXXXXX...$$$$$$......................................................---$$$...&&&&&&XXXXXX",
"XXXXXXXXX...$$$$$$OOOXXXXXXXXXOOOOOOXXXOOOOOO@@@@@@@@@XXXXXXXXX@@@+++ooo@@@@@@$$$$$$...XXXXXXXXX",
"XXXXXXXXX...$$$$$$OOOXXXXXXXXXOOOOOOXXXOOOOOO@@@@@@@@@XXXXXXXXX@@@+++ooo@@@@@@$$$$$$...XXXXXXXXX",
"XXXXXXXXX...$$$$$$OOOXXXXXXXXXOOOOOOXXXOOOOOO@@@@@@@@@XXXXXXXXX@@@+++ooo@@@@@@$$$$$$...XXXXXXXXX",
"XXX&&&...$$$---OOOOOOXXXXXXXXXOOOXXXXXXOOOOOO@@@@@@@@@XXXXXXXXX++++++XXX@@@@@@XXX$$$$$$...XXXXXX",
"XXX&&&...$$$---OOOOOOXXXXXXXXXOOOXXXXXXOOOOOO@@@@@@@@@XXXXXXXXX++++++XXX@@@@@@XXX$$$$$$...XXXXXX",
"XXX&&&...$$$---OOOOOOXXXXXXXXXOOOXXXXXXOOOOOO@@@@@@@@@XXXXXXXXX++++++XXX@@@@@@XXX$$$$$$...XXXXXX",
"&&&&&&...---$$$***************************------------******------******************$$$...XXX&&&",
"&&&&&&...---$$$***************************------------******------******************$$$...XXX&&&",
"&&&&&&...---$$$***************************------------******------******************$$$...XXX&&&",
"XXX...$$$---...........................................................................$$$...&&&",
"XXX...$$$---...........................................................................$$$...&&&",
"XXX...$$$---...........................................................................$$$...&&&",
"&&&...$$$%%%XXXXXXXXXXXXXXXXXX&&&&&&=========%%%%%%%%%%%%%%%%%%&&&&&&&&&++++++XXXXXXXXX$$$...XXX",
"&&&...$$$%%%XXXXXXXXXXXXXXXXXX&&&&&&=========%%%%%%%%%%%%%%%%%%&&&&&&&&&++++++XXXXXXXXX$$$...XXX",
"&&&...$$$%%%XXXXXXXXXXXXXXXXXX&&&&&&=========%%%%%%%%%%%%%%%%%%&&&&&&&&&++++++XXXXXXXXX$$$...XXX",
"===...$$$XXXXXXXXXXXXXXX&&&&&&&&&%%%%%%%%%%%%%%%XXXXXX%%%%%%%%%%%%&&&%%%&&&&&&XXXXXXXXX$$$...XXX",
"===...$$$XXXXXXXXXXXXXXX&&&&&&&&&%%%%%%%%%%%%%%%XXXXXX%%%%%%%%%%%%&&&%%%&&&&&&XXXXXXXXX$$$...XXX",
"===...$$$XXXXXXXXXXXXXXX&&&&&&&&&%%%%%%%%%%%%%%%XXXXXX%%%%%%%%%%%%&&&%%%&&&&&&XXXXXXXXX$$$...XXX",
"===...$$$******************************------------*********------*********************$$$...XXX",
"===...$$$******************************------------*********------*********************$$$...XXX",
"===...$$$******************************------------*********------*********************$$$...XXX",
"===...$$$..............................................................................$$$...%%%",
"===...$$$..............................................................................$$$...%%%",
"===...$$$..............................................................................$$$...%%%",
"&&&...###$$$XXX&&&%%%%%%%%%%%%%%%&&&&&&%%%%%%============&&&&&&%%%%%%%%%%%%%%%%%%%%%$$$$$$...%%%",
"&&&...###$$$XXX&&&%%%%%%%%%%%%%%%&&&&&&%%%%%%============&&&&&&%%%%%%%%%%%%%%%%%%%%%$$$$$$...%%%",
"&&&...###$$$XXX&&&%%%%%%%%%%%%%%%&&&&&&%%%%%%============&&&&&&%%%%%%%%%%%%%%%%%%%%%$$$$$$...%%%",
"%%%......###XXX&&&%%%%%%%%%XXX%%%&&&%%%%%%%%%%%%%%%%%%===&&&&&&XXXXXXXXX%%%%%%%%%%%%$$$......%%%",
"%%%......###XXX&&&%%%%%%%%%XXX%%%&&&%%%%%%%%%%%%%%%%%%===&&&&&&XXXXXXXXX%%%%%%%%%%%%$$$......%%%",
"%%%......###XXX&&&%%%%%%%%%XXX%%%&&&%%%%%%%%%%%%%%%%%%===&&&&&&XXXXXXXXX%%%%%%%%%%%%$$$......%%%",
"XXX.........$$$%%%%%%%%%XXXXXX&&&%%%%%%%%%%%%%%%%%%%%%%%%%%%=========&&&XXX%%%%%%$$$...---...%%%",
"XXX.........$$$%%%%%%%%%XXXXXX&&&%%%%%%%%%%%%%%%%%%%%%%%%%%%=========&&&XXX%%%%%%$$$...---...%%%",
"XXX.........$$$%%%%%%%%%XXXXXX&&&%%%%%%%%%%%%%%%%%%%%%%%%%%%=========&&&XXX%%%%%%$$$...---...%%%",
"XXX.........###$$$***************---------------************------************$$$$$$$$$---...&&&",
"XXX.........###$$$***************---------------************------************$$$$$$$$$---...&&&",
"XXX.........###$$$***************---------------************------************$$$$$$$$$---...&&&",
"&&&............###$$$......................................................$$$...$$$$$$......===",
"&&&............###$$$......................................................$$$...$$$$$$......===",
"&&&............###$$$......................................................$$$...$$$$$$......===",
"&&&===...............$$$$$$&&&%%%%%%===%%%%%%%%%%%%%%%%%%&&&%%%%%%%%%$$$$$$...$$$$$$......===&&&",
"&&&===...............$$$$$$&&&%%%%%%===%%%%%%%%%%%%%%%%%%&&&%%%%%%%%%$$$$$$...$$$$$$......===&&&",
"&&&===...............$$$$$$&&&%%%%%%===%%%%%%%%%%%%%%%%%%&&&%%%%%%%%%$$$$$$...$$$$$$......===&&&",
"%%%%%%===......$$$$$$......$$$###%%%%%%&&&=========&&&&&&===   $$$$$$......---$$$......===&&&&&&",
"%%%%%%===......$$$$$$......$$$###%%%%%%&&&=========&&&&&&===   $$$$$$......---$$$......===&&&&&&",
"%%%%%%===......$$$$$$......$$$###%%%%%%&&&=========&&&&&&===   $$$$$$......---$$$......===&&&&&&",
"%%%%%%&&&===......$$$######...$$$$$$$$$$$$$$$............$$$$$$......$$$------......===&&&&&&%%%",
"%%%%%%&&&===......$$$######...$$$$$$$$$$$$$$$............$$$$$$......$$$------......===&&&&&&%%%",
"%%%%%%&&&===......$$$######...$$$$$$$$$$$$$$$............$$$$$$......$$$------......===&&&&&&%%%",
"%%%%%%%%%======......$$$###$$$---$$$$$$$$$------$$$---$$$$$$$$$$$$$$$$$$---......======&&&&&&%%%",
"%%%%%%%%%======......$$$###$$$---$$$$$$$$$------$$$---$$$$$$$$$$$$$$$$$$---......======&&&&&&%%%",
"%%%%%%%%%======......$$$###$$$---$$$$$$$$$------$$$---$$$$$$$$$$$$$$$$$$---......======&&&&&&%%%",
"%%%%%%%%%&&&======......###$$$---$$$$$$$$$------$$$---$$$$$$$$$$$$$$$$$$......======&&&&&&%%%%%%",
"%%%%%%%%%&&&======......###$$$---$$$$$$$$$------$$$---$$$$$$$$$$$$$$$$$$......======&&&&&&%%%%%%",
"%%%%%%%%%&&&======......###$$$---$$$$$$$$$------$$$---$$$$$$$$$$$$$$$$$$......======&&&&&&%%%%%%",
"%%%%%%%%%%%%%%%&&&&&&===.........$$$$$$$$$------$$$---$$$$$$$$$$$$......======&&&&&&%%%&&&%%%%%%",
"%%%%%%%%%%%%%%%&&&&&&===.........$$$$$$$$$------$$$---$$$$$$$$$$$$......======&&&&&&%%%&&&%%%%%%",
"%%%%%%%%%%%%%%%&&&&&&===.........$$$$$$$$$------$$$---$$$$$$$$$$$$......======&&&&&&%%%&&&%%%%%%",
"%%%%%%%%%%%%%%%XXXXXX&&&&&&&&&....................................===&&&&&&&&&&&&&&&&&&&&&%%%%%%",
"%%%%%%%%%%%%%%%XXXXXX&&&&&&&&&....................................===&&&&&&&&&&&&&&&&&&&&&%%%%%%",
"%%%%%%%%%%%%%%%XXXXXX&&&&&&&&&....................................===&&&&&&&&&&&&&&&&&&&&&%%%%%%",
"%%%%%%%%%%%%%%%XXXXXXXXXXXX&&&&&&===%%%%%%======&&&&&&&&&&&&&&&===%%%%%%%%%%%%&&&%%%%%%%%%%%%%%%",
"%%%%%%%%%%%%%%%XXXXXXXXXXXX&&&&&&===%%%%%%======&&&&&&&&&&&&&&&===%%%%%%%%%%%%&&&%%%%%%%%%%%%%%%",
"%%%%%%%%%%%%%%%XXXXXXXXXXXX&&&&&&===%%%%%%======&&&&&&&&&&&&&&&===%%%%%%%%%%%%&&&%%%%%%%%%%%%%%%",
"%%%%%%%%%%%%XXXXXXXXXXXXXXX&&&&&&%%%%%%%%%&&&&&&===%%%&&&&&&%%%%%%%%%%%%%%%&&&&&&%%%%%%%%%%%%%%%",
"%%%%%%%%%%%%XXXXXXXXXXXXXXX&&&&&&%%%%%%%%%&&&&&&===%%%&&&&&&%%%%%%%%%%%%%%%&&&&&&%%%%%%%%%%%%%%%",
"%%%%%%%%%%%%XXXXXXXXXXXXXXX&&&&&&%%%%%%%%%&&&&&&===%%%&&&&&&%%%%%%%%%%%%%%%&&&&&&%%%%%%%%%%%%%%%",
"%%%XXXXXXXXXXXXXXXXXX&&&&&&&&&%%%%%%%%%%%%%%%%%%%%%&&&&&&&&&&&&%%%%%%%%%%%%&&&&&&%%%%%%%%%%%%%%%",
"%%%XXXXXXXXXXXXXXXXXX&&&&&&&&&%%%%%%%%%%%%%%%%%%%%%&&&&&&&&&&&&%%%%%%%%%%%%&&&&&&%%%%%%%%%%%%%%%",
"%%%XXXXXXXXXXXXXXXXXX&&&&&&&&&%%%%%%%%%%%%%%%%%%%%%&&&&&&&&&&&&%%%%%%%%%%%%&&&&&&%%%%%%%%%%%%%%%"
};
