/* XPM */
static char *so_long_trap31745115385[] = {
/* columns rows colors chars-per-pixel */
"96 96 9 1 ",
"  c #251917",
". c #321B18",
"X c #4D1807",
"o c #45332F",
"O c #75605C",
"+ c #921F0D",
"@ c #E46800",
"# c #FFAA41",
"$ c #B7958E",
/* pixels */
"XXXXXXXXXXXXXXXXXXXXX@@@@@@+++++++++++++++@@@@@@@@@@@@@@@@@@@@@@@@@@@@@@++++++@@@+++++++++++++++",
"XXXXXXXXXXXXXXXXXXXXX@@@@@@+++++++++++++++@@@@@@@@@@@@@@@@@@@@@@@@@@@@@@++++++@@@+++++++++++++++",
"XXXXXXXXXXXXXXXXXXXXX@@@@@@+++++++++++++++@@@@@@@@@@@@@@@@@@@@@@@@@@@@@@++++++@@@+++++++++++++++",
"XXXXXXXXXXXXXXXXXXXXXXXX@@@@@@@@@++++++@@@@@@+++++++++++++++++++++@@@@@@@@@@@@@@@+++++++++++++++",
"XXXXXXXXXXXXXXXXXXXXXXXX@@@@@@@@@++++++@@@@@@+++++++++++++++++++++@@@@@@@@@@@@@@@+++++++++++++++",
"XXXXXXXXXXXXXXXXXXXXXXXX@@@@@@@@@++++++@@@@@@+++++++++++++++++++++@@@@@@@@@@@@@@@+++++++++++++++",
"+++XXXXXXXXXXXXXXXXXX++++++@@@@@@@@@@@@@@@+++++++++++++++++++++++++++@@@@@@@@@@@@+++++++++++++++",
"+++XXXXXXXXXXXXXXXXXX++++++@@@@@@@@@@@@@@@+++++++++++++++++++++++++++@@@@@@@@@@@@+++++++++++++++",
"+++XXXXXXXXXXXXXXXXXX++++++@@@@@@@@@@@@@@@+++++++++++++++++++++++++++@@@@@@@@@@@@+++++++++++++++",
"@@@+++XXXXXXXXXXXX+++@@@@@@###@@@+++........................+++++++++++++++@@@@@@++++++@@@@@@@@@",
"@@@+++XXXXXXXXXXXX+++@@@@@@###@@@+++........................+++++++++++++++@@@@@@++++++@@@@@@@@@",
"@@@+++XXXXXXXXXXXX+++@@@@@@###@@@+++........................+++++++++++++++@@@@@@++++++@@@@@@@@@",
"@@@@@@+++++++++@@@@@@@@@###.........OOO$$$$$$$$$$$$OOOOOOOOO.........+++++++++@@@@@@@@@@@@++++++",
"@@@@@@+++++++++@@@@@@@@@###.........OOO$$$$$$$$$$$$OOOOOOOOO.........+++++++++@@@@@@@@@@@@++++++",
"@@@@@@+++++++++@@@@@@@@@###.........OOO$$$$$$$$$$$$OOOOOOOOO.........+++++++++@@@@@@@@@@@@++++++",
"@@@@@@@@@@@@@@@@@@@@@......OOO$$$$$$OOOOOOOOOOOOOOOOOOOOOOOOOOO$$$$$$......XXX++++++++++++XXXXXX",
"@@@@@@@@@@@@@@@@@@@@@......OOO$$$$$$OOOOOOOOOOOOOOOOOOOOOOOOOOO$$$$$$......XXX++++++++++++XXXXXX",
"@@@@@@@@@@@@@@@@@@@@@......OOO$$$$$$OOOOOOOOOOOOOOOOOOOOOOOOOOO$$$$$$......XXX++++++++++++XXXXXX",
"@@@@@@@@@XXXXXX@@@......OOOOOO@@@@@@@@@@@@@@@@@@@@@@@@@@@@@@@@@OOOOOOOOO$$$...++++++XXXXXX@@@@@@",
"@@@@@@@@@XXXXXX@@@......OOOOOO@@@@@@@@@@@@@@@@@@@@@@@@@@@@@@@@@OOOOOOOOO$$$...++++++XXXXXX@@@@@@",
"@@@@@@@@@XXXXXX@@@......OOOOOO@@@@@@@@@@@@@@@@@@@@@@@@@@@@@@@@@OOOOOOOOO$$$...++++++XXXXXX@@@@@@",
"XXXXXXXXXXXXXXX...OOOOOO###@@@+++++++++++++++++++++++++++++++++@@@######$$$$$$...+++XXX@@@@@@XXX",
"XXXXXXXXXXXXXXX...OOOOOO###@@@+++++++++++++++++++++++++++++++++@@@######$$$$$$...+++XXX@@@@@@XXX",
"XXXXXXXXXXXXXXX...OOOOOO###@@@+++++++++++++++++++++++++++++++++@@@######$$$$$$...+++XXX@@@@@@XXX",
"XXXXXXXXXXXX...OOOOOO@@@######+++++++++XXXXXXXXXXXXXXX+++++++++@@@++++++###$$$OOO...@@@@@@XXXXXX",
"XXXXXXXXXXXX...OOOOOO@@@######+++++++++XXXXXXXXXXXXXXX+++++++++@@@++++++###$$$OOO...@@@@@@XXXXXX",
"XXXXXXXXXXXX...OOOOOO@@@######+++++++++XXXXXXXXXXXXXXX+++++++++@@@++++++###$$$OOO...@@@@@@XXXXXX",
"XXXXXXXXX...OOOOOO@@@++++++######XXXXXXXXXXXXXXX++++++++++++@@@@@@+++++++++###OOOOOO...XXXXXXXXX",
"XXXXXXXXX...OOOOOO@@@++++++######XXXXXXXXXXXXXXX++++++++++++@@@@@@+++++++++###OOOOOO...XXXXXXXXX",
"XXXXXXXXX...OOOOOO@@@++++++######XXXXXXXXXXXXXXX++++++++++++@@@@@@+++++++++###OOOOOO...XXXXXXXXX",
"XXX@@@...OOO$$$@@@+++++++++######@@@@@@++++++++++++++++++@@@###+++++++++++++++@@@OOOOOO...XXXXXX",
"XXX@@@...OOO$$$@@@+++++++++######@@@@@@++++++++++++++++++@@@###+++++++++++++++@@@OOOOOO...XXXXXX",
"XXX@@@...OOO$$$@@@+++++++++######@@@@@@++++++++++++++++++@@@###+++++++++++++++@@@OOOOOO...XXXXXX",
"@@@@@@...$$$OOO++++++XXX++++++@@@++++++@@@@@@###@@@#########+++++++++++++++++++++@@@OOO...XXX@@@",
"@@@@@@...$$$OOO++++++XXX++++++@@@++++++@@@@@@###@@@#########+++++++++++++++++++++@@@OOO...XXX@@@",
"@@@@@@...$$$OOO++++++XXX++++++@@@++++++@@@@@@###@@@#########+++++++++++++++++++++@@@OOO...XXX@@@",
"XXX...OOO$$$@@@+++XXXXXX+++@@@@@@+++++++++++++++++++++###@@@@@@XXXXXXXXXXXX++++++++++++OOO...@@@",
"XXX...OOO$$$@@@+++XXXXXX+++@@@@@@+++++++++++++++++++++###@@@@@@XXXXXXXXXXXX++++++++++++OOO...@@@",
"XXX...OOO$$$@@@+++XXXXXX+++@@@@@@+++++++++++++++++++++###@@@@@@XXXXXXXXXXXX++++++++++++OOO...@@@",
"@@@...OOO+++++++++XXXXXXXXX@@@++++++++++++++++++++++++++++++#########@@@XXXXXX+++++++++OOO...XXX",
"@@@...OOO+++++++++XXXXXXXXX@@@++++++++++++++++++++++++++++++#########@@@XXXXXX+++++++++OOO...XXX",
"@@@...OOO+++++++++XXXXXXXXX@@@++++++++++++++++++++++++++++++#########@@@XXXXXX+++++++++OOO...XXX",
"###...OOO@@@+++XXXXXXXXXXXX@@@XXX++++++++++++++++++++++++@@@@@@+++###@@@+++XXX+++++++++OOO...XXX",
"###...OOO@@@+++XXXXXXXXXXXX@@@XXX++++++++++++++++++++++++@@@@@@+++###@@@+++XXX+++++++++OOO...XXX",
"###...OOO@@@+++XXXXXXXXXXXX@@@XXX++++++++++++++++++++++++@@@@@@+++###@@@+++XXX+++++++++OOO...XXX",
"###...OOO++++++XXX@@@######@@@XXXXXXXXX++++++++++++++++++@@@++++++++++++###++++++++++++OOO...XXX",
"###...OOO++++++XXX@@@######@@@XXXXXXXXX++++++++++++++++++@@@++++++++++++###++++++++++++OOO...XXX",
"###...OOO++++++XXX@@@######@@@XXXXXXXXX++++++++++++++++++@@@++++++++++++###++++++++++++OOO...XXX",
"###...OOO++++++XXX@@@XXXXXX###XXX+++XXXXXXXXXXXX+++++++++@@@++++++++++++######@@@++++++OOO...+++",
"###...OOO++++++XXX@@@XXXXXX###XXX+++XXXXXXXXXXXX+++++++++@@@++++++++++++######@@@++++++OOO...+++",
"###...OOO++++++XXX@@@XXXXXX###XXX+++XXXXXXXXXXXX+++++++++@@@++++++++++++######@@@++++++OOO...+++",
"@@@...oooOOO+++@@@@@@+++XXX@@@###++++++XXXXXX+++++++++@@@###@@@+++++++++######@@@@@@OOOOOO...+++",
"@@@...oooOOO+++@@@@@@+++XXX@@@###++++++XXXXXX+++++++++@@@###@@@+++++++++######@@@@@@OOOOOO...+++",
"@@@...oooOOO+++@@@@@@+++XXX@@@###++++++XXXXXX+++++++++@@@###@@@+++++++++######@@@@@@OOOOOO...+++",
"+++......ooo@@@@@@++++++XXXXXX@@@###+++++++++++++++@@@@@@@@@######@@@@@@@@@+++++++++OOO......+++",
"+++......ooo@@@@@@++++++XXXXXX@@@###+++++++++++++++@@@@@@@@@######@@@@@@@@@+++++++++OOO......+++",
"+++......ooo@@@@@@++++++XXXXXX@@@###+++++++++++++++@@@@@@@@@######@@@@@@@@@+++++++++OOO......+++",
"XXX.........OOO+++++++++XXXXXXXXXXXX@@@@@@@@@######@@@++++++++++++++++++@@@@@@+++OOO...$$$...+++",
"XXX.........OOO+++++++++XXXXXXXXXXXX@@@@@@@@@######@@@++++++++++++++++++@@@@@@+++OOO...$$$...+++",
"XXX.........OOO+++++++++XXXXXXXXXXXX@@@@@@@@@######@@@++++++++++++++++++@@@@@@+++OOO...$$$...+++",
"XXX.........oooOOO+++++++++XXXXXX+++++++++######@@@++++++++++++XXXXXXXXX+++@@@OOOOOOOOO$$$...@@@",
"XXX.........oooOOO+++++++++XXXXXX+++++++++######@@@++++++++++++XXXXXXXXX+++@@@OOOOOOOOO$$$...@@@",
"XXX.........oooOOO+++++++++XXXXXX+++++++++######@@@++++++++++++XXXXXXXXX+++@@@OOOOOOOOO$$$...@@@",
"@@@............oooOOO+++++++++++++++++++++++++++@@@+++XXXXXXXXXXXXXXX+++@@@OOO...OOOOOO......###",
"@@@............oooOOO+++++++++++++++++++++++++++@@@+++XXXXXXXXXXXXXXX+++@@@OOO...OOOOOO......###",
"@@@............oooOOO+++++++++++++++++++++++++++@@@+++XXXXXXXXXXXXXXX+++@@@OOO...OOOOOO......###",
"@@@###...............OOOOOO+++++++++++++++XXXXXX@@@XXXXXXXXXXXXXXX+++OOOOOO...OOOOOO......###@@@",
"@@@###...............OOOOOO+++++++++++++++XXXXXX@@@XXXXXXXXXXXXXXX+++OOOOOO...OOOOOO......###@@@",
"@@@###...............OOOOOO+++++++++++++++XXXXXX@@@XXXXXXXXXXXXXXX+++OOOOOO...OOOOOO......###@@@",
"++++++###......OOOOOO......OOOooo   ++++++++++++@@@@@@++++++   OOOOOO......$$$OOO......###@@@@@@",
"++++++###......OOOOOO......OOOooo   ++++++++++++@@@@@@++++++   OOOOOO......$$$OOO......###@@@@@@",
"++++++###......OOOOOO......OOOooo   ++++++++++++@@@@@@++++++   OOOOOO......$$$OOO......###@@@@@@",
"++++++@@@###......OOOoooooo...OOOOOOOOOOOOOOO............OOOOOO......OOO$$$$$$......###@@@@@@+++",
"++++++@@@###......OOOoooooo...OOOOOOOOOOOOOOO............OOOOOO......OOO$$$$$$......###@@@@@@+++",
"++++++@@@###......OOOoooooo...OOOOOOOOOOOOOOO............OOOOOO......OOO$$$$$$......###@@@@@@+++",
"+++++++++######......OOOoooOOO$$$OOOOOOOOO$$$$$$OOO$$$OOOOOOOOOOOOOOOOOO$$$......######@@@@@@+++",
"+++++++++######......OOOoooOOO$$$OOOOOOOOO$$$$$$OOO$$$OOOOOOOOOOOOOOOOOO$$$......######@@@@@@+++",
"+++++++++######......OOOoooOOO$$$OOOOOOOOO$$$$$$OOO$$$OOOOOOOOOOOOOOOOOO$$$......######@@@@@@+++",
"+++++++++@@@######......oooOOO$$$OOOOOOOOO$$$$$$OOO$$$OOOOOOOOOOOOOOOOOO......######@@@@@@++++++",
"+++++++++@@@######......oooOOO$$$OOOOOOOOO$$$$$$OOO$$$OOOOOOOOOOOOOOOOOO......######@@@@@@++++++",
"+++++++++@@@######......oooOOO$$$OOOOOOOOO$$$$$$OOO$$$OOOOOOOOOOOOOOOOOO......######@@@@@@++++++",
"+++++++++++++++@@@@@@###.........OOOOOOOOO$$$$$$OOO$$$OOOOOOOOOOOO......######@@@@@@+++@@@++++++",
"+++++++++++++++@@@@@@###.........OOOOOOOOO$$$$$$OOO$$$OOOOOOOOOOOO......######@@@@@@+++@@@++++++",
"+++++++++++++++@@@@@@###.........OOOOOOOOO$$$$$$OOO$$$OOOOOOOOOOOO......######@@@@@@+++@@@++++++",
"+++++++++++++++XXXXXX@@@@@@@@@....................................###@@@@@@@@@@@@@@@@@@@@@++++++",
"+++++++++++++++XXXXXX@@@@@@@@@....................................###@@@@@@@@@@@@@@@@@@@@@++++++",
"+++++++++++++++XXXXXX@@@@@@@@@....................................###@@@@@@@@@@@@@@@@@@@@@++++++",
"+++++++++++++++XXXXXXXXXXXX@@@@@@###++++++######@@@@@@@@@@@@@@@###++++++++++++@@@+++++++++++++++",
"+++++++++++++++XXXXXXXXXXXX@@@@@@###++++++######@@@@@@@@@@@@@@@###++++++++++++@@@+++++++++++++++",
"+++++++++++++++XXXXXXXXXXXX@@@@@@###++++++######@@@@@@@@@@@@@@@###++++++++++++@@@+++++++++++++++",
"++++++++++++XXXXXXXXXXXXXXX@@@@@@+++++++++@@@@@@###+++@@@@@@+++++++++++++++@@@@@@+++++++++++++++",
"++++++++++++XXXXXXXXXXXXXXX@@@@@@+++++++++@@@@@@###+++@@@@@@+++++++++++++++@@@@@@+++++++++++++++",
"++++++++++++XXXXXXXXXXXXXXX@@@@@@+++++++++@@@@@@###+++@@@@@@+++++++++++++++@@@@@@+++++++++++++++",
"+++XXXXXXXXXXXXXXXXXX@@@@@@@@@+++++++++++++++++++++@@@@@@@@@@@@++++++++++++@@@@@@+++++++++++++++",
"+++XXXXXXXXXXXXXXXXXX@@@@@@@@@+++++++++++++++++++++@@@@@@@@@@@@++++++++++++@@@@@@+++++++++++++++",
"+++XXXXXXXXXXXXXXXXXX@@@@@@@@@+++++++++++++++++++++@@@@@@@@@@@@++++++++++++@@@@@@+++++++++++++++"
};
