/* XPM */
static char *_1b7f0b1a1134c60c2acb7ef480f5cd6iaNLOQBjUverwIk5[] = {
/* columns rows colors chars-per-pixel */
"96 96 13 1 ",
"  c #321B18",
". c #4D1807",
"X c #481D13",
"o c #4F1F12",
"O c #65210E",
"+ c #763719",
"@ c #45332F",
"# c #75605C",
"$ c #921F0D",
"% c #E46800",
"& c #8D7470",
"* c #FFAA41",
"= c #B7958E",
/* pixels */
".....................%%%%%%$$$$$$$$$$$$$$$%%%%%%%%%%%%%%%%%%%%%%%%%%%%%%$$$$$$%%%$$$$$$$$$$$$$$$",
".....................%%%%%%$$$$$$$$$$$$$$$%%%%%%%%%%%%%%%%%%%%%%%%%%%%%%$$$$$$%%%$$$$$$$$$$$$$$$",
".....................%%%%%%$$$$$$$$$$$$$$$%%%%%%%%%%%%%%%%%%%%%%%%%%%%%%$$$$$$%%%$$$$$$$$$$$$$$$",
"........................%%%%%%%%%$$$$$$%%%%%%$$$$$$$$$$$$$$$$$$$$$%%%%%%%%%%%%%%%$$$$$$$$$$$$$$$",
"........................%%%%%%%%%$$$$$$%%%%%%$$$$$$$$$$$$$$$$$$$$$%%%%%%%%%%%%%%%$$$$$$$$$$$$$$$",
"........................%%%%%%%%%$$$$$$%%%%%%$$$$$$$$$$$$$$$$$$$$$%%%%%%%%%%%%%%%$$$$$$$$$$$$$$$",
"$$$..................$$$$$$%%%%%%%%%%%%%%%$$$$$$$$$$$$$$$$$$$$$$$$$$$%%%%%%%%%%%%$$$$$$$$$$$$$$$",
"$$$..................$$$$$$%%%%%%%%%%%%%%%$$$$$$$$$$$$$$$$$$$$$$$$$$$%%%%%%%%%%%%$$$$$$$$$$$$$$$",
"$$$..................$$$$$$%%%%%%%%%%%%%%%$$$$$$$$$$$$$$$$$$$$$$$$$$$%%%%%%%%%%%%$$$$$$$$$$$$$$$",
"%%%$$$............$$$%%%%%%***%%%$$$                        $$$$$$$$$$$$$$$%%%%%%$$$$$$%%%%%%%%%",
"%%%$$$............$$$%%%%%%***%%%$$$                        $$$$$$$$$$$$$$$%%%%%%$$$$$$%%%%%%%%%",
"%%%$$$............$$$%%%%%%***%%%$$$                        $$$$$$$$$$$$$$$%%%%%%$$$$$$%%%%%%%%%",
"%%%%%%$$$$$$$$$%%%%%%%%%***         @@@===============@@@@@@         $$$$$$$$$%%%%%%%%%%%%$$$$$$",
"%%%%%%$$$$$$$$$%%%%%%%%%***         @@@===============@@@@@@         $$$$$$$$$%%%%%%%%%%%%$$$$$$",
"%%%%%%$$$$$$$$$%%%%%%%%%***         @@@===============@@@@@@         $$$$$$$$$%%%%%%%%%%%%$$$$$$",
"%%%%%%%%%%%%%%%%%%%%%      ###======@@@###############@@@@@@@@@======      ...$$$$$$$$$$$$......",
"%%%%%%%%%%%%%%%%%%%%%      ###======@@@###############@@@@@@@@@======      ...$$$$$$$$$$$$......",
"%%%%%%%%%%%%%%%%%%%%%      ###======@@@###############@@@@@@@@@======      ...$$$$$$$$$$$$......",
"%%%%%%%%%......%%%      ###&&&&&&&&&&&&&&&============&&&&&&===@@@######===   $$$$$$......%%%%%%",
"%%%%%%%%%......%%%      ###&&&&&&&&&&&&&&&============&&&&&&===@@@######===   $$$$$$......%%%%%%",
"%%%%%%%%%......%%%      ###&&&&&&&&&&&&&&&============&&&&&&===@@@######===   $$$$$$......%%%%%%",
"...............   ######                                             ###======   $$$...%%%%%%...",
"...............   ######                                             ###======   $$$...%%%%%%...",
"...............   ######                                             ###======   $$$...%%%%%%...",
"............   ######.........OOOOOO...OOO++++++++++++............+++ooo+++===###   %%%%%%......",
"............   ######.........OOOOOO...OOO++++++++++++............+++ooo+++===###   %%%%%%......",
"............   ######.........OOOOOO...OOO++++++++++++............+++ooo+++===###   %%%%%%......",
".........   ######&&&&&&&&&&&&&&&&&&&&&&&&============&&&&&&======&&&&&&&&&&&&######   .........",
".........   ######&&&&&&&&&&&&&&&&&&&&&&&&============&&&&&&======&&&&&&&&&&&&######   .........",
".........   ######&&&&&&&&&&&&&&&&&&&&&&&&============&&&&&&======&&&&&&&&&&&&######   .........",
"...%%%   ######                                                                  ######   ......",
"...%%%   ######                                                                  ######   ......",
"...%%%   ######                                                                  ######   ......",
"%%%%%%   @@@@@@............%%%$$$$$$$$$...............$$$$$$$$$%%%%%%%%%............###   ...%%%",
"%%%%%%   @@@@@@............%%%$$$$$$$$$...............$$$$$$$$$%%%%%%%%%............###   ...%%%",
"%%%%%%   @@@@@@............%%%$$$$$$$$$...............$$$$$$$$$%%%%%%%%%............###   ...%%%",
"...   ###@@@&&&&&&&&&&&&&&&&&&&&&&&&&&&&&&============&&&&&&======&&&&&&&&&&&&&&&&&&&&&###   %%%",
"...   ###@@@&&&&&&&&&&&&&&&&&&&&&&&&&&&&&&============&&&&&&======&&&&&&&&&&&&&&&&&&&&&###   %%%",
"...   ###@@@&&&&&&&&&&&&&&&&&&&&&&&&&&&&&&============&&&&&&======&&&&&&&&&&&&&&&&&&&&&###   %%%",
"%%%   ###@@@                                                                           ###   ...",
"%%%   ###@@@                                                                           ###   ...",
"%%%   ###@@@                                                                           ###   ...",
"***   ###XXX%%%%%%$$$$$$$$$******%%%%%%$$$$$$$$$$$$$$$$$$%%%%%%$$$$$$$$$$$$$$$$$$%%%...###   ...",
"***   ###XXX%%%%%%$$$$$$$$$******%%%%%%$$$$$$$$$$$$$$$$$$%%%%%%$$$$$$$$$$$$$$$$$$%%%...###   ...",
"***   ###XXX%%%%%%$$$$$$$$$******%%%%%%$$$$$$$$$$$$$$$$$$%%%%%%$$$$$$$$$$$$$$$$$$%%%...###   ...",
"***   ###&&&&&&&&&&&&&&&&&&&&&&&&&&&&&&============&&&&&&&&&======&&&&&&&&&&&&&&&&&&&&&###   ...",
"***   ###&&&&&&&&&&&&&&&&&&&&&&&&&&&&&&============&&&&&&&&&======&&&&&&&&&&&&&&&&&&&&&###   ...",
"***   ###&&&&&&&&&&&&&&&&&&&&&&&&&&&&&&============&&&&&&&&&======&&&&&&&&&&&&&&&&&&&&&###   ...",
"***   ###                                                                              ###   $$$",
"***   ###                                                                              ###   $$$",
"***   ###                                                                              ###   $$$",
"%%%   @@@###$$$$$$.........%%%$$$$$$$$$$$$$$$$$$$$$$$$$$$$$$*********%%%......$$$$$$###      $$$",
"%%%   @@@###$$$$$$.........%%%$$$$$$$$$$$$$$$$$$$$$$$$$$$$$$*********%%%......$$$$$$###      $$$",
"%%%   @@@###$$$$$$.........%%%$$$$$$$$$$$$$$$$$$$$$$$$$$$$$$*********%%%......$$$$$$###      $$$",
"$$$      @@@&&&&&&&&&&&&&&&&&&&&&&&&===============&&&&&&&&&======&&&&&&&&&&&&&&&&&&###      $$$",
"$$$      @@@&&&&&&&&&&&&&&&&&&&&&&&&===============&&&&&&&&&======&&&&&&&&&&&&&&&&&&###      $$$",
"$$$      @@@&&&&&&&&&&&&&&&&&&&&&&&&===============&&&&&&&&&======&&&&&&&&&&&&&&&&&&###      $$$",
"...         ###                                                                  ###   ===   $$$",
"...         ###                                                                  ###   ===   $$$",
"...         ###                                                                  ###   ===   $$$",
"...         @@@###%%%......***...$$$............$$$$$$$$$%%%$$$$$$$$$$$$******###   ###===   %%%",
"...         @@@###%%%......***...$$$............$$$$$$$$$%%%$$$$$$$$$$$$******###   ###===   %%%",
"...         @@@###%%%......***...$$$............$$$$$$$$$%%%$$$$$$$$$$$$******###   ###===   %%%",
"%%%            @@@###&&&&&&&&&&&&===============&&&&&&&&&&&&======&&&&&&&&&###   ######===   ***",
"%%%            @@@###&&&&&&&&&&&&===============&&&&&&&&&&&&======&&&&&&&&&###   ######===   ***",
"%%%            @@@###&&&&&&&&&&&&===============&&&&&&&&&&&&======&&&&&&&&&###   ######===   ***",
"%%%***               ######...                                       ######   #########   ***%%%",
"%%%***               ######...                                       ######   #########   ***%%%",
"%%%***               ######...                                       ######   #########   ***%%%",
"$$$$$$***      ######         ######%%%%%%%%%******%%%$$$$$$#########@@@   #########   ***%%%%%%",
"$$$$$$***      ######         ######%%%%%%%%%******%%%$$$$$$#########@@@   #########   ***%%%%%%",
"$$$$$$***      ######         ######%%%%%%%%%******%%%$$$$$$#########@@@   #########   ***%%%%%%",
"$$$$$$%%%***   #########                  ######      ###   ######@@@======######   ***%%%%%%$$$",
"$$$$$$%%%***   #########                  ######      ###   ######@@@======######   ***%%%%%%$$$",
"$$$$$$%%%***   #########                  ######      ###   ######@@@======######   ***%%%%%%$$$",
"$$$$$$$$$******   ######      ===   ###=========@@@===############@@@======###   ******%%%%%%$$$",
"$$$$$$$$$******   ######      ===   ###=========@@@===############@@@======###   ******%%%%%%$$$",
"$$$$$$$$$******   ######      ===   ###=========@@@===############@@@======###   ******%%%%%%$$$",
"$$$$$$$$$%%%******            ===   ###=========@@@===############@@@######   ******%%%%%%$$$$$$",
"$$$$$$$$$%%%******            ===   ###=========@@@===############@@@######   ******%%%%%%$$$$$$",
"$$$$$$$$$%%%******            ===   ###=========@@@===############@@@######   ******%%%%%%$$$$$$",
"$$$$$$$$$$$$$$$%%%%%%***      ===   ###=========@@@===############         ***%%%%%%$$$%%%$$$$$$",
"$$$$$$$$$$$$$$$%%%%%%***      ===   ###=========@@@===############         ***%%%%%%$$$%%%$$$$$$",
"$$$$$$$$$$$$$$$%%%%%%***      ===   ###=========@@@===############         ***%%%%%%$$$%%%$$$$$$",
"$$$$$$$$$$$$$$$......%%%%%%         ###=========@@@===#########      ***......%%%%%%%%%%%%$$$$$$",
"$$$$$$$$$$$$$$$......%%%%%%         ###=========@@@===#########      ***......%%%%%%%%%%%%$$$$$$",
"$$$$$$$$$$$$$$$......%%%%%%         ###=========@@@===#########      ***......%%%%%%%%%%%%$$$$$$",
"$$$$$$$$$$$$$$$............%%%%%%                              %%%%%%$$$$$$$$$%%%$$$$$$$$$$$$$$$",
"$$$$$$$$$$$$$$$............%%%%%%                              %%%%%%$$$$$$$$$%%%$$$$$$$$$$$$$$$",
"$$$$$$$$$$$$$$$............%%%%%%                              %%%%%%$$$$$$$$$%%%$$$$$$$$$$$$$$$",
"$$$$$$$$$$$$...............%%%%%%$$$$$$$$$%%%%%%******%%%%%%$$$$$$$$$$$$$$$%%%%%%$$$$$$$$$$$$$$$",
"$$$$$$$$$$$$...............%%%%%%$$$$$$$$$%%%%%%******%%%%%%$$$$$$$$$$$$$$$%%%%%%$$$$$$$$$$$$$$$",
"$$$$$$$$$$$$...............%%%%%%$$$$$$$$$%%%%%%******%%%%%%$$$$$$$$$$$$$$$%%%%%%$$$$$$$$$$$$$$$",
"$$$..................%%%%%%%%%$$$$$$$$$$$$$$$$$$$$$%%%%%%%%%%%%$$$$$$$$$$$$%%%%%%$$$$$$$$$$$$$$$",
"$$$..................%%%%%%%%%$$$$$$$$$$$$$$$$$$$$$%%%%%%%%%%%%$$$$$$$$$$$$%%%%%%$$$$$$$$$$$$$$$",
"$$$..................%%%%%%%%%$$$$$$$$$$$$$$$$$$$$$%%%%%%%%%%%%$$$$$$$$$$$$%%%%%%$$$$$$$$$$$$$$$"
};
