/* XPM */
static char *_ee36cc6904747caea39250d189cd243uQkgNVA03pW1jx0A[] = {
/* columns rows colors chars-per-pixel */
"96 96 19 1 ",
"  c #123515",
". c #163517",
"X c #1B3518",
"o c #421F12",
"O c #481F11",
"+ c #653525",
"@ c #154219",
"# c #19531C",
"$ c #1F531E",
"% c #215D1B",
"& c #24631F",
"* c #286A22",
"= c #2E6B24",
"- c #2E6B2D",
"; c #407A2C",
": c #458721",
"> c #50922C",
", c #68BF3A",
"< c #92C246",
/* pixels */
"<<<<<<<<<<<<<<<<<<<<<<<<<<<<<<<<<<<<<<<<<<<<<<<<<<<<<<<<<<<<<<<<<<<<<<<<<<<<<<<<<<<<<<<<<<<<<<<<",
"<<<<<<<<<<<<<<<<<<<<<<<<<<<<<<<<<<<<<<<<<<<<<<<<<<<<<<<<<<<<<<<<<<<<<<<<<<<<<<<<<<<<<<<<<<<<<<<<",
"<<<<<<<<<<<<<<<<<<<<<<<<<<<<<<<<<<<<<<<<<<<<<<<<<<<<<<<<<<<<<<<<<<<<<<<<<<<<<<<<<<<<<<<<<<<<<<<<",
"<<<<<<<<<<<<<<<<<<<<<<<<<<<<<<<<<<<<<<<<<<<<<;;;;;;>>>>>>;;;;;;<<<<<<<<<<<<<<<<<<<<<<<<<<<<<<<<<",
"<<<<<<<<<<<<<<<<<<<<<<<<<<<<<<<<<<<<<<<<<<<<<;;;;;;>>>>>>;;;;;;<<<<<<<<<<<<<<<<<<<<<<<<<<<<<<<<<",
"<<<<<<<<<<<<<<<<<<<<<<<<<<<<<<<<<<<<<<<<<<<<<;;;;;;>>>>>>;;;;;;<<<<<<<<<<<<<<<<<<<<<<<<<<<<<<<<<",
"<<<<<<<<<<<<<<<<<<<<<<<<<<<::::::<<<<<<<<<;;;;;;>>>>>>>>>>>>>>>;;;%%%<<<<<<<<<<<<<<<<<<<<<<<<<<<",
"<<<<<<<<<<<<<<<<<<<<<<<<<<<::::::<<<<<<<<<;;;;;;>>>>>>>>>>>>>>>;;;%%%<<<<<<<<<<<<<<<<<<<<<<<<<<<",
"<<<<<<<<<<<<<<<<<<<<<<<<<<<::::::<<<<<<<<<;;;;;;>>>>>>>>>>>>>>>;;;%%%<<<<<<<<<<<<<<<<<<<<<<<<<<<",
"<<<<<<<<<<<<<<<<<<<<<:::::::::<<<<<<<<<%%%;;;;;;;;;>>>>>>>>>;;;;;;;;;%%%<<<<<<<<<<<<<<<<<<<<<<<<",
"<<<<<<<<<<<<<<<<<<<<<:::::::::<<<<<<<<<%%%;;;;;;;;;>>>>>>>>>;;;;;;;;;%%%<<<<<<<<<<<<<<<<<<<<<<<<",
"<<<<<<<<<<<<<<<<<<<<<:::::::::<<<<<<<<<%%%;;;;;;;;;>>>>>>>>>;;;;;;;;;%%%<<<<<<<<<<<<<<<<<<<<<<<<",
"<<<<<<<<<<<<<<<<<<<<<<<<<<<<<<<<<;;;;;;%%%%%%;;;;;;;;;;;;;;;;;;;;;;;;%%%<<<<<<<<<<<<<<<<<<<<<<<<",
"<<<<<<<<<<<<<<<<<<<<<<<<<<<<<<<<<;;;;;;%%%%%%;;;;;;;;;;;;;;;;;;;;;;;;%%%<<<<<<<<<<<<<<<<<<<<<<<<",
"<<<<<<<<<<<<<<<<<<<<<<<<<<<<<<<<<;;;;;;%%%%%%;;;;;;;;;;;;;;;;;;;;;;;;%%%<<<<<<<<<<<<<<<<<<<<<<<<",
"<<<<<<<<<<<<<<<<<<<<<<<<<<<<<<;;;;;;;;;;;;%%%@@@%%%%%%%%%;;;;;;;;;%%%%%%%%%<<<<<<<<<<<<<<<<<<<<<",
"<<<<<<<<<<<<<<<<<<<<<<<<<<<<<<;;;;;;;;;;;;%%%@@@%%%%%%%%%;;;;;;;;;%%%%%%%%%<<<<<<<<<<<<<<<<<<<<<",
"<<<<<<<<<<<<<<<<<<<<<<<<<<<<<<;;;;;;;;;;;;%%%@@@%%%%%%%%%;;;;;;;;;%%%%%%%%%<<<<<<<<<<<<<<<<<<<<<",
"<<<<<<<<<<<<<<<<<<<<<<<<;;;@@@%%%;;;;;;;;;@@@@@@@@@@@@@@@@@@%%%%%%%%%@@@%%%<<<<<<<<<<<<<<<<<<<<<",
"<<<<<<<<<<<<<<<<<<<<<<<<;;;@@@%%%;;;;;;;;;@@@@@@@@@@@@@@@@@@%%%%%%%%%@@@%%%<<<<<<<<<<<<<<<<<<<<<",
"<<<<<<<<<<<<<<<<<<<<<<<<;;;@@@%%%;;;;;;;;;@@@@@@@@@@@@@@@@@@%%%%%%%%%@@@%%%<<<<<<<<<<<<<<<<<<<<<",
"<<<<<<<<<<<<<<<<<<<<<;;;@@@@@@@@@%%%;;;%%%@@@@@@@@@%%%%%%@@@@@@@@@@@@@@@@@@<<<<<<<<<<<<<<<<<<<<<",
"<<<<<<<<<<<<<<<<<<<<<;;;@@@@@@@@@%%%;;;%%%@@@@@@@@@%%%%%%@@@@@@@@@@@@@@@@@@<<<<<<<<<<<<<<<<<<<<<",
"<<<<<<<<<<<<<<<<<<<<<;;;@@@@@@@@@%%%;;;%%%@@@@@@@@@%%%%%%@@@@@@@@@@@@@@@@@@<<<<<<<<<<<<<<<<<<<<<",
"<<<<<<<<<<<<<<<<<<>>>;;;@@@@@@@@@@@@%%%%%%%%%@@@%%%%%%%%%%%%@@@@@@@@@@@@@@@<<<<<<<<<<<<<<<<<<<<<",
"<<<<<<<<<<<<<<<<<<>>>;;;@@@@@@@@@@@@%%%%%%%%%@@@%%%%%%%%%%%%@@@@@@@@@@@@@@@<<<<<<<<<<<<<<<<<<<<<",
"<<<<<<<<<<<<<<<<<<>>>;;;@@@@@@@@@@@@%%%%%%%%%@@@%%%%%%%%%%%%@@@@@@@@@@@@@@@<<<<<<<<<<<<<<<<<<<<<",
"<<<<<<<<<<<<<<<;;;>>>>>>;;;;;;;;;@@@@@@%%%%%%%%%%%%%%%%%%@@@@@@@@@      %%%<<<<<<<<<<<<<<<<<<<<<",
"<<<<<<<<<<<<<<<;;;>>>>>>;;;;;;;;;@@@@@@%%%%%%%%%%%%%%%%%%@@@@@@@@@      %%%<<<<<<<<<<<<<<<<<<<<<",
"<<<<<<<<<<<<<<<;;;>>>>>>;;;;;;;;;@@@@@@%%%%%%%%%%%%%%%%%%@@@@@@@@@      %%%<<<<<<<<<<<<<<<<<<<<<",
"<<<<<<<<<<<<<<<;;;>>>>>>>>>>>>;;;@@@%%%%%%%%%%%%%%%;;;%%%@@@@@@      @@@;;;%%%<<<<<<<<<<<<<<<<<<",
"<<<<<<<<<<<<<<<;;;>>>>>>>>>>>>;;;@@@%%%%%%%%%%%%%%%;;;%%%@@@@@@      @@@;;;%%%<<<<<<<<<<<<<<<<<<",
"<<<<<<<<<<<<<<<;;;>>>>>>>>>>>>;;;@@@%%%%%%%%%%%%%%%;;;%%%@@@@@@      @@@;;;%%%<<<<<<<<<<<<<<<<<<",
"<<<<<<<<<<<<<<<%%%@@@;;;>>>>>>;;;;;;;;;%%%%%%%%%;;;;;;;;;%%%;;;;;;;;;>>>>>>%%%@@@@@@<<<<<<<<<<<<",
"<<<<<<<<<<<<<<<%%%@@@;;;>>>>>>;;;;;;;;;%%%%%%%%%;;;;;;;;;%%%;;;;;;;;;>>>>>>%%%@@@@@@<<<<<<<<<<<<",
"<<<<<<<<<<<<<<<%%%@@@;;;>>>>>>;;;;;;;;;%%%%%%%%%;;;;;;;;;%%%;;;;;;;;;>>>>>>%%%@@@@@@<<<<<<<<<<<<",
"<<<<<<<<<<<<<<<%%%%%%%%%;;;;;;;;;;;;;;;%%%%%%%%%%%%;;;;;;;;;;;;>>>>>>>>>%%%@@@@@@;;;<<<<<<<<<<<<",
"<<<<<<<<<<<<<<<%%%%%%%%%;;;;;;;;;;;;;;;%%%%%%%%%%%%;;;;;;;;;;;;>>>>>>>>>%%%@@@@@@;;;<<<<<<<<<<<<",
"<<<<<<<<<<<<<<<%%%%%%%%%;;;;;;;;;;;;;;;%%%%%%%%%%%%;;;;;;;;;;;;>>>>>>>>>%%%@@@@@@;;;<<<<<<<<<<<<",
"<<<<<<<<<<<<<<<%%%%%%%%%@@@@@@@@@;;;%%%%%%%%%%%%%%%%%%%%%;;;;;;;;;>>>>>>>>>>>>>>>;;;;;;<<<<<<<<<",
"<<<<<<<<<<<<<<<%%%%%%%%%@@@@@@@@@;;;%%%%%%%%%%%%%%%%%%%%%;;;;;;;;;>>>>>>>>>>>>>>>;;;;;;<<<<<<<<<",
"<<<<<<<<<<<<<<<%%%%%%%%%@@@@@@@@@;;;%%%%%%%%%%%%%%%%%%%%%;;;;;;;;;>>>>>>>>>>>>>>>;;;;;;<<<<<<<<<",
"<<<<<<<<<<<<@@@%%%%%%@@@   @@@@@@@@@@@@%%%%%%@@@@@@@@@%%%%%%%%%%%%>>>>>>>>>>>>>>>>>>@@@@@@<<<<<<",
"<<<<<<<<<<<<@@@%%%%%%@@@   @@@@@@@@@@@@%%%%%%@@@@@@@@@%%%%%%%%%%%%>>>>>>>>>>>>>>>>>>@@@@@@<<<<<<",
"<<<<<<<<<<<<@@@%%%%%%@@@   @@@@@@@@@@@@%%%%%%@@@@@@@@@%%%%%%%%%%%%>>>>>>>>>>>>>>>>>>@@@@@@<<<<<<",
"<<<<<<<<<;;;>>>@@@%%%%%%         @@@      @@@@@@@@@@@@@@@%%%;;;;;;;;;>>>>>>>>>>>>;;;%%%%%%<<<<<<",
"<<<<<<<<<;;;>>>@@@%%%%%%         @@@      @@@@@@@@@@@@@@@%%%;;;;;;;;;>>>>>>>>>>>>;;;%%%%%%<<<<<<",
"<<<<<<<<<;;;>>>@@@%%%%%%         @@@      @@@@@@@@@@@@@@@%%%;;;;;;;;;>>>>>>>>>>>>;;;%%%%%%<<<<<<",
"<<<<<<;;;>>>>>>>>>%%%%%%%%%%%%   %%%%%%            @@@;;;;;;;;;@@@@@@@@@@@@>>>;;;%%%%%%%%%<<<<<<",
"<<<<<<;;;>>>>>>>>>%%%%%%%%%%%%   %%%%%%            @@@;;;;;;;;;@@@@@@@@@@@@>>>;;;%%%%%%%%%<<<<<<",
"<<<<<<;;;>>>>>>>>>%%%%%%%%%%%%   %%%%%%            @@@;;;;;;;;;@@@@@@@@@@@@>>>;;;%%%%%%%%%<<<<<<",
"<<<<<<;;;;;;>>>%%%%%%%%%%%%@@@%%%%%%%%%%%%%%%%%%%%%%%%;;;;;;@@@@@@@@@@@@%%%%%%%%%%%%%%%@@@<<<<<<",
"<<<<<<;;;;;;>>>%%%%%%%%%%%%@@@%%%%%%%%%%%%%%%%%%%%%%%%;;;;;;@@@@@@@@@@@@%%%%%%%%%%%%%%%@@@<<<<<<",
"<<<<<<;;;;;;>>>%%%%%%%%%%%%@@@%%%%%%%%%%%%%%%%%%%%%%%%;;;;;;@@@@@@@@@@@@%%%%%%%%%%%%%%%@@@<<<<<<",
"<<<<<<%%%@@@%%%%%%%%%%%%@@@@@@@@@%%%%%%%%%%%%%%%%%%%%%%%%>>>>>>@@@@@@@@@@@@@@@%%%%%%%%%@@@<<<<<<",
"<<<<<<%%%@@@%%%%%%%%%%%%@@@@@@@@@%%%%%%%%%%%%%%%%%%%%%%%%>>>>>>@@@@@@@@@@@@@@@%%%%%%%%%@@@<<<<<<",
"<<<<<<%%%@@@%%%%%%%%%%%%@@@@@@@@@%%%%%%%%%%%%%%%%%%%%%%%%>>>>>>@@@@@@@@@@@@@@@%%%%%%%%%@@@<<<<<<",
"<<<<<<      @@@%%%%%%      @@@@@@@@@@@@;;;%%%%%%;;;;;;;;;>>>>>>>>>>>>>>>>>>;;;@@@@@@   <<<<<<<<<",
"<<<<<<      @@@%%%%%%      @@@@@@@@@@@@;;;%%%%%%;;;;;;;;;>>>>>>>>>>>>>>>>>>;;;@@@@@@   <<<<<<<<<",
"<<<<<<      @@@%%%%%%      @@@@@@@@@@@@;;;%%%%%%;;;;;;;;;>>>>>>>>>>>>>>>>>>;;;@@@@@@   <<<<<<<<<",
"<<<<<<<<<      @@@%%%      @@@@@@@@@@@@%%%;;;;;;;;;;;;@@@@@@;;;;;;;;;>>>@@@@@@@@@      <<<<<<<<<",
"<<<<<<<<<      @@@%%%      @@@@@@@@@@@@%%%;;;;;;;;;;;;@@@@@@;;;;;;;;;>>>@@@@@@@@@      <<<<<<<<<",
"<<<<<<<<<      @@@%%%      @@@@@@@@@@@@%%%;;;;;;;;;;;;@@@@@@;;;;;;;;;>>>@@@@@@@@@      <<<<<<<<<",
"<<<<<<<<<@@@      @@@%%%         @@@%%%%%%%%%%%%;;;@@@@@@@@@@@@@@@@@@               <<<<<<<<<<<<",
"<<<<<<<<<@@@      @@@%%%         @@@%%%%%%%%%%%%;;;@@@@@@@@@@@@@@@@@@               <<<<<<<<<<<<",
"<<<<<<<<<@@@      @@@%%%         @@@%%%%%%%%%%%%;;;@@@@@@@@@@@@@@@@@@               <<<<<<<<<<<<",
"<<<::::::<<<===      @@@@@@   @@@@@@   @@@@@@%%%         @@@@@@               <<<<<<<<<<<<<<<<<<",
"<<<::::::<<<===      @@@@@@   @@@@@@   @@@@@@%%%         @@@@@@               <<<<<<<<<<<<<<<<<<",
"<<<::::::<<<===      @@@@@@   @@@@@@   @@@@@@%%%         @@@@@@               <<<<<<<<<<<<<<<<<<",
"<<<<<<<<<***************===$$$$$$$$$$$$            @@@            =========<<<<<<<<<<<<<<<<<<<<<",
"<<<<<<<<<***************===$$$$$$$$$$$$            @@@            =========<<<<<<<<<<<<<<<<<<<<<",
"<<<<<<<<<***************===$$$$$$$$$$$$            @@@            =========<<<<<<<<<<<<<<<<<<<<<",
",,,,,,******=========$$$$$$$$$$$$$$$$$$oooooooooooo+++OOOOOOXXXXXX$$$======<<<<<<<<<<<<<<<<<<<<<",
",,,,,,******=========$$$$$$$$$$$$$$$$$$oooooooooooo+++OOOOOOXXXXXX$$$======<<<<<<<<<<<<<<<<<<<<<",
",,,,,,******=========$$$$$$$$$$$$$$$$$$oooooooooooo+++OOOOOOXXXXXX$$$======<<<<<<<<<<<<<<<<<<<<<",
",,,<<<===============$$$$$$$$$$$$XXXoooooooooooo+++OOOOOO+++XXXXXX$$$$$$===<<<::::::<<<<<<<<<,,,",
",,,<<<===============$$$$$$$$$$$$XXXoooooooooooo+++OOOOOO+++XXXXXX$$$$$$===<<<::::::<<<<<<<<<,,,",
",,,<<<===============$$$$$$$$$$$$XXXoooooooooooo+++OOOOOO+++XXXXXX$$$$$$===<<<::::::<<<<<<<<<,,,",
"<<<<<<============---$$$$$$XXXXXXXXXoooooo+++ooo+++OOOOOO++++++XXX$$$$$$===:::<<<<<<<<<<<<<<<<<<",
"<<<<<<============---$$$$$$XXXXXXXXXoooooo+++ooo+++OOOOOO++++++XXX$$$$$$===:::<<<<<<<<<<<<<<<<<<",
"<<<<<<============---$$$$$$XXXXXXXXXoooooo+++ooo+++OOOOOO++++++XXX$$$$$$===:::<<<<<<<<<<<<<<<<<<",
"<<<<<<---============$$$XXXXXXXXXooooooooo+++OOOOOOOOO+++XXXXXXXXX$$$======<<<<<<<<<<<<<<<<<<<<<",
"<<<<<<---============$$$XXXXXXXXXooooooooo+++OOOOOOOOO+++XXXXXXXXX$$$======<<<<<<<<<<<<<<<<<<<<<",
"<<<<<<---============$$$XXXXXXXXXooooooooo+++OOOOOOOOO+++XXXXXXXXX$$$======<<<<<<<<<<<<<<<<<<<<<",
"<<<<<<<<<============$$$$$$XXXXXXXXXXXXXXXOOO+++XXXXXX++++++XXX$$$---===,,,,,,,,,,,,,,,<<<<<<<<<",
"<<<<<<<<<============$$$$$$XXXXXXXXXXXXXXXOOO+++XXXXXX++++++XXX$$$---===,,,,,,,,,,,,,,,<<<<<<<<<",
"<<<<<<<<<============$$$$$$XXXXXXXXXXXXXXXOOO+++XXXXXX++++++XXX$$$---===,,,,,,,,,,,,,,,<<<<<<<<<",
"<<<<<<<<<<<<===============$$$$$$$$$$$$$$$............######$$$$$$======:::<<<<<<<<<<<<<<<<<<<<<",
"<<<<<<<<<<<<===============$$$$$$$$$$$$$$$............######$$$$$$======:::<<<<<<<<<<<<<<<<<<<<<",
"<<<<<<<<<<<<===============$$$$$$$$$$$$$$$............######$$$$$$======:::<<<<<<<<<<<<<<<<<<<<<",
"<<<<<<<<<<<<<<<<<<<<<<<<=========$$$$$$$$$###$$$$$$$$$$$$$$$$$$===&&&:::<<<<<<<<<<<<<<<<<<<<<<<<",
"<<<<<<<<<<<<<<<<<<<<<<<<=========$$$$$$$$$###$$$$$$$$$$$$$$$$$$===&&&:::<<<<<<<<<<<<<<<<<<<<<<<<",
"<<<<<<<<<<<<<<<<<<<<<<<<=========$$$$$$$$$###$$$$$$$$$$$$$$$$$$===&&&:::<<<<<<<<<<<<<<<<<<<<<<<<",
"<<<<<<<<<<<<<<<<<<<<<<<<<<<<<<=================================<<<<<<<<<<<<<<<<<<<<<<<<<<<<<<<<<",
"<<<<<<<<<<<<<<<<<<<<<<<<<<<<<<=================================<<<<<<<<<<<<<<<<<<<<<<<<<<<<<<<<<",
"<<<<<<<<<<<<<<<<<<<<<<<<<<<<<<=================================<<<<<<<<<<<<<<<<<<<<<<<<<<<<<<<<<"
};
